<svg height="660" width="600" xmlns="http://www.w3.org/2000/svg" xmlns:xlink="http://www.w3.org/1999/xlink"><pattern id="a" patternTransform="matrix(.79843474 0 0 .79843474 329.64296 362.23706)" xlink:href="#c"/><radialGradient id="b" cx="221.44487" cy="226.33101" gradientTransform="matrix(1.353218 0 0 1.348928 -77.62935 -85.74693)" gradientUnits="userSpaceOnUse" r="300"><stop offset="0" stop-color="#fff" stop-opacity=".313726"/><stop offset=".19" stop-color="#fff" stop-opacity=".25098"/><stop offset=".60000002" stop-color="#6b6b6b" stop-opacity=".12549"/><stop offset="1" stop-opacity=".12549"/></radialGradient><pattern id="c" patternTransform="translate(-744.43412 -518.4365)" xlink:href="#d"/><pattern id="d" height="147.69339" patternTransform="translate(-420.39747 88.493339)" patternUnits="userSpaceOnUse" width="145.39976"><g transform="translate(420.39747 -88.493339)"><g id="e" stroke="#000" stroke-width="5.383032" transform="matrix(.2532751 0 0 .2670604 -414.2754 86.004648)"><path d="m112.13555 266.01311c-.43674 6.51297 1.49427 12.9734 8.54801 18.41629 4.27046-4.05097 9.67423-8.96863 8.54801-18.41629-2.28105-.57026-6.04206 0-8.54801 0-2.24619 0-6.39019-.86313-8.54801 0z" fill="#fcef3c" fill-rule="evenodd" stroke="#000" stroke-width="5.383032"/><g stroke="#000" stroke-width="5.383032" transform="translate(1.197431)"><path d="m108.78797 24.753068c0 5.043771.13687 4.32167 2.44948 7.827913 1.35813 2.059116 4.44132 5.723519 7.45979 11.271439l-4.05138 2.899865c-2.33274-3.656018-5.94642-9.173148-8.20808-12.294566-3.56737-4.756492-1.80519-3.676573-6.29623-5.922092-9.516018-9.436435 7.35135-17.903598 8.64642-3.782559z" fill="#fcef3c" fill-rule="evenodd" stroke="#000" stroke-width="5.383032"/><path d="m130.27688 24.753068c0 5.043771-.13687 4.32167-2.44948 7.827913-1.35813 2.059116-4.44132 5.723519-7.45979 11.271439l4.05138 2.899865c2.33274-3.656018 5.94642-9.173148 8.20808-12.294566 3.56737-4.756492 1.80519-3.676573 6.29623-5.922092 9.51602-9.436435-7.35135-17.903598-8.64642-3.782559z" fill="#fcef3c" fill-rule="evenodd" stroke="#000" stroke-width="5.383032"/></g><path d="m130.38767 43.966091c4.18099 8.78144 10.31803 11.23535 21.58666 17.99221 5.16322 3.55419 9.51469 17.66728-4.01523 26.50779-19.82121 9.888195-34.73057 11.365871-54.458488 0-13.52992-8.84051-9.17845-22.9536-4.01523-26.50779 11.268628-6.75686 15.405668-9.21077 19.586658-17.99221 3.55374-5.052762 17.7799-4.720108 21.31563 0z" fill="#fcef3c" stroke="#000" stroke-linecap="round" stroke-linejoin="round" stroke-width="5.383032"/><path d="m133.40553 134.23297-12.67567-.26786-12.67568.26786" fill="none" stroke="#000" stroke-linecap="round" stroke-linejoin="round" stroke-width="5.383032"/><path d="m88.318841 178.59209c30.786479 13.25876 47.539699 6.24724 64.822029 0" fill="none" stroke="#000" stroke-width="5.383032"/><g stroke="#000" stroke-width="5.383032" transform="translate(-.000001)"><path d="m137.85218 146.37797c8.42276-4.50624 17.68362 24.90505 28.87992 23.60371 4.90782 0 3.00914-2.48533 3.91377 8.29411 3.27803.16052 1.46528 45.45127-.23848 51.59975-3.326 12.00284-2.58129.93464 2.35799 11.80762 3.89769 8.58003 9.80528 13.29867 13.53359 21.50589 2.6573 5.84959 7.07087 1.93246 10.533 4.98323 4.96671 4.37655.11057 17.10611-2.40665 17.65942-1.18314.26005-6.19584-12.36161-9.62664-12.36161-8.82074-7.76329-13.47229-19.68539-19.62587-30.12811-1.92851-19.11442.38826-52.9797-1.13254-61.8042-5.0409 6.10805-16.94415-29.69244-26.18809-28.09603z" fill="#fcef3c" fill-rule="evenodd" stroke="#000" stroke-width="5.383032"/><path d="m103.60753 146.37797c-8.422759-4.50624-17.683614 24.90505-28.879916 23.60371-4.907817 0-3.009144-2.48533-3.913773 8.29411-3.278026.16052-1.465279 45.45127.238481 51.59975 3.326002 12.00284 2.581297.93464-2.357992 11.80762-3.897689 8.58003-9.805274 13.29867-13.533582 21.50589-2.657305 5.84959-7.070873 1.93246-10.533003 4.98323-4.966712 4.37655-.110566 17.10611 2.406652 17.65942 1.183136.26005 6.195835-12.36161 9.626641-12.36161 8.820733-7.76329 13.472287-19.68539 19.625869-30.12811 1.928507-19.11442-.388266-52.9797 1.13254-61.8042 5.040902 6.10805 16.94415-29.69244 26.188083-28.09603z" fill="#fcef3c" fill-rule="evenodd" stroke="#000" stroke-width="5.383032"/></g><g stroke="#000" stroke-width="5.383032" transform="translate(.000002)"><path d="m143.59464 257.35558c10.30784-18.4656 19.93174-37.2951 10.54841-77.82765-1.56005-9.04915-1.47301-23.4754-9.0415-28.67335-1.16904-.80288-9.73256-10.6501-10.54842-10.6501-8.2758-4.08701-17.36323-4.64412-27.64656 0-.81586 0-9.379373 9.84722-10.548413 10.6501-7.56849 5.19795-7.48144 19.6242-9.0415 28.67335-9.38333 40.53255.24058 59.36205 10.54841 77.82765 15.711553 17.93876 30.075553 17.89227 45.729573 0z" fill="#fcef3c" fill-rule="evenodd" stroke="#000" stroke-width="5.383032"/><path d="m88.318838 178.59209c30.786482 13.25876 47.539702 6.24724 64.822032 0" fill="none" stroke="#000" stroke-width="5.383032"/><path d="m84.295599 206.97987c34.608071 13.15975 53.440891 6.20059 72.868511 0" fill="none" stroke="#000" stroke-width="5.383032"/><path d="m86.882186 233.58534c32.151134 13.22264 49.646964 6.23022 67.695344 0" fill="none" stroke="#000" stroke-width="5.383032"/><path d="m96.635771 254.33553c21.786899 13.52333 35.957849 6.3719 48.188169 0" fill="none" stroke="#000" stroke-width="5.383032"/></g><g stroke="#000" stroke-width="5.383032"><path d="m145.56352 111.16757c46.22738 42.32734 78.36178 80.45214 109.97045 132.7329 7.30076 12.23213 10.52223 29.60705 3.17096 33.67248-6.1345 3.39251-21.04893-6.02422-29.52275-9.92284-27.00637-12.42504-59.75383-32.09995-74.70278-56.73518-5.21587-8.59554-11.91635-24.14741-12.90619-33.29697-1.08988-10.07432 4.04834-13.77727 9.73063-23.85433 6.10101-10.81961-7.35425-20.76551-12.68655-31.34144 2.10553-6.53669 1.34039-9.08845 6.94623-11.25462z" fill="#fcef3c" fill-rule="evenodd" stroke="#000" stroke-width="5.383032"/><path d="m95.896196 111.16757c-46.227377 42.32734-78.361781 80.45214-109.970456 132.7329-7.300755 12.23213-10.522231 29.60705-3.170954 33.67248 6.134495 3.39251 21.0489301-6.02422 29.522744-9.92284 27.00637-12.42504 59.75383-32.09995 74.70278-56.73518 5.215877-8.59554 11.916359-24.14741 12.906191-33.29697 1.089879-10.07432-4.04834-13.77727-9.730631-23.85433-6.10101-10.81961 7.35425-20.76551 12.68655-31.34144-2.10553-6.53669-1.34039-9.08845-6.946224-11.25462z" fill="#fcef3c" fill-rule="evenodd" stroke="#000" stroke-width="5.383032"/></g><g stroke="#000" stroke-width="5.383032" transform="translate(-.000001)"><path d="m138.32847 112.13475c8.59371 2.08861 18.04253 5.12636 29.46608 5.72952 5.00743 0 3.07022 1.15193 3.99321-3.84426 3.34456-.0744 7.6168-23.847296 5.87846-26.697076-3.39351-5.56323-2.63369-.4332 2.40585-5.47275 3.9768-3.97679 7.65505-5.19953 11.45903-9.003517 2.71124-2.711243 9.56363-1.860005 13.09603-3.274008 5.06752-2.028506.11281-7.928563-2.4555-8.185019-1.20715-.120539-6.32159 5.729514-9.82203 5.729514-.29731 0-7.34088 3.649521-9.0943 4.911011-4.55495 3.277041-6.73284 6.046078-10.92991 9.053169-1.96765 8.8594-2.78908 25.086586-4.34076 29.176676-5.14321-2.83104-20.22461-.65735-29.65616-1.39727z" fill="#fcef3c" fill-rule="evenodd" stroke="#000" stroke-width="5.383032"/><path d="m103.13124 112.13475c-8.593705 2.08861-18.042525 5.12636-29.466075 5.72952-5.00743 0-3.07022 1.15193-3.99321-3.84426-3.34456-.0744-7.6168-23.847296-5.87846-26.697076 3.39351-5.56323 2.63369-.4332-2.40585-5.47275-3.9768-3.97679-7.65505-5.19953-11.45903-9.003517-2.71124-2.711243-9.56363-1.860005-13.09603-3.274008-5.06752-2.028506-.11281-7.928563 2.4555-8.185019 1.20715-.120539 6.32159 5.729514 9.82203 5.729514.29731 0 7.34088 3.649521 9.0943 4.911011 4.55495 3.277041 6.732842 6.046078 10.92991 9.053169 1.96765 8.8594 2.789084 25.086586 4.340758 29.176676 5.143216-2.83104 20.224612-.65735 29.656157-1.39727z" fill="#fcef3c" fill-rule="evenodd" stroke="#000" stroke-width="5.383032"/></g><g stroke="#000" stroke-width="5.291247" transform="matrix(1.034994 0 0 1 -4.224821 3.274008)"><path d="m137.29124 93.457449c7.86036-4.053256 14.9886-11.949832 24.01332-18.979469 3.78268-3.281115 5.09977-3.167266 2.52326-7.54624 2.47778-2.247723-3.99031-20.6904-7.05257-22.019169-3.89373-1.689557-2.27338 1.398478-1.76861-5.710617 2.42403-4.452377 1.43368-13.170806 4.20368-17.782501 2.29725-3.824646 4.5588-4.199024 6.30069-7.581782 2.49889-4.852848-5.10996-6.0632556-7.21814-4.574104-.99088.699928-.44238 6.444676-3.08666 8.738337-6.52638 6.592114-4.03871 17.995342-6.5553 25.695257 2.87181 9.139341 6.65348 16.40261 11.03462 23.379896-9.67517 4.64462-14.90435 16.260406-22.51389 21.881473z" fill="#fcef3c" fill-rule="evenodd" stroke="#000" stroke-width="5.291247"/><path d="m104.16847 93.457449c-7.860356-4.053256-14.988599-11.949832-24.013315-18.979469-3.782677-3.281115-5.099774-3.167266-2.523263-7.54624-2.477773-2.247723 3.990312-20.6904 7.052574-22.019169 3.89373-1.689557 2.273377 1.398478 1.768605-5.710617-2.424026-4.452377-1.433681-13.170806-4.203672-17.782501-2.297253-3.824646-4.558801-4.199024-6.300696-7.581782-2.498893-4.852848 5.109966-6.0632556 7.218143-4.574104.990879.699928.442382 6.444676 3.08666 8.738337 6.526382 6.592114 4.038709 17.995342 6.555294 25.695257-2.871805 9.139341-6.653473 16.40261-11.034615 23.379896 9.675169 4.64462 14.904345 16.260406 22.513885 21.881473z" fill="#fcef3c" fill-rule="evenodd" stroke="#000" stroke-width="5.291247"/></g><path d="m128.88127 148.77724c17.49108-6.17734 27.50343-25.52816 20.01105-29.58309 5.69231-2.27185 9.57847-9.73599 10.88661-15.53055.23166-12.620595-2.95797-23.146205-8.86-28.617036-16.79657-10.747558-43.67588-11.599672-60.378147 0-5.902033 5.470831-9.091662 15.996441-8.860002 28.617036 1.308135 5.79456 5.194297 13.2587 10.88661 15.53055-7.492377 4.05493 2.519964 23.40575 20.011049 29.58309 3.5511 1.31245 12.95981 2.47755 16.30283 0z" fill="#fcef3c" fill-rule="evenodd" stroke="#000" stroke-width="5.383032"/><path d="m88.318834 105.08853c30.786496 13.25876 47.539716 6.24724 64.822046 0" fill="none" stroke="#000" stroke-width="5.383032"/><g stroke="#000" stroke-width="5.383032" transform="translate(.184194)"><path d="m86.815232 76.150114c-3.878347-8.210528-.030639-13.877896 4.611877-19.054757 7.595597-8.469836 21.387721-12.715235 27.386791-3.044882 1.81121 2.919624 1.70177 6.949437 1.56989 12.260579-4.05119-2.585897-34.118638 8.502898-33.568558 9.83906z" fill="#fcef3c" fill-rule="evenodd" stroke="#000" stroke-width="5.383032"/><path d="m154.27609 76.150114c3.87835-8.210528.03064-13.877896-4.61187-19.054757-7.5956-8.469836-21.38772-12.715235-27.38679-3.044882-1.81121 2.919624-1.70177 6.949437-1.56989 12.260579 4.05119-2.585897 34.11863 8.502898 33.56855 9.83906z" fill="#fcef3c" fill-rule="evenodd" stroke="#000" stroke-width="5.383032"/></g></g><use height="1" width="1" xlink:href="#e"/><use height="1" transform="translate(71.999879 73.146696)" width="1" xlink:href="#e"/></g></pattern><g><g fill-rule="evenodd"><path d="m1.5 1.5v259.24645c0 13.5177.6689535 26.64011 1.9375 39.38992h296.5625v-298.63637z" fill="#5ab532"/><path d="m300 300.13637v358.36363s271.16412-102.98658 296.56251-358.36363z" fill="#e20909"/><path d="m300 300.13637.00001 358.36363s-270.992514-101.91806-296.56251-358.36363z" fill="#2b5df2"/><path d="m598.5 1.5v259.24645c0 13.51771-.66895 26.64011-1.93749 39.38992h-296.56251v-298.63637z" fill="#2b5df2"/><path d="m598.49999 1.5000877v259.2464523c0 13.51771-.33448 26.64011-.96875 39.38992h-148.28125v-298.6363723z" fill="#e20909"/></g><path d="m449.24999 1.5000877v298.6363723" fill="none" stroke="#000" stroke-width="2.5"/></g><g><path d="m206.034 104.36616c-5.10054-9.531246-11.57847-16.757816-16.97846-15.554706-5.4 1.20311-13.17029-14.365599-17.96873-16.771819-4.79844-2.378231-7.19066.629531-11.38754-4.78445-4.19689-5.385993-4.19689-4.812427-10.19843-7.190657-6.00153-2.378231-4.78444-6.575121-12.59066-4.210872-7.79221 2.406207-11.98909 1.20311-23.37663 10.226395-11.38754 8.98134-18.5922 11.989102-23.390631 16.773552-4.798419 4.784437-9.596864 7.8202-9.596864 7.8202s-10.798427-13.832657-15.596872-16.210887c-4.78445-2.406207-7.991112-5.312447-14.198437-1.804652-3.595322 2.406207-48.589096 36.979776-48.589096 36.979776v59.80149l233.71107-6.79689" fill="#fff" stroke="#000" stroke-linecap="round" stroke-linejoin="round" stroke-width="1.5"/><path d="m201.06392 96.459222c-4.19689-2.979785-7.51204-9.528617-12.91203-8.325507-5.4 1.20311-12.26664-13.68786-17.06508-16.09408-4.79844-2.378231-7.19066.629531-11.38754-4.78445-4.19689-5.385993-4.19689-4.812427-10.19843-7.190657-6.00153-2.378231-4.78444-6.575121-12.59066-4.210872-7.79221 2.406207-11.98909 1.20311-23.37663 10.226395-11.38754 8.98134-18.5922 11.989102-23.390631 16.773552-4.798419 4.784437-9.596864 7.8202-9.596864 7.8202s-13.925421-15.721548-18.723866-18.099779c-4.784451-2.406207-7.382747-2.198745-10.992076.179486-3.595322 2.406206-48.4361706 36.23033-48.4361706 36.23033" fill="none" stroke="#000" stroke-width=".904288"/><path d="m80.819357 90.192644s-13.298368 14.947226-17.495244 17.325456c-23.090577 7.19305-34.61173 19.12219-37.631861 21.62191-4.193592 3.47098-23.8749629 5.41874-24.3069389 12.16066" fill="none" stroke="#000" stroke-linecap="round" stroke-linejoin="round" stroke-width="1.5"/><path d="m140.17346 121.89235s4.79845-3.00778 8.99532-6.01553c4.19689-2.97979 2.99378-4.78445 8.39377-3.58134 5.4 1.20311 18.5922-2.39223 23.39064-4.79845 4.79844-2.37823 7.19066.62953 11.38754-4.78445 4.19689-5.385988 4.19689-4.812422 10.19843-7.190652 6.00153-2.378231 4.78444-6.575121 12.59066-4.210872 7.79221 2.406207 11.98909 1.20311 23.37663 10.226394 11.38754 8.98134 18.5922 11.9891 23.39063 16.77355 4.79842 4.78444 9.59687 7.8202 9.59687 7.8202 9.14502 9.498 27.79901 14.06446 27.79901 14.06446l.6135 26.38178-183.73918 1.5226" fill="#fff" stroke="#000" stroke-linecap="round" stroke-linejoin="round" stroke-width="1.5"/><path d="m59.977883 169.34947c9.065624.37163 25.4748-10.63502 26.559768-9.9089 2.694327.86424 19.192409-17.91866 27.349179-18.12925 8.15676-.21059 19.52611-12.84861 24.90512-12.20031 4.94454.59594 9.76853 4.89917 14.53018 3.69872 4.19689-2.97979 2.99378-4.78445 8.39377-3.58134 5.4 1.20311 11.24396-5.58712 16.0424-7.99334 4.79844-2.37823 10.38555-13.10849 14.58243-18.52247 4.19689-5.385988 4.19689-4.812422 10.19843-7.190652 6.00153-2.378231 4.78444-6.575121 12.59066-4.210872 7.79221 2.406207 11.98909 1.20311 23.37663 10.226394 11.38754 8.98134 18.5922 11.9891 23.39063 16.77355 4.79842 4.78444 9.59687 7.8202 9.59687 7.8202" fill="none" stroke="#000" stroke-linecap="round" stroke-linejoin="round" stroke-width="1.5"/><path d="m67.288362 37.214593-6.936042 33.817168" fill="none" stroke="#000" stroke-linecap="round" stroke-linejoin="round" stroke-width="1.5"/><path d="m63.234597 32.701595-4.250416 34.25848" fill="none" stroke="#000" stroke-linecap="round" stroke-linejoin="round" stroke-width="1.5"/><path d="m58.271894 27.177524-1.554217 42.143842" fill="none" stroke="#000" stroke-linecap="round" stroke-linejoin="round" stroke-width="1.5"/><path d="m53.383765 33.037208 1.444658 34.490904" fill="none" stroke="#000" stroke-linecap="round" stroke-linejoin="round" stroke-width="1.5"/><path d="m47.272156 36.220502 5.986844 33.998046" fill="none" stroke="#000" stroke-linecap="round" stroke-linejoin="round" stroke-width="1.5"/><path d="m45.747324 76.375578s-4.196488 6.434501-2.42866 7.393234c1.689924.916485 6.202659-8.649036 6.849941-7.506959.645816 1.139492-3.135972 10.21263-.01598 10.16684 2.772291-.04221 1.920258-10.166071 3.501647-10.391984s2.813256 10.932639 4.744167 10.391984c2.117931-.593021 1.21428-10.250789 3.275734-10.504941 1.082899-.133508 2.084591 10.724695 5.07501 9.628665 1.447635-.530579-2.673789-8.625008-.669712-9.515709" fill="none" stroke="#000" stroke-width="1.5"/><path d="m300 658.5s114.19943-41.59585 211.42652-155.43174c66.82389-83.56436 77.71138-146.14874 85.13599-202.93189h-296.56251z" fill="url(#a)" fill-rule="evenodd"/><g stroke-width=".982599" transform="matrix(.74521404 0 0 .74522108 -225.98637 -48.725146)"><path d="m925.37569 102.14297c-5.54854.67571.20536 7.02265-4.48679 7.07719-10.51978-1.95379-21.30559-.23091-31.62603 1.83952-3.71064.58148-10.42318-.71338-13.38897-1.09651 2.41104 5.00731 7.7506 5.51215 13.21308 8.17139-2.69271.99235-15.44843 5.00411-12.14244 5.18136 9.66099 1.2719 28.28423-3.71614 41.89026-2.86017 3.59115 3.34742-4.25926 5.14062-1.82615 8.17902.11346 3.76049-3.63489 4.31802-5.7567 1.89262-2.88534 2.48099-11.37104.3696-10.20376 5.77339 1.62837 2.63339-1.66156 7.07921 2.39219 6.01997 2.44926 1.895 5.09271-.78055 8.22954.47068 2.525-.077-4.93595 7.96522-2.94733 12.33855-6.13337 6.13331-30.41228 11.50695-42.77923 17.72322-5.06823.37131-4.41476 3.97979-1.97257 5.38978 1.64257 5.29379-4.97235 9.28741-6.75396 13.7893-6.7882 11.36539-11.05201 23.53389-11.7994 36.84632-1.81031 13.95911 2.11793 32.83465 9.02835 44.61878 3.07245-6.53643 9.09884-13.72639 16.47122-12.6084 2.99792 3.90431-5.50386 23.82977-6.77545 24.62217-11.81309-3.16528-29.95558-24.44998-30.6364-34.51293-.18022-2.69005 3.54252-2.44303 2.3189-5.46389-.6875-2.92175 1.64946-9.46263-.7026-10.90444-3.08295-1.63312-8.00535-.50345-11.57653-1.19562-4.87694-.19002-10.52344 3.67889-6.60188-3.62363 1.95606-3.34882-.60837-12.00823 3.10456-10.2602 2.83587 1.53234 6.93315 6.08165 8.563 7.08297.11835-12.51049 4.15408-29.66306 9.40004-41.1802 1.77066-.90233 3.32396-.21153 2.74256-2.79332 2.38172-8.85364 10.18991-14.95302 16.02492-21.66303 6.76262-7.67437 15.97662-12.54787 25.00551-17.07264 1.65987-1.95921-1.50618-2.98734-2.41029-3.56173-2.91428-.85009-6.73151.26612-8.3499 2.45691-11.9722 3.71118-22.42993 5.69492-34.48496 9.14783 3.39552-11.96419 5.15395-21.48594 9.27698-33.21015 3.74152-2.21818 5.11397-8.08346-.27639-8.50879-9.71472-.33555.80343 9.31762-4.35614 8.45243-13.93209.56328-29.58323 8.46423-43.57452 4.83468 1.76503 4.56523 5.73956 6.18874 12.44233 8.00033-5.64759 1.59666-12.52771 3.21415-18.45367 2.3518 6.04406 8.62054 18.49263 4.91391 25.88677 2.81069 5.96896-1.44415 13.13386-2.79564 19.18317-3.4026 3.48967 2.80948-2.75836 4.62853-1.19033 7.3811-1.75126 4.50412-.60346 9.53951-3.4462 12.89269-7.694 1.3485-15.15659 5.87973-22.93279 6.02979-2.87099-.83346-7.89328 3.60599-9.36783 6.11769 3.01325 6.34121-4.51691 11.38684-5.39148 17.3164-5.37191 12.66355-6.35129 26.88961-2.17589 39.98633-2.25975 1.53683 3.20338 7.71239 3.02932 4.87978 1.84205-4.71306 7.73615-11.6826 18.36681-12.37392-.57057 5.91081-3.24993 9.23405-3.3301 13.37932.0285 6.16683-2.96608 5.24336-8.01755 4.9051-1.96565.42004-6.72328-1.36772-5.32619 1.90698.36339 3.64046-.15071 9.64411-.10536 13.29567 7.07942-2.16512 4.25426 4.62855 5.01246 8.96996-.56483 6.89385 4.82333 13.13884 1.53663 19.71093-3.98368 4.40188-7.70727-1.74825-11.64475-3.39283-6.36194-4.64371-13.14072-5.82084-20.31543-8.40584-7.24711-2.43415-16.86302-9.28232-23.44299-9.29938-1.54058 2.47474-1.15154 2.15333 9.49779 7.23699 4.97202 2.49612 6.66132 3.00446 11.64265 5.4819-5.8502 1.09865-7.68143 7.24116-5.32101 11.16495 11.49602-.98313 21.67766 5.78088 28.93888 14.15181 15.38199 16.29663 31.08001 32.10461 51.82702 41.67004 35.87219 20.35856 83.20845 19.95012 119.33448.19841 3.1274-2.02394 9.50434-4.26456 10.1041 1.4088 1.52387 3.80459 2.64373 10.18504 6.66797 11.4043 15.94727-2.04622 31.77898-4.6498 47.67968-7.04688 5.6942-5.1202 3.6175-20.28545-2.505-27.85157-4.2812-7.17863-9.9674-11.80654-17.6095-14.57459 10.7241-13.80395 19.6826-25.04814 25.9025-42.77207 2.6075-.59944 9.2576 1.27881 7.0537-3.48072.094-3.13072-2.785-6.61047-.9532-8.84548 2.1528-1.6793 7.1389-.30555 5.3684-5.00486-.4108-6.76214-1.0008-12.87471 3.4484-18.43664 9.0519-13.36675 16.2723-29.63276 24.78-43.91479-1.9608-7.24795-7.6768-3.36092-5.831.87291-3.9274 3.1249-4.3282 8.16024-9.3295 5.80358-10.2041-1.7258-21.4765-3.48372-31.6815-5.2053-4.3705 7.89598-9.4291 17.51085-13.702 25.46041 11.6506 1.50549 20.9462 3.79983 36.9942 2.78506-3.5326 6.80818-7.5164 13.103-11.1826 19.45312-1.1894 6.23705-7.9265 2.96382-12.5869 3.25052l-22.3828.60561-3.2785 9.21707c-.96985 4.00738-1.40643 8.28138-4.81798 11.06792-1.40028 2.29125-3.59498 5.45292-5.48554 5.14795 1.1614 1.4038 4.85074.41524 4.18808 3.7189-2.01117 6.35552-9.60671 9.81886-13.82811 13.87723-7.40298 4.9235-14.87002 8.85688-23.23497 11.70033-5.15386.33312-.008-4.7573.42667-7.82607 2.69191-9.58 5.34451-18.09678 8.03391-27.09488 1.14343 4.24911 5.03664-.28834 8.25109.69542 4.88604.0772 11.62193 1.21899 15.7178 4.0464-5.50397-15.29417-6.8203-34.68376.27755-49.85526.53573-3.28561.59541-7.57636 2.70899-9.68004 4.65305-11.59332 12.06781-22.36887 19.20491-33.02022 6.1495-7.71098 12.7692-17.58004 22.9103-19.98669 3.2097-2.03731.5436-6.18197-3.1035-3.55559-2.5828-1.18818-4.9266 1.32599-8.0077 1.26191-9.1726 2.56676-16.0141 6.19947-25.4468 7.47878-3.93928.16136.035-4.16055.21435-6.69967 1.64165-5.22992 2.01225-11.54234 4.65575-15.83985.4606-6.05305 3.2299-12.02535 5.5284-17.3789-2.8529-6.93144-10.50544-1.57351-6.8095 2.39062.9731 5.69238-4.6971 2.44522-7.98215 2.19298-12.43446-1.84364-27.33098 5.1641-39.64787 1.12792 2.73255 5.57622 8.03784 5.87598 14.26333 8.16823-5.01996 1.43172-7.83313 3.16518-12.86129 4.56788 11.3669 4.04027 26.47299-5.15186 41.41709-1.58947 2.5603 1.38447 1.49092 3.4016.0963 4.54223-3.15033 8.34756-5.14695 12.64821-5.64094 17.92383-.9857 6.78072-7.97169 4.84494-12.83098 7.19151-7.46105 1.69995-14.76614 6.47658-22.4281 6.67127-2.73588-1.71787-6.8647 2.74527-9.68984 3.95715-3.76898 2.09151-3.07813 7.02517.87127 6.93124 2.40467 1.74515-2.26006 6.17644-3.32154 9.18437-9.60413 15.8948-13.90389 31.15057-13.65977 52.54942-.74309 15.90802.82983 32.48657 12.07707 49.61498 1.70904-7.04573 3.71775-19.90972 10.87248-23.6535 4.8828-2.81906-5.39181 26.02274-6.4059 27.47284-2.63351 3.55751-8.67952 4.314-13.1582 3.91163-4.32113 2.84471-11.18943 1.5336-16.5952 2.25253-16.42457.71834-30.54123-1.43622-46.70494-5.19515 3.42579-8.79198 4.96808-17.17502 7.57944-25.75548 2.39653-2.18523 6.25408 2.63367 8.63476 1.18359 7.65264 2.87343 13.02161 7.88124 18.64827 8.33055 8.27166 3.98296 19.23837 11.64234 26.80273 17.46586-4.82661-11.23329-10.09876-27.45833-13.24201-39.18899 1.95686-2.69617-.64778-3.77629-.2739-6.83984-3.0099-33.6853 5.74367-70.75447 32.35706-97.49422 3.73538-1.63033-2.93044-4.4511-3.85889-2.29217-10.9023 4.27987-20.46684 7.98905-31.7492 11.11295-4.47049 1.00063-3.1145-2.57297-1.1847-5.32986.96732-5.73579 1.52977-7.83328 7.03189-3.57822 2.28638.99093 6.68099 1.38579 7.22491-2.3677 1.0809-2.51529 2.19208-7.11172-2.17608-7.9339-3.18551-1.28-7.48577-.68999-6.21866-5.58758 2.33087-7.56483 4.09654-14.74909 8.39602-21.83113 1.67375-1.57812-1.38953-5.92013-3.45209-5.64904zm-181.43233 149.9129c-5.28724-.4152-2.92021 7.08952 1.38086 6.32897 1.47092-.17121 5.66494 1.11431 2.60112-1.78945-1.23988-1.10731-1.94512-4.76454-3.98198-4.53952z" fill="#fff"/><path d="m922.24769 102.31998c-1.00807 1.07979-1.4401 2.30355-1.22408 3.67128l.28802 1.94362-3.67227-.5039c-6.26444-.93582-14.83306-.5039-20.88149 1.15177-7.05651 1.87163-12.31288 1.94362-18.64934.14397-2.66419-.71986-4.82434-1.0078-4.82434-.64787 0 1.22376 2.01614 4.5351 3.81627 6.19078.93607.93581 3.31224 2.23156 5.18437 2.95142l3.52825 1.36773-4.32031 1.22375c-2.30416.64788-5.32838 1.36773-6.62447 1.58369-3.52825.57589-3.38424 1.29575.64804 2.66348 5.18438 1.65567 8.78464 1.43971 20.23346-1.07979 7.77655-1.72766 11.30481-2.15957 15.69712-1.94362 3.09622.072 5.90442.5039 6.26445.86383.28802.28795-1.3681 2.30355-3.74427 4.46312-3.16823 2.87943-4.89635 3.88724-6.48047 3.88724-1.15207 0-3.38424.21595-4.82434.43191l-2.7362.5039v4.10319 4.17518l-16.41717 15.40496c-9.00065 8.49432-17.71327 16.34078-19.44139 17.34858-2.44818 1.58369-3.02422 2.37553-3.02422 4.10319 0 1.36773.50403 2.37553 1.4401 2.87943 1.29609.71986 1.15209 1.07979-2.66419 6.33475-4.75234 6.62269-6.76848 10.50993-10.36874 19.58014l-2.66419 6.83865-1.51211-5.03901c-2.01614-6.83865-2.95221-13.1734-2.95221-20.44397 0-5.97482 0-6.0468 3.16822-10.43793 9.64869-13.38936 23.47369-25.84291 32.25832-28.9383 3.81627-1.29574 5.6164-2.95141 5.6164-5.039 0-2.01561-2.23216-3.38334-4.60833-2.73546-1.2961.28794-34.77849-5.75887-35.49854-6.47873-.14402-.072.64804-3.23936 1.65611-6.98262 1.15209-4.31915 2.52018-7.41454 3.60026-8.63829 2.16016-2.30355 2.23216-4.96702.072-6.98263-3.60026-3.38333-9.00065-.28794-8.13659 4.60709l.43203 2.23156-5.97642.86383c-3.24023.43192-9.36067 1.79965-13.46497 3.02341-9.00064 2.66347-17.28124 3.09539-21.88957 1.15177-3.52825-1.5117-3.31223-1.58369-3.31223.86383 0 2.73546 2.44817 5.68688 6.04843 7.34255l2.88021 1.29575-2.01615.5039c-1.08008.21595-4.53632.28794-7.70455.14397-3.09622-.21596-5.68841-.072-5.68841.21596 0 1.29574 4.75234 5.97482 6.9845 6.83865 4.82435 2.0156 15.62512.71985 27.14595-3.23936 4.82434-1.72766 12.24087-2.08759 11.80884-.64788-.21601.5039-7.77655 6.33475-16.8492 12.88546-9.07266 6.6227-17.35325 12.81348-18.43333 13.82128-2.23215 2.0156-2.59218 4.24716-1.00807 5.68687.86407.79185.79206 1.22376-.43203 2.87944-4.68033 6.62269-10.65676 24.18722-10.65676 31.31382 0 3.0234-.36002 3.59929-6.33645 10.14999-12.02486 13.17341-26.4979 31.31383-30.6742 38.44043l-1.94414 3.31134-1.72813-1.72766c-2.08814-2.08759-4.89635-2.23156-6.84049-.28794-3.16822 3.16737-.72005 7.91844 3.96029 7.91844 1.65612 0 5.6884 1.58369 11.95285 4.67907l9.36067 4.75106-2.16015 2.51951c-5.18437 5.83085-2.88021 11.22979 4.2483 10.00603 6.40847-1.07979 16.27317 4.89503 26.4259 16.05283 16.12915 17.63652 25.0578 25.55496 38.01872 33.54538 3.60026 2.23156 6.84049 4.24716 7.20052 4.60709 1.51211 1.22376 17.56926 8.71029 22.53761 10.50993 22.46561 8.06241 47.30739 9.57411 70.63706 4.31915 10.80078-2.44752 18.72135-5.25497 29.09009-10.43794 5.76041-2.95142 8.56861-3.95922 8.71262-3.38333.21602.5039.86406 2.59148 1.51211 4.60709 1.22409 3.95921 4.82435 10.00602 6.33645 10.58191.50404.14397 12.02486-1.43972 25.70588-3.52731 13.681-2.08758 25.0578-3.81525 25.3458-3.88723 1.3681-.072 3.0242-7.91844 3.0242-14.03723 0-6.26277-.144-6.69468-3.1682-12.52553-3.8883-7.41454-9.5767-13.46135-15.3371-16.26879-3.7443-1.79965-4.0323-2.08759-3.2402-3.31135.504-.71985 3.0242-4.17518 5.5443-7.63049 5.4724-7.6305 13.753-21.37978 16.6332-27.85851l2.1602-4.75106h3.9603c3.7442 0 3.9603-.072 3.6002-1.65567-.504-2.37554-1.8001-10.00603-1.8001-10.72589 0-.28794 1.3681-.57588 3.0242-.57588h2.9522l-.432-7.6305-.432-7.70248 12.6729-24.18723c6.9845-13.31737 13.3929-24.97907 14.329-26.05886 2.9522-3.09539 1.8721-6.83865-2.3042-8.13439-2.3041-.71986-5.3283 2.0156-5.3283 4.75106 0 1.22376-.7201 3.31134-1.5121 4.67908-1.2962 2.0156-1.8722 2.37553-3.4563 2.08759-7.4165-1.58369-33.4104-5.54291-34.1304-5.25497-.9361.35993-15.6252 26.41879-15.6252 27.78652 0 .43192 1.0801.79184 2.3762.79184 1.2241 0 8.7846.5039 16.7052 1.07979s15.2651 1.07979 16.3452 1.07979c1.8721 0 1.8721.072-3.8883 10.07801l-5.8324 10.07801h-16.7052c-16.7052 0-16.7772 0-17.1372 1.58369-.2881.86383-.5761 1.43972-.7921 1.22376-.648-.57589-4.68035-21.45177-5.76042-29.80212l-1.08008-7.91844 4.2483-8.71028c8.6406-17.85248 24.7698-38.29645 30.9622-39.44822 4.1763-.71986 7.2005-2.95142 7.2005-5.32695 0-2.44752-1.152-3.74326-3.3842-3.74326-1.6561 0-28.082-10.36596-29.2341-11.44574-.72-.71986 2.6642-12.52553 4.1763-14.68511 1.5121-2.23156 1.3681-4.31915-.576-6.11879-2.1602-2.0156-4.8964-2.0156-6.8405.072-1.65615 1.72766-2.16018 5.111-.8641 5.90284 1.6561 1.0078.5041 1.58369-1.94413 1.0078-4.89636-1.15177-15.98515-.79184-22.17759.79185-7.27252 1.79964-14.11301 1.79964-19.72942.072-2.44817-.71986-4.39231-1.22376-4.39231-1.07979 0 .21596.43203 1.36773 1.00807 2.66348 1.4401 3.38333 4.60833 5.97482 8.64062 7.12659l3.45625 1.0078-5.25638 1.51171c-2.95221.86383-6.26444 1.79964-7.48853 2.0156l-2.16016.57588 2.52018 1.07979c4.75234 2.08759 11.23281 1.94362 22.17759-.5039 9.57669-2.08759 16.41718-2.66347 20.16144-1.65567 1.44011.43191-1.4401 2.87943-20.52146 17.49255-12.24088 9.35815-23.83371 18.06843-25.77785 19.36418-4.46432 2.95141-6.04844 4.89503-6.12044 7.27056 0 1.94362 1.94414 4.24717 3.52825 4.24717.57604 0 .36003.71985-.57604 2.0156-1.87213 2.66347-7.99257 14.82907-7.99257 15.90886 0 .43192-.28802.79184-.64805.79184-1.15208 0-3.52825-6.76666-4.39231-12.38156l-.79206-5.61489 3.67226-6.19078c3.96029-6.76666 11.30481-16.48474 15.40911-20.37198 3.09622-3.0234 3.31224-4.82305.64804-5.97482-2.73619-1.15177-26.92992-17.99645-27.36196-18.93226-.43203-1.29575 3.09623-11.58972 4.75235-13.74929 1.87213-2.44752 1.94413-4.89504.072-6.76667-1.94414-1.94361-5.32838-1.87163-7.20052.14397zm5.76042 1.65568c1.3681 1.65567.21601 4.10319-1.94414 3.81525-2.44818-.28795-3.67226-2.23156-2.44818-3.74327 1.22409-1.43971 3.24023-1.5117 4.39232-.072zm79.20569 2.15957c1.0081 1.22376.36 3.67128-1.1521 4.24716-1.5841.57589-3.8883-.79184-3.8883-2.30354 0-2.73546 3.3123-4.03121 5.0404-1.94362zm-87.27027 4.10319c2.44818.43192 4.60833 1.0078 4.82435 1.29575.144.28794-.36003 2.5195-1.15209 4.96702-1.22408 3.59929-1.72812 4.39113-2.7362 3.95922-.64804-.28795-3.09622-.93582-5.47238-1.43972-4.96836-1.15177-9.79271-.64787-22.3216 2.23156-4.32032.93582-9.21667 1.79965-10.80078 1.72766l-2.8802-.072 2.16015-.71985c7.12851-2.37554 9.7207-3.67128 9.7207-4.96702 0-1.15178-.57604-1.36773-3.38425-1.36773-3.81627 0-8.56861-1.87164-10.29673-3.95922-1.00808-1.22376-.93607-1.29575.36002-.79185 3.16823 1.29575 12.88892 1.36773 17.64127.072 8.64061-2.30355 14.90506-2.59149 24.33774-.93582zm-72.29318 2.15958c.93607 1.5117-.14401 3.67127-1.87214 4.0312-1.15208.21596-3.45624-1.65567-3.45624-2.73546s2.30416-2.95142 3.45624-2.73546c.57605.14397 1.44011.79184 1.87214 1.43972zm151.35484 1.36773c2.30421.5039 4.53631 1.07978 4.82431 1.36773.6481.57588-1.5121 9.35815-2.3041 9.35815-.216 0-2.01617-.5039-3.96031-1.07979-5.32838-1.65567-11.80884-1.29574-22.53761 1.07979-5.25638 1.15177-11.01679 2.15958-12.67291 2.08759h-3.02422l4.32031-1.65567c6.76849-2.59149 6.91249-2.73546 6.69648-3.95922-.14401-.79185-1.3681-1.29575-4.1763-1.58369-3.96028-.43192-8.13658-2.08759-9.00064-3.59929-.36003-.5039.50403-.57589 2.95221-.14397 5.11236.79184 10.72877.43191 16.8492-1.15177 6.19245-1.58369 15.69713-1.94362 22.03358-.71986zm-155.24312 6.76666c0 .21596-.64805 3.09539-1.51211 6.40674l-1.51211 5.97482-6.19244-.35993c-5.54439-.28794-7.05651-.072-13.10494 1.87163-13.10494 4.17518-21.38553 4.82305-25.70584 1.87163l-2.01615-1.36773 5.76042-.43191c3.16823-.21596 7.48854-.93582 9.64869-1.65568l3.96028-1.36773-5.90442-1.87163c-5.25637-1.72766-8.92864-3.81524-7.99257-4.60709.14401-.14397 2.59218.072 5.32838.43192 5.47239.79184 7.34453.5039 21.60155-3.38334 5.90442-1.65567 17.64126-2.59148 17.64126-1.5117zm77.54956 3.52731c-.21602.57588-.79206 2.30354-1.29609 3.95922-.50404 1.65567-1.2961 2.95141-1.80014 2.95141-.93606 0-.72005-.79184 1.51212-7.0546.144-.43192.64804-.86383 1.15207-.86383.43204 0 .64805.43191.43204 1.0078zm13.68098 9.14219c6.26444 4.31915 11.44882 8.20638 11.59283 8.49433.21601.57588-18.57733 7.48652-19.08137 6.98262-.14401-.14397.93607-2.73546 2.44818-5.83085l2.73619-5.54291-1.65612-1.29574c-.86406-.71986-3.16823-1.87163-5.04036-2.59149-1.87213-.64787-3.67226-1.5117-3.96028-1.72766-.50404-.43191.79205-6.47872 1.3681-6.47872.144 0 5.32838 3.59929 11.59283 7.99042zm65.74069-5.5429c0 .57588-.648 3.0234-1.36808 5.5429-.79206 2.51951-2.08815 6.91064-2.88021 9.71809-1.15208 3.88723-1.87213 5.25496-3.02421 5.5429-1.00807.28795-1.3681.072-1.15209-.5039.21602-.5039 1.72813-5.25496 3.38425-10.58191 1.65611-5.32695 3.16822-9.86205 3.38424-10.22198.50403-.86383 1.6561-.57589 1.6561.5039zm26.6419 9.86205c0 .43192-28.87404 9.50213-29.23407 9.07021-.21602-.21596 3.96027-15.33297 5.04037-18.28439.288-.57589 4.1763.64787 12.2409 3.95922 6.5524 2.66347 11.9528 4.96702 11.9528 5.25496zm-112.04-7.70248c-.21602.64787-.72005.93582-1.15209.71986-.36002-.21596-.28802-.86383.21602-1.43972 1.08008-1.29574 1.58412-.93581.93607.71986zm77.40555 9.50213c-1.58412 5.11099-3.31224 9.64609-3.74427 10.07801-.79206.71986-8.71263 3.23936-25.56183 8.27836-3.74427 1.07979-6.55248 1.79965-6.33646 1.58369.93607-.93581 38.23474-29.51418 38.37875-29.3702.14401 0-1.15208 4.24716-2.73619 9.43014zm-82.73393-2.95142c-.57604 5.32695-1.44011 5.83085-1.44011.86383 0-3.16738-.21601-4.10319-1.08008-4.10319-.79205 0-.69057.878-.83458 3.97339l-.53351 4.30497-.86518-2.43111c-.21602-1.94361.001-5.12739-.43092-5.6313-.57604-.71985-.072-.93581 2.44818-.93581h3.16823zm3.81627-3.45532c.14401.35993-.14401 2.5195-.57604 4.89503l-.86406 4.31915-.28802-4.89503c-.21602-3.38333-.072-4.82305.57604-4.82305.43203 0 .93606.21596 1.15208.5039zm-10.29674 4.53511c0 2.37553-.28802 4.31914-.72005 4.31914s-.72005-1.94361-.72005-4.31914c0-2.37554.28802-4.31915.72005-4.31915s.72005 1.94361.72005 4.31915zm14.54505-3.09539c-.43204.71985-.93607 2.66347-1.22409 4.31914-.28802 1.72766-.79206 3.09539-1.22409 3.09539s-.57604-.86383-.28802-2.23156c.21601-1.22375.43203-3.16737.43203-4.31914 0-1.58369.36003-2.08759 1.4401-2.08759 1.22409 0 1.3681.28794.86407 1.22376zm8.35259 1.65567c1.65612.71986 3.02422 1.72766 3.02422 2.15957 0 .43192-.86406 2.44752-1.87214 4.46312-1.22408 2.44752-2.08814 3.38334-2.59218 2.87944-.43203-.43192-.21601-1.65568.79206-3.59929.86406-1.65568 1.5121-3.45532 1.5121-4.1032 0-2.15957-1.5121-1.0078-3.02421 2.30355-2.01615 4.24716-1.94414 4.10319-2.37617 3.67127-.21602-.21595.14401-1.72765.72005-3.45531 1.29609-3.74326 1.3681-5.03901.14401-5.03901-.50404 0-1.58412 1.87163-2.30417 4.10319-1.5121 4.60709-2.30416 3.74326-1.15208-1.22376.36003-1.72766.50404-3.45531.28802-3.81524-.57604-.93582 2.88021-.072 6.84049 1.65567zm-86.98223.57589c0 2.37553-3.52825 14.03723-4.46432 14.61311-1.4401.93582-1.51211.28795-.28802-3.95921.64805-2.23156 1.65612-5.83086 2.30417-7.99043 1.08007-3.81525 2.44817-5.32695 2.44817-2.66347zm16.92122 1.22375c7.1285 1.43972 13.46496 2.73546 14.041 3.02341.57604.21596-6.19244 2.37553-15.12108 4.89503-8.92864 2.44752-16.34517 4.39114-16.48919 4.24716-.144-.14397.21602-2.08758.86407-4.39113s1.5121-5.54291 1.94414-7.27056c.43203-1.65568 1.00807-3.02341 1.29609-3.02341s6.33645 1.15177 13.46497 2.5195zm178.93282 2.08759c0 1.5117-1.6561 2.59149-6.2645 3.95922-2.3041.71986-13.897 4.75107-25.7778 8.99823-11.88085 4.24716-28.37004 10.15-36.65063 13.10141-11.30481 4.03121-15.76913 5.32695-18.00129 5.18298-2.16015-.14397-3.02422-.57589-3.16822-1.5117-.50404-2.59149 2.73619-4.75107 10.94478-7.34255 34.56247-10.94184 75.31736-23.3234 76.97356-23.3234 1.152-.072 1.9441.28794 1.9441.93581zm-202.47851 5.97482c-.79206 3.09539-1.72813 5.83085-1.94414 6.1188-.43203.5039-6.69648 2.37553-18.36132 5.54291-1.58411.43191-2.52018.43191-2.16015.14396 1.00807-.93581 23.40167-17.34857 23.6897-17.34857.144 0-.43203 2.5195-1.22409 5.5429zm48.38746-3.38333c0 1.15178-2.37617 2.0156-24.19373 8.56631-46.51533 13.89326-54.29189 16.05284-55.37196 15.69291-.86407-.35993-.93607-.79185-.21602-2.23156.86406-2.01561 1.22409-2.15958 17.49725-6.47872 5.18437-1.36774 19.87342-5.39894 32.76235-8.99823 29.09008-8.06241 28.29803-7.84645 29.01808-7.48652.28802.14397.50403.57588.50403.93581zm21.52955 1.65568c1.29609-.28795.144 1.58368-5.25638 8.92623l-6.9125 9.35816-9.14465 3.31135c-5.04036 1.79964-9.21666 3.23935-9.36067 3.16737-.072-.14397 6.04843-5.90283 13.60898-12.95744 9.79269-9.07022 13.969-12.59752 14.54503-12.09362.50404.43192 1.58412.5039 2.52019.28795zm5.76041 6.19077-2.16015 6.40674-5.40039 1.94362c-2.95221 1.07978-5.5444 1.87163-5.6164 1.72766-.14402-.14398 2.37617-3.88724 5.6164-8.35036 4.89635-6.76666 6.12044-8.06241 7.77656-8.13439h1.94413zm6.19244-5.5429c-2.73619 8.92624-3.45625 10.6539-4.46432 10.6539-.57604 0-.93606-.43192-.79205-.93582.21601-.43192 1.08007-3.0234 1.94414-5.75886 1.00807-2.87944 2.01614-4.82305 2.66419-4.82305.50403 0 .86406.43191.64804.86383zm36.72264-.21596c-.43204.35993-9.14466 3.95922-19.4414 7.99042-10.29674 4.03121-28.29803 11.08582-39.96286 15.62092-11.66484 4.60709-22.39361 8.6383-23.7617 8.92624-2.95222.71986-5.04037.21596-5.04037-1.07978 0-1.22376 2.80821-2.37554 25.20181-10.43795 10.08072-3.59929 27.57798-9.93404 38.88278-14.03723 18.43333-6.76666 26.13788-8.92624 24.12174-6.98262zm-26.78593 3.59929 2.01615 1.29574-5.97643 2.15958c-3.31224 1.22376-6.04843 2.15957-6.12044 2.08759-.14401-.14398.28802-1.79965.93607-3.74327.64805-1.94361 1.22409-3.95921 1.4401-4.46311.28802-1.00781 3.81628.21595 7.70455 2.66347zm94.39874 3.81525c-21.81754 22.89148-37.29864 61.97977-34.20242 86.23899.43203 3.45531 1.4401 8.13439 2.23216 10.43794.79205 2.30354 1.4401 4.24716 1.4401 4.39113 0 .072-1.58412-.5039-3.45625-1.36773l-3.45625-1.58369-3.24023-10.94184c-1.72812-5.97482-3.24023-10.79787-3.38424-10.6539-.21601.21596 3.02422 16.62872 3.88828 19.94007.28802 1.07979-.072 1.29574-2.16016 1.29574-2.8082 0-2.16015 1.43972-6.69648-14.6851-1.08008-3.88723-2.08815-6.76666-2.16015-6.40674-.14401.35994.72005 5.18298 1.87213 10.72589 1.15209 5.47092 2.08815 10.00603 2.01615 10.15-.072.072-1.00807.28794-2.01615.57588-1.87213.43192-1.87213.35993-4.96835-10.43794-1.72813-5.90284-3.16823-10.72588-3.31224-10.58191-.21602.21596 2.66419 16.26879 3.67227 20.44397.28802 1.15177-.072 1.79964-1.15209 2.44751-2.01615 1.07979-2.16015.86383-4.96836-9.21418-1.29609-4.46312-2.52017-7.99042-2.66419-7.84645-.21601.14397.50404 4.46312 1.51211 9.57411l1.94414 9.21418-1.65612 1.29575c-1.87213 1.58368-1.94414 1.5117-4.1763-6.47872-.93606-3.31135-1.80012-5.83085-1.94414-5.68688-.14401.14397.21602 3.16737.79206 6.62269 1.4401 8.1344 1.4401 8.71028-.21602 9.6461-1.29609.64787-1.5121.35993-2.66419-3.59929-1.5121-5.54291-2.08815-5.11099-.93606.71986.64804 3.5273.64804 4.75106-.072 6.19078-1.29609 2.37553-1.87213 2.15957-2.73619-1.0078-.72005-2.51951-.72005-2.37554-.43203 1.29574.36002 4.39113-.57605 6.91064-1.94414 5.039-.57605-.79184-.64805-.5039-.36003 1.43972.21602 1.36773 0 4.46312-.50404 6.83865l-.93606 4.24716-2.59219-5.32695c-5.97642-12.23758-7.99257-21.59574-8.06458-37.43261 0-9.28617.36003-13.74929 1.58412-20.3 4.2483-22.8195 14.97707-45.20708 21.60154-45.20708.64805 0 .79206.5039.50404 1.58369-.36002 1.36773-.21601 1.22376 1.00807-.5039.79206-1.15177 2.08815-2.37553 2.95221-2.66348 1.44011-.5039 1.44011-.5039.28802 1.65567-.57604 1.22376-.93606 2.37554-.72005 2.59149.14401.21596.86407-.64787 1.44011-1.79964 2.66419-5.11099 5.32838-5.97482 3.24023-1.07979-1.65612 3.95922-1.3681 3.74327 1.80013-.93581 1.22408-1.87164 2.95221-3.67128 3.81627-3.95922 1.58412-.57589 1.51211-.35993-.86406 4.39113-1.3681 2.80745-2.44818 5.03901-2.23216 5.03901.14401 0 1.94414-2.59149 3.96028-5.68688 2.08815-3.09539 4.39232-5.83085 5.11237-6.04681 1.15208-.28794.93607.5039-1.51211 5.32695-1.51211 3.09539-2.66419 5.68688-2.52018 5.68688s1.94414-2.59149 4.03229-5.83085c3.45625-5.25496 5.90442-7.84645 7.34453-7.84645.28802 0-1.15209 2.80745-3.09622 6.26276-6.76849 11.73369-6.55248 11.87766 1.15207.57589 3.09623-4.53511 6.12044-8.27837 6.62448-8.27837.86406 0 .72005.5039-.36002 2.30355-4.60834 7.77446-8.71263 14.97304-8.42461 14.97304.14401 0 3.24023-4.31914 6.84049-9.64609 4.03229-5.83085 7.20052-9.79007 8.13659-10.07801.86405-.21596 1.58411-.28795 1.72812-.21596.072.14397-2.52018 4.39113-5.76041 9.57411-9.6487 15.04503-9.28867 14.97304 1.65611-.28794 6.40846-8.92625 9.5767-12.38156 10.4407-11.51773.1441.14397-2.37612 4.24716-5.47234 9.21418-6.69648 10.43794-7.48853 11.80567-6.62447 11.30177.28802-.21596 3.96028-5.25496 8.13658-11.22979 5.54443-7.91843 8.13653-11.01382 9.64863-11.58971 1.1521-.35993 2.2322-.57588 2.4482-.43191.144.21595-3.8162 6.33475-8.7846 13.6773-5.04035 7.34255-9.00064 13.38936-8.78462 13.38936.14401 0 5.18437-6.55071 11.16082-14.61312l10.8007-14.61312 4.5364-1.5117c2.5201-.86383 4.6803-1.58369 4.8243-1.58369.144-.072-1.6561 1.94362-3.9603 4.39114zm-76.39745 2.15957c-11.59283 14.61312-19.94542 33.25744-23.7617 53.34148-1.80013 9.6461-1.80013 33.47339.072 43.33545 1.65611 8.99823 5.32838 21.16383 8.64061 28.93829 1.3681 3.31135 2.37618 5.97482 2.23217 5.97482-.64805 0-7.20052-5.18298-7.63255-6.0468-.28802-.43192-3.16823-10.07801-6.48046-21.45177-3.31224-11.37376-6.12044-20.58794-6.26445-20.44397-.072.14397 2.01614 9.21419 4.75233 20.15602 2.7362 10.94185 4.82435 19.86809 4.68034 19.86809-.21601 0-1.22409-.5039-2.30416-1.15178-1.72813-1.0078-2.52018-3.0234-7.27252-19.07623-2.95221-9.79007-5.40039-17.78049-5.5444-17.63653-.14401.072 1.58411 7.55852 3.74426 16.48475 2.16016 8.99823 3.96029 16.48475 3.96029 16.70071 0 .21595-.93607-.072-2.08815-.71986-2.30416-1.15177-2.30416-1.07979-8.4246-22.09964-1.51211-5.11099-2.8082-9.07021-2.95221-8.92624-.14402.14397 1.15208 6.33475 2.95221 13.82128 1.72812 7.48652 3.09622 13.6773 3.02421 13.82127-.14401.072-1.29609-.28795-2.66419-.86383-2.44817-1.0078-2.52018-1.15177-5.97642-13.6773-1.94414-6.98262-3.67227-12.52553-3.81628-12.38156-.14401.072.86407 5.47092 2.23216 11.80567 2.52018 12.02163 2.44817 12.52553-.86406 10.6539-1.29609-.71986-2.37617-2.87943-4.46432-9.1422-3.09622-9.21418-3.52825-9.14219-1.4401.35993.79205 3.52731 1.29609 6.55071 1.15208 6.69468s-1.3681 0-2.66419-.28794c-2.23216-.57589-2.66419-1.15178-4.46432-6.04681-1.08008-3.0234-1.80013-4.24716-1.58411-2.80745.28802 1.36774.64804 3.59929.86406 4.82305.36002 2.15958.21601 2.37553-1.2961 2.37553-2.44817 0-3.09622-.64787-4.89635-4.31914-1.4401-3.09539-1.51211-2.87944-.50403 1.58369.43203 1.87162.28802 2.0156-2.01615 2.0156-1.72812 0-2.59218-.35993-2.8082-1.29575-.28802-.93581-.36002-.93581-.43203.28795-.072 1.79964-3.67226 2.87943-4.53633 1.5117-.36002-.57589-.57604-.5039-.57604.21595 0 .57589-1.08008 1.79965-2.37617 2.66348-1.29609.93581-3.16822 2.95141-4.10429 4.5351-1.00807 1.58369-2.08815 2.87944-2.37617 2.87944-.86406 0-4.68033-8.99823-6.33645-15.04504-2.16016-7.91844-2.66419-22.8195-1.00807-32.46559 2.30416-13.96525 8.28059-28.07446 15.98514-38.08049 3.74427-4.82305 4.68034-5.54291 9.21666-7.41454 2.7362-1.15177 5.40039-1.87163 5.90442-1.72766.50404.21596.93607.072.93607-.35992 0-.64788 2.95221-2.15958 3.45624-1.72766.072.072-.144 1.07978-.57603 2.23156l-.72006 2.08758 1.29609-1.72766c3.52826-5.039 5.25638-5.90283 3.74427-1.87163-1.22408 3.16738-.28802 2.95142 1.3681-.28794.86406-1.58369 2.16016-3.23936 2.95221-3.67128 1.3681-.71985 1.3681-.71985-.072 2.59149-2.01615 4.75107-1.22409 4.67908 1.4401 0 1.22409-2.15957 2.88021-4.31914 3.67227-4.75106 1.87213-1.0078 1.87213-.86383-.72006 5.11099-1.15208 2.73546-1.94414 4.96702-1.80012 4.96702.144 0 1.87213-2.73546 3.88827-6.0468 2.01615-3.31135 4.1763-6.19078 4.75234-6.47873 1.44011-.5039 1.44011-.57589-1.72812 6.40674-1.58411 3.38333-2.7362 6.11879-2.66419 6.11879.14401 0 1.94414-2.80745 4.10429-6.26276 2.08815-3.45532 4.39232-6.83866 5.11237-7.55851 3.02422-3.0234 2.59218-.79185-1.15208 6.26276-2.23216 4.17518-3.88828 7.55851-3.74427 7.55851s2.8082-3.88723 5.83241-8.63829c4.82435-7.48653 6.8405-9.86206 6.8405-8.20638 0 .28794-1.94414 4.17517-4.39232 8.63829-2.37617 4.53511-4.1763 8.20638-4.03229 8.20638.21602 0 3.02422-4.24716 6.26445-9.43014 5.04036-7.99042 8.06458-11.37376 9.21666-10.36595.21602.21595-6.33645 11.73368-11.2328 19.79609-2.88021 4.67908 1.08007-.71986 7.70455-10.58191 6.33645-9.35815 8.92864-12.45354 9.86471-11.58971.072.14397-2.08815 4.10319-4.89636 8.85425-8.28059 14.25319-8.56861 14.75709-8.20858 14.75709.14401 0 4.03229-5.75887 8.56861-12.81347 6.76849-10.36596 8.78463-12.95745 10.65676-13.60532 1.2961-.5039 2.44818-.86383 2.52019-.71986.072.072-2.52019 4.39113-5.76042 9.50213-10.36874 16.48474-11.95285 19.07623-11.66483 19.07623.14401 0 4.96835-6.76666 10.65676-15.11701 8.4246-12.30958 10.72877-15.261 12.81692-16.12482 4.46432-1.87163 4.46432-1.29575.21601 4.0312zm-78.34161-1.43971c-11.88085 9.79006-22.60962 23.25141-28.87407 36.20885-4.96835 10.29397-6.9845 18.42837-6.9845 28.65035 0 6.40674-.14401 7.55851-.93607 6.91064-.57603-.43192-1.00807-2.30355-1.08007-4.17518 0-1.79964-.28802-4.96702-.64805-6.91063-.50403-3.45532-.50403-3.45532-.64805 1.94361 0 3.09539-.21601 5.61489-.36002 5.61489-2.23216 0-2.59219-1.07978-2.66419-7.84645-.072-5.83085-.21602-6.40673-.72005-3.67127-.28802 1.79964-.57605 4.60709-.57605 6.26276-.072 2.30355-.28802 2.95142-1.08007 2.66347-.64805-.28794-1.15208-2.59149-1.58412-7.70248l-.64804-7.34255-.21602 6.6227c-.072 3.67127-.28802 6.69468-.50404 6.69468-1.94413 0-2.52017-1.22376-2.59218-5.32695-.072-6.26277-1.22408-9.35816-1.29609-3.67128-.14401 5.39894-.64805 7.55851-1.94414 7.55851-.72005 0-1.00807-.93582-1.08008-3.09539 0-1.65567-.28802-4.31915-.57604-5.90283-.57604-2.44752-.64804-2.01561-.72005 3.0234-.072 4.60709-.28802 5.97482-1.08008 5.97482-1.22409 0-1.80013-2.15957-1.94414-7.19858-.14401-3.88723-.14401-3.88723-.72005 1.43972-.72005 6.11879-1.00807 7.19858-2.08815 7.19858-.36002 0-.72005-1.65568-.72005-3.81525 0-2.66348-.21602-3.45532-.72005-2.66348-.36003.57589-.72005 2.73546-.72005 4.82305 0 2.0156-.28802 3.95922-.72006 4.17518-.43203.28794-.72005-.5039-.72005-1.94362 0-1.79964-.21601-2.08758-.72005-1.29574-.36002.57588-.72005 1.94361-.72005 3.0234 0 2.87944-.79206 4.5351-1.51211 3.31135-.43203-.57589-.64804.14397-.64804 2.08759 0 1.72765-.28802 3.09539-.57604 3.09539-1.58412 0-3.88829-10.58192-4.24831-19.07624-.28802-7.63049-.14401-9.50213 1.51211-15.69291 1.87213-7.41453 7.05651-19.00425 9.93671-22.24361.86406-1.0078 2.44818-2.08758 3.38424-2.37553 1.51211-.43191 1.65612-.35993 1.22409.79185-.36003 1.0078 0 .86382 1.51211-.64788 2.44817-2.23156 4.60833-2.80745 3.02422-.71986-.57605.79185-.21602.64788.79205-.28794 2.08815-1.79965 5.76041-3.38333 5.76041-2.37553 0 .35993-.28802.86383-.72005 1.07979-.36003.21595-1.08007 1.15177-1.5121 2.0156-.50404.93582.72005.14397 2.80819-1.87163 5.40039-5.03901 6.40846-4.67908 2.37617.93581-1.36809 1.94362-.86405 1.65568 2.52019-1.5117 3.81627-3.67128 6.76848-5.61489 6.76848-4.5351 0 .28794-1.22409 1.94361-2.73619 3.81525-5.04036 6.11879-4.68034 6.19077 1.15208.21595 3.24023-3.23936 6.19244-5.90283 6.62447-5.90283 1.00807 0 .64805.64787-4.1763 6.83865l-3.81627 5.039 6.33645-6.62269c5.40039-5.61489 9.57669-8.71028 9.57669-7.05461 0 .21596-2.59219 3.45532-5.76041 7.12659-3.16823 3.74327-5.76042 6.91064-5.76042 7.1266s2.66419-2.44752 5.90443-5.83085c9.07265-9.6461 9.43267-10.07801 11.30481-10.58191 1.36809-.43192.79205.64787-2.95222 5.11099-8.64062 10.58191-10.36874 13.10141-4.82434 7.12659 10.51275-11.37375 13.24895-13.96524 15.40911-14.46914 2.01614-.5039 2.08814-.5039 1.08007.93581-.57604.86383-4.60833 5.68688-8.92864 10.79787-13.46496 15.83688-13.10494 15.62092 2.37617-1.22376 10.00872-10.94184 13.03294-13.46134 16.27317-13.60531.43203-.072-.86406 1.29574-2.88021 2.95142zm208.09486 22.96346c1.0081 3.02341-3.2402 4.75107-4.3923 1.72767-.72-1.79965.2881-3.23937 2.1602-3.23937 1.1521 0 1.9441.5039 2.2321 1.5117zm-138.17785 15.90887 2.01614 4.10319-1.94414 6.33475c-2.44817 7.99042-3.88827 15.04503-4.82434 23.46737-.64805 5.18297-1.22409 7.27056-2.88021 9.86205-1.08007 1.79965-2.8082 4.75107-3.67226 6.6227-.93607 1.94362-1.87213 3.45532-2.16015 3.45532-.86407 0-1.58412-13.74929-1.15209-22.67553.72006-14.03723 3.60026-27.21063 8.56862-39.16028l2.30416-5.47092.86406 4.67908c.43204 2.59149 1.72813 6.55071 2.88021 8.78227zm112.54405-8.42234c10.4407 1.72766 19.0814 3.31134 19.2974 3.45532.288.35992-9.5047 19.14822-10.3688 20.01205-.432.35993-34.1304-1.58369-40.3228-2.37553-1.3681-.21596-1.0081-1.15177 4.6803-11.37376 6.3365-11.22978 7.3445-12.95744 7.5605-12.95744.072 0 8.7127 1.43971 19.1534 3.23936zm21.8896-2.08759c.72.71986-.8641 3.16738-2.0162 3.16738-1.2961 0-1.2961-.35993-.36-2.23156.7921-1.36773 1.5841-1.72766 2.3762-.93582zm-228.47239 9.21418c0 5.18298 1.80013 14.54114 4.03229 20.65993 1.80013 4.89503 1.80013 5.039.64805 10.79787-1.3681 7.34255-1.4401 22.53155-.072 29.58616s2.80821 11.1578 6.69648 19.07624c1.80013 3.67127 3.09622 7.05461 2.95221 7.48652-.36002 1.0078-5.83241-3.5273-9.43267-7.84645-3.16823-3.74326-6.9845-10.43794-9.07265-15.83687-1.51211-3.74327-1.51211-3.74327-.072-3.74327 1.3681 0 1.44011-.5039 1.44011-8.99822v-8.99823h-2.16016c-1.80012 0-2.23216-.35993-2.95221-2.73546-.43203-1.43971-1.00807-6.40673-1.15208-10.94184-.28802-6.69468-.072-9.43014 1.15208-14.54113 1.51211-6.40674 6.26445-17.85248 7.34453-17.85248.36002 0 .64804 1.72766.64804 3.88723zm155.09911 20.58794c1.00808 6.11879 2.66419 14.46915 3.67227 18.50035l1.72811 7.34256-1.36809 4.10319c-.79205 2.23155-1.22408 4.31914-1.00807 4.67907.21602.35993-1.22409 2.37553-3.24023 4.46312l-3.60026 3.74326-1.3681-3.31134c-4.68033-10.79787-4.1763-28.57836 1.3681-46.35886.79206-2.66348 1.58412-4.67908 1.72812-4.5351.14401.072 1.08008 5.25496 2.08815 11.37375zm-205.86274 7.19858 1.00807 5.39893-5.97643 21.59575-5.97643 21.59573-2.44817-.21595c-2.95222-.21596-24.40975-10.15-24.40975-11.30177 0-2.80745 17.71327-25.8429 32.0423-41.53581 4.10429-4.5351 4.32031-4.67907 4.53632-2.87943.072 1.07979.64804 4.39114 1.22409 7.34255zm264.61892-8.06241c0 .14397-2.1601 4.53511-4.8243 9.57411-4.7524 8.99823-4.9684 9.28617-7.2005 9.28617-1.2961 0-2.3762-.21596-2.3762-.43191 0-.28795 2.4482-4.75107 5.4724-9.93404 4.9684-8.56631 5.6884-9.50213 7.2005-9.21419.9361.14398 1.7281.50391 1.7281.71986zm-242.29732 9.43014c-.21602 1.15177-1.15209 4.46312-2.01615 7.41454l-1.65612 5.25496-5.5444.21596c-5.32838.21596-5.54439.14397-5.54439-1.43972 0-7.34255 5.68841-13.46134 12.45689-13.53333 2.66419 0 2.7362.072 2.30417 2.08759zm5.6164 2.15958c-2.44818 9.93404-2.66419 10.50992-4.82435 10.72588-1.72812.21596-2.01614 0-1.72812-1.07979 3.88828-14.03723 3.52825-13.10141 5.32838-12.30957 1.3681.64787 1.58411 1.15177 1.22409 2.66348zm10.65676 6.76666c1.15208 1.58369 2.08815 3.16738 2.08815 3.52731 0 .28794-2.88021.57588-6.48046.57588-3.52826 0-6.48047-.21596-6.48047-.43191 0-.5039 2.08815-8.85426 2.52019-10.22198.50403-1.29575 5.6164 2.73545 8.35259 6.5507zm-34.27446 2.80745c1.51212 3.31134 1.80014 4.89503 1.80014 11.51773v7.77446h2.37617 2.44817v5.54291c.072 3.09539.79206 8.56631 1.65612 12.23758 1.65612 7.05461 1.29609 9.57412-1.29609 9.57412-.72005 0-4.39232-1.79965-8.13659-4.03121-3.67226-2.23156-7.92056-4.60709-9.36067-5.25496l-2.59218-1.15177 5.47239-19.94007c3.02421-11.01383 5.5444-20.01205 5.68841-20.01205s1.00807 1.72765 1.94413 3.74326zm250.21792 2.15957c0 1.29575.216 4.10319.432 6.11879l.5041 3.81525h-22.0336-22.0336l1.8002-5.25496c.936-2.80745 1.8721-5.61489 2.0881-6.11879.216-.64788 4.8964-.86383 19.8014-.86383h19.4414zm-208.81495 7.77447v6.47872h-18.72134-18.72134v-6.47872-6.47872h18.72134 18.72134zm94.39876 7.77446c1.3681 11.6617 5.04036 22.96347 10.58476 31.9617 4.46432 7.41454 4.46432 7.48652.14401 8.42234-2.01614.43191-4.10429.79184-4.60833.79184-2.01614 0-11.1608-23.25141-13.39296-34.04928-.93606-4.82305-.50403-6.76667 3.52826-14.54113l2.59218-5.03901.14401 2.87943c.14401 1.58369.57605 5.90284 1.00807 9.57411zm110.02389 1.65568c.432 2.87943.72 5.25496.576 5.39893-.144.21596-10.8727.21596-23.7617.14397l-23.54565-.21595 4.53632-5.18298 4.46433-5.18298h18.4333l18.4333-.072zm-210.61509 5.83085c6.19244 19.00425 22.17759 32.75354 44.7152 38.72836 14.32903 3.74326 29.73813 4.89503 47.5234 3.67127 36.43462-2.5195 53.21182-9.50212 74.30933-30.80992l9.50466-9.57411h13.681c8.9286 0 13.753.28794 13.753.71986 0 2.08759-9.4327 18.64432-16.2732 28.50638-5.2564 7.5585-6.6245 8.5663-19.08135 13.53332-15.33709 6.1188-37.51469 10.94185-60.41232 13.10142-14.90507 1.43972-49.97158 1.0078-62.28447-.71986-16.12915-2.37553-28.37003-5.18298-40.75491-9.50212-10.08073-3.5273-14.40104-5.54291-26.20988-12.30957-12.74492-7.34256-20.16145-11.01383-27.00194-13.53333-6.55247-2.37553-12.6009-2.66348-15.3371-.86383-2.16015 1.43971-2.44817.71985-.86406-2.37554 1.80013-3.45531 5.83242-5.75886 10.15273-5.75886 4.89635 0 8.13658 1.22376 16.92121 6.40674 8.28059 4.89503 10.58476 5.32695 12.81692 2.5195 1.87214-2.37553 1.87214-3.0234.072-10.50993-.79205-3.31134-1.4401-8.49432-1.4401-11.58971v-5.54291h12.09687 12.16887zm5.04036-1.00781c4.2483 11.01383 12.6009 21.45178 21.45754 26.63475 12.16887 7.19858 28.87407 11.08582 51.84371 12.09362 34.27445 1.5117 67.10881-10.07801 86.4782-30.59397 2.8802-3.0234 5.40038-5.11099 6.26448-5.11099.792 0 1.4401.28794 1.4401.71986 0 1.29574-14.76109 15.62092-20.5215 19.86808-17.71327 13.02943-39.17081 18.50035-73.08524 18.50035-13.82499 0-21.09751-.79184-32.0423-3.52731-24.33774-6.0468-39.96286-19.58013-46.01129-39.73615l-1.08008-3.74327h1.72813c1.4401 0 1.94414.79184 3.52825 4.89503zm151.49885-1.0078c3.09622 1.58369 3.67227 2.15958 3.02422 2.95142-.64805.79185-.43203 1.00781 1.15208 1.22376 1.08008.14397 2.30417.79185 2.7362 1.43972.86406 1.43972-1.15209 3.88723-7.27252 8.56631-4.39232 3.45532-4.89636 3.31134-9.93671-2.37554-2.6642-3.09539-7.56055-11.44573-7.56055-13.02942 0-.79185 3.31224-1.07979 8.64062-.93582 4.1763.14397 6.26445.64787 9.21666 2.15957zm-239.77718-.86382c1.3681 1.36772 1.00808 3.31134-.57604 3.81524-1.58411.50391-3.60025-.64787-3.60025-2.08758 0-1.07979 1.4401-2.59149 2.52018-2.59149.43203 0 1.15208.35992 1.65611.86383zm213.20728 16.98864-4.46432 15.11702-2.73619.71986c-1.58412.35993-2.80821.5039-2.80821.21596 0-.21596 2.01615-6.83865 4.46432-14.68511 4.39232-13.96524 4.53633-14.32517 7.05651-15.62091 1.3681-.71986 2.59218-1.22376 2.73619-1.07979.14401.072-1.80012 6.98262-4.2483 15.33297zm9.07265-10.94184c1.08008 2.23156 4.03229 6.26277 6.55247 8.92624l4.60833 4.89503-5.18437 3.02341c-6.04844 3.67127-15.98515 8.06241-16.27317 7.27056-.072-.28794 1.58411-6.5507 3.81628-13.96524 2.16015-7.41454 3.96028-13.60532 3.96028-13.82127 0-1.07979.72005.072 2.52018 3.67127zm-198.08619 6.62269c1.22409.35994 1.22409.43192-.36003 1.22377-1.51211.86382-2.66419.43191-11.59283-4.03121-7.12851-3.59929-9.7927-5.25496-9.50468-5.97482.28802-.79185 2.59219 0 10.22473 3.67127 5.40039 2.59149 10.44075 4.89504 11.23281 5.11099zm180.51693 7.34256c-2.16016 7.12659-4.2483 12.95744-4.53633 12.95744-.86406 0-1.5121-4.96702-1.00807-8.49432.79206-5.90284 2.59219-10.07801 5.97643-13.82128 1.80013-1.94361 3.31224-3.59929 3.45625-3.59929.072 0-1.65612 5.83085-3.88828 12.95745zm-79.42169-10.6539c-.21601.5039-1.72812 5.11099-3.45625 10.29397-1.65612 5.11099-3.31223 9.6461-3.60025 9.93404-.28802.35993-1.87214-.072-3.45625-.86383-2.44818-1.29574-2.95221-1.94362-3.74427-5.03901-.72005-3.09539-.64805-3.81525.57604-6.26276 2.01615-3.88723 5.18437-6.69468 8.85663-7.84646 4.03229-1.22375 5.18438-1.29574 4.82435-.21595zm6.48046.21595c.14402.14398-1.36809 5.39894-3.45624 11.73369l-3.60026 11.58972-2.16015-.71986c-1.15209-.43192-1.94414-1.15177-1.80013-1.58369.14401-.5039 1.65611-5.11099 3.31223-10.22198 3.74427-11.73369 3.88828-12.09362 5.90443-11.44574.86406.21595 1.65612.57588 1.80012.64786zm7.48854 2.01561c.28802.43192.57604 1.65567.57604 2.66347 0 2.87944 3.96029 13.31738 6.76849 18.06844 1.4401 2.44752 2.44817 4.60709 2.23216 4.82305-.43203.5039-10.22473-.93582-16.84921-2.44752-3.52825-.71986-5.11237-1.43972-4.89635-2.0156.21602-.5039 1.94414-5.83085 3.81627-11.87766l3.45625-11.01383 2.16015.43192c1.22409.28794 2.44818.86383 2.7362 1.36773zm12.02486 3.74326c10.65677 4.5351 10.15273 3.95922 6.69648 7.91844-3.09622 3.5273-5.90442 8.56631-5.90442 10.6539 0 2.37553-1.3681 1.15177-3.88828-3.31135-2.66419-4.67907-6.19244-14.46914-6.19244-16.98865 0-.86383.36002-1.5117.79205-1.5117.43204 0 4.24831 1.43972 8.49661 3.23936zm18.00129 9.50213c3.02422 1.87163 7.99258 5.32694 11.1608 7.70248l5.61641 4.31914-2.01615.64788c-2.44818.79184-29.45011 1.07978-30.17016.35992-.28802-.21595 0-2.23155.64804-4.46311.86407-2.80745 2.23217-5.11099 4.82435-7.91844 2.01615-2.23156 3.88828-4.03121 4.10429-4.03121.21602 0 2.80821 1.5117 5.83242 3.38334zm-135.15368 2.08759c6.62447 2.37553 14.11301 6.11879 26.78592 13.38936 15.26509 8.78226 25.48982 12.95744 42.12302 17.13261 19.36938 4.82305 36.65062 6.69468 60.91636 6.69468 37.73071 0 68.3329-5.68688 96.84691-17.99645.5761-.28794-.072.93582-1.5121 2.73546-1.5121 1.87163-4.1763 3.95922-6.48044 5.111-5.76041 2.87943-18.43332 6.83865-29.45011 9.21418-8.56862 1.87163-9.14466 2.08759-4.68034 1.72766 9.43268-.71986 20.73749-3.5273 32.40233-7.84645.86405-.35993.28801.64787-1.72813 2.73546-2.7362 2.80744-4.1763 3.59929-10.08072 5.5429-3.81628 1.22376-13.39296 3.31135-21.31353 4.60709-7.92057 1.36773-13.68098 2.51951-12.88892 2.51951 3.45624.14397 23.61769-2.95142 30.17016-4.60709 3.88828-1.00781 7.20052-1.65568 7.34452-1.51171.21602.14398-1.5121 1.72766-3.67226 3.52731-4.1763 3.38333-7.77656 4.60709-19.5854 6.62269-3.45625.57589-4.68034.93581-3.16823 1.0078 1.3681 0 5.47239-.57589 9.00065-1.29574 3.60026-.71986 6.55247-1.22376 6.69647-1.15178.43204.35993-9.21665 6.1188-16.41717 9.71809-8.71262 4.39113-21.02551 8.63829-31.68227 10.94184-11.08879 2.37553-36.43461 2.37553-47.5234 0-22.46562-4.89504-50.04359-18.50035-65.16468-32.17765l-3.60025-3.23936 4.68033 2.15957c5.25638 2.37553 15.2651 5.32695 20.16145 6.04681 2.01614.28794.50403-.35993-3.96028-1.72766-10.87278-3.31135-23.83371-9.93404-29.09009-14.82908-2.44818-2.23156-4.39231-4.31915-4.39231-4.60709s3.67226 1.29574 8.13658 3.59929c10.08072 5.25497 19.5134 8.71028 31.89829 11.94965 11.73684 2.95141 15.69712 3.16737 5.6884.28794-23.97771-6.98262-45.65127-17.42057-56.81207-27.28262-7.34453-6.47872-13.75298-9.71808-19.29738-9.79007-2.23216 0-3.88828-.21595-3.67226-.57589.72005-1.22375 8.28059-.43191 13.32095 1.36774zm228.32831 22.74751c-.36.5039-1.9441 2.5195-3.4562 4.53511l-2.8082 3.59929 4.4643-4.24717c4.9684-4.82305 6.5525-4.96702 2.9522-.28794l-2.3761 3.09539 3.2402-2.95142c3.5282-3.38333 5.6884-3.59929 3.7443-.43192-1.2241 1.94362-1.2241 1.94362.216.64788.792-.64788 1.7281-1.22376 2.0161-1.22376s2.3042 1.65567 4.4643 3.67127c4.6084 4.46312 8.6407 11.87766 9.5767 17.78049.6481 4.17518.5761 5.75887-.72 11.73369l-.7201 3.23936-23.7617 3.74326c-17.42523 2.73547-24.19371 3.52731-25.12978 3.02341-1.87213-1.0078-4.68033-5.97482-5.97643-10.58191l-1.08007-3.67128 6.55246-4.82305c3.88828-2.80744 11.30481-9.57411 17.78528-16.1968 10.36874-10.6539 12.74494-12.88546 11.01674-10.6539z"/><path d="m1007.0904 237.86925v3.23936h3.2402 3.2402v-3.23936-3.23936h-3.2402-3.2402z"/><path d="m1020.0513 237.86925v3.23936h3.2402 3.2403v-3.23936-3.23936h-3.2403-3.2402z"/><path d="m1033.0122 237.86925v3.23936h3.2403 3.2402v-3.23936-3.23936h-3.2402-3.2403z"/><path d="m1004.9302 251.54655v3.23936h3.2403 3.2402v-3.23936-3.23936h-3.2402-3.2403z"/><path d="m1025.8117 251.54655v3.23936h3.2403 3.2402v-3.23936-3.23936h-3.2402-3.2403z"/><path d="m1002.05 267.38343c0 2.5195 0 2.5195 3.2403 2.5195 3.2402 0 3.2402 0 3.2402-2.5195 0-2.51951 0-2.51951-3.2402-2.51951-3.2403 0-3.2403 0-3.2403 2.51951z"/><path d="m1017.1711 267.38343c0 2.5195 0 2.5195 3.2402 2.5195 3.2403 0 3.2403 0 3.2403-2.5195 0-2.51951 0-2.51951-3.2403-2.51951-3.2402 0-3.2402 0-3.2402 2.51951z"/><path d="m850.83918 298.33732v4.67908h3.24024 3.24023v-4.67908-4.67908h-3.24023-3.24024z"/><path d="m960.28702 301.21675v4.67908h3.24024 3.24023v-4.67908-4.67908h-3.24023-3.24024z"/><path d="m906.28316 307.69548v4.67907h3.24023 3.24023v-4.67907-4.67908h-3.24023-3.24023z"/><path d="m801.87568 241.46854v3.23936h3.24023 3.24023v-3.23936-3.23936h-3.24023-3.24023z"/><path d="m814.8366 241.46854v3.23936h3.24023 3.24024v-3.23936-3.23936h-3.24024-3.24023z"/><path d="m827.79753 241.46854v3.23936h3.24024 3.24023v-3.23936-3.23936h-3.24023-3.24024z"/></g><g fill="#fff" stroke="#000" stroke-width=".842083" transform="matrix(1.1858321 0 0 1.1892341 -25.497695 -9.738342)"><path d="m103.17297 48.125055-14.227734-17.157611 4.162741 15.535558c.382887 1.428954.776133 2.279267 1.179754 2.550939.55161.366797 1.28468.427671 2.19921.182624l.82307-.220542.17.634454-8.093568 2.168666-.170001-.634454.823076-.220543c.983114-.263424 1.600807-.747495 1.853063-1.452212.153475-.433197.05562-1.301398-.293574-2.604605l-4.070847-15.192609c-.275673-1.028825-.589092-1.741247-.94025-2.137272-.248869-.288611-.617506-.486954-1.105931-.595026-.488413-.108027-1.207029-.03494-2.155861.21928l-.170002-.634454 6.584607-1.76434 13.311437 15.932847 3.42444-20.417212 6.58461-1.764341.17.634454-.80593.215948c-.99457.266518-1.61798.752121-1.87022 1.456808-.15349.433226-.0556 1.301429.29358 2.604605l4.07084 15.192608c.38286 1.428962.78183 2.277743 1.1969 2.546347.55159.366801 1.28466.427677 2.19922.18262l.80593-.215949.17.634454-9.87691 2.64651-.17-.634453.82308-.220543c.99452-.266482 1.61222-.750553 1.85305-1.452209.15346-.433193.0556-1.301395-.29357-2.604607l-4.16274-15.535558-3.72562 21.968196z"/><path d="m138.35532 42.79143-9.30221-20.255387v16.083593c0 1.479363.15976 2.40248.47932 2.76936.43788.497066 1.13021.745598 2.077.745599l.85211-.000001v.656834l-8.37907.000003v-.656834l.8521-.000002c1.0178.000002 1.73973-.307705 2.16578-.923122.26037-.378713.39055-1.242659.39056-2.591837l-.00001-15.728547c.00001-1.065117-.11834-1.834383-.35504-2.307801-.16569-.343189-.47043-.630182-.91424-.860986-.44381-.230756-1.15686-.346147-2.13916-.34617v-.656835l6.81689.000001 8.73413 18.8352 8.59212-18.835202h6.81689v.656835h-.83436c-1.02966.000023-1.75751.307729-2.18354.92312-.26039.378738-.39058 1.242683-.39055 2.591839v15.728543c-.00003 1.479363.16566 2.402484.49707 2.769363.43786.497065 1.13019.745599 2.07702.745598l.83436-.000001v.656835h-10.22533v-.656834h.85211c1.02961-.000001 1.75154-.307705 2.16577-.923121.26035-.378714.39054-1.242658.39056-2.591839v-16.083593l-9.28446 20.255386z"/><path d="m173.61995 47.500186-3.74277-21.97279-4.16274 15.535558c-.38288 1.428955-.46749 2.361966-.25377 2.799053.29431.593461.89872 1.012712 1.81325 1.257761l.82308.220541-.17.634453-8.09357-2.16866.17001-.634453.82306.220538c.98312.263428 1.76009.153055 2.33091-.331123.34951-.29842.69886-1.099234 1.04807-2.402438l4.07083-15.192612c.27569-1.028821.36047-1.802506.25436-2.321056-.0712-.374378-.29129-.730465-.66024-1.068271-.36897-.33776-1.02786-.63377-1.97668-.88803l.17-.634454 6.58461 1.764342 3.56162 20.453966 13.17425-15.969604 6.58461 1.764341-.17.634454-.80593-.215949c-.99458-.266473-1.77727-.157633-2.34806.326524-.34954.298439-.6989 1.09925-1.04805 2.402443l-4.07085 15.192605c-.38292 1.428948-.46179 2.363498-.23663 2.803651.29429.593454.8987 1.012708 1.81327 1.257765l.80593.215947-.17.634454-9.87691-2.64651.17-.634453.82307.220542c.99453.266482 1.7715.156112 2.3309-.331124.3495-.298426.69886-1.099236 1.04807-2.40244l4.16274-15.535558-14.21058 17.162206z"/></g><g stroke="#000"><path d="m300 194.23012v105.90625l296.55469-.0836c1.2739-12.73846 1.94531-25.85784 1.94531-39.36527v-66.54102s-9.28418 6-18.56836 6-18.56836-6-18.56836-6-9.28418 6-18.56836 6-18.56836-6-18.56836-6-9.28418 6-18.56836 6-18.56836-6-18.56836-6-9.28418 6-18.56836 6-18.56836-6-18.56836-6-9.28417 6-18.56835 6-18.56836-6-18.56836-6-9.28418 6-18.56836 6-18.56836-6-18.56836-6-9.28418 6-18.56836 6-18.56836-6-18.56836-6-9.28418 6-18.56836 6-19.97461-5.91636-19.97461-5.91636z" fill="#fff" stroke-linecap="round" stroke-linejoin="round" stroke-width="2"/><g fill="none" stroke-width="1.5"><path d="m430.92136 219.78792c-9.28418 0-18.56835-6-18.56835-6s-9.28418 6-18.56836 6"/><path d="m498.26486 219.78792c-9.28418 0-18.56835-6-18.56835-6s-9.28418 6-18.56836 6"/><path d="m568.97555 219.78792c-9.28418 0-18.56836-6-18.56836-6s-9.28418 6-18.56836 6"/><path d="m401.17799 241.11336c-9.28419 0-18.56837-6-18.56837-6s-9.28417 6-18.56835 6"/><path d="m468.52148 241.11336c-9.28418 0-18.56835-6-18.56835-6s-9.28418 6-18.56836 6"/><path d="m539.23216 241.11336c-9.28418 0-18.56836-6-18.56836-6s-9.28417 6-18.56836 6"/><path d="m598.71892 241.11336c-9.28418 0-18.56836-6-18.56836-6s-9.28418 6-18.56836 6"/><path d="m430.92136 264.68359c-9.28418 0-18.56835-6-18.56835-6s-9.28418 6-18.56836 6"/><path d="m498.26486 264.68359c-9.28418 0-18.56835-6-18.56835-6s-9.28418 6-18.56836 6"/><path d="m568.97555 264.68359c-9.28418 0-18.56836-6-18.56836-6s-9.28418 6-18.56836 6"/><path d="m338.32405 286.00903c-9.28418 0-18.56836-6-18.56836-6s-9.28418 6-18.56837 6"/><path d="m401.17799 286.00903c-9.28419 0-18.56837-6-18.56837-6s-9.28417 6-18.56835 6"/><path d="m468.52148 286.00903c-9.28418 0-18.56835-6-18.56835-6s-9.28418 6-18.56836 6"/><path d="m539.23216 286.00903c-9.28418 0-18.56836-6-18.56836-6s-9.28417 6-18.56836 6"/><path d="m598.71892 286.00903c-9.28418 0-18.56836-6-18.56836-6s-9.28418 6-18.56836 6"/><path d="m368.06743 219.78792c-9.28418 0-18.56837-6-18.56837-6s-9.28418 6-18.56836 6" stroke-linecap="round" stroke-linejoin="round"/><path d="m338.32405 241.11336c-9.28418 0-18.56836-6-18.56836-6s-9.28418 6-18.56837 6" stroke-linecap="round" stroke-linejoin="round"/><path d="m368.06743 264.68359c-9.28418 0-18.56837-6-18.56837-6s-9.28418 6-18.56836 6" stroke-linecap="round" stroke-linejoin="round"/></g></g><g stroke="#000" stroke-linecap="round" stroke-linejoin="round" stroke-width=".999843" transform="matrix(1.0001566 0 0 1.0001578 .111245 1.275457)"><path d="m39.873047 158.82387s-9.27832 6-18.5625 6c-6.102478 0-14.7260604-2.56702-19.9687501-4.34375v98.88477c0 14.00676.6166253 26.2684 1.9839375 39.4485h296.5160656v-139.68713c-4.64051 1.77739-12.45706 4.375-18.59375 4.375-9.28419 0-18.5625-4.67739-18.5625-4.67739-.00001 0-9.27832 6-18.5625 6-9.28417 0-18.5625-6-18.5625-6 .00001 0-9.27832 6-18.5625 6-9.28417 0-18.59375-6-18.59375-6s-9.27832 6-18.5625 6-18.5625-6-18.5625-6-9.27832 6-18.5625 6-18.5625-6-18.5625-6-9.27832 6-18.562503 6c-9.284182 0-18.59375-6-18.59375-6-.000002 0-9.27832 6-18.5625 6-9.284179 0-18.5625-6-18.5625-6z" fill="#fff" stroke-width="1.999686"/><g fill="none" stroke-width="1.499764"><g transform="translate(.000001 2.750906)"><path d="m40.11925 211.0923c-9.28418 0-18.56836-6-18.56836-6s-9.28418 6-18.56837 6"/><path d="m102.97319 211.0923c-9.28419 0-18.56837-6-18.56837-6s-9.28417 6-18.56835 6"/><path d="m170.31668 211.0923c-9.28418 0-18.56835-6-18.56835-6s-9.28418 6-18.56836 6"/><path d="m241.02736 211.0923c-9.28418 0-18.56836-6-18.56836-6s-9.28417 6-18.56836 6"/><path d="m300.51412 211.0923c-9.28418 0-18.56836-6-18.56836-6s-9.28418 6-18.56836 6"/></g><g transform="translate(.000001 5.96578)"><path d="m40.11925 255.98797c-9.28418 0-18.56836-6-18.56836-6s-9.28418 6-18.56837 6"/><path d="m102.97319 255.98797c-9.28419 0-18.56837-6-18.56837-6s-9.28417 6-18.56835 6"/><path d="m170.31668 255.98797c-9.28418 0-18.56835-6-18.56835-6s-9.28418 6-18.56836 6"/><path d="m241.02736 255.98797c-9.28418 0-18.56836-6-18.56836-6s-9.28417 6-18.56836 6"/><path d="m300.51412 255.98797c-9.28418 0-18.56836-6-18.56836-6s-9.28418 6-18.56836 6"/></g><g transform="translate(.000001 .021063)"><path d="m69.86263 189.76686c-9.28418 0-18.56837-6-18.56837-6s-9.28418 6-18.56836 6"/><path d="m132.71656 189.76686c-9.28418 0-18.56835-6-18.56835-6s-9.28418 6-18.56836 6"/><path d="m200.06006 189.76686c-9.28418 0-18.56835-6-18.56835-6s-9.28418 6-18.56836 6"/><path d="m270.77075 189.76686c-9.28418 0-18.56836-6-18.56836-6s-9.28418 6-18.56836 6"/></g><g transform="translate(.000001 3.235937)"><path d="m69.86263 234.66253c-9.28418 0-18.56837-6-18.56837-6s-9.28418 6-18.56836 6"/><path d="m132.71656 234.66253c-9.28418 0-18.56835-6-18.56835-6s-9.28418 6-18.56836 6"/><path d="m200.06006 234.66253c-9.28418 0-18.56835-6-18.56835-6s-9.28418 6-18.56836 6"/><path d="m270.77075 234.66253c-9.28418 0-18.56836-6-18.56836-6s-9.28418 6-18.56836 6"/></g><g transform="translate(.000001 .021063)"><path d="m69.86263 285.98797c-9.28418 0-18.56837-6-18.56837-6s-9.28418 6-18.56836 6"/><path d="m132.71656 285.98797c-9.28418 0-18.56835-6-18.56835-6s-9.28418 6-18.56836 6"/><path d="m200.06006 285.98797c-9.28418 0-18.56835-6-18.56835-6s-9.28418 6-18.56836 6"/><path d="m270.77075 285.98797c-9.28418 0-18.56836-6-18.56836-6s-9.28418 6-18.56836 6"/></g></g></g><g id="f" fill="#fcef3c" stroke="#000" stroke-width="1.319001" transform="matrix(1.5172193 0 0 1.5153799 44.945787 306.161)"><path d="m29.738807 62.945549c-2.689943 6.351213-6.015432 8.922247-9.243665 12.043068 3.618431.01652 7.225043-.678341 10.962762-3.813951.06366 9.674934 1.458013 12.982212 4.819106 16.232778 3.322963-3.148967 4.858497-6.547149 4.847287-16.232778 3.737718 3.135613 7.334938 3.830472 10.953368 3.813951-3.227999-3.120592-6.544434-5.692883-9.234271-12.043068z" fill="#fcef3c" fill-rule="evenodd" stroke="#000" stroke-width="1.319001"/><path d="m21.706974 58.178268h29.158859v4.771534h-29.158859z" fill="#fcef3c" stroke="#000" stroke-width="1.319001"/><path d="m126.28125 7.9375c-34.941678 37.094566-48.391726 79.825556-20.625 133.34375 6.34161 16.25846 11.33844 33.04455 10.3125 52.25h20.625c-1.02594-19.20545 3.97088-35.99154 10.3125-52.25 27.76673-53.518189 14.31668-96.249184-20.625-133.34375z" fill="#fcef3c" fill-rule="evenodd" stroke="#000" stroke-width="4.387791" transform="matrix(.300607 0 0 .300607 -1.678333 0)"/><path d="m52.25 100c-35.235309.84534-58.7273133 60.01799 15.21875 88.875-24.439711-47.87444 20.895745-30.13204 26.875 4.65625h17.53125c-9.67933-70.66082-37.052039-94.072804-59.625-93.53125z" fill="#fcef3c" fill-rule="evenodd" stroke="#000" stroke-width="4.387791" transform="matrix(.300607 0 0 .300607 -1.678333 0)"/><path d="m198.96875 100c-22.30142.41761-48.7644 24.28444-58.25 93.53125h17.5c5.97956-34.78829 51.34596-52.53069 26.90625-4.65625 74.89409-29.22698 49.82147-89.548704 13.84375-88.875z" fill="#fcef3c" fill-rule="evenodd" stroke="#000" stroke-width="4.387791" transform="matrix(.300607 0 0 .300607 -1.678333 0)"/></g><use height="100%" transform="translate(120 .000004)" width="100%" xlink:href="#f"/><use height="100%" transform="translate(60 120)" width="100%" xlink:href="#f"/><g stroke="#000"><path d="m2.999989 299.8973h592.712741m-295.71274 358.50005v-657.000052" fill="none" stroke-width="3"/><g stroke-width="1.001142" transform="matrix(.99885844 0 0 .99886059 .342416 -20.631298)"><path d="m300.00005 449.54083s108.62401-40.87331 108.62401-144.74898 0-94.08683 0-94.08683h-217.24801v94.08683c0 103.87567 108.624 144.74898 108.624 144.74898z" fill="#fff" fill-rule="evenodd" stroke-width="3.003425"/><path d="m191.375 210.71875v94.0625c0 62.34748 39.11701 101.98015 70.40625 123.71875v-217.78125z" fill="#2b5df2" stroke-width="2.181127"/><path d="m338.21875 210.71875v217.78125c31.28925-21.73859 70.40625-61.37127 70.40625-123.71875.00001-103.87566 0-94.0625 0-94.0625z" fill="#e20909" stroke-width="2.181127"/><g stroke-width="1.001142" transform="matrix(.428089 0 0 .428089 379.4978 210.0634)"><g fill="#fcef3c"><path d="m-148.22371 224.96452h5.23276c5.27289.00012 9.13463-1.58589 11.58506-4.75792 2.45031-3.17187 4.07874-9.45228 4.88526-18.84147h3.44297v58.23732h-3.44297c-.0621-6.68216-.698-11.58813-1.90757-14.71794-1.20979-3.12957-2.88472-5.47687-5.02482-7.04182-2.1403-1.5647-5.3196-2.34705-9.53793-2.34725h-15.88495" stroke-width="4.740428"/><path d="m-190.32367 249.12563v59.04206c0 8.71238.40318 14.46419 1.20966 17.25554.6203 2.11466 1.92309 3.93331 3.90825 5.45576 2.72953 2.03006 5.58314 3.04509 8.56087 3.04509h4.55958v4.69456h-54.15683v-4.69456h4.46658c5.21095 0 8.99508-2.07236 11.35242-6.21704 1.48884-2.70675 2.23322-9.21984 2.23322-19.53935l.3261-64.9119" stroke-width="4.740428"/><path d="m-105.33946 305.2614h-43.13103l-54.68828-60.6722c-4.05098.12771-7.34738.19148-9.88914.19144-1.03267.00004-2.14467-.0159-3.33612-.0479-1.19153-.0318-2.42271-.0797-3.69349-.14355v37.70482c-.00008 8.16619 1.11196 13.23812 3.33608 15.21584 3.01827 2.80715 3.46959 4.2107 9.50637 4.2107h-1.85086v3.54084h-56.98218v-3.54084h6.07647c6.8311 0 11.71612-1.78631 14.65502-5.35903 1.668-1.97772 2.50204-6.66689 2.50212-14.06751v-83.83093c-.00008-8.16606-1.11208-13.23803-3.33616-15.21592-3.0978-2.80698-7.70478-4.21053-13.82098-4.21066h-6.07647v-3.54083h58.8584c17.15702.00016 29.80635 1.00499 37.94812 3.01452 8.14156 2.00977 15.05204 5.71003 20.73153 11.10088 5.67917 5.39104 8.51882 11.81872 8.51899 19.28302-.00017 7.97487-3.23691 14.89697-9.71044 20.76632-6.47381 5.86952-16.50197 10.0164-30.08451 12.44066l33.36102 37.22632c7.62525 8.54895 14.17827 14.22702 19.65914 17.03413 5.48062 2.80715 12.62941 4.59346 21.4464 5.35903z" stroke-width="4.560864"/></g><path d="m-220.07752 238.56025c1.5091.00012 2.81973.0161 3.93185.0479 1.11196.0319 2.02541.0479 2.74039.0479 15.40953.00004 27.02623-2.67943 34.85028-8.03859 7.82388-5.35896 11.73584-12.18536 11.73592-20.47926-.00008-8.10225-3.15745-14.6894-9.47212-19.76149-6.31482-5.07185-14.67498-7.60782-25.08036-7.60794-4.60706.00012-10.84239.60621-18.70596 1.81824z" fill="#fff" stroke-width="4.560864"/><path d="m-173.53754 224.96452s-10.68369 15.1802-34.65238 12.73442v-59.2989c0-8.71218-.40318-26.46403-1.20962-29.25554-.62034-2.11441-1.89206-3.93307-3.81519-5.45572-2.66748-2.02998-5.52113-3.04497-8.56083-3.04509h-4.46658v-4.69456h101.89046l1.2097 37.80988h-3.25687c-1.613-8.03549-3.48959-13.93538-5.62969-17.69963-2.1403-3.76383-4.77682-6.49169-7.90945-8.18362-3.13288-1.69159-7.98715-2.53739-14.56283-2.53759h-35.82285v79.62635z" fill="#fcef3c" stroke-width="4.740428"/></g></g></g></g><path d="m300.00001 658.5s298.5-112.32031 298.5-397.77183c0-285.451504 0-258.5516835 0-258.5516835h-597.00001v258.5516835c0 285.45152 298.50001 397.77183 298.50001 397.77183z" fill="url(#b)" fill-rule="evenodd"/><path d="m299.99999 658.39735s-298.49999-112.30261-298.49999-397.70914c0-285.406498 0-259.1295378 0-259.1295378l596.99999-.0585845v259.1881223c0 285.40653-298.5 397.70914-298.5 397.70914z" fill="none" stroke="#000" stroke-width="3"/></svg>