<?xml version="1.0" encoding="UTF-8"?>
<svg width="750" height="713" xml:space="preserve" xmlns="http://www.w3.org/2000/svg">
  <g transform="matrix(2.0439872,0,0,2.0874883,-246.95464,-582.10653)" stroke="#000">
    <path d="m217.58 374.75 42.92 1.93s-1.45-2.16-9.09-5.82-10.16-10.16-10.16-10.16 4.8 2.6 11.22 5.2 10.8 2.76 10.8 2.76-29.98-26.49-29.82-26.24c0.16 0.24 38.52 18.77 38.52 18.77s-1.46-2.93-6.74-6.75c-5.29-3.82-3.74-12.59-3.74-12.59s11.05 14.22 17.14 13.97c-2.44-8.69-14.06-34.37-14.06-34.37l24.06 30.96s1.14-3.9-0.16-10.16c-1.3-6.25 2.27-12.19 2.27-12.19s0.89 6.59 3.82 11.22c2.92 4.63 4.63 5.93 4.06 8.78 2.68-3.99 6.83-36.65 6.83-36.65s3.33 27.06 3.33 35.26c0.49 3.25 2.76-0.4 4.15-5.2 1.38-4.79 3.81-7.88 9.42-12.1-2.92 4.71-3.09 11.21-3.01 14.7 0.09 3.5-0.32 5.53-0.32 5.53l22.99-30.72-12.92 34.78s3.99-2.03 8.46-6.34c4.46-4.3 8.12-6.82 13.73-5.93-5.53 3.33-8.45 9.27-11.46 15.2 14.63-6.59 32.75-17.72 32.75-17.72l-28.44 27.06s5.2 1.38 12.35-1.87 13.41-2.92 15.93 0.33c-8.21-0.25-17.56 5.93-22.59 10.72 20.96-3.25 41.12-4.95 41.12-4.95l-39.58 13.24s6.82 1.71 12.35 2.12c5.53 0.4 12.11 2.52 13.17 7.06-7.72-2.92-17.72-1.3-25.93-0.97 8.29 2.52 32.18 11.54 32.18 11.54l-33.31-4.39s-1.71 0.81-2.36 3.33-77.68 6.99-83.7 5.36c-6.01-1.62-9.42-0.48-8.93-0.81 0.48-0.32 5.12-5.52 5.2-6.74s-39.33 3.25-39.58 3.25c-0.24 0 37.71-11.54 37.71-11.54s-3.98-2.2-9.59-2.28-13.16-0.16-15.68-3.82c8.77-0.65 11.94-0.73 15.52-1.87 3.57-1.13 7.07-0.81 7.07-0.81z" fill="#ffd200" stroke-linecap="round" stroke-linejoin="round"/>
    <g fill="none">
      <g stroke-linecap="round" stroke-linejoin="round">
        <path d="M262.87 397.10001 268.66 396.23001"/>
        <path d="M259.69 389.38 267.79001 389.25"/>
        <path d="m260 381.4c0.25 0.13 8.16 1.37 8.16 1.37"/>
        <path d="m263.99 373.8c0.31 0.19 5.98 2.55 5.98 2.55"/>
        <path d="M285.54999 356.16 288.17001 361.45999"/>
      </g>
      <ellipse transform="translate(-2.5474)" cx="306.51999" cy="389.28" rx="32.5" ry="28.381001" stroke-width="1.5"/>
      <g stroke-linecap="round" stroke-linejoin="round">
        <path d="M294.45999 352.98001 295.70999 358.87"/>
        <path d="m304.74 351.86c-0.06 0.38-0.31 5.3-0.31 5.3"/>
        <path d="M313.03 353.42001 311.72 357.60001"/>
        <path d="M322.56 355.73001 320.01001 360.28"/>
        <path d="M342.75 373.60999 337.82999 376.35001"/>
        <path d="M346.42999 380.64999 340.13 381.89999"/>
        <path d="M348.29999 389.44 341.13 389.19"/>
        <path d="M346.42999 395.79999 340.76001 395.67001"/>
        <path d="M268.45001 365.01999 274.31 370.48999"/>
        <path d="M276.35999 359.89001 279.92999 364.62"/>
        <path d="M339.39999 365.45001 333.84 369.88"/>
        <path d="M331.79999 360.29999 328.14999 364.53"/>
      </g>
    </g>
    <path stroke-linecap="round" stroke-linejoin="round" d="M125.77 325.39 137.13 325.24 121.32 310.96z"/>
    <path fill="#fff" stroke-linecap="round" stroke-linejoin="round" d="M121.32 310.96 137.13 325.24 138.04 315.74z"/>
  </g>
  <path d="m94.513864 440.3452c-1.103754 0.54275-2.534544 1.41948-4.026655 2.73461 0.06131-0.0626 1.53299-1.27336 4.026655-2.73461z" fill="none"/>
  <g transform="matrix(2.0439872,0,0,2.0874883,-246.95464,-582.10653)" stroke="#000" stroke-linecap="round" stroke-linejoin="round" stroke-width="1.5">
    <path d="m167.06 489.8c0.61-0.3 1.01-0.4 1.01-0.4s7.31 11.82 12.18 23.13c7.75-6.03 8.37-12.23 6.27-19.41-7.52-8.55-15.77-5.44-19.46-3.32z" fill="#005cab"/>
    <path fill="none" d="M165.09 491.11 165.08 491.12z"/>
    <path d="m239.26 468.84c-24.75-14.64-64.89-47.71-74.23-55.5 0.17 0.99 0.32 1.89 0.43 2.66 1.36 9.27 3.38 23.13 7.19 38.4 9.36 5.68 39.29 24.29 64.2 45.59 0.92-10.23 1.72-20.9 2.41-31.15z" fill="#d21034"/>
  </g>
  <path d="m126.87018 427.84114c-3.94489 14.69592-8.11463 29.55884-12.5092 44.44263 2.47322 5.05174 4.90557 10.29133 7.11307 15.51005 22.2999-17.72278 15.75915-36.15532 5.39613-59.95268z" fill="none"/>
  <g transform="matrix(2.0439872,0,0,2.0874883,-246.95464,-582.10653)" stroke="#000" stroke-linecap="round" stroke-linejoin="round">
    <g stroke-width="1.5">
      <path d="m168.07 489.4s-9.44 2.43-6.1 17.52c2.95 5.06 6.42 8.66 10.59 11.74 1.45-4.51 2.85-9.03 4.21-13.56-4.26-8.52-8.7-15.7-8.7-15.7z" fill="#fff"/>
      <path d="m176.25 467.31c1.89 6.11 4.44 11.55 6.64 16.5 1.83-6.65 3.56-13.24 5.2-19.69-6.82-4.44-12.29-7.81-15.44-9.72 1.06 4.22 2.24 8.54 3.6 12.91z" fill="#fff"/>
      <path d="m205.82 381.75c-2.26 12.84-6.02 32.45-11.24 55.38 8.89 6.93 18.64 14.27 27.82 20.69 5.85-22.01 10.37-40.02 12.76-51.78-6.68-5.53-17.37-14.39-29.34-24.29z" fill="#289728"/>
      <path d="m242.34 412s-2.68-2.22-7.18-5.96c-2.39 11.76-6.91 29.77-12.76 51.78 6 4.2 11.76 8.01 16.86 11.02 2.04-30.31 3.08-56.84 3.08-56.84z" fill="#ffd200"/>
      <path d="m228.08 554.27c3.59-6.73 6.52-29.15 8.77-54.28-6.89-5.89-14.17-11.58-21.3-16.85-4.4 16.1-9.25 33.55-14.32 51.72 14.25 8.84 26.85 19.41 26.85 19.41z" fill="#ffd200"/>
      <path d="m182.89 483.81c5.07 11.4 8.27 20.23-2.64 28.72-1.08-2.5-2.27-5.01-3.48-7.43-1.36 4.53-2.76 9.05-4.21 13.56 4.93 3.64 10.85 6.54 18.12 10.22 3.51 1.77 7.08 3.82 10.55 5.98 5.07-18.17 9.92-35.62 14.32-51.72-9.96-7.36-19.61-13.9-27.46-19.02-1.64 6.45-3.37 13.04-5.2 19.69z" fill="#289728"/>
      <path d="m176.39 357.44c-2.35 21.24-6.42 41.56-11.44 55.46 0.02 0.15 0.05 0.3 0.08 0.44 4.47 3.73 16.02 13.26 29.55 23.79 5.22-22.93 8.98-42.54 11.24-55.38-9.46-7.83-19.73-16.31-29.43-24.31z" fill="#fff"/>
      <path d="m162.39 400.43c-3.67-16.53-9.5-39.28-13.1-48.61-3.18-8.22-6.08-17.34-7.79-22.96-0.7-0.56-1.36-1.08-1.96-1.56-0.17 6.26 4.53 34.78 6.61 49.56 0.88 6.22 1.79 15.47 2.56 25.34 4.19-2.58 8.96-3.58 13.68-1.77z" fill="#005cab"/>
      <path d="m156.24 493.22c1.7 5.57 3.58 10.02 5.73 13.7-2.04-9.2 0.68-13.69 3.11-15.8l0.01-0.01c0.58-0.51 1.15-0.87 1.63-1.13-3.37-6.34-9.6-18.75-16-31.98 0.22 10.27 1.23 21.15 5.52 35.22z" fill="#fff"/>
      <path d="m169.02 437.76c-1.62-8.51-2.71-16.02-3.56-21.76-0.49-3.37-1.61-8.98-3.07-15.57-4.72-1.81-9.49-0.81-13.68 1.77 1.06 13.61 1.87 28.39 1.97 37.98v0.68c6.05-3.56 12.68-5.26 18.34-3.1z" fill="#d21034"/>
      <path d="m176.25 467.31c-3.23-10.39-5.52-20.53-7.23-29.55-5.66-2.16-12.29-0.46-18.34 3.09 0.05 5.83-0.08 11.4 0.04 17.15 6.4 13.23 12.63 25.64 16 31.98 0.12-0.06 0.23-0.13 0.34-0.18 3.69-2.12 11.94-5.23 19.46 3.32-2.14-7.31-7.11-15.63-10.27-25.81z" fill="#005cab"/>
      <path d="m176.39 357.44c-14.25-11.74-27.31-22.46-34.89-28.58 1.71 5.62 4.61 14.74 7.79 22.96 0.67 1.74 1.43 3.96 2.23 6.52l4.65 2.24c1.95-2.94 3.7-5.64 3.7-5.64l0.54 7.68 7.09 3.42-6.8 0.8 0.59 8.34-5.48-7.76-1.58 0.18c4.24 15.22 8.89 35.18 10.72 45.31 5.02-13.91 9.09-34.23 11.44-55.47z" fill="#005cab"/>
      <path d="m153.08 363.54c0.11 0.38 0.22 0.76 0.33 1.14 0.08-0.11 0.15-0.22 0.23-0.34z" fill="none"/>
      <path d="m161.29 375.18-0.59-8.34 6.8-0.8-7.09-3.42-0.54-7.68s-1.75 2.7-3.7 5.64l-4.65-2.24c0.5 1.61 1.02 3.35 1.56 5.2l0.56 0.8c-0.08 0.12-0.15 0.23-0.23 0.34 0.27 0.95 0.55 1.93 0.82 2.92l1.58-0.18z" fill="#ffd200"/>
    </g>
    <path d="m243.75 414.75c-0.34 0-0.68-0.11-0.96-0.34l-105.3-87.11c-0.63-0.52-0.72-1.47-0.2-2.11 0.53-0.64 1.48-0.73 2.12-0.2l105.3 87.1c0.63 0.53 0.72 1.48 0.2 2.11-0.3 0.36-0.73 0.55-1.16 0.55z" fill="#414142"/>
    <circle cx="138.45" cy="326.14999" r="3.3929999" fill="#414142"/>
    <path d="M487.25 310.96 482.8 325.39 471.44 325.24z"/>
    <path fill="#fff" d="M470.52 315.74 487.25 310.96 471.44 325.24z"/>
  </g>
  <path d="m655.48614 440.3452c1.10376 0.54275 2.53456 1.41948 4.02666 2.73461-0.0613-0.0626-1.53301-1.27336-4.02666-2.73461z" fill="none"/>
  <g transform="matrix(2.0439872,0,0,2.0874883,-246.95464,-582.10653)" stroke="#000" stroke-linecap="round" stroke-linejoin="round" stroke-width="1.5">
    <path d="m441.51 489.8c-0.61-0.3-1.01-0.4-1.01-0.4s-7.31 11.82-12.18 23.13c-7.75-6.03-8.38-12.23-6.28-19.41 7.53-8.55 15.78-5.44 19.47-3.32z" fill="#005cab"/>
    <path fill="none" d="M443.48 491.11 443.49 491.12z"/>
    <path d="m369.31 468.84c24.75-14.64 64.88-47.71 74.23-55.5-0.17 0.99-0.32 1.89-0.44 2.66-1.36 9.27-3.37 23.13-7.19 38.4-9.35 5.68-39.28 24.29-64.19 45.59-0.92-10.23-1.73-20.9-2.41-31.15z" fill="#d21034"/>
  </g>
  <path d="m623.1094 427.84114c3.9653 14.69592 8.13506 29.55884 12.50918 44.44263-2.45278 5.05174-4.88512 10.29133-7.09264 15.51005-22.2999-17.72278-15.75913-36.15532-5.41654-59.95268z" fill="none"/>
  <g stroke="#000" stroke-linecap="round" stroke-linejoin="round">
    <g transform="matrix(2.0439872,0,0,2.0874883,-246.95464,-582.10653)" stroke-width="1.5">
      <path d="m440.5 489.4s9.44 2.43 6.1 17.52c-2.96 5.06-6.42 8.66-10.6 11.74-1.44-4.51-2.85-9.03-4.21-13.56 4.27-8.52 8.71-15.7 8.71-15.7z" fill="#fff"/>
      <path d="m432.32 467.31c-1.9 6.11-4.44 11.55-6.65 16.5-1.82-6.65-3.55-13.24-5.19-19.69 6.82-4.44 12.29-7.81 15.44-9.72-1.06 4.22-2.24 8.54-3.6 12.91z" fill="#fff"/>
      <path d="m402.75 381.75c2.26 12.84 6.02 32.45 11.24 55.38-8.89 6.93-18.65 14.27-27.82 20.69-5.85-22.01-10.37-40.02-12.76-51.78 6.68-5.53 17.37-14.39 29.34-24.29z" fill="#289728"/>
      <path d="m366.23 412s2.68-2.22 7.18-5.96c2.39 11.76 6.9 29.77 12.76 51.78-6 4.2-11.76 8.01-16.86 11.02-2.04-30.31-3.08-56.84-3.08-56.84z" fill="#ffd200"/>
      <path d="m380.49 554.27c-3.59-6.73-6.53-29.15-8.77-54.28 6.89-5.89 14.17-11.58 21.29-16.85 4.4 16.1 9.25 33.55 14.33 51.72-14.25 8.84-26.85 19.41-26.85 19.41z" fill="#ffd200"/>
      <path d="m425.67 483.81c-5.06 11.4-8.26 20.23 2.65 28.72 1.07-2.5 2.27-5.01 3.47-7.43 1.36 4.53 2.77 9.05 4.21 13.56-4.92 3.64-10.84 6.54-18.11 10.22-3.51 1.77-7.08 3.82-10.55 5.98-5.08-18.17-9.93-35.62-14.33-51.72 9.96-7.36 19.61-13.9 27.47-19.02 1.64 6.45 3.37 13.04 5.19 19.69z" fill="#289728"/>
      <path d="m432.18 357.44c2.35 21.24 6.42 41.56 11.44 55.46-0.02 0.15-0.05 0.3-0.08 0.44-4.48 3.73-16.02 13.26-29.55 23.79-5.23-22.93-8.98-42.54-11.24-55.38 9.46-7.83 19.72-16.31 29.43-24.31z" fill="#fff"/>
      <path d="m446.18 400.43c3.67-16.53 9.49-39.28 13.1-48.61 3.18-8.22 6.08-17.34 7.79-22.96l1.95-1.56c0.18 6.26-4.52 34.78-6.61 49.56-0.87 6.22-1.78 15.47-2.55 25.34-4.2-2.58-8.96-3.58-13.68-1.77z" fill="#005cab"/>
      <path d="m452.32 493.22c-1.69 5.57-3.57 10.02-5.72 13.7 2.03-9.2-0.68-13.69-3.11-15.8l-0.01-0.01c-0.59-0.51-1.15-0.87-1.63-1.13 3.36-6.34 9.6-18.75 16-31.98-0.22 10.27-1.24 21.15-5.53 35.22z" fill="#fff"/>
      <path d="m439.55 437.76c1.62-8.51 2.71-16.02 3.56-21.76 0.49-3.37 1.61-8.98 3.07-15.57 4.72-1.81 9.48-0.81 13.68 1.77-1.06 13.61-1.87 28.39-1.97 37.98v0.68c-6.06-3.56-12.69-5.26-18.34-3.1z" fill="#d21034"/>
      <path d="m432.32 467.31c3.22-10.39 5.52-20.53 7.23-29.55 5.65-2.16 12.28-0.46 18.34 3.09-0.05 5.83 0.08 11.4-0.04 17.15-6.4 13.23-12.64 25.64-16 31.98-0.12-0.06-0.23-0.13-0.34-0.18-3.69-2.12-11.94-5.23-19.47 3.32 2.15-7.31 7.12-15.63 10.28-25.81z" fill="#005cab"/>
      <path d="m432.18 357.44c14.25-11.74 27.31-22.46 34.89-28.58-1.71 5.62-4.61 14.74-7.79 22.96-0.67 1.74-1.43 3.96-2.23 6.52l-4.65 2.24c-1.95-2.94-3.7-5.64-3.7-5.64l-0.54 7.68-7.09 3.42 6.8 0.8-0.59 8.34 5.48-7.76 1.58 0.18c-4.24 15.22-8.9 35.18-10.72 45.31-5.02-13.91-9.09-34.23-11.44-55.47z" fill="#005cab"/>
      <path d="m455.49 363.54c-0.11 0.38-0.22 0.76-0.33 1.14-0.08-0.11-0.16-0.22-0.24-0.34z" fill="none"/>
      <path d="m447.28 375.18 0.58-8.34-6.79-0.8 7.09-3.42 0.54-7.68s1.74 2.7 3.7 5.64l4.65-2.24c-0.5 1.61-1.03 3.35-1.56 5.2l-0.57 0.8c0.08 0.12 0.16 0.23 0.24 0.34-0.28 0.95-0.55 1.93-0.83 2.92l-1.58-0.18z" fill="#ffd200"/>
    </g>
    <g stroke-width="2.06562">
      <path d="m498.73277 283.67922c0.67451 0 1.36946-0.22964 1.94179-0.70977l215.23185-181.84109c1.30813-1.08549 1.4921-3.068602 0.40879-4.404595-1.08332-1.335992-3.00467-1.523866-4.31281-0.417498l-215.23184 181.82023c-1.30818 1.10636-1.49213 3.08948-0.40881 4.40459 0.6132 0.7515 1.4921 1.14813 2.37103 1.14813z" fill="#414142"/>
      <ellipse cx="713.9646" cy="98.727745" rx="6.9352484" ry="7.0828471" fill="#414142"/>
      <path d="m220.91402 259.15123v257.78392c0 28.51508 31.57962 29.9972 65.42803 29.9972h61.52402c10.75138 0 23.05617 8.12031 27.14415 15.15517 4.08797-7.03486 16.39278-15.15517 27.12371-15.15517h61.52403c33.84841 0 65.44845-1.48212 65.44845-29.9972v-257.78392z"/>
    </g>
    <g transform="matrix(2.0439872,0,0,2.0874883,-246.95464,-582.10653)" stroke-width=".9963">
      <path fill="#fff" d="M304.29001 408H374.164011V471.921001H304.29001z"/>
      <path d="m304.29 471.92v68.95c3.54-2.83 8.4-5.01 13.17-5.01h29.89c20.55 0 26.81-2.19 26.81-9.37v-54.57z" fill="#005cab"/>
      <path fill="#289728" d="M234.41 408H304.284001V471.921001H234.41z"/>
      <path d="m234.41 471.92v54.57c0 7.18 6.27 9.37 26.82 9.37h29.88c4.77 0 9.63 2.18 13.18 5.01v-68.95z" fill="#ffd200"/>
      <path d="m279.19 449.25v41.69c0 4.61 5.14 4.85 10.66 4.85h10.02c1.75 0 3.75 1.31 4.42 2.45 0.66-1.14 2.67-2.45 4.42-2.45h10.02c5.51 0 10.66-0.24 10.66-4.85v-41.69z" fill="#fff"/>
    </g>
    <path d="m375.01022 450.13552c-2.30969-1.87874-5.45745-3.33997-8.54387-3.33997h-19.35656c-13.30635 0-17.3739-1.44038-17.3739-6.19984v-78.6357h90.5282v78.6357c0 4.75946-4.04708 6.19984-17.37389 6.19984h-19.35654c-3.08643 0.0208-6.23418 1.46123-8.52344 3.33997z" fill="#d21034" stroke-width="1.94872"/>
    <ellipse cx="374.11783" cy="402.29031" rx="39.289524" ry="34.518703" fill="#fff" stroke-width="2.05797"/>
  </g>
  <path transform="matrix(2.0439872,0,0,2.0874883,-251.26048,-582.10653)" d="M244.14 514.92 252.6 513.18 255.27 504.87 256.86 513.18 265.58 515.73 256.86 517.6 254.45 525.78 252.6 517.6z"/>
  <ellipse cx="269.6701" cy="493.61792" rx="6.820785" ry="6.7905993" fill="#fff" stroke="#000" stroke-linecap="round" stroke-linejoin="round" stroke-width="2.05797"/>
  <path transform="matrix(2.0439872,0,0,2.0874883,-251.26048,-582.10653)" d="M276.03 514.92 284.49 513.18 287.17 504.87 288.75 513.18 297.48 515.73 288.75 517.6 286.34 525.78 284.49 517.6z"/>
  <ellipse cx="334.87332" cy="493.61792" rx="6.8228292" ry="6.7905993" fill="#fff" stroke="#000" stroke-linecap="round" stroke-linejoin="round" stroke-width="2.05797"/>
  <path transform="matrix(2.0439872,0,0,2.0874883,-251.26048,-582.10653)" d="M258.8 494.02 267.26 492.28 269.93 483.97 271.52 492.28 280.24 494.82 271.52 496.7 269.11 504.87 267.26 496.7z"/>
  <ellipse cx="299.63492" cy="449.98941" rx="6.8228292" ry="6.7905993" fill="#fff" stroke="#000" stroke-linecap="round" stroke-linejoin="round" stroke-width="2.05797"/>
  <g transform="matrix(2.0439872,0,0,2.0874883,-246.95464,-582.10653)" stroke="#000" stroke-linecap="round" stroke-linejoin="round">
    <path d="m361.32 431.91c0.96-1.81-0.09-2.96-2.29-2.96 0.47-2.59-0.2-5.07-1.92-4.97 0.96-1.63 0.39-4.98-4.01-4.6 1.05-3.82-0.58-5.06-4.69-4.59-0.86-2.58-2.77-1.24-2.77-1.24s-0.39-3.06-4.12-3.06-4.59 2.77-4.59 2.77-3.06 0.19-4.4 3.64c-1.91-0.19-4.01 0-5.83 4.2-1.63 0.2-2.3 1.73-2.3 1.73s-4.39 0.57-4.39 3.15 1.81 2.78 1.81 2.78 0.1 1.81 3.35 1.72c-1.05 0.38-4.11-0.67-5.64 1.34-3.26 0.28-2.2 5.54 0.09 5.64-0.57 1.72 2.39 1.91 3.45 1.34-0.29 1.15 1.52 0.96 3.15-0.48 1.82 1.53 3.16 0.57 3.16 0.57s2.87 0.96 4.68 0c0.48 1.73 2.49 0 2.49 0s-0.1 1.63 0.96 2.3c0.25 0.16 0 12.62 0 12.62s-6.32 5.93-6.51 10.14c3.45-2.68 7.08-3.83 7.08-3.83s0.29 5.46 0.86 6.32c0.96-3.35 1.34-4.69 1.34-4.69s4.11 4.49 4.78 6.31c0.38-2-0.48-7.07-0.48-7.07s8.04 1.33 10.24 4.11c-0.96-3.64-10.62-11-10.62-11l-0.77-13.68s0.67-1.72 2.2-2.1 2.68-0.67 2.78-1.91c0.19 2.19 1.53 4.68 4.49 3.53 2.3 2.3 3.83 0.1 4.21-1.72 2.01-0.48 1.91-2.58 1.91-2.58s2.2 0.1 2.3-1.34c1.15-0.38 1.53-1.91 0-2.39zm-21.99 5.93c-0.32 0.16-0.49-1.33-1.72-0.94 0-0.17-0.52-1.37-2.04-1.04 0-0.85-0.72-1.82-2.18-0.91 1.88-1.14 0.71-3.18 0.71-3.18 1.4 0.09 3.09-1.01 3.09-1.01s0.84 0.23 2.24 0.06c0 0.78 1.72 1.98 1.72 1.98s-0.13 1.08 0.06 2.21c-0.97 0.23-1.55 2.67-1.88 2.83z" fill="#289728"/>
    <g fill="none">
      <path d="m326.13 435.36c0.19-0.48-0.29-2.78 1.91-3.35 2.2-0.58 2.68 1.15 2.68 1.15"/>
      <path d="m327.56 426.85s0.67 1.91 3.25 1.24"/>
      <path d="m330.33 422.54s-0.38 4.31 4.78 2.2 0.2 4.02 4.21 1.53"/>
      <path d="m334.35 422.73c0.19 0.48 1.34 2.39 2.3 2.49"/>
      <path d="m339.13 419.58c0.29 0 6.03-0.58 5.26 4.11 3.44-2.87 5.84 0.38 6.22 2.87"/>
      <path d="m342.38 413.74c-0.19 0.86-1.05 2.49 0.58 3.06"/>
      <path d="m345.06 416.04s1.82 1.53 1.63 3.06"/>
      <path d="m352.62 425.22c0.57 0.19 6.41 3.25 1.24 6.6"/>
      <path d="m355.87 431.91c0.57 0.1 2.2 3.83-3.35 4.69"/>
      <path d="m333.95 429s2 3.2 5.54 0.55"/>
      <path d="m341.9 430.2c0.45 0.38 0.33 0.85 1.45 0.82"/>
      <path d="m343.75 428.31c0 0.1-0.3 1.49 0.7 1.69"/>
      <path d="m347.96 429.23c0.07-0.05-0.05 2.27-2.74 2.14"/>
      <path d="m340.46 431.75c0.25 0.05 1.62 0.29 2.39-0.73 0 1.22 1.35 1.32 1.45 1.3 0.09-0.02-1.8 1.59 0.1 3.11-0.45-0.19-1.6-0.19-2.1 1.5"/>
    </g>
    <path d="m271.22 465.22s-7.31 3.44-8.67-8.31-1.29-15.05-1.29-15.05l-3.58 0.14-1.07 2.01s-11.76-0.5-16.77-9.6c5.01-9.31 8.6-16.48 10.75-17.05 2.15-0.58 3.65 1.36 7.16 0.28 3.51-1.07 4.66-4.58 10.18-3.36 5.51 1.22 8.59 3.29 11.75 3.01 3.15-0.29 9.6-2.37 12.25 3.94 2.65 6.3 2.86 8.67 3.37 10.03 0.5 1.36-1.44 1.79-3.16 3.44-1.72 1.64-2.51 4.94-3.65 5.94-1.15 1.01-11.54 4.37-11.54 4.37s-1.79-3.36-2.15-3.36h-4.08s-1.29 2.22-2.29 6.87c-1 4.66-1.36 11.9 0.14 13.11 1.5 1.22 3.58-0.49 2.65 3.59z" fill="#fff"/>
    <g fill="none">
      <path d="m257.32 442.22s-0.5-4.23-0.36-6.02c0.15-1.79-2.5-3.29-2.58-6.44-0.07-3.16 1.94-5.95 2.58-7.38"/>
      <path d="m261.26 441.86s0-3.51-0.14-3.72c-0.15-0.22-1.15 0.14-1.15 0.14"/>
      <path d="m270 442.94c0.72-3.08 0.29-5.16 1.36-5.45"/>
      <path d="m275.09 441.86c-0.29-1.57-0.43-3.72 0.57-5.3 1.01-1.58 3.01-4.66 3.23-7.31 0.21-2.65-1.79-3.87-1.72-7.95"/>
      <path d="m283.26 431.62c0.57 0.43 2.22 1.64 1.72 4.44"/>
      <path d="m286.12 428.32c0.22 0 2.87 2.22 2.15 5.16"/>
      <path d="m278.96 419.94c2.58 1.07 6.73-1.79 8.17 1"/>
      <path d="m263.13 420.15c2.5-0.57 5.73-1.14 6.94 0.22"/>
      <path d="m249.51 423.02c1.94-1.58 4.66-1.93 5.23-0.86"/>
      <path d="m246.14 429.04s-2.65 4.15-2.93 4.44"/>
      <path d="m249.58 430.47s-2.72 3.37-3.44 4.52"/>
      <path d="m251.59 433.19s-2.8 1.87-2.72 3.44"/>
    </g>
    <path d="m256.72 444.1s-1.74 10.73-3.49 16.15c4.42-5.08 8.08-15.5 8.08-15.5l0.04-2.89-3.37 0.14z" fill="#fff"/>
    <path d="m274.4 441.5s-0.17 14.08 1.5 20c-5.09-6.58-5.92-18.25-5.92-18.25l1.25-1.58z" fill="#fff"/>
    <path d="m258.26 432.44c1.1-0.39 1.5-0.73 2.33-0.24 0.82 0.49 1.37 1.71 1.37 1.71" fill="none"/>
    <path d="m260.31 432.29s-0.52 0.18-0.43 1.25c0.1 1.08 1.81 0.86 1.72-0.18-0.06-0.7-1.29-1.07-1.29-1.07z"/>
    <path d="m275.79 431.16c-1.1-0.4-1.5-0.73-2.33-0.24-0.82 0.48-1.37 1.71-1.37 1.71" fill="none"/>
    <path d="m273.74 431.01s0.52 0.18 0.43 1.25-1.81 0.86-1.71-0.18c0.06-0.7 1.28-1.07 1.28-1.07z"/>
    <path d="m156.15 513.23s11.54 7.54 3.99 19.98c-7.54 12.43-11.32 14.98-7.88 21.09 3.44 6.1 18.21 8.21 26.31 6.77 8.11-1.45 50.18-5.11 70.94 2.11 5.43 4.22 16.98 21.31 16.31 23.86-0.66 2.56-2.66 3.78-7.88 5-5.21 1.22-5.99 5.22-2.55 6.66s28.76 6.82 53.12 6.38c24.37-0.44 45.88-5.93 51.15-9.88 0.88-3.29-11.43-1.66-12.38-9.18s6.85-20.83 11.53-23.06 25.07-5.21 39.82-6.09c14.75-0.87 43.25 4.25 55.25-2s9.75-13.5 1.75-19.75-9.5-19.12-1.13-24.75c-2.12 9 5 17.13 11 21.88s13.75 14.5 4.38 24.5c-9.38 10-28.38 12.37-28.38 12.37s10.5 3.5 7.62 16.38c-2.87 12.88-21.12 19.38-36.87 5.12 10.63 3.38 23.63 4.38 25.25-3.12s-8.25-12-34.12-12.75c-25.88-0.75-40.5 1.75-43.63 4.5 2 5 11 4.5 11.75 8.63 0.75 4.12-1.88 15.24-5.88 19.87-3.24 3.13-21 11.25-48.87 11.75s-56-1.75-66.75-6.12c-9-11.38-11.12-19.88-11.12-22 0-2.13 1.62-4.63 6.24-5.76 4.63-1.12 6.76-2.12 7-5.62-8.37-3.25-27.74-5.88-49.5-5-21.74 0.88-32.5 8.62-27.24 17 5.24 8.38 19.62 4.38 22 2.75-5.88 5-20.26 8.87-28.76 2.13-8.5-6.76-5.87-18.88 0.26-22.26-9.63-2.87-30.88-13.87-31.5-20.87-0.63-7 3-11.13 11.5-18.87 8.5-7.76 10.29-16.3 7.27-21.65z" fill="#fff" stroke-width="1.25"/>
    <g fill="none" stroke-width="1.25">
      <path d="m244.12 577.75s20.13 4.13 21.13 7.13"/>
      <path d="m238.75 591.88s3.13 4.5 19.25 7.5"/>
      <path d="m347.5 586.62c-0.12-1.87 1-4.24 14-8.37"/>
      <path d="m371.12 587.38c-0.12 2.24-6.37 5.5-12.74 8.62"/>
    </g>
  </g>
  <g stroke-width="2.06562">
    <path d="m139.72686 597.03207 1.57387 9.87382c0.4088 2.56762 1.38991 3.63224 4.43545 3.11036 2.88202-0.48014 3.47478-1.81612 3.06598-4.36285l-1.57387-9.87382 3.1273-0.52188 1.57387 9.85295c0.24528 1.60737 0.32704 2.88073-0.44967 4.0706-1.06288 1.62825-2.80027 2.60937-5.31437 3.04773-2.69806 0.43838-4.63985 0.1461-6.27504-1.08547-1.26727-0.98112-1.47167-2.23363-1.69651-3.73663l-1.57387-9.85295z"/>
    <path d="m159.4309 610.14149-0.57232-15.71879 3.2295-0.12528 11.13973 11.50205-0.59276-11.89869 3.10686-0.10446 0.59276 15.71879-3.04554 0.10447-11.36457-11.83607 0.65408 12.23268z"/>
    <path d="m182.73235 609.49438v-15.73966h3.14774v15.73966z"/>
    <path d="m194.71012 609.59874 0.36792-13.58954-4.08798-0.10447 0.0613-2.12923 11.30324 0.31314-0.0409 2.10834-4.08796-0.10447-0.36794 13.58956z"/>
    <path d="m206.66744 610.03712 1.00154-15.69792 11.2828 0.7515-0.12266 2.08749-8.13506-0.54275-0.30659 4.67598 8.15549 0.54275-0.1431 2.06661-8.13507-0.54275-0.30661 4.69687 8.15551 0.54272-0.1431 2.171z"/>
    <path d="m308.88723 699.15199 1.41035-15.65617 6.99046 0.64713c6.60206 0.62625 10.60827 4.27935 10.17902 8.93445-0.24526 2.69287-2.00309 4.78035-4.94643 5.97022-2.43235 1.00199-4.6603 0.96024-7.54233 0.68887zm7.05177-1.44036c4.88512 0.48013 8.05329-1.44038 8.3599-4.9056 0.32702-3.54874-2.53455-6.07459-7.91023-6.57557l-3.2295-0.31314-1.04244 11.43945z"/>
    <path d="m331.18715 701.11425 1.02199-15.69794 3.14773 0.20877-1.02199 15.69791z"/>
    <path d="m362.41925 694.72652c-0.51099 4.98908-5.25304 8.03681-11.44633 7.78634-3.24993-0.12529-5.98888-1.14814-8.13507-3.04773-1.77825-1.54475-2.67762-3.50699-2.59584-5.678 0.0818-2.19184 1.32857-4.15408 3.63829-5.65708 2.16662-1.44037 4.80337-2.06661 7.99199-1.94136 4.43544 0.18789 7.80803 1.89961 9.38191 4.67598l-3.88358-0.14611c-1.38992-1.39862-3.39303-2.17098-5.84581-2.25448-2.04399-0.10446-3.96533 0.3966-5.43701 1.39861-1.5943 1.06462-2.49367 2.56762-2.57542 4.0706-0.0613 1.66998 0.67451 3.21475 2.04399 4.3211 1.47167 1.18988 3.49522 1.92049 5.51877 2.00399 3.27037 0.12528 5.88668-1.02285 7.6445-3.46524l-9.85202-0.41749 0.0818-2.21274z"/>
    <path d="m366.48679 702.74248 0.18399-15.73967 3.24995 0.0208 10.56743 12.04481-0.0204-11.91956 3.12729 0.0418-0.18398 15.73967-3.0251-0.0418-10.8127-12.37881 0.0818 12.25355z"/>
    <path d="m390.0744 702.86772-0.12265-15.73964 3.16819-0.0208 0.10222 15.73965z"/>
    <path d="m403.66692 702.65898-0.47011-13.58956-4.06755 0.14611-0.0613-2.12926 11.30325-0.39663 0.0613 2.12925-4.06753 0.14611 0.44968 13.58953z"/>
    <path d="m418.62891 701.8866-1.57386-15.65614 11.24192-1.16901 0.22483 2.08748-8.11462 0.85588 0.47011 4.6551 8.11463-0.85587 0.20439 2.04574-8.11462 0.85587 0.47013 4.69683 8.11461-0.85585 0.20439 2.15011z"/>
    <path d="m506.07067 612.56299-2.06442-13.44343-4.02666 0.64712-0.32703-2.08748 11.1806-1.79525 0.30661 2.08749-4.02667 0.64713 2.08488 13.44341z"/>
    <path d="m518.10975 610.85123-1.22638-15.67703 6.27505-0.52186c5.29392-0.41749 8.17595 1.16897 8.44165 4.42547 0.18399 2.50497-2.12574 4.6551-5.82537 5.09347l6.64297 5.51097-3.94489 0.31312-7.78759-6.67997 0.5723 7.26446zm4.19019-7.93246c4.31282-0.35487 6.35679-1.52386 6.21371-3.61132-0.16354-2.08749-2.12573-2.77637-5.94799-2.46325l-2.3506 0.18787 0.47013 6.01197z"/>
    <path d="m538.59052 609.41089-3.35215 0.0835 8.13509-15.94841 3.06598-0.0835 8.91175 15.48917-3.45432 0.10446-2.51411-4.50896-8.4621 0.20874zm6.37722-12.94243-2.96377 6.05371 6.19327-0.16711z"/>
    <path d="m562.83219 609.056-8.29859-15.80229 3.35217 0.0208 5.88666 11.79431 6.09107-11.68994 3.31126 0.0208-8.48252 15.67702z"/>
    <path d="m574.05369 609.18125-3.33171-0.12529 9.07532-15.40567 3.04554 0.12528 7.97154 16.03189-3.45432-0.1461-2.22796-4.65508-8.46211-0.31312zm7.15396-12.50405-3.33172 5.84497 6.19331 0.22962z"/>
    <path d="m595.31116 610.20412 1.18551-15.69792 3.14774 0.25051-1.18552 15.69792z"/>
    <path d="m605.51066 611.10174 1.98265-15.59353 3.12731 0.41749-1.69652 13.44342 7.09264 0.93939-0.28615 2.15011z"/>
  </g>
  <path d="m375.04605 579.459c-21.07559 0-38.19481 17.00665-38.19481 37.96965s17.11922 37.96965 38.19481 37.96965c21.07558 0 38.1573-17.00665 38.1573-37.96965s-17.08172-37.96965-38.1573-37.96965zm0 6.5064c17.49423 0 31.65087 14.02533 31.65087 31.35075 0 17.32541-14.15664 31.40699-31.65087 31.40699-17.47549 0-31.70713-14.08158-31.70713-31.40699 0-17.32542 14.23164-31.35075 31.70713-31.35075z" fill="#289728" stroke="#000" stroke-linecap="round" stroke-linejoin="round" stroke-width="2.58194"/>
  <g transform="matrix(2.0439872,0,0,2.0874883,-246.95464,-582.10653)" fill="#fff" stroke="#000" stroke-linecap="round" stroke-linejoin="round" stroke-width="1.6372782">
    <path d="m293.48 598.61c0.37-0.05 10.83-22.99 10.83-22.99l10.82 22.99-10.82-4.29z"/>
    <path d="m293.47 550.64c0.37 0.05 10.82 22.99 10.82 22.99l10.83-22.99-10.83 4.29z"/>
    <path d="m279.37 585.24c0.05-0.36 23.48-10.6 23.48-10.6l-23.48-10.6 4.38 10.6z"/>
    <path d="m329.22 564.02c-0.05 0.36-23.48 10.6-23.48 10.6l23.48 10.6-4.38-10.6z"/>
  </g>
  <ellipse cx="375.02713" cy="617.38434" rx="23.230194" ry="22.910196" fill="#40cfff" stroke="#bf9b30" stroke-linecap="round" stroke-linejoin="round" stroke-width="1.87502"/>
  <ellipse cx="374.87561" cy="617.53552" rx="17.791874" ry="17.54615" stroke="#bf9b30" stroke-linecap="round" stroke-linejoin="round" stroke-width="1.78568"/>
  <path transform="matrix(1.9245817,0,0,1.9647913,-213.23925,-511.31516)" fill="#bf9b30" d="M305.51 566.16 307.44 572.09 313.66 572.09 308.62 575.75 310.55 581.68 305.51 578.01 300.47 581.68 302.4 575.75 297.35 572.09 303.58 572.09z"/>
  <g transform="matrix(2.0439872,0,0,2.0874883,-246.95464,-582.10653)" stroke="#000" stroke-linecap="round" stroke-linejoin="round" stroke-width="1.35">
    <path d="m246.48 305.73c-0.4 2.37 4.34 7.77 3.16 10.93-1.19 3.16-7.77 3.95-24.88 7.89-17.11 3.95-16.19 15.93-14.61 23.57-13.69-10.01-6.19-25.15-1.19-30.02-8.16 1.19-21.06-1.84-29.35-5.26-8.3-3.43-11.85-7.24-18.96-6.06 0 0 5.92-2.89 21.72 0 15.8 2.9 36.73 4.21 53.05-4.08-6.05-10.53-6.97-11.98 10.93-16.58 17.9-4.61 39.62-6.59 67.79-6.59s52.26 7.9 59.37 10.4 0.53 7.77-1.05 10.67c6.32 3.02 19.22 10.79 34.75 8.16 15.53-2.64 26.46-6.85 41.33-3.69-10.13 1.32-15.4 3.29-22.24 7.51-6.85 4.21-23.17 7.76-32.12 5.79 11.45 8.95 10.92 21.98 3.03 29.09 1.97-10.66 0.52-19.35-18.7-24.62-19.22-5.26-26.98-2.24-19.87-17.24-6.98-4.35-36.34-7.51-53.32-7.64s-47.39 3.56-58.84 7.77z" fill="#fff"/>
    <path d="m239.31 309.9c-0.22-2.02 4.73-4.05 9.2-4.94-2.32 1.83-2.46 0.58-1.43 2.95s2.06 5.19 2.06 5.19-2.15-1.52-4.34-1.97-3.7-0.29-5.49-1.23z"/>
    <path d="m372.46 300.6s-5.31 7.71-7.41 10.07c-2.11 2.36-7.92 0.08-9.01 3.37" fill="none"/>
    <path d="m356.29 304.52 2.44 1.1c-2.14 3.6-2.41 7.74-2.44 8.46 0.04-0.45 0.33-2.06 2.86-2.06 2.95 0 5.31-0.84 5.31-0.84l1.77-2.19c-2.28-2.36-9.94-4.47-9.94-4.47z"/>
    <path d="m356.29 314.2s0-0.04 0.01-0.12c-0.01 0.08-0.01 0.12-0.01 0.12z"/>
  </g>
  <path d="m434.0074 143.40089c0 126.57108-100.34371 229.1728-224.12456 229.1728-123.78086 0-224.12456-102.60172-224.12456-229.1728 0-126.57108 100.3437-229.1728 224.12456-229.1728 123.78085 0 224.12456 102.60173 224.12456 229.1728z" color="#000" fill="none"/>
  <g transform="matrix(2.0439872,0,0,2.0874883,-265.16494,-358.78705)">
    <path d="m263.59 193.47-0.31-1.4 4.2-8.63q0.45-0.91 0.88-1.62l-6.37 1.43-0.3-1.34 8.17-1.84 0.31 1.35-4.63 9.35-0.51 0.96 7.28-1.64 0.3 1.35z"/>
    <path d="m272.86 185.56q-0.48-2.87 0.79-4.75t3.71-2.29q1.59-0.27 3 0.28 1.42 0.55 2.32 1.8 0.9 1.26 1.19 2.99 0.29 1.75-0.19 3.26-0.48 1.5-1.65 2.43-1.18 0.93-2.69 1.18-1.63 0.27-3.04-0.3t-2.3-1.83q-0.89-1.25-1.14-2.77zm1.57-0.23q0.35 2.08 1.67 3.09 1.32 1.02 3.02 0.73 1.72-0.28 2.63-1.68t0.54-3.63q-0.23-1.41-0.89-2.38-0.65-0.97-1.66-1.39-1.01-0.43-2.16-0.24-1.62 0.27-2.6 1.58t-0.55 3.92z"/>
    <path d="m295.75 188.15-0.75-11.67 1.55-0.1 0.37 5.79 5.42-6.16 2.1-0.13-4.6 5.04 5.56 6.61-2.04 0.13-4.53-5.64-1.79 1.99 0.26 4.04z"/>
    <path d="m308.75 187.46-3.11-11.7h1.59l1.78 7.67q0.29 1.2 0.5 2.39 0.45-1.87 0.53-2.16l2.21-7.9h1.87l1.68 5.92q0.63 2.2 0.92 4.14 0.22-1.11 0.58-2.55l1.82-7.52h1.56l-3.2 11.7h-1.49l-2.47-8.91q-0.31-1.11-0.37-1.37-0.18 0.81-0.34 1.37l-2.48 8.92z"/>
    <path d="m322.16 187.6 0.73-11.68 8.44 0.53-0.09 1.38-6.9-0.43-0.22 3.57 6.46 0.41-0.09 1.37-6.45-0.41-0.25 3.98 7.16 0.44-0.08 1.38z"/>
    <path d="m341.1 189.26 0.22-1.42 7.09-6.46q0.75-0.69 1.41-1.18l-6.44-1.02 0.21-1.37 8.28 1.31-0.22 1.37-7.75 6.98-0.83 0.7 7.37 1.17-0.21 1.36z"/>
    <path d="m352.62 185.33q0.61-2.85 2.49-4.13t4.29-0.76q1.59 0.35 2.7 1.38 1.1 1.03 1.48 2.52 0.37 1.5 0 3.22-0.37 1.74-1.37 2.96t-2.44 1.65q-1.44 0.42-2.93 0.1-1.61-0.35-2.71-1.4-1.11-1.05-1.47-2.54t-0.04-3zm1.56 0.36q-0.45 2.07 0.4 3.5 0.86 1.43 2.54 1.79 1.7 0.37 3.07-0.6 1.36-0.96 1.84-3.17 0.3-1.39 0.05-2.54-0.25-1.14-1.03-1.91-0.79-0.77-1.92-1.01-1.61-0.35-3 0.51-1.4 0.85-1.95 3.43z"/>
  </g>
  <g stroke-width="2.06562">
    <path d="m325.03539 254.09591h-0.951v-8.17043q-0.34342 0.44164-0.90346 0.88328-0.55474 0.44165-0.99854 0.66247v-1.23946q0.79778-0.50574 1.3948-1.2252 0.59701-0.71946 0.84533-1.39616h0.61287z"/>
    <path d="m327.57826 248.26049v-6.78792h3.64028v0.80103h-2.97404v2.07898h2.78516v0.79639h-2.78516v2.3105h3.09081v0.80102z" baseline-shift="super"/>
    <path d="m332.26598 248.26049v-6.78792h2.23225q0.67311 0 1.0234 0.1852 0.35029 0.18059 0.55978 0.64361 0.20949 0.46303 0.20949 1.02328 0 0.72232-0.34686 1.21775-0.34686 0.49544-1.07148 0.62971 0.26444 0.17133 0.40181 0.33801 0.2919 0.36117 0.55291 0.9029l0.87572 1.84746h-0.83795l-0.66624-1.41222q-0.29191-0.61119-0.48079-0.9353-0.18888-0.32412-0.33999-0.45376-0.14767-0.12966-0.30221-0.18059-0.11333-0.0324-0.3709-0.0324h-0.7727v3.01429zm0.66624-3.79216h1.43207q0.45676 0 0.71432-0.12502 0.25757-0.12964 0.3915-0.40746 0.13394-0.28244 0.13394-0.61119 0-0.48154-0.261-0.79176-0.25757-0.31024-0.81735-0.31024h-1.59348z" baseline-shift="super"/>
    <path d="m340.63327 254.09591v-10.44277h2.66808q0.90345 0 1.37895 0.14959 0.6657 0.20658 1.13592 0.74795 0.61287 0.69808 0.91402 1.78794 0.30643 1.08275 0.30643 2.47891 0 1.1896-0.20605 2.1085-0.20606 0.91891-0.52834 1.52439-0.32228 0.59836-0.70796 0.94741-0.3804 0.34191-0.92458 0.51999-0.53891 0.17809-1.24159 0.17809zm1.02497-1.23234h1.65368q0.76608 0 1.19931-0.19232 0.43852-0.19233 0.69741-0.54137 0.36454-0.49152 0.56531-1.31782 0.20605-0.83343 0.20605-2.01589 0-1.63836-0.40153-2.51454-0.39626-0.88328-0.96686-1.18246-0.41209-0.2137-1.32611-0.2137h-1.62726z"/>
    <path d="m348.46845 254.09591v-10.44277h5.60033v1.23233h-4.57537v3.19837h4.28478v1.22521h-4.28478v3.55452h4.755v1.23234zm2.11332-11.08387 0.70269-1.99452h1.24686l-1.16232 1.99452z"/>
    <path d="m361.1907 250.43452 1.02496 0.34905q-0.32228 1.70246-1.16233 2.60001-0.83476 0.89041-2.04464 0.89041-1.25215 0-2.03937-0.68384-0.78193-0.69096-1.19403-1.99453-0.40682-1.30356-0.40682-2.79945 0-1.63124 0.45965-2.8422 0.46493-1.21809 1.31555-1.84493 0.8559-0.63398 1.88086-0.63398 1.16234 0 1.95484 0.7978 0.79249 0.79781 1.10421 2.24385l-1.00912 0.32054q-0.26945-1.13972-0.78193-1.65973-0.51248-0.51999-1.28913-0.51999-0.89288 0-1.49518 0.57698-0.59701 0.57699-0.84005 1.55288-0.24303 0.96877-0.24303 2.00166 0 1.33205 0.2853 2.32932 0.29058 0.99013 0.89816 1.48164 0.60759 0.4915 1.31555 0.4915 0.86118 0 1.4582-0.66958 0.59702-0.66959 0.80835-1.98741z"/>
    <path d="m363.49952 254.09591v-10.44277h5.60032v1.23233h-4.57536v3.19837h4.28478v1.22521h-4.28478v3.55452h4.75499v1.23234z"/>
    <path d="m370.6637 254.09591v-10.44277h1.54274l1.8333 7.39399q0.25361 1.03288 0.36984 1.54575 0.13208-0.56985 0.4121-1.67396l1.85445-7.26578h1.37895v10.44277h-0.98798v-8.7403l-2.2507 8.7403h-0.92459l-2.24013-8.88989v8.88989z"/>
    <path d="m379.66649 254.09591v-10.44277h2.90584q0.88759 0 1.42121 0.32055 0.5389 0.31342 0.84005 0.97589 0.30643 0.65535 0.30643 1.3748 0 0.66959-0.26945 1.26083-0.26945 0.59123-0.81363 0.95452 0.70268 0.2778 1.0778 0.9474 0.3804 0.66959 0.3804 1.58137 0 0.7337-0.23246 1.36768-0.22719 0.62685-0.56533 0.96876-0.33813 0.34193-0.85061 0.52001-0.5072 0.17096-1.24686 0.17096zm1.02497-6.05481h1.67481q0.68155 0 0.97742-0.1211 0.39096-0.15671 0.58645-0.52 0.20077-0.3633 0.20077-0.91179 0-0.51999-0.18492-0.91177-0.18491-0.39892-0.52833-0.54138-0.34342-0.14959-1.17818-0.14959h-1.54802zm0 4.82247h1.92842q0.49663 0 0.69739-0.0498 0.35399-0.0855 0.59174-0.28494 0.23774-0.19945 0.39096-0.57698 0.15322-0.38467 0.15322-0.8833 0-0.5841-0.2219-1.01151-0.2219-0.43451-0.61815-0.60548-0.39096-0.17807-1.13063-0.17807h-1.79105z"/>
    <path d="m386.94163 254.09591v-10.44277h3.43417q1.03552 0 1.57443 0.28493 0.5389 0.27781 0.86118 0.99014t0.32228 1.57425q0 1.11124-0.53361 1.87343-0.53362 0.7622-1.6484 0.96877 0.40682 0.26357 0.61815 0.52001 0.44908 0.55562 0.85062 1.38904l1.34724 2.8422h-1.28913l-1.02497-2.17261q-0.44908-0.94028-0.73966-1.43891-0.29059-0.49863-0.52305-0.69808-0.22718-0.19946-0.46493-0.27781-0.17436-0.0498-0.5706-0.0498h-1.18875v4.63727zm1.02497-5.83399h2.20315q0.70268 0 1.09893-0.19233 0.39625-0.19945 0.6023-0.62686 0.20605-0.43451 0.20605-0.94027 0-0.74082-0.40154-1.21809-0.39624-0.47725-1.25742-0.47725h-2.45147z"/>
    <path d="m394.76095 254.09591v-10.44277h5.60033v1.23233h-4.57536v3.19837h4.28478v1.22521h-4.28478v3.55452h4.75499v1.23234z"/>
    <path d="m408.15948 254.09591h-0.951v-8.17043q-0.34342 0.44164-0.90345 0.88328-0.55475 0.44165-0.99855 0.66247v-1.23946q0.79778-0.50574 1.3948-1.2252t0.84533-1.39616h0.61287z"/>
    <path d="m410.73774 251.6811 0.91402-0.11402q0.11623 0.86905 0.44379 1.26083 0.32757 0.39178 0.84005 0.39178 0.43852 0 0.76609-0.27068 0.33284-0.27069 0.54418-0.71946 0.21133-0.45589 0.35398-1.22521t0.14265-1.56713q0-0.0855-5e-3 -0.25644-0.2853 0.61261-0.78193 0.99727-0.49135 0.37753-1.06723 0.37753-0.96157 0-1.62727-0.94027-0.6657-0.94028-0.6657-2.47891 0-1.5885 0.69212-2.55726 0.69739-0.96877 1.7435-0.96877 0.75551 0 1.37895 0.54849 0.62871 0.54849 0.951 1.56713 0.32756 1.01151 0.32756 2.9348 0 2.00165-0.32228 3.19123-0.32229 1.18248-0.96157 1.80221-0.634 0.61972-1.4899 0.61972-0.90873 0-1.48461-0.67671-0.57589-0.68384-0.69212-1.91617zm3.89382-4.60877q0-1.10411-0.43853-1.75233-0.43322-0.64823-1.04609-0.64823-0.63401 0-1.10422 0.69809-0.47022 0.69808-0.47022 1.80932 0 0.99726 0.4438 1.6241 0.44909 0.61973 1.10422 0.61973 0.66042 0 1.08308-0.61973 0.42796-0.62684 0.42796-1.73095z"/>
    <path d="m416.6128 251.36056 0.99855-0.11403q0.11094 0.98302 0.51248 1.48165 0.40682 0.49151 0.97742 0.49151 0.68683 0 1.16233-0.69808 0.4755-0.69809 0.4755-1.85206 0-1.09699-0.45965-1.73097-0.45437-0.63397-1.19403-0.63397-0.45965 0-0.82949 0.28493-0.36983 0.27782-0.58116 0.72658l-0.89288-0.15671 0.75022-5.36385h3.85155v1.22521h-3.09075l-0.41738 2.80658q0.6974-0.65535 1.46349-0.65535 1.01439 0 1.7118 0.9474 0.69739 0.94741 0.69739 2.43617 0 1.41754-0.61286 2.45043-0.74495 1.26794-2.03408 1.26794-1.05667 0-1.72765-0.79781-0.6657-0.79781-0.7608-2.11562z"/>
    <path d="m424.09399 248.43288q-0.59174-0.29205-0.87703-0.83343-0.28531-0.54137-0.28531-1.29644 0-1.13973 0.60759-1.91617 0.60758-0.77643 1.6167-0.77643 1.0144 0 1.63255 0.7978 0.61815 0.79069 0.61815 1.93041 0 0.72658-0.2853 1.26795-0.28002 0.53426-0.8559 0.82631 0.71325 0.31343 1.08308 1.01151 0.37511 0.69808 0.37511 1.66685 0 1.33918-0.70267 2.25096-0.70269 0.91179-1.84918 0.91179-1.14647 0-1.84916-0.91179-0.70268-0.91891-0.70268-2.28657 0-1.01864 0.3804-1.70248 0.38568-0.69096 1.09365-0.94027zm-0.1902-2.17261q0 0.74082 0.35398 1.21096t0.9193 0.47014q0.54947 0 0.89817-0.46301 0.35398-0.47014 0.35398-1.14685 0-0.70522-0.36455-1.18248-0.35927-0.48439-0.89816-0.48439-0.54419 0-0.90346 0.47015-0.35926 0.47014-0.35926 1.12548zm-0.30643 4.82247q0 0.54851 0.1902 1.06138 0.19548 0.51288 0.57588 0.79782 0.3804 0.2778 0.81891 0.2778 0.68155 0 1.12536-0.59123 0.4438-0.59124 0.4438-1.50303 0-0.92602-0.45966-1.5315-0.45436-0.60548-1.14119-0.60548-0.67098 0-1.11479 0.59835-0.43851 0.59836-0.43851 1.49589z"/>
  </g>
  <path d="m348.96469 396.407c0.12979 0.10635 0.324 0.17255 0.30417 0.46517 0.21057 0.10972 0.41701 0.22317 0.49148 0.43045l0.66954 0.34007h4e-3l2.57218 2.10718 0.73284 0.25818 0.32851 0.0317 2.59328-0.73408 0.93056 0.10372 4.3e-4 -9.6e-4 0.9883 0.36179c0.78258-0.30613 1.22544-0.78217 2.34773-0.91837 0.22433 0.13091 0.23624-0.0921 0.31629-0.20237l0.61418-0.17348 0.78861-0.0979h1.22378c0.37418 0.12415 0.72747 0.30702 0.9458 0.87054 0.28709 1.00936 0.84365 1.08093 1.54618 0.64347 0.29413 0.10746 0.58818 0.1386 0.88235 0.13147l0.0565-0.30042 0.17161 0.0131h1e-3c1e-3 0.2341 0.20132 0.21564 0.34429 0.26945 0.0626 0.21884 0.15792 0.40768 0.42486 0.44081l0.21597-0.0677 0.0812 0.12153-0.12135 0.14854 0.32398 0.41853-0.12529 0.94497 0.015-2.2e-4 -0.41383 0.79434 0.25152 0.18623-0.14366 0.54186 0.37476 0.19209c0.0231 0.0503-0.015 0.069-0.0407 0.0947l-0.43195-0.0947-0.0945 0.5265-0.33754 0.32397 0.36621 0.93543 1.53365 1.5869h-4e-3l0.85683 1.10591h-2e-3c0.10841 0.0979 0.10691 0.21475 0.10991 0.33053-0.0279 0.12228 0.0527 0.22292 0.10521 0.33986l0.0741 0.31418c0.26709 0.76188 0.82661 1.19476 0.80769 2.32169l-0.18193 0.17442c0.15023 0.50898 0.28403 1.0414 0.61832 1.28437 0.033 0.14254-0.0392 0.24603-0.0484 0.35307-0.0341 0.39164-0.24016 1.50155-0.33054 1.30372 0 0-0.37281 0.0818-0.40623 0.38165-0.0169 0.14611-0.19673 0.16692-0.2638 0.34722-0.18755 0.50384-0.38506 1.30307-0.52747 2.02955-0.0169 0.084-0.12641 0.0467-0.13972 0.12753-0.0392 0.23131 6e-3 0.39576-0.0113 0.64132-6e-3 0.0733-0.0975-0.0503-0.11571 0.0409-0.0221 0.11216 0.0683 0.43021 0.0454 0.50712 0.0383 0.47522 0.0825 0.94767 0.51819 1.28306l1.80031 3.20603 0.0458 1.47121 0.32129 0.681c0.0188 0.26503-0.0797 0.53021 0.0833 0.79537l0.22367 1.25226 0.97767 1.08868h4e-3c-1e-3 1e-3 -2e-3 0-4e-3 0l1.36918 2.75514 0.0188 0.62989c-0.0694 0.15154-0.18287 0.15623-0.30969 0.13147-0.0516 0.0722-0.0998 0.16561 0.015 0.23611 0.16973 0.30124 0.29241 0.66757 0.50858 0.92574 0.17761 0.21204 0.44107 0.32294 0.64992 0.50593l0.54362 0.0431c0.11197-0.0782 0.0113-0.18567 0.41569-0.22523h0.79636c0.2514-0.0992-0.0317-0.34746 0.78849-0.28652 0.13466 0.0169 0.19308 0.16467 0.40436 0.0503 0.38065-0.0619 0.74407 0.084 1.11494 0.13954 0.1099-0.0876 0.069-0.23716 0.68646-0.11797l0.0634-0.2402 0.72372 0.0131 4.29023-3.98689c0.68011-0.28231 0.83072-1.1057 1.02127-1.88835l1e-3 1.3e-4 0.14723-0.51094-0.22175 0.0829c0.034-0.20212-0.015-0.40426 0.19954-0.60641l1.77266-0.7008c0.21957-0.1613 0.35594-0.40547 0.50866-0.63353l-0.20704-0.0713 0.3671-1.38582-0.18857-0.0643-0.15266-1.16623c-0.5023-0.308-0.21162-0.78686-0.0113-0.89879l1.07169-0.91069 0.0885 0.18155 0.39747-0.43917-0.0878-0.13542 0.25839-0.0478 0.0767-0.22244 1.31339-0.64623h0.32795c0.24869-0.18837 0.44851-0.39074 0.81108-0.54665l-0.0231-0.1947 0.43753-0.33844c0.10502-0.10746 0.19524-0.26735 0.33262-0.26176l0.0193-0.21698-0.0835-0.0923 0.23939-0.35901 0.0604-0.23971-0.0383-0.15679-0.14667-0.22291 0.0508-0.87791c-0.11197-0.10859-0.0501-0.18286 0.0112-0.25711l-0.0289-0.96925 0.35207-0.593c0.0113-0.16261 0.0223-0.32504-0.0369-0.48761-0.057 0.0338-0.11966 0.0713-0.18342 0.10859 0.0613-0.0373 0.12022-0.0733 0.16917-0.10503-0.11009-0.19873-0.311-0.3068-0.49746-0.42912 0.015-0.22596-0.0761-0.47325-0.15755-0.71845-0.0951-0.15004-0.16861-0.29423-0.10559-0.40464l-0.22204-0.48526 0.13954-0.0456c-0.0362-0.36995-0.034-0.71904 0.1868-0.9507-0.15154-0.31325-0.66684-0.56183-0.63726-0.93343l0.44138-1.24003c0.42089-0.51307 0.67641-1.2105 1.01237-1.81739 0.30511-0.0748 0.42356-0.29632 0.51533-0.53942 0.24643-0.0131 0.36918-0.16899 0.48126-0.34395h-4e-3l1.14461-1.28194 1.92454-1.81655 0.22137-0.0268 0.80652-0.76294 0.033-0.15248c0.44262-0.33624 0.99386-0.90043 1.13116-1.17902 0.24335-0.49283 0.55675-0.91043 0.90633-1.31039l0.75784-2.1884c0.14741-0.14198 0.2579-0.33345 0.35063-0.54844 0.0384-0.22957 0.17554-0.31066 0.28095-0.43951l0.0863-1.09601c0.24549 0.0349 0.12716-0.45095 0.14104-0.74751-0.0949-0.084-0.20061-0.22396-2e-3 -0.3359l-2e-3 -0.27321c-0.17836 0.015-0.35777-0.18872-0.53294-0.0514-0.2194 0.20646-0.51196 0.35408-0.84569 0.38161-0.37107 0.0302-0.6735 0.24534-0.82904 0.19271-0.25143 0.20856-0.57186 0.27925-0.98772 0.15904-0.27757 0.24693-0.45954 0.56767-1.35095 0.34112l-0.56819 0.4063c-0.87673 0.23759-1.10511-0.47209-1.54651-0.87043l-0.0112 0.015c-0.17818-0.14722-0.35654-0.0701-0.53477-0.0782 0.0489-0.22033 0.29622-0.27063 0.47199-0.38234 0.1296-0.4011-0.14591-0.65694-0.31469-0.73421l-8.6e-4 8.1e-4c-0.0707-0.18024-0.16993-0.34065-0.49231-0.34849-0.0169-0.15192-0.0812-0.28673-0.29419-0.36856-0.0454-0.18249-0.2022-0.17911-0.32583-0.23097-0.1041-0.29001-0.3584-0.44909-0.56694-0.64786-0.23513 0.0548-0.34368-0.10052-0.45498-0.2516l-0.17873-0.0349-0.12791 0.0782c-0.13373-0.10972-0.17011-0.26166-0.20755-0.4129l-0.19154-0.0514 0.0486 0.26552c-0.11591 0.0713-0.17949-0.1206-0.23988-0.32679l-0.39009-0.56639c-0.25418-1.18469-0.47595-1.33083-0.70322-1.65396 1e-3 -0.0131 6e-3 -0.021 8e-3 -0.0328-0.0771-0.17236-0.18777-0.14104-0.2901-0.16279-0.16805-0.32259-0.44662-0.35095-0.68856-0.47654l-0.33791-2.04496-0.26779-0.28371-0.0315-0.34827h-0.18736c0.0773-0.015 0.12641-0.0291 0.12847-0.0478l-1.14234-0.91499-0.14704-0.72723 0.23549 0.0131-0.57291-0.51002-1.57157-2.5957-8e-3 -0.31499c-0.3719-0.24382-0.64704-0.5523-0.81312-0.93333l-0.015-0.24185-0.2372-0.17255 0.0621-0.38384 0.7045 0.94149c0.0632 0.0724-9e-3 0.12491 0.0491 0.2037 0.18418 0.25488 0.50118 0.51222 0.68805 0.66149 0.0955-0.0328 0.20736-0.0131 0.25474-0.2019l0.1838-1.22283-0.82602-1.68318c-0.55783 0.39033-1.1157 0.54641-1.6736-0.0345l-0.68169 0.0525c-0.15604 0.067-0.32163 0.16899-0.41151 7e-3l-1.09993 0.64276-1.82152-0.40577c-0.27371-0.0564-0.56577-0.1491-0.79169-0.10953-0.22587 0.13785-0.3882 0.0373-0.54887-0.0694-0.0508-0.28844-0.64389-0.2664-0.96224-0.28273-0.43541-0.0223-0.728-0.082-0.65222-0.40814 0 0-1.13822-0.40873-1.57878-0.13935-0.23404 0.14329-0.72755 0.37188-0.81735 0.66514-0.0606 0.19717-7e-3 0.33086 0.11122 0.53111 0.20576 0.35053-0.48904 1.55416-1.28317 0.5909 0 0-1.04314-0.28722-1.63237-0.41598-0.57667-0.12622-0.97452-0.63165-0.73519-0.9377 0.0233-0.0298-1.56513-0.48947-1.56513-0.48947-0.73082 0.11309-1.26637-0.0994-1.39944-0.24224-2e-3 -0.0112-4e-3 -0.0169-6e-3 -0.027-0.0251-0.0876-0.24418 0.0169-0.2797-0.14291-0.0799-0.35661-0.0698-0.44433-0.20513-0.49791-0.0683-0.0268-0.34972 0.24355-0.40695 0.20897-0.12772-0.0769-0.28712-0.25682-0.21816-0.34576 0.11891-0.15323 0.97715-0.68533 0.9857-0.97864 0.015-0.43656-0.14835-0.47859-0.36237-0.59484-0.12153-0.0658-0.0778-0.27281-0.0386-0.3908 0.024-0.0724 0.4875-0.23011 0.43407-0.39767-0.0362-0.11384-0.10353-0.13128-0.1281-0.22005-0.0188-0.0655-0.36833 0.30018-0.39041 0.24365-0.0585-0.1491-0.0761-0.24012-0.1461-0.34678-0.0865 4e-3 -0.3152-0.0953-0.55896-0.0942v-1e-5c-0.18962 8.6e-4 -0.38836 0.0621-0.53655 0.27767 0 0-9e-3 6e-3 -0.0113 7e-3 -0.42233 0.11234-0.8613-0.2294-0.98395-0.14592-0.3318 0.22576-0.40517-0.0396-0.64841-0.0551-0.24156-0.015-0.78569 0.2694-1.20338 0.14704-0.41778-0.12228-1.6963 0.25415-2.68586 0.25095-0.54024-1e-3 -0.91435 0.29939-0.93961 0.4362-0.0236 0.12792-0.40973 0.0878-0.61123 0.0236-0.17274-0.0544-0.30496 0.22523-0.40845 0.3639-0.19745 0.26441-0.51986 0.21662-0.59773 0.24466-1e-3 -9e-3 -4e-3 -0.015-6e-3 -0.024-0.21216-0.0392-0.47258-0.0441-0.56127-0.17124-0.30794-0.0529-0.61311-0.0812-0.88851-0.0533-0.50417 0.0508-0.71162-0.1311-0.91917-0.60866-0.48557-0.0317-1.00031 1.01176-1.37485 1.52766-0.90568 0.25184-1.56119 0.66011-2.01151 1.19662 0.0602 0.2181-0.0456 0.30212-0.26527 0.44609-0.14197 0.0932-0.64184 0.89077-0.47302 1.3361 1e-3 0.34794-0.26904 0.92796-1.04849 1.31387 0 0-0.36342 0.33962-0.93821 0.52715-0.24248 0.0793-0.80467 0.14217-0.97474 0.29902h0.0274c-0.31704 0.48889-0.50551 0.90214-0.98772 1.09344-0.45922 0.18211-0.63886 0.74878-0.76876 1.23966l-1.36695 1.56414c-0.0493 0.35515-0.25569 0.59244-0.53191 0.77729-0.24973 0.32679-0.40224 0.73269-0.44058 1.09356l0.20032-0.18155-0.0467 0.0467 0.15698 0.47334s0.1326-0.0398 0.16017 0.034c0.24294 0.64384-0.12866 0.84227-0.25045 1.05736l0.22754 0.36345-0.0381 1.2099-0.36824 1.02272c-0.14854 0.25407-0.24948 0.3911-0.25381 0.60046-0.0113 0.48646-0.49564 0.64156-0.73856 0.99519 0.22609 0.32958 0.47224 0.65332 0.50868 1.03939l-0.1673 0.424h-8.4e-4c-0.048 0.22129-0.0926 0.44256-0.0467 0.66909l0.0621 0.16279c0.11872 0.0818 0.34205-0.0793 0.32864 0.30648 0.10803 0.0561 0.24135-0.0572 0.31879 0.20213 0.13259 0.0666 0.46781-0.55623 0.34638 0.37369l0.29348 0.32154c-1e-3 0-6e-3 0.0131-7e-3 0.0131-0.0294 0.0923-0.0217 0.13729 0.0973 0.13748 0.048 0.0585 0.21788-0.34977 0.19174 0.0619l0.15154 0.0169c-0.0516 0.2284 0.10409 0.50909 0.25261 0.55976 0.19108 0.0653 0.29676 0.28628 0.40177 0.38396l0.26145 0.48842z"/>
  <path transform="matrix(2.0439872,0,0,2.0874883,-251.26048,-582.10653)" fill="#ffd200" stroke="#000" stroke-linecap="round" stroke-linejoin="round" stroke-width=".9623" d="M317.17 484.43 305.94 477.64 294.7 484.43 298.99 473.44 287.75 466.64 301.64 466.64 305.94 455.64 310.23 466.64 324.12 466.64 312.88 473.44z"/>
  <g transform="matrix(.46480504 0 0 .46480504 412.04888 434.73067)">
    <path d="m34.06 20.07c-0.03-3.15 5.56-5.68 6.83-3.1-0.56 5.03 7.11 13.06 10.5 6.5 6.13 0.8 12.12 7.43 18.47 9.75 18.34 6.73 26.67 27.28 45.24 33.61 6.28 1.85 9.07 7.91 11.67 13.31 3.48 23.59 19.74 42.38 32.22 61.87 1.48 2.1 5.74 4.33 3.24 7.23-8.95 9.63-17.15 20.41-26.86 29.16-13.33 0.5-27.27-2.54-39.99-6.84-8.93-6.87-22.47-10.22-25.42-22.55-3.08-15.12-17.57-23.46-24.5-36.5-5.27-6.29-14.82-15.95-8.25-24.31 4.2-6.26 12.46-4.54 18.18-1.69 5.18 3.25 5.26-3.15 8.51-4.61 2.92-3.09 11.93-1.21 11.1-6.82-1.63-2.91-4.07-5.43-6.93-7.18-8.75-4.78-8.11-17.47-17.2-21.71-8.03-6.53-18.32-14.64-16.81-26.12m7.25 70.1c-4.84 4.15-0.27 15.45 5.54 16.76 5.16-4.43 4.04-19.34-5.54-16.76m40.03 5.1c-5.45 1.78-5.19 9.4-4.54 13.85 1.76 5.9 14.17 13.98 14.26 2.91 2.99-6.92 0.46-19.97-9.72-16.76z"/>
    <path d="m40.89 16.97c4.48-0.3 7.11 4.26 10.5 6.5-3.39 6.56-11.06-1.47-10.5-6.5z"/>
    <path d="m41.31 90.17c9.58-2.58 10.7 12.33 5.54 16.76-5.81-1.31-10.38-12.61-5.54-16.76z"/>
  </g>
  <path d="m433.82499 484.43229 0.28088-0.26223 0.35888-0.46144 0.38088-0.75442 0.19042-0.63721 0.15379-0.84964 0.0585-0.98144-0.0512-0.76908-0.20509-0.94486-0.30029-0.73243-0.43214-0.64454-0.542-0.46143-0.40286-0.20509-0.54932-0.19044-0.7178-0.0293-0.79771 0.13354-0.35221 0.37197-0.25636 0.43214-0.22705 0.57132-0.10259 0.57861 0.015 0.82033 0.0807 0.63723 0.15379 0.55665 0.21974 0.68117 0.30031 0.62258 0.29297 0.56398 0.38819 0.5127 0.57862 0.62991 0.53469 0.38817z" fill="#fff" stroke="#000" stroke-width="1.87505px"/>
  <path d="m435.93521 445.63965-0.35715 0.55341-0.35157 0.34425-0.3589 0.18324-0.4248 0.066-0.26368 8e-3 -0.24172-0.0439-0.3296-0.12453-0.36621-0.17574-0.32226-0.20509-0.33693-0.27832-0.29298-0.31496-0.28566-0.34423-0.26368-0.38088-0.24169-0.43945-0.18324-0.40287-0.12453-0.35887-0.10991-0.49073-0.0219-0.30031-4e-3 -0.31529 0.32643 3.3e-4 0.3589 0.022 0.32227 0.0733 0.37354 0.15379 0.38088 0.19778 0.46144 0.28564 0.31493 0.24903 0.35892 0.32227 0.50538 0.46876 0.55663 0.51269 0.48343 0.41751z" fill="#fff" stroke="#000" stroke-width=".187505"/>
  <path d="m214.25908 590.56971 2.88229 0.0999-3.04426 2.69023-2.34046-0.1412z"/>
  <path d="m422.32224 681.32737 2.8642-0.33758-2.60192 3.12007-2.33486 0.21474z"/>
  <g fill="#bf9b30">
    <circle cx="322.80835" cy="593.67206" r="2.5"/>
    <circle cx="323.79913" cy="639.9563" r="2.5"/>
    <circle cx="426.3605" cy="594.76178" r="2.5"/>
    <circle cx="427.35129" cy="641.04602" r="2.5"/>
    <circle transform="rotate(90)" cx="566.28748" cy="-397.70447" r="2.5"/>
    <circle transform="rotate(90)" cx="565.9682" cy="-352.29358" r="2.5"/>
    <circle transform="rotate(90)" cx="667.65619" cy="-397.4881" r="2.5"/>
    <circle transform="rotate(90)" cx="667.77362" cy="-352.51392" r="2.5"/>
  </g>
</svg>
