<?xml version="1.0" encoding="UTF-8" standalone="no"?>
<!-- Generator: Adobe Illustrator 15.0.2, SVG Export Plug-In . SVG Version: 6.00 Build 0)  -->

<svg
   xmlns:dc="http://purl.org/dc/elements/1.1/"
   xmlns:cc="http://creativecommons.org/ns#"
   xmlns:rdf="http://www.w3.org/1999/02/22-rdf-syntax-ns#"
   xmlns:svg="http://www.w3.org/2000/svg"
   xmlns="http://www.w3.org/2000/svg"
   xmlns:sodipodi="http://sodipodi.sourceforge.net/DTD/sodipodi-0.dtd"
   xmlns:inkscape="http://www.inkscape.org/namespaces/inkscape"
   version="1.1"
   x="0px"
   y="0px"
   width="89.709206"
   height="118.51999"
   viewBox="-3.602 7.205 89.709206 118.52"
   enable-background="new -3.602 7.205 185 185"
   xml:space="preserve"
   id="svg2"
   inkscape:version="0.48.2 r9819"
   sodipodi:docname="AJAX.svg"><metadata
   id="metadata206"><rdf:RDF><cc:Work
       rdf:about=""><dc:format>image/svg+xml</dc:format><dc:type
         rdf:resource="http://purl.org/dc/dcmitype/StillImage" /></cc:Work></rdf:RDF></metadata><defs
   id="defs204" /><sodipodi:namedview
   pagecolor="#ffffff"
   bordercolor="#666666"
   borderopacity="1"
   objecttolerance="10"
   gridtolerance="10"
   guidetolerance="10"
   inkscape:pageopacity="0"
   inkscape:pageshadow="2"
   inkscape:window-width="1280"
   inkscape:window-height="1004"
   id="namedview202"
   showgrid="false"
   inkscape:zoom="5.6568543"
   inkscape:cx="35.235676"
   inkscape:cy="44.561984"
   inkscape:window-x="-8"
   inkscape:window-y="-8"
   inkscape:window-maximized="1"
   inkscape:current-layer="svg2"
   fit-margin-top="0.03"
   fit-margin-left="0.03"
   fit-margin-right="0.03"
   fit-margin-bottom="0.03" />
<g
   id="circles"
   transform="translate(-47.812397,-36.456)">
	
	
</g>
<g
   id="lower_text"
   transform="translate(-47.812397,-36.456)"
   style="fill:#b87d13;fill-opacity:1">
	<g
   id="g8"
   style="fill:#b87d13;fill-opacity:1">
		
		
		
		
		
		
		
		
		
		
		
		
		
		
		
		
		
		
		
		
		
	</g>
</g>
<g
   id="upper_text"
   transform="translate(-47.812397,-36.456)"
   style="fill:#b87d13;fill-opacity:1">
	<g
   id="g53"
   style="fill:#b87d13;fill-opacity:1">
		
		
		
		
		
		
		
		
		
		
		
		
	</g>
</g>
<g
   id="dots"
   transform="translate(-47.812397,-36.456)"
   style="fill:#b87d13;fill-opacity:1">
	
	
</g>

<g
   id="coa"
   transform="translate(-47.812397,-36.456)"><g
     id="g83"><path
       style="fill:#ffffff;stroke:none"
       inkscape:connector-curvature="0"
       id="path2580_2_"
       d="m 94.238,118.047 c -0.06,-0.02 -0.129,-0.039 -0.188,-0.059 -0.604,-0.158 -1.297,-0.168 -1.376,0.1 -0.07,0.217 0.396,0.523 1,0.682 0.168,0.041 0.336,0.08 0.485,0.1 0.02,0 0.04,-0.01 0.04,-0.029 0.01,-0.129 0.059,-0.613 0.068,-0.742 0.001,-0.042 -0.019,-0.052 -0.029,-0.052 l 0,0 z m 4.09,0.248 c 0.148,-0.039 0.207,-0.059 0.366,-0.139 0.476,-0.229 0.901,-0.604 0.782,-0.803 -0.119,-0.197 -1.04,-0.139 -1.208,0.893 -0.01,0.039 0.02,0.068 0.06,0.049" /><path
       style="fill:#ffffff;stroke:none"
       inkscape:connector-curvature="0"
       id="path2582_2_"
       d="m 83.88,118.047 c 0.059,-0.02 0.128,-0.039 0.188,-0.059 0.604,-0.158 1.297,-0.168 1.386,0.1 0.069,0.217 -0.396,0.523 -1,0.682 -0.168,0.041 -0.336,0.08 -0.485,0.1 -0.02,0 -0.04,-0.01 -0.04,-0.029 -0.01,-0.129 -0.059,-0.613 -0.079,-0.742 0,-0.042 0.02,-0.052 0.03,-0.052 l 0,0 z m -4.09,0.248 c -0.148,-0.039 -0.208,-0.059 -0.366,-0.139 -0.475,-0.229 -0.901,-0.604 -0.782,-0.803 0.119,-0.197 1.04,-0.139 1.208,0.893 0.009,0.039 -0.02,0.068 -0.06,0.049" /><path
       inkscape:connector-curvature="0"
       id="path2584_2_"
       d="m 66.175,140.396 c 5.159,7.605 13.506,12.527 22.894,12.527 9.358,0 17.656,-4.902 22.835,-12.477 0.029,-0.051 0.059,-0.09 0.088,-0.129 l 0.189,0.078 c 1.426,0.605 3.297,0.932 5.277,0.932 1.555,0 3.04,-0.209 4.307,-0.584 -6.188,12.725 -18.507,21.408 -32.707,21.408 -14.209,0 -26.548,-8.705 -32.717,-21.469 1.257,0.377 2.743,0.584 4.288,0.584 1.98,0 3.852,-0.336 5.278,-0.93 l 0.148,-0.061 c 0.05,0.053 0.09,0.082 0.12,0.121"
       style="fill:#007233;fill-opacity:1;stroke:none" /><path
       inkscape:connector-curvature="0"
       id="path2586_2_"
       d="m 82.741,87.647 c -2.505,-0.317 -3.723,-0.614 -4.367,-0.782 -3.525,-0.881 -2.515,-2.792 -2.515,-2.792 -4.486,-1.743 -3.575,-3.406 -3.575,-3.406 -4.05,-1.119 -3.505,-2.525 -3.505,-2.525 -1.98,-0.129 -3.188,-0.624 -3.911,-1.248 -0.198,-0.119 -0.277,-0.06 -0.367,-0.06 -0.069,0 -3.307,0.99 -12.913,-0.644 -1.901,-0.327 -4.168,-0.782 -4.713,-0.901 0.178,0.614 0.277,0.921 0.604,1.446 0.109,0.178 0.218,0.446 0.584,0.941 0.307,0.485 1.396,0.881 2.129,1.059 1.832,0.456 5.268,0.149 7.06,0 0.089,0.168 0.188,0.347 0.277,0.515 -2.367,0.396 -4.961,0.564 -7.912,0.664 0.475,0.703 1.04,1.406 1.881,1.941 1.861,0.732 4.941,-0.258 7.11,-0.951 0.109,0.148 0.228,0.297 0.336,0.445 -1.683,0.634 -5.713,1.535 -6.595,1.674 0.475,0.604 1.099,1.476 2.198,1.545 1.238,0.267 4.822,-1.089 5.833,-1.575 0.119,0.119 0.237,0.238 0.356,0.367 -1.129,0.732 -5.258,2.03 -5.714,2.139 0.456,0.505 1.376,1.367 2.604,1.376 2.03,-0.317 3.951,-1.446 4.882,-1.941 0.139,0.109 0.277,0.218 0.416,0.337 -1.228,0.752 -2.782,1.644 -4.832,2.406 0.406,0.376 1,0.96 1.921,1.168 1.881,0.524 3.694,-0.812 5.367,-1.872 0.158,0.099 0.307,0.188 0.465,0.287 -0.733,0.634 -2.03,1.495 -4.199,2.565 0.327,0.376 1.604,0.812 2.228,0.97 2.139,0.168 3.763,-1.248 4.862,-2 l 0.436,0.198 c -1.188,0.951 -1.98,1.396 -3.862,2.575 0.495,0.287 1.148,0.743 2.178,0.802 1.783,0.188 3.486,-1.148 4.743,-2.128 0.168,0.059 0.337,0.119 0.505,0.178 -0.466,0.386 -2.417,1.831 -3.743,2.595 0.04,-0.01 1.069,0.861 2.802,0.781 3.129,0.119 6.179,-2.466 6.179,-2.466 l 4.767,-3.683"
       style="fill:#93520e;fill-opacity:1;stroke:none" /><path
       inkscape:connector-curvature="0"
       id="path2588_2_"
       d="m 100.13,91.351 c 0,0 3.04,2.585 6.169,2.466 1.733,0.08 2.764,-0.793 2.803,-0.781 -1.327,-0.764 -3.277,-2.219 -3.743,-2.595 0.169,-0.06 0.337,-0.119 0.505,-0.178 1.268,0.98 2.961,2.307 4.743,2.128 1.03,-0.068 1.684,-0.515 2.179,-0.802 -1.881,-1.178 -2.674,-1.614 -3.861,-2.575 l 0.436,-0.198 c 1.099,0.752 2.723,2.168 4.861,2 0.624,-0.159 1.901,-0.594 2.229,-0.97 -2.169,-1.07 -3.467,-1.931 -4.199,-2.565 0.158,-0.089 0.316,-0.188 0.466,-0.287 1.673,1.069 3.495,2.406 5.377,1.872 0.911,-0.208 1.505,-0.792 1.911,-1.168 -2.04,-0.763 -3.604,-1.654 -4.822,-2.406 0.139,-0.109 0.277,-0.218 0.416,-0.337 0.93,0.505 2.852,1.634 4.881,1.941 1.229,0 2.149,-0.871 2.605,-1.376 -0.456,-0.109 -4.586,-1.406 -5.715,-2.139 0.119,-0.119 0.248,-0.237 0.357,-0.366 1.01,0.485 4.594,1.842 5.832,1.574 1.1,-0.069 1.723,-0.94 2.198,-1.544 -0.872,-0.139 -4.911,-1.03 -6.585,-1.674 0.119,-0.148 0.228,-0.297 0.336,-0.445 2.17,0.693 5.259,1.683 7.11,0.951 0.842,-0.545 1.406,-1.238 1.882,-1.941 -2.941,-0.099 -5.535,-0.268 -7.912,-0.664 0.1,-0.168 0.188,-0.337 0.277,-0.515 1.803,0.149 5.238,0.456 7.061,0 0.732,-0.188 1.822,-0.574 2.129,-1.059 0.366,-0.496 0.475,-0.763 0.584,-0.941 0.326,-0.525 0.436,-0.842 0.604,-1.446 -0.545,0.109 -2.813,0.564 -4.713,0.901 -9.596,1.634 -12.844,0.634 -12.912,0.644 -0.09,0.01 -0.169,-0.06 -0.367,0.06 -0.723,0.624 -1.931,1.119 -3.911,1.248 0,0 0.544,1.406 -3.505,2.525 0,0 0.9,1.664 -3.585,3.406 0,0 1.01,1.911 -2.516,2.792 -0.634,0.159 -2.416,0.545 -4.842,0.862 l 5.237,3.602"
       style="fill:#93520e;fill-opacity:1;stroke:none" /><path
       inkscape:connector-curvature="0"
       id="path2590_2_"
       d="m 83.167,87.211 c -1.168,-0.139 -2.624,-0.366 -4.08,-0.664 -3.783,-0.752 -2.505,-2.782 -2.505,-2.782 -5.001,-1.98 -3.604,-3.486 -3.604,-3.486 -4.793,-1.277 -3.446,-2.624 -3.446,-2.624 -3.01,-0.109 -5.01,-1.327 -4.971,-1.911 0.02,-1.119 0.406,-2.763 2.069,-4.624 1.297,-1.446 1.575,-1.565 2.258,-0.386 3.525,6.07 7.833,10.565 12.616,12.912 0.287,0.099 0.703,0.258 1.307,0.485 0.574,0.198 1.119,0.168 1.584,0.02 l -1.228,3.06"
       style="fill:#d8b75e;fill-opacity:1;stroke:none" /><path
       inkscape:connector-curvature="0"
       id="path2592_2_"
       d="m 76.602,63.971 6.813,-2.456 1.01,-2.644 -20.785,0.179 12.962,4.921"
       style="fill:#eb7c24;fill-opacity:1;stroke:none" /><path
       inkscape:connector-curvature="0"
       id="path2594_2_"
       d="m 79.81,62.376 4.614,-3.505 -20.784,0.178 16.17,3.327"
       style="fill:#e55d20;fill-opacity:1;stroke:none" /><path
       inkscape:connector-curvature="0"
       id="path2596_2_"
       d="m 81.909,61.842 8.565,-0.673 2.406,-1.05 -13.694,-13.982 2.723,15.705"
       style="fill:#eb7c24;fill-opacity:1;stroke:none" /><path
       inkscape:connector-curvature="0"
       id="path2598_2_"
       d="m 87.019,61.149 5.873,-1.03 -13.696,-13.982 7.823,15.012"
       style="fill:#e55d20;fill-opacity:1;stroke:none" /><path
       inkscape:connector-curvature="0"
       id="path2600_2_"
       d="m 79.572,62.684 9.536,-2.06 1.248,-1.05 -20.904,-9.199 10.12,12.309"
       style="fill:#eb7c24;fill-opacity:1;stroke:none" /><path
       inkscape:connector-curvature="0"
       id="path2602_2_"
       d="m 84.504,61.535 5.853,-1.743 -20.884,-9.417 15.031,11.16"
       style="fill:#e55d20;fill-opacity:1;stroke:none" /><path
       inkscape:connector-curvature="0"
       id="path2604_2_"
       d="m 101.457,63.971 -6.813,-2.456 -1.011,-2.644 20.845,0.178 -13.021,4.922"
       style="fill:#e55d20;fill-opacity:1;stroke:none" /><path
       inkscape:connector-curvature="0"
       id="path2606_2_"
       d="m 98.248,62.376 -4.614,-3.505 20.845,0.178 -16.231,3.327"
       style="fill:#eb7c24;fill-opacity:1;stroke:none" /><path
       inkscape:connector-curvature="0"
       id="path2608_2_"
       d="M 96.149,61.842 87.573,61.169 85.167,60.119 98.863,46.137 96.149,61.842"
       style="fill:#e55d20;fill-opacity:1;stroke:none" /><path
       inkscape:connector-curvature="0"
       id="path2610_2_"
       d="M 91.039,61.149 85.167,60.119 98.862,46.137 91.039,61.149"
       style="fill:#eb7c24;fill-opacity:1;stroke:none" /><path
       inkscape:connector-curvature="0"
       id="path2612_2_"
       d="m 98.486,62.684 -9.537,-2.06 -1.257,-1.05 20.904,-9.199 -10.11,12.309"
       style="fill:#e55d20;fill-opacity:1;stroke:none" /><path
       inkscape:connector-curvature="0"
       id="path2614_2_"
       d="m 93.555,61.535 -5.853,-1.743 20.884,-9.417 -15.031,11.16"
       style="fill:#eb7c24;fill-opacity:1;stroke:none" /><path
       style="fill:#ffffff;stroke:none"
       inkscape:connector-curvature="0"
       id="path2616_2_"
       d="m 64.313,147.477 0.297,0.328 2.436,-2.08 -0.406,-0.455 -2.327,2.207 z m -0.752,0.574 0.406,0.457 0.426,-0.387 -0.406,-0.455 -0.426,0.385" /><path
       style="fill:#ffffff;stroke:none"
       inkscape:connector-curvature="0"
       id="path2618_2_"
       d="m 65.264,149.934 0.426,0.395 1.416,-1.514 0.01,0.01 -0.752,2.139 0.475,0.436 0.743,-2.316 2.04,-0.764 -0.416,-0.395 -1.951,0.762 -0.01,-0.01 1.287,-1.387 -0.416,-0.387 -2.852,3.031" /><path
       style="fill:#ffffff;stroke:none"
       inkscape:connector-curvature="0"
       id="path2620_2_"
       d="m 68.105,152.438 1.248,0.941 0.288,-0.387 -0.792,-0.594 0.842,-1.119 0.743,0.564 0.297,-0.387 -0.743,-0.564 0.782,-1.039 0.792,0.594 0.287,-0.387 -1.248,-0.939 -2.496,3.317" /><path
       style="fill:#ffffff;stroke:none"
       inkscape:connector-curvature="0"
       id="path2622_2_"
       d="m 72.72,155.527 1.376,0.732 0.228,-0.426 -0.872,-0.465 0.664,-1.238 0.822,0.436 0.228,-0.426 -0.822,-0.436 0.614,-1.148 0.871,0.465 0.228,-0.426 -1.376,-0.732 -1.961,3.664" /><path
       style="fill:#ffffff;stroke:none"
       inkscape:connector-curvature="0"
       id="path2624_2_"
       d="m 75.641,156.953 0.634,0.258 0.257,-0.633 -0.634,-0.258 -0.257,0.633 z m 1.297,-3.248 0.634,0.258 0.257,-0.623 -0.634,-0.258 -0.257,0.623" /><path
       style="fill:#ffffff;stroke:none"
       inkscape:connector-curvature="0"
       id="path2626_2_"
       d="m 79.513,158.369 0.465,0.129 2.297,-3.752 -0.465,-0.129 -2.297,3.752" /><path
       style="fill:#ffffff;stroke:none"
       inkscape:connector-curvature="0"
       id="path2628_2_"
       d="m 82.721,159.111 0.574,0.08 0.812,-1.426 0.347,1.584 0.604,0.09 -0.554,-2.199 1.109,-1.92 -0.564,-0.08 -0.743,1.377 -0.336,-1.525 -0.604,-0.09 0.544,2.09 -1.189,2.019" /><path
       style="fill:#ffffff;stroke:none"
       inkscape:connector-curvature="0"
       id="path2630_2_"
       d="m 86.712,159.598 0.574,0.01 0.208,-1.061 0.901,0.012 0.168,1.059 0.575,0.01 -0.772,-4.168 -0.664,-0.01 -0.99,4.148 z m 1.277,-3.516 h 0.01 l 0.317,2.01 -0.732,-0.01 0.405,-2" /><path
       style="fill:#ffffff;stroke:none"
       inkscape:connector-curvature="0"
       id="path2632_2_"
       d="m 90.871,159.559 0.574,-0.051 -0.158,-1.791 0.198,-0.021 c 0.376,-0.029 0.456,0.061 0.485,0.457 l 0.079,0.93 c 0.01,0.168 0.03,0.268 0.099,0.367 l 0.535,-0.051 c -0.05,-0.168 -0.069,-0.375 -0.08,-0.523 l -0.078,-0.902 c -0.03,-0.385 -0.179,-0.574 -0.574,-0.584 v -0.01 c 0.455,-0.188 0.515,-0.436 0.465,-0.99 -0.079,-0.9 -0.188,-1.119 -1.02,-1.049 l -0.882,0.078 0.357,4.14 0,0 z m 0.248,-3.705 0.277,-0.02 c 0.355,-0.029 0.396,0.02 0.445,0.635 0.049,0.613 0,0.713 -0.455,0.752 l -0.148,0.01 -0.119,-1.377" /><path
       style="fill:#ffffff;stroke:none"
       inkscape:connector-curvature="0"
       id="path2634_2_"
       d="m 94.614,159.121 0.564,-0.117 -0.376,-1.764 0.188,-0.039 c 0.377,-0.08 0.456,0.01 0.545,0.387 l 0.198,0.92 c 0.04,0.168 0.069,0.268 0.148,0.357 l 0.524,-0.109 c -0.068,-0.158 -0.108,-0.367 -0.139,-0.516 l -0.188,-0.881 c -0.08,-0.387 -0.248,-0.555 -0.645,-0.506 v -0.01 c 0.437,-0.236 0.456,-0.484 0.338,-1.039 -0.189,-0.891 -0.317,-1.09 -1.139,-0.91 l -0.872,0.188 0.854,4.039 0,0 z m -0.198,-3.713 0.268,-0.059 c 0.347,-0.07 0.396,-0.02 0.525,0.574 0.129,0.604 0.089,0.703 -0.357,0.803 l -0.148,0.029 -0.288,-1.347" /><path
       style="fill:#ffffff;stroke:none"
       inkscape:connector-curvature="0"
       id="path2636_2_"
       d="m 98.07,158.281 0.545,-0.18 -0.148,-1.068 0.852,-0.277 0.505,0.949 0.544,-0.178 -2.089,-3.684 -0.634,0.209 0.425,4.229 0,0 z m 0.06,-3.744 h 0.01 l 0.96,1.793 -0.693,0.227 -0.277,-2.02" /><path
       style="fill:#ffffff;stroke:none"
       inkscape:connector-curvature="0"
       id="path2638_2_"
       d="m 103.982,155.924 0.426,-0.238 -0.961,-4.297 -0.426,0.236 0.961,4.299" /><path
       style="fill:#ffffff;stroke:none"
       inkscape:connector-curvature="0"
       id="path2640_2_"
       d="m 106.705,154.34 0.396,-0.277 -1.406,-4.17 -0.396,0.277 1.406,4.17" /><path
       style="fill:#ffffff;stroke:none"
       inkscape:connector-curvature="0"
       id="path2642_2_"
       d="m 109.379,152.359 0.436,-0.367 -1.337,-1.594 0.01,-0.01 2.03,1.01 0.495,-0.416 -2.208,-1.02 -0.516,-2.109 -0.436,0.365 0.516,2.031 -0.01,0.01 -1.219,-1.445 -0.436,0.375 2.675,3.17" /><path
       style="fill:#ffffff;stroke:none"
       inkscape:connector-curvature="0"
       id="path2644_2_"
       d="m 112.24,149.773 1.07,-1.139 -0.357,-0.326 -0.674,0.723 -1.029,-0.951 0.634,-0.682 -0.356,-0.328 -0.634,0.684 -0.95,-0.881 0.673,-0.723 -0.356,-0.328 -1.069,1.139 3.048,2.812" /><path
       style="fill:#ffffff;stroke:none"
       inkscape:connector-curvature="0"
       id="path2646_2_"
       d="m 97.883,133.564 c -0.011,-0.059 -0.011,-0.109 -0.011,-0.158 0,0 0,-0.02 -0.01,-0.02 -0.01,-0.01 -0.03,-0.01 -0.03,-0.01 l -1.158,0.168 c 0,0 -0.02,0 -0.039,0.01 -0.019,0.01 -0.02,0.029 -0.02,0.029 l -0.07,0.168 c 0,0 -0.01,0.02 0,0.029 0.01,0.012 0.03,0 0.03,0 l 1.267,-0.197 c 0,0 0.021,0 0.03,-0.01 0.011,0.021 0.011,0.001 0.011,-0.009 l 0,0 z m -8.171,-15.546 c 0.02,0.039 0.04,0.07 0.059,0.109 0,0.01 0.01,0.02 0.03,0.02 0.02,0 0.04,-0.01 0.04,-0.01 l 0.753,-0.477 c 0,0 0.029,-0.01 0.029,-0.039 0,-0.02 -0.02,-0.039 -0.029,-0.049 -0.029,-0.029 -0.059,-0.07 -0.099,-0.1 0,-0.01 -0.021,-0.02 -0.04,-0.02 -0.019,0 -0.039,0.02 -0.039,0.02 l -0.684,0.486 c 0,0 -0.02,0.01 -0.02,0.029 -0.009,0.011 0,0.021 0,0.031 l 0,0 z m -0.158,-0.307 c 0.02,0.029 0.02,0.049 0.05,0.078 0,0.012 0.01,0.021 0.029,0.021 0.02,0 0.04,-0.01 0.04,-0.01 l 0.634,-0.496 c 0,0 0.02,-0.02 0.029,-0.029 0,-0.01 -0.01,-0.029 -0.01,-0.029 -0.039,-0.041 -0.068,-0.09 -0.099,-0.129 0,-0.012 -0.01,-0.021 -0.03,-0.021 -0.02,0 -0.039,0.021 -0.039,0.021 l -0.565,0.523 c 0,0 -0.02,0.01 -0.02,0.031 -0.029,0.03 -0.029,0.04 -0.019,0.04 l 0,0 z m 5.11,9.051 c 0.049,0.049 0.059,0.039 0.079,0.039 0.02,0 0.04,-0.02 0.04,-0.02 l 1.891,-1.316 c 0,0 0.02,-0.01 0.029,-0.031 0.011,-0.01 -0.01,-0.029 -0.01,-0.039 -0.039,-0.039 -0.068,-0.088 -0.099,-0.129 0,0 -0.01,-0.02 -0.04,-0.02 -0.02,0 -0.078,0.051 -0.078,0.051 l -1.862,1.268 c 0,0 -0.04,0.02 -0.03,0.068 -0.01,0.029 0.03,0.068 0.08,0.129 l 0,0 z m -1.861,7.08 c -0.021,0.059 -0.04,0.1 -0.061,0.158 0,0.01 -0.01,0.029 0,0.049 0.011,0.012 0.03,0.012 0.03,0.012 l 1.466,-0.309 c 0,0 0.039,0 0.049,-0.02 0.021,-0.02 0,-0.049 -0.01,-0.068 -0.02,-0.051 -0.02,-0.061 -0.02,-0.1 0,-0.01 0,-0.029 -0.029,-0.039 -0.02,-0.01 -0.06,0 -0.06,0 l -1.298,0.277 c 0,0 -0.029,0 -0.039,0.01 -0.018,10e-4 -0.028,0.02 -0.028,0.03" /><path
       style="fill:#ffffff;stroke:none"
       inkscape:connector-curvature="0"
       id="path2648_2_"
       d="m 80.236,133.564 c 0.01,-0.059 0.01,-0.109 0.01,-0.158 0,0 0,-0.02 0.01,-0.02 0.01,-0.01 0.03,-0.01 0.03,-0.01 l 1.159,0.168 c 0,0 0.02,0 0.04,0.01 0.02,0.01 0.02,0.029 0.02,0.029 l 0.059,0.168 c 0,0 0.01,0.02 0,0.029 -0.01,0.012 -0.03,0 -0.03,0 l -1.267,-0.197 c 0,0 -0.02,0 -0.03,-0.01 -10e-4,0.021 -10e-4,0.001 -10e-4,-0.009 l 0,0 z m 8.169,-15.546 c -0.02,0.039 -0.04,0.07 -0.06,0.109 0,0.01 -0.01,0.02 -0.03,0.02 -0.02,0 -0.04,-0.01 -0.04,-0.01 l -0.752,-0.477 c 0,0 -0.03,-0.01 -0.03,-0.039 0,-0.02 0.02,-0.039 0.03,-0.049 0.03,-0.029 0.069,-0.07 0.099,-0.1 0.01,-0.01 0.02,-0.02 0.049,-0.02 0.02,0 0.04,0.02 0.04,0.02 l 0.684,0.486 c 0,0 0.02,0.01 0.02,0.029 0,0.011 -0.01,0.021 -0.01,0.031 l 0,0 z m 0.169,-0.307 c -0.02,0.029 -0.02,0.049 -0.05,0.078 0,0.012 -0.01,0.021 -0.03,0.021 -0.02,0 -0.04,-0.01 -0.04,-0.01 l -0.634,-0.496 c 0,0 -0.02,-0.02 -0.029,-0.029 -0.01,-0.01 0.01,-0.029 0.01,-0.029 0.04,-0.041 0.069,-0.09 0.099,-0.129 0,-0.012 0.01,-0.021 0.03,-0.021 0.02,0 0.04,0.021 0.04,0.021 l 0.564,0.523 c 0,0 0.02,0.01 0.02,0.031 0.029,0.03 0.02,0.04 0.02,0.04 l 0,0 z m -5.11,9.051 c -0.049,0.049 -0.059,0.039 -0.079,0.039 -0.02,0 -0.04,-0.02 -0.04,-0.02 l -1.892,-1.316 c 0,0 -0.02,-0.01 -0.02,-0.031 -0.01,-0.01 0.01,-0.029 0.01,-0.039 0.04,-0.039 0.069,-0.088 0.099,-0.129 0,0 0.01,-0.02 0.03,-0.02 0.02,0 0.079,0.051 0.079,0.051 l 1.862,1.268 c 0,0 0.04,0.02 0.029,0.068 0.001,0.029 -0.039,0.068 -0.078,0.129 l 0,0 z m 1.852,7.08 c 0.02,0.059 0.029,0.1 0.059,0.158 0,0.01 0.01,0.029 0,0.049 -0.01,0.012 -0.03,0.012 -0.03,0.012 l -1.465,-0.309 c 0,0 -0.04,0 -0.049,-0.02 -0.02,-0.02 0,-0.049 0,-0.068 0.02,-0.051 0.02,-0.061 0.029,-0.1 0,-0.01 0,-0.029 0.03,-0.039 0.02,-0.01 0.06,0 0.06,0 l 1.297,0.277 c 0,0 0.03,0 0.04,0.01 0.019,10e-4 0.029,0.02 0.029,0.03" /><path
       inkscape:connector-curvature="0"
       id="path2650_2_"
       d="m 111.557,93.53 c 0,0.1 0.03,0.219 0.109,0.377 0.139,0.326 0.377,0.703 0.495,0.92 1.534,2.574 2.724,5.199 3.803,8.209 4.237,11.854 2.812,25.885 -3.427,36.016 0.04,0.039 0.129,0.117 0.219,0.168 0.178,0.098 0.426,0.217 0.762,0.326 0.436,0.139 0.98,0.268 1.574,0.377 -0.059,-0.1 -0.078,-0.199 -0.059,-0.328 0.029,-0.117 0.119,-0.246 0.218,-0.375 4.04,-6.189 6.733,-12.418 7.901,-18.924 -0.268,-4.158 -1.099,-8.357 -2.584,-12.477 -1.842,-5.158 -4.317,-9.477 -7.556,-13.367 -0.148,-0.18 -0.456,-0.506 -0.753,-0.764 -0.148,-0.129 -0.267,-0.197 -0.386,-0.268 -0.06,-0.029 -0.129,-0.098 -0.169,-0.107 -0.018,-0.012 -0.147,0.117 -0.147,0.217 z m 11.645,27.607 c -0.466,2.338 -1.129,4.645 -1.971,6.932 0.842,-2.268 1.505,-4.564 1.971,-6.893 0,-0.01 0,-0.03 0,-0.039 z m -1.99,6.951 c -0.287,0.764 -0.585,1.525 -0.911,2.277 0.326,-0.752 0.634,-1.513 0.911,-2.277 z m -1.416,3.416 c -0.347,0.754 -0.713,1.496 -1.099,2.248 0.396,-0.742 0.752,-1.494 1.099,-2.248 z"
       style="fill:#d8b75e;fill-opacity:1;stroke:#93520e;stroke-width:0.40000001;stroke-miterlimit:4;stroke-opacity:1;stroke-dasharray:none"
       sodipodi:nodetypes="scccccccccccccccscccccccccc" /><path
       inkscape:connector-curvature="0"
       id="path2652_2_"
       d="m 118.785,89.835 c -0.029,0.01 -0.039,0.02 -0.059,0.06 -0.01,0.03 0,0.099 0,0.168 0,0.139 0.039,0.287 0.109,0.485 0.139,0.396 0.355,0.822 0.436,0.98 1.396,3.061 2.475,6.358 3.316,9.774 3.437,14.002 0.635,26.143 -7.169,38.084 -0.089,0.119 -0.148,0.197 -0.169,0.277 -0.02,0.078 0.021,0.109 0.061,0.168 0.059,0.109 0.207,0.199 0.484,0.268 0.564,0.139 1.516,0.148 2.506,0.059 0.99,-0.088 2,-0.266 2.822,-0.484 0.406,-0.109 0.782,-0.207 1.039,-0.326 0.258,-0.119 0.406,-0.209 0.436,-0.268 0,-0.02 0,-0.039 0,-0.061 4.07,-7.406 6.13,-14.883 5.704,-23.25 -0.139,-2.793 -0.544,-5.674 -1.247,-8.693 -1.357,-5.844 -3.733,-11.17 -6.843,-15.864 -0.169,-0.228 -0.476,-0.654 -0.763,-0.971 -0.139,-0.159 -0.268,-0.317 -0.387,-0.386 -0.059,-0.03 -0.118,-0.049 -0.158,-0.06 -0.038,-0.019 -0.118,0.021 -0.118,0.04 z"
       style="fill:#c2a160;fill-opacity:1;stroke:#93520e;stroke-width:0.40000001;stroke-miterlimit:4;stroke-opacity:1;stroke-dasharray:none"
       sodipodi:nodetypes="ccsccccccccccccccccccc" /><path
       inkscape:connector-curvature="0"
       id="path2654_2_"
       d="m 88.831,108.303 c 0,0 14.824,2.684 14.804,2.693 1.516,3.387 2.348,7.141 2.348,10.963 0,10.715 -6.556,20.953 -16.468,26.004 l -0.456,0.227 -0.456,-0.227 c -9.922,-5.051 -16.467,-15.289 -16.467,-26.004 0,-3.852 0.842,-7.635 2.386,-11.051 0.04,0.039 14.309,-2.605 14.309,-2.605"
       style="fill:#651a0e;fill-opacity:1;stroke:none" /><path
       inkscape:connector-curvature="0"
       id="path2656_2_"
       d="m 73.7,121.939 c 0,-3.457 0.683,-6.773 1.941,-9.844 -0.01,0.051 13.229,-2.426 13.229,-2.455 0.049,-0.029 13.735,2.506 13.635,2.525 1.238,3.049 1.912,6.348 1.912,9.773 0,8.822 -4.457,16.705 -11.457,21.973 0,0 -1.02,0.881 -1.951,1.465 -0.931,0.584 -1.951,1.051 -1.951,1.051 0,0 -1.04,-0.516 -2.238,-1.268 -1.198,-0.764 -1.664,-1.238 -1.664,-1.238 -7,-5.276 -11.456,-13.159 -11.456,-21.982"
       style="fill:#d8b75e;fill-opacity:1;stroke:none" /><path
       style="fill:none;stroke:none"
       inkscape:connector-curvature="0"
       d="m 73.7,121.939 c 0,-3.457 0.683,-6.773 1.941,-9.844 -0.01,0.051 13.229,-2.426 13.229,-2.455 0.049,-0.029 13.735,2.506 13.635,2.525 1.238,3.049 1.912,6.348 1.912,9.773 0,8.822 -4.457,16.705 -11.457,21.973 0,0 -1.02,0.881 -1.951,1.465 -0.931,0.584 -1.951,1.051 -1.951,1.051 0,0 -1.04,-0.516 -2.238,-1.268 -1.198,-0.764 -1.664,-1.238 -1.664,-1.238 -7,-5.276 -11.456,-13.159 -11.456,-21.982"
       id="path125" /><path
       inkscape:connector-curvature="0"
       id="path2668_2_"
       d="m 66.244,93.42 c -0.119,0.07 -0.288,0.139 -0.436,0.268 -0.297,0.258 -0.614,0.584 -0.762,0.764 -3.238,3.891 -5.654,8.197 -7.496,13.367 -1.466,4.09 -2.308,8.258 -2.595,12.377 1.159,6.547 3.852,12.805 7.912,19.023 0.099,0.129 0.188,0.258 0.218,0.377 0.03,0.117 0,0.217 -0.049,0.316 0.564,-0.109 1.089,-0.238 1.515,-0.377 0.336,-0.109 0.634,-0.227 0.812,-0.326 0.089,-0.051 0.128,-0.129 0.168,-0.168 -6.229,-10.141 -7.664,-24.162 -3.426,-36.016 1.079,-3.01 2.277,-5.635 3.802,-8.209 0.119,-0.227 0.347,-0.604 0.485,-0.92 0.069,-0.158 0.168,-0.277 0.168,-0.377 0.021,-0.099 -0.257,-0.128 -0.316,-0.099 z m -11.239,28.103 c 0.109,0.535 0.228,1.068 0.356,1.594 -0.129,-0.525 -0.247,-1.058 -0.356,-1.594 z m 1.485,5.387 c 0.099,0.277 0.198,0.555 0.297,0.832 -0.099,-0.277 -0.198,-0.554 -0.297,-0.832 z m 0.515,1.416 c 0.198,0.516 0.406,1.029 0.624,1.555 -0.218,-0.516 -0.426,-1.039 -0.624,-1.555 z m 1.01,2.455 c 0.268,0.615 0.555,1.229 0.852,1.832 -0.297,-0.603 -0.584,-1.217 -0.852,-1.832 z"
       style="fill:#d8b75e;fill-opacity:1;stroke:#93520e;stroke-width:0.40000001;stroke-miterlimit:4;stroke-opacity:1;stroke-dasharray:none"
       sodipodi:nodetypes="cccccccccccccscccccccccccccc" /><path
       inkscape:connector-curvature="0"
       id="path2670_2_"
       d="m 59.243,89.766 c -0.02,0 -0.04,0.01 -0.06,0.01 -0.04,0 -0.049,0.02 -0.109,0.059 -0.119,0.07 -0.297,0.218 -0.436,0.386 -0.277,0.327 -0.535,0.743 -0.703,0.971 -3.119,4.704 -5.486,10.021 -6.843,15.864 -2.802,12.061 -0.98,22.072 4.456,31.943 0,0.021 0,0.041 0,0.061 0.02,0.059 0.178,0.148 0.436,0.268 0.257,0.117 0.574,0.217 0.98,0.326 0.822,0.219 1.892,0.396 2.882,0.484 0.99,0.09 1.931,0.09 2.495,-0.059 0.277,-0.07 0.426,-0.168 0.485,-0.268 0.03,-0.049 0.069,-0.09 0.06,-0.168 -0.02,-0.08 -0.08,-0.158 -0.168,-0.277 -7.803,-11.941 -10.605,-24.082 -7.169,-38.084 0.842,-3.416 1.921,-6.713 3.317,-9.774 0.079,-0.159 0.297,-0.584 0.436,-0.98 0.069,-0.198 0.109,-0.347 0.109,-0.485 0,-0.069 0.01,-0.129 0,-0.168 -0.01,-0.03 -0.029,-0.04 -0.059,-0.059 -0.02,-0.01 -0.089,-0.06 -0.109,-0.05 z"
       style="fill:#c2a160;fill-opacity:1;stroke:#93520e;stroke-width:0.40000001;stroke-miterlimit:4;stroke-opacity:1;stroke-dasharray:none"
       sodipodi:nodetypes="csccccccccccccccccsccc" /><path
       inkscape:connector-curvature="0"
       id="path2672_2_"
       d="m 75.463,105.006 c 0,0 -2.02,-0.188 -2.396,0.326 -0.376,0.525 -8.565,-2.791 -8.565,-2.791 0,0 8.16,1.365 10.615,1.99 2.485,0.643 0.346,0.475 0.346,0.475"
       style="fill:#000000;fill-opacity:1;stroke:none" /><path
       inkscape:connector-curvature="0"
       id="path2674_2_"
       d="m 75.74,103.768 c 0,0 -2.04,-0.484 -2.208,-1.088 -0.158,-0.615 -9.031,-0.129 -9.031,-0.129 0,0 8.249,1.355 10.784,1.555 2.565,0.207 0.455,-0.338 0.455,-0.338"
       style="fill:#000000;fill-opacity:1;stroke:none" /><path
       inkscape:connector-curvature="0"
       id="path2676_2_"
       d="m 111.637,70.368 c 0.316,0.307 2.634,2.842 2.495,5.862 2.862,0.535 7.872,-0.01 8.645,-0.159 3.634,-0.703 7.456,-1.861 8.595,-2.495 0.922,-0.515 1.021,-1.06 1.506,-2.417 0.684,-1.941 -2.496,-0.346 -5.912,1.01 -2.218,0.881 -3.674,1.456 -4.525,1.723 0.02,-0.178 0.04,-0.347 0.05,-0.525 2.298,-1.05 9.308,-3.961 10.536,-4.872 1.356,-1.01 0.842,-3.109 0.287,-3.238 -0.248,-0.06 -6.14,3.337 -10.773,6.011 -0.02,-0.159 -0.03,-0.327 -0.05,-0.495 2.237,-1.327 4.733,-2.842 6.556,-4.03 5.219,-3.426 4.822,-2.713 4.406,-5.06 -0.326,-1.852 -1.852,-0.049 -1.852,-0.049 l -1.703,1.436 c 0,0 -4.813,3.842 -7.694,6.08 -0.03,-0.148 -0.069,-0.307 -0.108,-0.466 2.812,-2.356 7.357,-6.308 8.277,-7.268 1.268,-1.317 3.061,-2.07 1.783,-4.417 -0.564,-1.04 -0.803,-1.664 -1.248,-1.496 -0.396,0.664 -0.951,1.139 -1.277,1.575 -2.545,3.337 -5.654,6.793 -8.229,9.526 -0.07,-0.178 -0.148,-0.347 -0.229,-0.525 1.604,-1.733 3.169,-3.496 4.159,-4.802 4.803,-6.338 5.387,-6.862 4.714,-8.289 -0.327,-0.703 -1.693,-2.544 -2.021,-2.386 0.03,0.911 -1.179,3.159 -2.96,5.813 -2.506,3.724 -4.021,5.971 -5.08,7.516 -0.148,-0.218 -0.297,-0.446 -0.466,-0.664 3.119,-4.971 7.11,-11.565 7.14,-13.051 0.02,-1.149 -0.229,-1.961 -1.941,-3.159 -0.613,-0.426 -1.822,-0.891 -2.307,-0.723 1.208,1.892 -0.307,6.07 -0.574,6.744 -1.179,2.96 -2.595,5.852 -3.922,8.308 -0.168,-0.168 -0.346,-0.336 -0.535,-0.515 1.535,-3.228 3.031,-6.793 3.535,-9.011 0.832,-3.674 -0.108,-6.516 -3.129,-7.882 -1.307,9.556 -3.961,18.111 -7.564,24.944 0.039,0.04 0.078,0.069 0.118,0.109 0.247,0.267 0.662,0.584 1.297,1.337"
       style="fill:#b87d13;fill-opacity:1;stroke:none" /><path
       inkscape:connector-curvature="0"
       id="path2678_2_"
       d="m 66.492,70.368 c -0.317,0.307 -2.634,2.842 -2.496,5.862 -2.862,0.535 -7.872,-0.01 -8.645,-0.159 -3.634,-0.703 -7.457,-1.861 -8.595,-2.495 -0.921,-0.515 -1.02,-1.06 -1.505,-2.417 -0.683,-1.941 2.496,-0.346 5.912,1.01 2.218,0.881 3.674,1.456 4.525,1.723 -0.02,-0.178 -0.04,-0.347 -0.049,-0.525 -2.297,-1.05 -9.308,-3.961 -10.536,-4.872 -1.356,-1.01 -0.842,-3.109 -0.287,-3.238 0.248,-0.06 6.129,3.337 10.774,6.011 0.01,-0.159 0.029,-0.327 0.049,-0.495 -2.238,-1.327 -4.733,-2.842 -6.555,-4.03 -5.219,-3.426 -4.813,-2.713 -4.407,-5.06 0.327,-1.852 1.852,-0.049 1.852,-0.049 l 1.703,1.436 c 0,0 4.803,3.842 7.694,6.08 0.03,-0.148 0.069,-0.307 0.109,-0.466 -2.813,-2.356 -7.357,-6.308 -8.278,-7.268 -1.268,-1.317 -3.06,-2.07 -1.792,-4.417 0.564,-1.04 0.802,-1.664 1.248,-1.496 0.406,0.664 0.95,1.139 1.277,1.575 2.545,3.337 5.654,6.793 8.229,9.526 0.069,-0.178 0.148,-0.347 0.228,-0.525 -1.604,-1.733 -3.169,-3.496 -4.159,-4.802 -4.803,-6.338 -5.387,-6.862 -4.713,-8.289 0.327,-0.703 1.693,-2.544 2.02,-2.386 -0.03,0.911 1.179,3.159 2.961,5.813 2.505,3.724 4.021,5.971 5.08,7.516 0.148,-0.218 0.307,-0.446 0.465,-0.664 -3.12,-4.971 -7.11,-11.565 -7.14,-13.051 -0.02,-1.149 0.218,-1.961 1.941,-3.159 0.614,-0.426 1.812,-0.891 2.307,-0.723 -1.208,1.892 0.307,6.07 0.574,6.744 1.178,2.96 2.594,5.852 3.921,8.308 0.168,-0.168 0.347,-0.336 0.535,-0.515 -1.535,-3.228 -3.03,-6.793 -3.535,-9.011 -0.832,-3.674 0.109,-6.516 3.129,-7.882 1.307,9.556 3.961,18.111 7.565,24.944 -0.04,0.04 -0.079,0.069 -0.109,0.109 -0.258,0.267 -0.674,0.584 -1.297,1.337"
       style="fill:#b87d13;fill-opacity:1;stroke:none" /><path
       inkscape:connector-curvature="0"
       id="path2680_2_"
       d="m 91.516,137.912 c -0.011,0 -0.021,0 -0.021,0 -0.079,0 -0.148,0.068 -0.139,0.148 0,0.049 0.021,0.088 0.06,0.107 0.029,0.012 0.029,0.051 0.02,0.061 -0.059,0.119 -0.119,0.217 -0.168,0.268 -0.287,0.277 -0.703,0.375 -1.268,0.82 0,0 -0.178,0.119 -0.06,0.299 0.109,0.178 0.545,-0.021 0.545,-0.021 0,0 0.753,-0.375 1.198,-0.395 0,0 0.416,-0.031 0.574,-0.338 0,0 0.079,-0.188 0.237,-0.455 0,-0.01 0.021,-0.029 0.05,-0.02 0.079,0.02 0.158,-0.029 0.178,-0.109 0.01,-0.049 0,-0.1 -0.039,-0.139 0,0 -0.01,-0.02 0,-0.029 0.02,-0.02 0.029,-0.049 0.049,-0.07 0.01,-0.01 0.021,-0.01 0.03,-0.01 0.01,0.01 0.03,0.01 0.04,0.01 0.078,0.021 0.158,-0.029 0.178,-0.107 0.01,-0.051 -0.01,-0.109 -0.039,-0.139 -0.021,-0.012 -0.01,-0.041 -0.01,-0.041 l 0.049,-0.059 c 0,0 0.01,-0.02 0.039,-0.01 0.01,0 0.021,0.01 0.03,0.01 0.079,0.02 0.158,-0.029 0.179,-0.109 0.01,-0.049 0,-0.1 -0.03,-0.129 -0.01,-0.01 -0.03,-0.02 0,-0.049 0.614,-0.881 1.653,-2.555 1.317,-3.416 0,0 -0.01,-0.031 -0.04,-0.07 -0.03,-0.039 -0.099,-0.029 -0.099,-0.029 l -1.595,0.326 c 0,0 -0.06,0.01 -0.079,0.061 -0.218,0.643 -0.485,1.475 -0.742,2.465 0,0 -0.03,0.129 -0.09,0.326 0,0.012 -0.02,0.041 -0.059,0.041 -0.08,0.01 -0.148,0.068 -0.148,0.148 0,0.049 0.029,0.078 0.059,0.107 0.06,0.021 0.039,0.07 0.039,0.07 l -0.01,0.039 c 0,0 -0.01,0.041 -0.059,0.031 h -0.01 c -0.08,0 -0.148,0.068 -0.139,0.148 0,0.049 0.029,0.098 0.068,0.117 0.03,0.01 0.03,0.051 0.021,0.061 0,0.01 -0.01,0.029 -0.01,0.039 -0.058,0.032 -0.077,0.052 -0.106,0.042 l 0,0 z m 7.168,-21.349 c -0.088,-0.07 -0.277,-0.426 -1.623,-0.564 0,0 -0.357,0.02 -0.268,-0.723 0,0 0.01,-0.287 0.356,-0.496 0,0 0.466,-0.197 0.564,-0.555 0,0 0.02,-0.068 0.04,-0.168 0.029,-0.158 0.049,-0.594 -0.426,-0.842 -0.109,-0.039 -0.109,0 -0.169,-0.039 -0.05,-0.02 -0.05,-0.07 -0.089,-0.08 0,0 -0.06,-0.02 -0.109,0 0,0 -0.039,0.029 -0.099,0.01 0,0 -0.06,-0.02 -0.069,-0.068 -0.01,-0.061 -0.09,-0.1 -0.168,-0.051 0,0 -0.04,0.051 -0.1,0.031 0,0 -0.06,-0.01 -0.069,-0.07 0,0 -0.021,-0.088 -0.129,-0.088 0,0 -0.069,0 -0.108,0.049 0,0 -0.02,0.059 -0.08,0.059 h -0.02 c -0.02,0 -0.049,-0.01 -0.059,-0.068 0,0 -0.03,-0.09 -0.148,-0.09 0,0 -0.109,0 -0.139,0.109 0,0 0,0.068 -0.051,0.078 0,0 -0.059,0.031 -0.068,-0.039 0,0 -0.04,-0.109 -0.179,-0.098 0,0 -0.168,0 -0.179,0.158 0,0 -0.029,0.158 0.051,0.514 0.02,0.277 -0.04,0.338 -0.04,0.338 -0.366,0.416 -0.406,0.693 -0.406,0.801 0,0.01 0,0.01 0,0.02 0,0.012 0,0.012 0,0.021 0.01,0.088 0.06,0.504 0.337,0.643 0,0 0.129,0.07 0.287,0.01 l 0.148,-0.068 c 0,0 0.158,-0.07 0.168,0.029 0.01,0.129 0.029,0.387 -0.049,0.516 0,0 -0.03,0.078 -0.219,0.059 0,0 -1.119,-0.168 -1.931,0.961 0,0 -0.208,0.258 -0.307,0.416 -0.021,0.049 -0.021,0.078 0.03,0.078 0.108,0.01 0.336,0.021 0.484,0.051 0.168,0.029 0.347,0.068 0.426,0.088 0.05,0.01 0.04,0.051 0.04,0.051 l -0.021,0.129 c 0,0 0,0.049 -0.039,0.029 -0.109,-0.039 -0.465,-0.148 -1.02,-0.139 0,0 -0.961,0 -1,0.564 0,0 -0.021,0.248 0.316,0.516 0,0 0.039,0.029 0.109,0.078 -0.04,0.061 -0.08,0.139 -0.109,0.238 0,0 0,0 -0.01,0.01 -0.05,0.129 -0.09,0.248 -0.109,0.316 -0.029,0.129 -0.109,0.178 -0.168,0.188 -0.06,0 -0.09,-0.098 -0.09,-0.098 -0.207,-0.496 -1.089,-1.338 -1.336,-1.574 -0.01,-0.01 -0.02,-0.031 -0.06,-0.031 -0.03,0 -0.069,0.021 -0.069,0.021 l -0.773,0.475 c 0,0 -0.04,0.029 -0.05,0.049 -0.01,0.031 0,0.051 0.01,0.061 0.842,1.555 1.199,1.752 1.199,1.752 0,0 0.514,0.564 1.139,0.545 0.365,-0.01 0.891,-0.564 1.268,-1.01 0.138,-0.158 0.316,-0.367 0.405,-0.496 0.05,0.01 0.108,0.01 0.179,0.02 0.02,0 0.029,0.01 0.029,0.031 -0.029,0.277 -0.307,2.684 -0.1,4.832 0,0 0.09,1.91 0.396,2.377 0.029,0.049 0.09,0.01 0.09,0.01 l 1.881,-1.318 c 0,0 0.02,-0.01 0.029,-0.029 0.06,-0.217 0.525,-2.1 0.753,-3.367 0,0 0.426,-1.971 0.852,-3 0,0 0.01,-0.029 0.03,-0.049 0.02,-0.02 0.059,-0.02 0.059,-0.02 0.129,-0.02 0.416,-0.08 0.713,-0.229 0,0 0.297,-0.129 0.584,-0.375 0,0 0.396,-0.318 0.387,-0.645 0,0 0,-0.436 -0.723,-0.377 -0.01,0 -0.04,0 -0.06,-0.02 -0.044,-0.102 -0.241,-0.399 -0.321,-0.447 l 0,0 z m -9.655,0.742 c 0,0 0.129,0.049 0.288,0.168 0,0 0.089,0.1 0.198,0 0.178,-0.168 0.376,-0.375 0.485,-0.484 0.139,-0.148 0.1,-0.348 -0.079,-0.535 0,0 -0.317,-0.316 -0.545,-0.277 0,0 -0.119,0.049 -0.178,0.08 0,0 -0.04,0.02 -0.188,0.01 0,0 -0.208,-0.02 -0.446,0.207 0,0 -0.267,0.287 -0.089,0.555 0,0 0.079,0.139 0.287,0.209 0.129,0.047 0.267,0.067 0.267,0.067 l 0,0 z m 9.28,1.496 c -0.04,0.01 -0.061,0.029 -0.061,0.068 0.04,0.277 0.179,0.613 0.179,0.613 0.169,0.506 0.97,1.467 0.97,1.467 0.308,0.396 0.219,0.939 0.219,0.939 -0.02,0.457 0.059,1.309 0.059,1.309 0.07,0.723 0.317,1.307 0.387,1.465 0.029,0.059 0.109,0.049 0.109,0.049 l 0.703,-0.088 c 0,0 0.039,0 0.059,-0.02 0.02,-0.021 0.03,-0.061 0.03,-0.07 0.04,-0.396 0.05,-1.525 0.05,-1.525 -0.021,-0.703 -0.545,-1.861 -0.545,-1.861 -0.148,-0.326 -0.168,-0.693 -0.168,-0.693 0,-0.217 -0.129,-1.129 -0.129,-1.129 -0.109,-0.652 -0.357,-1.029 -0.456,-1.158 -0.03,-0.029 -0.06,-0.039 -0.089,-0.01 -0.178,0.148 -0.387,0.287 -0.634,0.406 -0.238,0.119 -0.467,0.197 -0.683,0.238 l 0,0 z m 2.009,6.219 c -0.01,0.039 -0.05,0.039 -0.05,0.039 l -0.05,0.01 c -0.059,0.01 -0.089,0.059 -0.099,0.197 -0.01,0.138 0.04,0.871 0.376,1.08 0,0 0.188,0.148 0.416,0.148 0,0 0.287,0 0.525,-0.316 0,0 0.178,-0.158 0.01,-0.436 0,0 -0.07,-0.129 -0.208,-0.209 -0.258,-0.158 -0.198,-0.396 -0.198,-0.396 0,0 0.02,-0.098 -0.188,-0.117 -0.051,-0.012 -0.07,-0.031 -0.07,-0.061 -0.029,-0.098 -0.089,-0.158 -0.207,-0.158 -0.129,0 -0.248,0.1 -0.248,0.219 l 0,0 h -0.009 z m -3.535,0.543 -1.852,1.289 c -0.07,0.068 -0.09,0.078 -0.05,0.256 0.04,0.17 -0.04,0.703 -0.237,1.109 -0.198,0.396 -0.545,1.02 -0.932,2.168 -0.287,0.852 -0.436,1.418 -0.475,1.971 0,0 -0.029,0.09 0.02,0.219 0,0 0.049,0.029 0,0.139 0,0 -0.129,0.268 -0.326,0.803 0,0 -0.021,0.039 0,0.049 0.01,0.01 0.049,0 0.049,0 l 1.238,-0.258 c 0,0 0.02,0 0.039,-0.02 0.019,-0.02 0.02,-0.029 0.029,-0.039 0.03,-0.09 0.07,-0.189 0.158,-0.287 0,0 0.564,-0.615 0.743,-0.893 0,0 0.505,-0.564 0.921,-1.881 0,0 0.645,-1.703 1.367,-1.92 0.723,-0.219 1.207,-0.654 0.871,-1.506 0,0 -0.258,-0.822 -1,-1.148 -0.008,0.019 -0.395,-0.169 -0.563,-0.051 l 0,0 z m 1.079,7.576 c -0.03,-0.307 0.169,-0.842 0.169,-0.842 0,0 0.178,-0.525 0.168,-1.209 0,-0.662 -0.516,-2.227 -0.654,-2.623 0,-0.01 -0.01,-0.02 -0.02,-0.029 -0.01,-0.009 -0.039,0 -0.039,0 -0.635,0.256 -1.209,1.771 -1.308,2.059 -0.02,0.051 -0.01,0.08 -0.01,0.1 0.148,0.713 0.515,1.723 0.515,1.723 0.168,0.574 0.06,0.922 0.06,0.922 0,0.01 -0.01,0.029 -0.02,0.068 0,0.01 0.04,0.039 0.04,0.039 l 1.068,-0.158 c 0,0 0.021,0 0.03,-0.01 0.011,-0.021 10e-4,-0.04 10e-4,-0.04 z m -3.079,5.287 c -0.158,0.457 -0.574,0.555 -0.574,0.555 -0.99,0.328 -1.486,0.604 -1.486,0.604 -0.376,0.189 -0.158,0.447 -0.158,0.447 0.139,0.158 1,0.02 1,0.02 0.971,-0.1 1.188,-0.258 1.188,-0.258 0.396,-0.238 1.663,-1.902 1.663,-1.902 1.575,-1.939 1.605,-3.672 1.525,-4.029 0,-0.02 -0.01,-0.029 -0.01,-0.049 0,-0.01 0,-0.02 -0.02,-0.031 -0.02,-0.01 -0.04,-0.01 -0.04,-0.01 l -1.366,0.219 c 0,0 -0.02,0 -0.029,0.01 -0.009,0.01 -0.021,0.02 -0.021,0.029 -0.307,0.813 -0.732,1.951 -0.732,1.951 l -0.94,2.444"
       style="fill:#651a0e;fill-opacity:1;stroke:none" /><path
       inkscape:connector-curvature="0"
       id="path2682_2_"
       d="m 86.603,137.912 c 0.01,0 0.02,0 0.02,0 0.08,0 0.149,0.068 0.149,0.148 0,0.049 -0.03,0.088 -0.06,0.107 -0.03,0.012 -0.03,0.051 -0.02,0.061 0.06,0.119 0.119,0.217 0.178,0.268 0.288,0.277 0.703,0.375 1.268,0.82 0,0 0.178,0.119 0.06,0.299 -0.109,0.178 -0.545,-0.021 -0.545,-0.021 0,0 -0.743,-0.375 -1.198,-0.395 0,0 -0.406,-0.031 -0.575,-0.338 0,0 -0.079,-0.188 -0.237,-0.455 -0.01,-0.01 -0.02,-0.029 -0.05,-0.02 -0.079,0.02 -0.158,-0.029 -0.178,-0.109 -0.01,-0.049 0,-0.1 0.04,-0.139 0.01,0 0.02,-0.02 0.01,-0.029 -0.02,-0.02 -0.03,-0.049 -0.05,-0.07 -0.01,-0.01 -0.02,-0.01 -0.03,-0.01 -0.01,0.01 -0.02,0.01 -0.04,0.01 -0.079,0.021 -0.158,-0.029 -0.178,-0.107 -0.01,-0.051 0,-0.109 0.04,-0.139 0.02,-0.012 0.01,-0.041 0.01,-0.041 l -0.04,-0.059 c 0,0 -0.01,-0.02 -0.04,-0.01 -0.01,0 -0.02,0.01 -0.03,0.01 -0.08,0.02 -0.159,-0.029 -0.178,-0.109 -0.01,-0.049 0,-0.1 0.04,-0.129 0.01,-0.01 0.02,-0.02 0,-0.049 -0.614,-0.881 -1.654,-2.555 -1.317,-3.416 0,0 0.01,-0.031 0.04,-0.07 0.029,-0.039 0.099,-0.029 0.099,-0.029 l 1.595,0.326 c 0,0 0.059,0.01 0.079,0.061 0.218,0.643 0.485,1.475 0.743,2.465 0,0 0.03,0.129 0.089,0.326 0,0.012 0.01,0.041 0.06,0.041 0.079,0.01 0.148,0.068 0.139,0.148 0,0.049 -0.02,0.078 -0.06,0.107 -0.059,0.021 -0.04,0.07 -0.04,0.07 l 0.01,0.039 c 0,0 0.01,0.041 0.06,0.031 h 0.01 c 0.08,0 0.149,0.068 0.149,0.148 0,0.049 -0.03,0.098 -0.07,0.117 -0.029,0.01 -0.029,0.051 -0.02,0.061 0,0.01 0.01,0.029 0.01,0.039 0.008,0.032 0.038,0.052 0.058,0.042 l 0,0 z m -7.169,-21.349 c 0.089,-0.07 0.277,-0.426 1.624,-0.564 0,0 0.347,0.02 0.268,-0.723 0,0 -0.01,-0.287 -0.356,-0.496 0,0 -0.465,-0.197 -0.564,-0.555 0,0 -0.02,-0.068 -0.04,-0.168 -0.02,-0.158 -0.05,-0.594 0.426,-0.842 0.109,-0.039 0.109,0 0.168,-0.039 0.05,-0.02 0.05,-0.07 0.089,-0.08 0,0 0.06,-0.02 0.109,0 0,0 0.04,0.029 0.099,0.01 0,0 0.059,-0.02 0.069,-0.068 0.01,-0.061 0.089,-0.1 0.168,-0.051 0,0 0.04,0.051 0.099,0.031 0,0 0.06,-0.01 0.069,-0.07 0,0 0.02,-0.088 0.129,-0.088 0,0 0.06,0 0.099,0.049 0,0 0.02,0.059 0.079,0.059 h 0.02 c 0.02,0 0.049,-0.01 0.059,-0.068 0,0 0.03,-0.09 0.149,-0.09 0,0 0.119,0 0.148,0.109 0,0 0,0.068 0.04,0.078 0,0 0.059,0.031 0.079,-0.039 0,0 0.04,-0.109 0.178,-0.098 0,0 0.159,0 0.178,0.158 0,0 0.02,0.158 -0.049,0.514 -0.02,0.277 0.04,0.338 0.04,0.338 0.366,0.416 0.406,0.693 0.406,0.801 0,0.01 0,0.01 0,0.02 0,0.012 0,0.012 0,0.021 -0.01,0.088 -0.059,0.504 -0.327,0.643 0,0 -0.128,0.07 -0.287,0.01 l -0.148,-0.068 c 0,0 -0.159,-0.07 -0.168,0.029 -0.02,0.129 -0.03,0.387 0.05,0.516 0,0 0.029,0.078 0.218,0.059 0,0 1.119,-0.168 1.921,0.961 0,0 0.208,0.258 0.307,0.416 0.02,0.049 0.02,0.078 -0.04,0.078 -0.109,0.01 -0.337,0.021 -0.485,0.051 -0.168,0.029 -0.347,0.068 -0.426,0.088 -0.05,0.01 -0.04,0.051 -0.04,0.051 l 0.02,0.129 c 0,0 0,0.049 0.04,0.029 0.109,-0.039 0.465,-0.148 1.02,-0.139 0,0 0.96,0 1,0.564 0,0 0.02,0.248 -0.317,0.516 0,0 -0.04,0.029 -0.109,0.078 0.04,0.061 0.08,0.139 0.109,0.238 0,0 0,0 0,0.01 0.05,0.129 0.089,0.248 0.109,0.316 0.029,0.129 0.109,0.178 0.168,0.188 0.05,0 0.089,-0.098 0.089,-0.098 0.208,-0.496 1.089,-1.338 1.337,-1.574 0.01,-0.01 0.029,-0.031 0.059,-0.031 0.03,0 0.069,0.021 0.069,0.021 l 0.772,0.475 c 0,0 0.04,0.029 0.05,0.049 0.01,0.031 -0.01,0.051 -0.01,0.061 -0.841,1.555 -1.198,1.752 -1.198,1.752 0,0 -0.515,0.564 -1.148,0.545 -0.366,-0.01 -0.891,-0.564 -1.268,-1.01 -0.139,-0.158 -0.317,-0.367 -0.416,-0.496 -0.049,0.01 -0.109,0.01 -0.178,0.02 -0.02,0 -0.029,0.01 -0.029,0.031 0.029,0.277 0.307,2.684 0.099,4.832 0,0 -0.089,1.91 -0.396,2.377 -0.03,0.049 -0.089,0.01 -0.089,0.01 l -1.882,-1.318 c 0,0 -0.02,-0.01 -0.02,-0.029 -0.06,-0.217 -0.535,-2.1 -0.763,-3.367 0,0 -0.426,-1.971 -0.852,-3 0,0 -0.01,-0.029 -0.03,-0.049 -0.02,-0.02 -0.059,-0.02 -0.059,-0.02 -0.129,-0.02 -0.416,-0.08 -0.713,-0.229 0,0 -0.297,-0.129 -0.584,-0.375 0,0 -0.396,-0.318 -0.386,-0.645 0,0 0,-0.436 0.723,-0.377 0.01,0 0.04,0 0.059,-0.02 0.088,-0.102 0.296,-0.399 0.366,-0.447 l 0,0 z m 9.654,0.742 c 0,0 -0.139,0.049 -0.287,0.168 0,0 -0.089,0.1 -0.198,0 -0.178,-0.168 -0.376,-0.375 -0.485,-0.484 -0.139,-0.148 -0.099,-0.348 0.079,-0.535 0,0 0.317,-0.316 0.544,-0.277 0,0 0.119,0.049 0.178,0.08 0,0 0.04,0.02 0.188,0.01 0,0 0.208,-0.02 0.445,0.207 0,0 0.268,0.287 0.099,0.555 0,0 -0.079,0.139 -0.287,0.209 -0.137,0.047 -0.276,0.067 -0.276,0.067 l 0,0 z m -9.278,1.496 c 0.04,0.01 0.06,0.029 0.049,0.068 -0.04,0.277 -0.168,0.613 -0.168,0.613 -0.178,0.506 -0.971,1.467 -0.971,1.467 -0.307,0.396 -0.218,0.939 -0.218,0.939 0.02,0.457 -0.06,1.309 -0.06,1.309 -0.069,0.723 -0.317,1.307 -0.386,1.465 -0.02,0.059 -0.109,0.049 -0.109,0.049 l -0.703,-0.088 c 0,0 -0.04,0 -0.059,-0.02 -0.02,-0.021 -0.03,-0.061 -0.03,-0.07 -0.04,-0.396 -0.049,-1.525 -0.049,-1.525 0.02,-0.703 0.544,-1.861 0.544,-1.861 0.148,-0.326 0.168,-0.693 0.168,-0.693 0,-0.217 0.139,-1.129 0.139,-1.129 0.109,-0.652 0.356,-1.029 0.455,-1.158 0.02,-0.029 0.06,-0.039 0.089,-0.01 0.178,0.148 0.386,0.287 0.634,0.406 0.24,0.119 0.467,0.197 0.675,0.238 l 0,0 z m -2.01,6.219 c 0.01,0.039 0.049,0.039 0.049,0.039 l 0.05,0.01 c 0.069,0.01 0.089,0.059 0.099,0.197 0.01,0.139 -0.03,0.871 -0.376,1.08 0,0 -0.188,0.148 -0.416,0.148 0,0 -0.287,0 -0.525,-0.316 0,0 -0.178,-0.158 -0.01,-0.436 0,0 0.069,-0.129 0.208,-0.209 0.257,-0.158 0.198,-0.396 0.198,-0.396 0,0 -0.02,-0.098 0.188,-0.117 0.049,-0.012 0.069,-0.031 0.069,-0.061 0.03,-0.098 0.089,-0.158 0.208,-0.158 0.139,0 0.248,0.1 0.248,0.219 h 0.01 l 0,0 z m 3.545,0.543 1.852,1.289 c 0.069,0.068 0.089,0.078 0.049,0.256 -0.04,0.17 0.04,0.703 0.238,1.109 0.198,0.396 0.544,1.02 0.931,2.168 0.287,0.852 0.436,1.418 0.475,1.971 0,0 0.03,0.09 -0.02,0.219 0,0 -0.05,0.029 0,0.139 0,0 0.119,0.268 0.327,0.803 0,0 0.02,0.039 0,0.049 -0.01,0.01 -0.049,0 -0.049,0 L 83.9,133.308 c 0,0 -0.02,0 -0.04,-0.02 -0.02,-0.02 -0.029,-0.029 -0.029,-0.039 -0.03,-0.09 -0.08,-0.189 -0.159,-0.287 0,0 -0.564,-0.615 -0.752,-0.893 0,0 -0.495,-0.564 -0.911,-1.881 0,0 -0.653,-1.703 -1.376,-1.92 -0.723,-0.219 -1.208,-0.654 -0.871,-1.506 0,0 0.267,-0.822 1,-1.148 0.029,0.019 0.415,-0.169 0.583,-0.051 l 0,0 z m -1.09,7.576 c 0.03,-0.307 -0.168,-0.842 -0.168,-0.842 0,0 -0.178,-0.525 -0.168,-1.209 0,-0.662 0.515,-2.227 0.654,-2.623 0,-0.01 0.01,-0.02 0.02,-0.029 0.02,-0.01 0.03,0 0.04,0 0.634,0.256 1.208,1.771 1.317,2.059 0.02,0.051 0.01,0.08 0.01,0.1 -0.148,0.713 -0.515,1.723 -0.515,1.723 -0.158,0.574 -0.06,0.922 -0.06,0.922 0,0.01 0.01,0.029 0.02,0.068 0.01,0.01 -0.04,0.039 -0.04,0.039 l -1.069,-0.158 c 0,0 -0.02,0 -0.03,-0.01 -0.011,-0.021 -0.011,-0.04 -0.011,-0.04 z m 3.08,5.287 c 0.159,0.457 0.575,0.555 0.575,0.555 0.99,0.328 1.485,0.604 1.485,0.604 0.376,0.189 0.158,0.447 0.158,0.447 -0.139,0.158 -1,0.02 -1,0.02 -0.971,-0.1 -1.188,-0.258 -1.188,-0.258 -0.396,-0.238 -1.664,-1.902 -1.664,-1.902 -1.574,-1.939 -1.604,-3.672 -1.525,-4.029 0,-0.02 0.01,-0.029 0.01,-0.049 0,-0.01 0,-0.02 0.02,-0.031 0.02,-0.01 0.04,-0.01 0.04,-0.01 l 1.367,0.219 c 0,0 0.02,0 0.03,0.01 0.01,0.01 0.02,0.02 0.02,0.029 0.307,0.813 0.733,1.951 0.733,1.951 l 0.939,2.444"
       style="fill:#651a0e;fill-opacity:1;stroke:none" /><path
       inkscape:connector-curvature="0"
       id="path2684_2_"
       d="m 102.397,105.184 -27.351,4.813 c 0,0 -0.505,0.119 -0.614,-0.355 -0.099,-0.475 0.416,-0.584 0.416,-0.584 l 28.519,-4.893 c 0.179,-0.039 0.337,-0.068 0.485,-0.098 1.723,-0.486 1.772,-0.941 2.475,-2.119 0.219,-0.277 0.406,-0.576 1.189,-0.555 1.355,0.02 2.871,0.574 3.1,1.871 0.227,1.307 -0.852,2.258 -2.268,2.832 -0.724,0.287 -1.001,0.059 -1.308,-0.119 -1.089,-0.881 -1.248,-1.326 -3.109,-1.059 -0.119,0.029 -0.298,0.049 -0.437,0.068 l -1.097,0.198"
       style="fill:#000000;fill-opacity:1;stroke:none" /><path
       inkscape:connector-curvature="0"
       id="path2686_2_"
       d="m 76.928,105.383 0.188,-0.803 26.311,4.525 c 0,0 0.494,0.09 0.406,0.584 -0.09,0.496 -0.585,0.377 -0.585,0.377 l -26.32,-4.683"
       style="fill:#000000;fill-opacity:1;stroke:none" /><path
       inkscape:connector-curvature="0"
       id="path2688_2_"
       d="m 88.643,70.437 c 0,0 1.634,0.367 2.297,0.386 0.663,0.02 1.842,-0.208 2.743,-0.208 1.99,0 3.277,0.525 3.277,0.525 0,0 -1.248,-0.079 -2.772,0.069 -1.534,0.148 -1.693,0.208 -1.673,0.356 0.02,0.148 0.524,0.05 1.079,0.02 0.564,-0.03 0.95,-0.079 2.179,-0.03 1.228,0.049 2.574,0.485 2.574,0.485 0,0 -1.268,-0.188 -3.476,0.159 -2.208,0.347 -2.308,0.475 -2.308,0.475 0,0 2.09,0.02 3.338,0.159 2.396,0.277 3.792,1.198 3.792,1.198 0,0 -1.901,-0.525 -4.228,-0.485 -2.328,0.03 -3.397,-0.069 -3.783,-0.178 -0.1,-0.069 -0.287,-0.069 -0.109,0.099 0.109,0.099 0.604,0.168 1.02,0.208 0.416,0.04 1.189,0.089 2.357,0.327 1.158,0.238 2.921,0.812 3.476,1.099 0.555,0.287 2.139,1.277 2.139,1.277 0,0 -1.852,-0.842 -4.079,-1.159 -2.229,-0.317 -3.258,-0.574 -3.922,-0.644 -1.347,-0.148 -2.445,-0.693 -2.445,-0.693 0,0 0.663,-0.614 0.623,-1.406 -0.029,-0.792 -0.366,-1.287 -0.832,-1.554 -0.475,-0.287 -1.267,-0.485 -1.267,-0.485"
       style="fill:#651a0e;fill-opacity:1;stroke:none" /><path
       inkscape:connector-curvature="0"
       id="path2690_2_"
       d="m 107.547,112.928 c 0.316,-0.148 0.366,0.08 0.445,0.367 0.069,0.287 0.852,2.316 0.852,2.316 0,0 0.951,0.98 1.317,1.367 0.366,0.385 1.297,1.336 1.218,1.684 -0.079,0.346 -0.316,0.633 -0.653,0.633 -0.347,0 -0.832,-0.484 -1.218,-1.049 -0.396,-0.564 -0.625,-1.1 -0.783,-1.535 -0.158,-0.445 -1.316,-3.467 -1.316,-3.467 -0.051,-0.187 0.138,-0.316 0.138,-0.316 l 0,0 z"
       style="fill:#8f6937;fill-opacity:1;stroke:none" /><path
       inkscape:connector-curvature="0"
       id="path2692_2_"
       d="m 111.745,119.592 c -0.218,0.287 -0.466,0.564 -0.099,1.051 0.366,0.484 0.535,0.703 1.02,0.703 0.495,0 1.367,-0.902 1.634,-2.238 0.268,-1.348 0.198,-1.348 0.247,-1.912 0.051,-0.555 0.169,-2.525 0.169,-2.525 0,0 -0.05,-0.297 -0.267,-0.297 -0.219,0 -0.268,0.18 -0.268,0.297 0,0.109 -0.1,2.051 -0.1,2.051 0,0 0.1,0.139 -0.168,0.455 -0.268,0.316 -2.168,2.415 -2.168,2.415 l 0,0 z"
       style="fill:#8f6937;fill-opacity:1;stroke:none" /><path
       inkscape:connector-curvature="0"
       id="path2694_2_"
       d="m 111.508,123.83 c -0.258,0.248 -0.555,0.486 -0.258,1.02 0.287,0.535 0.416,0.783 0.901,0.852 0.485,0.08 1.495,-0.672 1.97,-1.959 0.477,-1.289 0.406,-1.299 0.545,-1.844 0.139,-0.543 0.564,-2.475 0.564,-2.475 0,0 0,-0.297 -0.217,-0.336 -0.219,-0.041 -0.298,0.139 -0.317,0.246 -0.021,0.119 -0.416,2.012 -0.416,2.012 0,0 0.079,0.158 -0.237,0.426 -0.327,0.277 -2.535,2.058 -2.535,2.058 l 0,0 z"
       style="fill:#8f6937;fill-opacity:1;stroke:none" /><path
       inkscape:connector-curvature="0"
       id="path2696_2_"
       d="m 108.062,116.73 c 0.327,-0.129 0.366,0.1 0.416,0.387 0.06,0.287 0.733,2.355 0.733,2.355 0,0 0.9,1.031 1.247,1.438 0.347,0.404 1.218,1.395 1.129,1.742 -0.089,0.336 -0.347,0.623 -0.693,0.604 -0.346,-0.019 -0.802,-0.523 -1.169,-1.109 -0.365,-0.584 -0.564,-1.129 -0.703,-1.574 -0.139,-0.455 -1.128,-3.525 -1.128,-3.525 -0.031,-0.179 0.168,-0.318 0.168,-0.318 z"
       style="fill:#8f6937;fill-opacity:1;stroke:none" /><path
       inkscape:connector-curvature="0"
       id="path2698_2_"
       d="m 108.329,120.334 c 0.337,-0.088 0.347,0.15 0.366,0.438 0.02,0.297 0.436,2.426 0.436,2.426 0,0 0.763,1.129 1.06,1.574 0.298,0.445 1.04,1.545 0.911,1.861 -0.129,0.326 -0.416,0.574 -0.752,0.516 -0.337,-0.061 -0.733,-0.625 -1.021,-1.248 -0.287,-0.625 -0.426,-1.189 -0.505,-1.654 -0.09,-0.465 -0.693,-3.645 -0.693,-3.645 -0.029,-0.198 0.198,-0.268 0.198,-0.268 l 0,0 z"
       style="fill:#8f6937;fill-opacity:1;stroke:none" /><path
       inkscape:connector-curvature="0"
       id="path2700_2_"
       d="m 111.141,128.059 c -0.276,0.238 -0.574,0.455 -0.316,1.01 0.258,0.555 0.377,0.803 0.852,0.902 0.476,0.098 1.525,-0.596 2.07,-1.852 0.544,-1.258 0.475,-1.277 0.633,-1.813 0.169,-0.535 0.693,-2.438 0.693,-2.438 0,0 0.01,-0.297 -0.197,-0.346 -0.219,-0.049 -0.297,0.119 -0.327,0.229 -0.03,0.107 -0.524,1.98 -0.524,1.98 0,0 0.068,0.158 -0.268,0.416 -0.319,0.248 -2.616,1.912 -2.616,1.912 l 0,0 z"
       style="fill:#8f6937;fill-opacity:1;stroke:none" /><path
       inkscape:connector-curvature="0"
       id="path2702_2_"
       d="m 108.19,124.623 c 0.347,-0.061 0.337,0.168 0.337,0.465 0,0.297 0.268,2.455 0.268,2.455 0,0 0.683,1.18 0.95,1.645 0.267,0.465 0.931,1.604 0.772,1.922 -0.158,0.316 -0.455,0.543 -0.793,0.455 -0.336,-0.08 -0.683,-0.674 -0.93,-1.316 -0.248,-0.645 -0.338,-1.219 -0.387,-1.684 -0.049,-0.467 -0.445,-3.674 -0.445,-3.674 -0.009,-0.18 0.228,-0.268 0.228,-0.268 l 0,0 z"
       style="fill:#8f6937;fill-opacity:1;stroke:none" /><path
       inkscape:connector-curvature="0"
       id="path2704_2_"
       d="m 109.16,133.494 c -0.02,0.645 0.625,0.783 0.961,0.734 0.337,-0.051 0.941,-0.357 1.584,-1.07 0.635,-0.713 2.387,-4.416 2.387,-4.416 0,0 0.297,-0.387 0,-0.506 -0.297,-0.117 -0.297,0.01 -0.366,0.119 -0.069,0.119 -0.821,1.902 -1,2.148 -0.169,0.248 -1.733,1.406 -2.366,1.852 -0.635,0.426 -1.2,1.139 -1.2,1.139 l 0,0 z"
       style="fill:#8f6937;fill-opacity:1;stroke:none" /><path
       inkscape:connector-curvature="0"
       id="path2706_2_"
       d="m 107.339,136.613 c -0.021,0.396 0.267,1.051 0.753,0.951 0.494,-0.1 1.297,-0.316 2.099,-1.148 0.802,-0.832 1.356,-1.723 1.703,-2.148 0.347,-0.416 0.872,-1.07 0.872,-1.07 0,0 0.129,-0.268 -0.05,-0.365 -0.169,-0.1 -0.356,-0.08 -0.535,0.168 -0.168,0.248 -1.05,1.484 -1.247,1.703 -0.198,0.217 -1.724,0.742 -2.238,0.99 -0.506,0.257 -1.258,0.644 -1.357,0.919 l 0,0 z"
       style="fill:#8f6937;fill-opacity:1;stroke:none" /><path
       inkscape:connector-curvature="0"
       id="path2708_2_"
       d="m 104.773,140.248 c -0.099,0.416 -0.088,1.1 0.971,0.902 1.061,-0.199 1.901,-0.932 2.377,-1.318 0.465,-0.385 1.277,-1.336 1.634,-1.752 0.357,-0.416 0.753,-0.793 0.901,-0.932 0.148,-0.139 0.129,-0.217 0,-0.316 -0.119,-0.1 -0.268,-0.09 -0.466,0.1 -0.198,0.188 -1.01,1.238 -1.466,1.584 -0.455,0.346 -2.059,0.693 -2.673,0.932 -0.623,0.236 -1.129,0.532 -1.278,0.8 l 0,0 z"
       style="fill:#8f6937;fill-opacity:1;stroke:none" /><path
       inkscape:connector-curvature="0"
       id="path2710_2_"
       d="m 105.021,138.219 c 0.109,0.307 0.258,0.445 0.703,0.436 0.445,-0.02 0.723,-0.119 0.861,-0.416 0.138,-0.297 -0.228,-1.635 -0.346,-2.338 -0.119,-0.701 -0.258,-1.029 -0.149,-1.404 0.109,-0.377 0.317,-0.754 0.337,-1.002 0.01,-0.236 -0.188,-0.365 -0.377,-0.158 -0.099,0.109 -0.633,1.961 -0.723,2.348 -0.089,0.387 -0.366,1.494 -0.355,1.762 0.001,0.285 0.049,0.772 0.049,0.772 l 0,0 z"
       style="fill:#8f6937;fill-opacity:1;stroke:none" /><path
       inkscape:connector-curvature="0"
       id="path2712_2_"
       d="m 107.467,135.357 c 0.179,0.266 0.367,0.375 0.783,0.246 0.426,-0.117 0.674,-0.287 0.732,-0.613 0.06,-0.326 -0.613,-1.535 -0.9,-2.178 -0.287,-0.654 -0.496,-0.941 -0.486,-1.328 0.021,-0.387 0.129,-0.813 0.08,-1.039 -0.04,-0.238 -0.287,-0.287 -0.377,-0.139 -0.079,0.129 -0.168,2.129 -0.148,2.525 0.01,0.395 0.01,1.545 0.08,1.801 0.078,0.259 0.236,0.725 0.236,0.725 l 0,0 z"
       style="fill:#8f6937;fill-opacity:1;stroke:none" /><path
       inkscape:connector-curvature="0"
       id="path2714_2_"
       d="m 101.526,143.516 c -0.149,0.406 -0.247,1.07 0.821,1.01 1.07,-0.068 2.011,-0.693 2.516,-1.02 0.505,-0.327 1.426,-1.168 1.842,-1.535 0.406,-0.365 0.842,-0.693 1.01,-0.811 0.158,-0.119 0.148,-0.199 0.039,-0.309 -0.108,-0.117 -0.257,-0.129 -0.475,0.041 -0.218,0.168 -1.148,1.107 -1.644,1.385 -0.495,0.289 -2.129,0.438 -2.772,0.605 -0.644,0.149 -1.337,0.634 -1.337,0.634 l 0,0 z"
       style="fill:#8f6937;fill-opacity:1;stroke:none" /><path
       inkscape:connector-curvature="0"
       id="path2716_2_"
       d="m 101.962,141.764 c 0.05,0.326 0.169,0.494 0.604,0.564 0.436,0.068 0.732,0.02 0.92,-0.248 0.188,-0.268 0.09,-1.654 0.1,-2.367 0.01,-0.713 -0.06,-1.059 0.119,-1.404 0.178,-0.348 0.455,-0.684 0.515,-0.912 0.06,-0.227 -0.129,-0.336 -0.277,-0.307 -0.148,0.029 -1.06,1.891 -1.218,2.258 -0.158,0.365 -0.645,1.396 -0.684,1.664 -0.02,0.265 -0.079,0.752 -0.079,0.752 l 0,0 z"
       style="fill:#8f6937;fill-opacity:1;stroke:none" /><path
       inkscape:connector-curvature="0"
       id="path2718_2_"
       d="m 99.238,144.684 c 0.04,0.328 0.1,0.645 0.535,0.725 0.436,0.078 0.803,-0.109 0.99,-0.377 0.198,-0.268 0.119,-1.645 0.139,-2.357 0.02,-0.712 -0.039,-1.068 0.148,-1.406 0.188,-0.336 0.465,-0.672 0.535,-0.9 0.068,-0.229 -0.119,-0.336 -0.268,-0.316 -0.148,0.029 -1.1,1.871 -1.258,2.229 -0.168,0.365 -0.664,1.385 -0.713,1.652 -0.047,0.255 -0.108,0.75 -0.108,0.75 l 0,0 z"
       style="fill:#8f6937;fill-opacity:1;stroke:none" /><path
       inkscape:connector-curvature="0"
       id="path2720_2_"
       d="m 91.426,149.379 c 0,0 2.624,0.117 7.031,-1.98 3.188,-1.564 3.387,-1.822 3.387,-1.822 0,0 0.098,-0.199 0.049,-0.348 -0.049,-0.149 -0.218,-0.168 -0.416,-0.049 -0.197,0.119 -0.832,0.604 -1.337,0.752 -0.505,0.148 -0.901,0.109 -1.148,-0.158 -0.436,-0.494 -0.386,-1.813 -0.386,-1.813 0,0 -1.268,1.545 -3.08,2.813 -1.813,1.257 -4.1,2.605 -4.1,2.605 z"
       style="fill:#8f6937;fill-opacity:1;stroke:none" /><path
       inkscape:connector-curvature="0"
       id="path2722_2_"
       d="m 110.488,109.838 c 0.178,0.01 0.217,0.129 0.237,0.229 0.029,0.1 1.128,7.268 1.128,7.268 0,0 -1.355,-0.781 -1.484,-1.633 -0.129,-0.852 0.426,-1.941 0.426,-2.219 0,-0.278 -0.485,-3.436 -0.485,-3.436 0,0 0.009,-0.19 0.178,-0.209 l 0,0 z"
       style="fill:#8f6937;fill-opacity:1;stroke:none" /><path
       inkscape:connector-curvature="0"
       id="path2724_2_"
       d="m 111.389,109.996 c 0.178,-0.02 0.268,0.17 0.287,0.318 0.029,0.148 0.426,2.842 0.426,2.842 0,0 1.297,1.971 1.357,2.377 0.059,0.395 -0.061,0.9 -0.416,1.277 -0.348,0.375 -0.664,0.533 -0.664,0.533 l -1.139,-7.129 c -0.01,-0.009 0.05,-0.187 0.149,-0.218 l 0,0 z"
       style="fill:#8f6937;fill-opacity:1;stroke:none" /><path
       inkscape:connector-curvature="0"
       id="path2726_2_"
       d="m 70.849,112.928 c -0.317,-0.148 -0.367,0.08 -0.446,0.367 -0.079,0.287 -0.852,2.316 -0.852,2.316 0,0 -0.951,0.98 -1.317,1.367 -0.367,0.385 -1.297,1.336 -1.218,1.684 0.08,0.346 0.307,0.633 0.654,0.633 0.347,0 0.832,-0.484 1.218,-1.049 0.396,-0.564 0.624,-1.1 0.783,-1.535 0.168,-0.445 1.317,-3.467 1.317,-3.467 0.049,-0.187 -0.139,-0.316 -0.139,-0.316 z"
       style="fill:#8f6937;fill-opacity:1;stroke:none" /><path
       inkscape:connector-curvature="0"
       id="path2728_2_"
       d="m 66.65,119.592 c 0.218,0.287 0.465,0.564 0.099,1.051 -0.367,0.484 -0.535,0.703 -1.02,0.703 -0.485,0 -1.367,-0.902 -1.634,-2.238 -0.268,-1.348 -0.198,-1.348 -0.248,-1.912 -0.049,-0.555 -0.168,-2.525 -0.168,-2.525 0,0 0.05,-0.297 0.268,-0.297 0.218,0 0.267,0.18 0.267,0.297 0,0.109 0.099,2.051 0.099,2.051 0,0 -0.099,0.139 0.168,0.455 0.268,0.315 2.169,2.415 2.169,2.415 l 0,0 z"
       style="fill:#8f6937;fill-opacity:1;stroke:none" /><path
       inkscape:connector-curvature="0"
       id="path2730_2_"
       d="m 66.888,123.83 c 0.267,0.248 0.544,0.486 0.257,1.02 -0.287,0.535 -0.416,0.783 -0.901,0.852 -0.485,0.08 -1.496,-0.672 -1.971,-1.959 -0.475,-1.289 -0.406,-1.299 -0.544,-1.844 -0.139,-0.543 -0.564,-2.475 -0.564,-2.475 0,0 0,-0.297 0.218,-0.336 0.218,-0.041 0.297,0.139 0.317,0.246 0.02,0.119 0.416,2.012 0.416,2.012 0,0 -0.079,0.158 0.238,0.426 0.325,0.277 2.534,2.058 2.534,2.058 l 0,0 z"
       style="fill:#8f6937;fill-opacity:1;stroke:none" /><path
       inkscape:connector-curvature="0"
       id="path2732_2_"
       d="m 70.333,116.73 c -0.327,-0.129 -0.366,0.1 -0.426,0.387 -0.06,0.287 -0.733,2.355 -0.733,2.355 0,0 -0.901,1.031 -1.248,1.438 -0.347,0.404 -1.218,1.395 -1.129,1.742 0.089,0.336 0.347,0.623 0.693,0.604 0.346,-0.019 0.802,-0.523 1.159,-1.109 0.366,-0.584 0.564,-1.129 0.703,-1.574 0.139,-0.455 1.139,-3.525 1.139,-3.525 0.041,-0.179 -0.158,-0.318 -0.158,-0.318 z"
       style="fill:#8f6937;fill-opacity:1;stroke:none" /><path
       inkscape:connector-curvature="0"
       id="path2734_2_"
       d="m 70.066,120.334 c -0.337,-0.088 -0.347,0.15 -0.376,0.438 -0.02,0.297 -0.436,2.426 -0.436,2.426 0,0 -0.763,1.129 -1.06,1.574 -0.297,0.445 -1.04,1.545 -0.911,1.861 0.128,0.326 0.416,0.574 0.752,0.516 0.336,-0.061 0.733,-0.625 1.02,-1.248 0.287,-0.625 0.426,-1.189 0.505,-1.654 0.089,-0.465 0.693,-3.645 0.693,-3.645 0.041,-0.198 -0.187,-0.268 -0.187,-0.268 l 0,0 z"
       style="fill:#8f6937;fill-opacity:1;stroke:none" /><path
       inkscape:connector-curvature="0"
       id="path2736_2_"
       d="m 67.254,128.059 c 0.277,0.238 0.574,0.455 0.317,1.01 -0.257,0.555 -0.376,0.803 -0.852,0.902 -0.485,0.098 -1.525,-0.596 -2.069,-1.852 -0.545,-1.258 -0.476,-1.277 -0.634,-1.813 -0.159,-0.535 -0.693,-2.438 -0.693,-2.438 0,0 -0.01,-0.297 0.208,-0.346 0.218,-0.049 0.297,0.119 0.327,0.229 0.02,0.107 0.525,1.98 0.525,1.98 0,0 -0.069,0.158 0.268,0.416 0.306,0.248 2.603,1.912 2.603,1.912 l 0,0 z"
       style="fill:#8f6937;fill-opacity:1;stroke:none" /><path
       inkscape:connector-curvature="0"
       id="path2738_2_"
       d="m 70.205,124.623 c -0.346,-0.061 -0.336,0.168 -0.336,0.465 0,0.297 -0.268,2.455 -0.268,2.455 0,0 -0.683,1.18 -0.95,1.645 -0.268,0.465 -0.931,1.604 -0.783,1.922 0.159,0.316 0.456,0.543 0.792,0.455 0.336,-0.08 0.683,-0.674 0.931,-1.316 0.248,-0.645 0.337,-1.219 0.386,-1.684 0.05,-0.467 0.446,-3.674 0.446,-3.674 0.019,-0.18 -0.218,-0.268 -0.218,-0.268 l 0,0 z"
       style="fill:#8f6937;fill-opacity:1;stroke:none" /><path
       inkscape:connector-curvature="0"
       id="path2740_2_"
       d="m 69.234,133.494 c 0.02,0.645 -0.624,0.783 -0.96,0.734 -0.337,-0.051 -0.941,-0.357 -1.584,-1.07 -0.643,-0.713 -2.386,-4.416 -2.386,-4.416 0,0 -0.297,-0.387 0,-0.506 0.297,-0.117 0.297,0.01 0.366,0.119 0.079,0.119 0.832,1.902 1,2.148 0.168,0.248 1.733,1.406 2.367,1.852 0.633,0.426 1.197,1.139 1.197,1.139 l 0,0 z"
       style="fill:#8f6937;fill-opacity:1;stroke:none" /><path
       inkscape:connector-curvature="0"
       id="path2742_2_"
       d="m 71.056,136.613 c 0.03,0.396 -0.267,1.051 -0.752,0.951 -0.485,-0.1 -1.297,-0.316 -2.099,-1.148 -0.802,-0.832 -1.356,-1.723 -1.703,-2.148 -0.347,-0.416 -0.881,-1.07 -0.881,-1.07 0,0 -0.129,-0.268 0.049,-0.365 0.168,-0.1 0.357,-0.08 0.535,0.168 0.168,0.248 1.049,1.484 1.248,1.703 0.198,0.217 1.723,0.742 2.238,0.99 0.514,0.257 1.267,0.644 1.365,0.919 l 0,0 z"
       style="fill:#8f6937;fill-opacity:1;stroke:none" /><path
       inkscape:connector-curvature="0"
       id="path2744_2_"
       d="m 73.621,140.248 c 0.099,0.416 0.089,1.1 -0.97,0.902 -1.06,-0.199 -1.911,-0.932 -2.377,-1.318 -0.465,-0.385 -1.277,-1.336 -1.634,-1.752 -0.357,-0.416 -0.752,-0.793 -0.901,-0.932 -0.149,-0.139 -0.119,-0.217 0,-0.316 0.119,-0.1 0.267,-0.09 0.465,0.1 0.198,0.188 1.01,1.238 1.465,1.584 0.455,0.346 2.06,0.693 2.674,0.932 0.625,0.236 1.13,0.532 1.278,0.8 l 0,0 z"
       style="fill:#8f6937;fill-opacity:1;stroke:none" /><path
       inkscape:connector-curvature="0"
       id="path2746_2_"
       d="m 73.383,138.219 c -0.109,0.307 -0.257,0.445 -0.703,0.436 -0.445,-0.02 -0.723,-0.119 -0.861,-0.416 -0.138,-0.297 0.228,-1.635 0.347,-2.338 0.119,-0.701 0.257,-1.029 0.148,-1.404 -0.109,-0.377 -0.317,-0.754 -0.336,-1.002 -0.02,-0.236 0.178,-0.365 0.376,-0.158 0.099,0.109 0.634,1.961 0.723,2.348 0.079,0.387 0.366,1.494 0.356,1.762 -0.01,0.285 -0.05,0.772 -0.05,0.772 z"
       style="fill:#8f6937;fill-opacity:1;stroke:none" /><path
       inkscape:connector-curvature="0"
       id="path2748_2_"
       d="m 70.918,135.357 c -0.178,0.266 -0.367,0.375 -0.783,0.246 -0.426,-0.117 -0.673,-0.287 -0.732,-0.613 -0.06,-0.326 0.614,-1.535 0.911,-2.178 0.287,-0.654 0.495,-0.941 0.485,-1.328 -0.02,-0.387 -0.128,-0.813 -0.079,-1.039 0.04,-0.238 0.287,-0.287 0.376,-0.139 0.079,0.129 0.168,2.129 0.158,2.525 -0.01,0.395 -0.01,1.545 -0.079,1.801 -0.089,0.259 -0.257,0.725 -0.257,0.725 z"
       style="fill:#8f6937;fill-opacity:1;stroke:none" /><path
       inkscape:connector-curvature="0"
       id="path2750_2_"
       d="m 76.869,143.516 c 0.148,0.406 0.248,1.07 -0.822,1.01 -1.07,-0.068 -2.01,-0.693 -2.516,-1.02 -0.505,-0.326 -1.426,-1.168 -1.842,-1.535 -0.406,-0.365 -0.841,-0.693 -1.01,-0.811 -0.158,-0.119 -0.148,-0.199 -0.04,-0.309 0.109,-0.117 0.257,-0.129 0.475,0.041 0.218,0.168 1.149,1.107 1.644,1.385 0.495,0.289 2.129,0.438 2.772,0.605 0.646,0.149 1.339,0.634 1.339,0.634 l 0,0 z"
       style="fill:#8f6937;fill-opacity:1;stroke:none" /><path
       inkscape:connector-curvature="0"
       id="path2752_2_"
       d="m 76.433,141.764 c -0.049,0.326 -0.168,0.494 -0.604,0.564 -0.436,0.068 -0.732,0.02 -0.931,-0.248 -0.188,-0.268 -0.089,-1.654 -0.099,-2.367 -0.01,-0.713 0.06,-1.059 -0.119,-1.404 -0.178,-0.348 -0.456,-0.684 -0.515,-0.912 -0.059,-0.227 0.129,-0.336 0.277,-0.307 0.148,0.029 1.06,1.891 1.218,2.258 0.158,0.365 0.644,1.396 0.683,1.664 0.031,0.265 0.09,0.752 0.09,0.752 l 0,0 z"
       style="fill:#8f6937;fill-opacity:1;stroke:none" /><path
       inkscape:connector-curvature="0"
       id="path2754_2_"
       d="m 79.156,144.684 c -0.04,0.328 -0.099,0.645 -0.535,0.725 -0.436,0.078 -0.802,-0.109 -0.99,-0.377 -0.198,-0.268 -0.119,-1.645 -0.139,-2.357 -0.029,-0.713 0.04,-1.068 -0.148,-1.406 -0.188,-0.336 -0.465,-0.672 -0.535,-0.9 -0.07,-0.228 0.119,-0.336 0.268,-0.316 0.148,0.029 1.089,1.871 1.257,2.229 0.159,0.365 0.673,1.385 0.713,1.652 0.05,0.255 0.109,0.75 0.109,0.75 l 0,0 z"
       style="fill:#8f6937;fill-opacity:1;stroke:none" /><path
       inkscape:connector-curvature="0"
       id="path2756_2_"
       d="m 86.969,149.379 c 0,0 -2.624,0.117 -7.03,-1.98 -3.188,-1.564 -3.387,-1.822 -3.387,-1.822 0,0 -0.099,-0.199 -0.05,-0.348 0.05,-0.148 0.218,-0.168 0.416,-0.049 0.198,0.119 0.832,0.604 1.347,0.752 0.505,0.148 0.901,0.109 1.149,-0.158 0.436,-0.494 0.386,-1.813 0.386,-1.813 0,0 1.267,1.545 3.08,2.813 1.802,1.257 4.089,2.605 4.089,2.605 l 0,0 z"
       style="fill:#8f6937;fill-opacity:1;stroke:none" /><path
       inkscape:connector-curvature="0"
       id="path2758_2_"
       d="m 67.908,109.838 c -0.178,0.01 -0.208,0.129 -0.238,0.229 -0.03,0.1 -1.129,7.268 -1.129,7.268 0,0 1.356,-0.781 1.485,-1.633 0.129,-0.852 -0.426,-1.941 -0.426,-2.219 0,-0.278 0.485,-3.436 0.485,-3.436 0,0 -0.009,-0.19 -0.177,-0.209 l 0,0 z"
       style="fill:#8f6937;fill-opacity:1;stroke:none" /><path
       inkscape:connector-curvature="0"
       id="path2760_2_"
       d="m 67.006,109.996 c -0.178,-0.02 -0.257,0.17 -0.287,0.318 -0.03,0.148 -0.426,2.842 -0.426,2.842 0,0 -1.297,1.971 -1.356,2.377 -0.06,0.395 0.059,0.9 0.416,1.277 0.347,0.375 0.664,0.533 0.664,0.533 l 1.149,-7.129 c -10e-4,-0.009 -0.061,-0.187 -0.16,-0.218 l 0,0 z"
       style="fill:#8f6937;fill-opacity:1;stroke:none" /><path
       inkscape:connector-curvature="0"
       id="path2762_2_"
       d="m 84.177,86.528 4.625,-3.614 2.447,1.94 c 0,0 0.703,-1.089 0.891,-2.336 0.198,-1.248 0.229,-2.337 0.229,-2.337 0,0 -1.189,-0.02 -2.021,-0.426 -1.516,-0.743 -2.407,-2.525 -2.407,-2.525 0,0 0.158,1.05 -0.277,2.723 -0.426,1.674 -1.168,2.802 -1.832,3.535 -0.635,0.743 -1.655,3.04 -1.655,3.04 z"
       style="fill:#93520e;fill-opacity:1;stroke:none" /><path
       inkscape:connector-curvature="0"
       id="path2764_2_"
       d="m 89.197,75.329 c 0,0 0.198,1.752 1.051,2.723 0.852,0.971 2.099,1.713 2.099,1.713 0,0 -0.079,-1.862 -0.544,-2.604 -0.466,-0.743 -2.606,-1.832 -2.606,-1.832 l 0,0 z"
       style="fill:#93520e;fill-opacity:1;stroke:none" /><path
       inkscape:connector-curvature="0"
       id="path2766_2_"
       d="m 93.208,79.626 c 0,0 0.021,2.05 -0.316,3.218 -0.337,1.168 -0.98,2.564 -0.98,2.564 l 2.366,1.872 c 0,0 2.367,-0.267 3.832,-0.555 1.466,-0.297 2.595,-0.584 3.199,-1.198 0.802,-0.802 0.247,-1.783 0.247,-1.783 0,0 1.991,-0.891 2.901,-1.535 1.367,-0.98 0.684,-1.931 0.684,-1.931 0,0 1.525,-0.366 2.485,-0.881 1.733,-0.931 0.97,-1.752 0.97,-1.752 0,0 2.17,-0.178 3.902,-0.901 1.218,-0.515 1.039,-1.148 0.971,-1.634 -0.07,-0.485 -0.416,-1.872 -1.367,-3.119 -0.951,-1.247 -1.535,-1.951 -2.069,-2 -0.534,-0.049 -1.495,1.901 -1.713,2.288 -0.218,0.396 -3.069,4.882 -6.585,7.932 -3.516,3.05 -5.971,4.03 -6.685,3.951 -0.634,-0.069 -0.881,-1.634 -1,-2.03 -0.109,-0.386 -0.842,-2.506 -0.842,-2.506"
       style="fill:#d8b75e;fill-opacity:1;stroke:none" /><path
       inkscape:connector-curvature="0"
       id="path2768_2_"
       d="m 80.563,74.646 c 0,0 0.257,-0.445 0.545,-0.772 0.198,-0.228 0.366,-0.218 0.723,-0.198 0.347,0.02 3.515,0.426 4.139,0.584 0.624,0.159 1.05,0.288 1.287,0.544 0.238,0.248 0.485,0.763 0.644,1.109 0.159,0.347 0.743,1.802 1.693,2.644 1.516,1.337 2.526,1.417 2.526,1.417 0,0 -0.703,-0.178 -1.535,-0.911 -0.832,-0.743 -1.317,-1.713 -1.516,-2.604 -0.198,-0.891 -0.277,-1.188 -0.317,-1.574 -0.02,-0.148 -0.029,-0.238 0,-0.277 0.04,-0.04 0.099,-0.069 0.159,-0.049 0.06,0.01 0.277,0.198 0.406,0.287 0.119,0.089 1.932,1.089 2.1,1.218 0.178,0.129 1.396,1.119 2.05,2.496 0.654,1.377 0.743,1.921 0.94,2.713 0.229,0.842 0.455,0.931 0.455,0.931 0,0 0.179,-0.891 -0.01,-2.02 -0.188,-1.129 -0.623,-2.228 -1.148,-2.951 -0.524,-0.713 -1.069,-1.257 -1.069,-1.257 0,0 0.872,0.366 2.644,0.852 1.764,0.485 2.357,0.644 3.328,0.99 0.97,0.347 2.484,0.99 2.484,0.99 0,0 -0.574,-0.723 -2.079,-1.495 -1.555,-0.792 -2.743,-1.396 -3.911,-1.763 -1.168,-0.367 -2.496,-0.792 -3.07,-0.881 -1.168,-0.178 -1.891,-0.792 -1.891,-0.792 0,0 0.535,-0.436 0.613,-1.208 0.08,-0.782 -0.247,-1.426 -0.792,-1.743 -0.554,-0.317 -0.94,-0.416 -1.495,-0.515 -0.544,-0.099 -1.941,-0.238 -2.356,-0.267 -0.416,-0.04 -0.881,0.049 -1.248,0.297 -0.366,0.248 -0.634,0.664 -0.713,0.891 0,0 -1.693,0.386 -2.268,0.683 -0.584,0.297 -1.049,0.555 -1.307,1.406 -0.259,0.868 -0.011,1.225 -0.011,1.225"
       style="fill:#b87d13;fill-opacity:1;stroke:none" /><path
       inkscape:connector-curvature="0"
       id="path2770_2_"
       d="m 84.86,72.695 c -0.723,0.069 -1.525,0 -1.525,0 0,0 0.535,-0.614 0.723,-0.812 0.505,-0.564 1.248,-0.891 2.069,-1 1.535,-0.208 1.951,0.317 1.951,0.317 0,0 -0.832,0.842 -1.01,1.822 -0.009,-0.001 -1.406,-0.397 -2.208,-0.327"
       style="fill:#651a0e;fill-opacity:1;stroke:none" /><path
       style="fill:#ffffff;stroke:none"
       inkscape:connector-curvature="0"
       id="path2772_2_"
       d="m 85.375,71.774 c 0,-0.307 0.386,-0.564 0.861,-0.564 0.476,0 0.862,0.248 0.862,0.564 0,0.307 -0.386,0.564 -0.862,0.564 -0.475,0 -0.861,-0.247 -0.861,-0.564" /><path
       inkscape:connector-curvature="0"
       id="path2774_2_"
       d="m 86.573,71.754 c 0,-0.188 -0.148,-0.336 -0.336,-0.336 -0.188,0 -0.337,0.148 -0.337,0.336 0,0.188 0.148,0.337 0.337,0.337 0.188,0 0.336,-0.149 0.336,-0.337"
       style="fill:#000000;fill-opacity:1;stroke:none" /><path
       inkscape:connector-curvature="0"
       id="path2776_2_"
       d="m 89,96.361 -2.139,7.586 2.218,2.881 1.873,-2.803 L 89,96.361"
       style="fill:#007233;fill-opacity:1;stroke:none" /><path
       inkscape:connector-curvature="0"
       id="path2778_2_"
       d="m 81.157,95.936 3.852,7.051 1.218,1.02 0.089,-0.188 -0.248,-0.445 0.861,-3.357 -5.772,-4.081"
       style="fill:#007233;fill-opacity:1;stroke:none" /><path
       inkscape:connector-curvature="0"
       id="path2780_2_"
       d="m 85.583,104.828 -1.277,-1.178 -1.792,-3.189 -9.249,-3.922 8.169,6.348 4.149,1.941"
       style="fill:#007233;fill-opacity:1;stroke:none" /><path
       inkscape:connector-curvature="0"
       id="path2782_2_"
       d="m 74.067,95.768 7.625,3.219 -1.782,-3.219 h -5.843"
       style="fill:#b87d13;fill-opacity:1;stroke:none" /><path
       inkscape:connector-curvature="0"
       id="path2784_2_"
       d="m 82.682,95.768 4.466,3.158 0.891,-3.158 h -5.357"
       style="fill:#b87d13;fill-opacity:1;stroke:none" /><path
       inkscape:connector-curvature="0"
       id="path2786_2_"
       d="m 96.971,95.936 -3.852,7.051 -1.218,1.02 -0.089,-0.188 0.247,-0.445 -0.861,-3.357 5.773,-4.081"
       style="fill:#007233;fill-opacity:1;stroke:none" /><path
       inkscape:connector-curvature="0"
       id="path2788_2_"
       d="m 92.545,104.828 1.277,-1.178 1.792,-3.189 9.249,-3.922 -8.17,6.348 -4.148,1.941"
       style="fill:#007233;fill-opacity:1;stroke:none" /><path
       inkscape:connector-curvature="0"
       id="path2790_2_"
       d="m 104.061,95.768 -7.624,3.219 1.782,-3.219 h 5.842"
       style="fill:#b87d13;fill-opacity:1;stroke:none" /><path
       inkscape:connector-curvature="0"
       id="path2792_2_"
       d="m 95.446,95.768 -4.466,3.158 -0.891,-3.158 h 5.357"
       style="fill:#b87d13;fill-opacity:1;stroke:none" /><path
       inkscape:connector-curvature="0"
       id="path2794_2_"
       d="m 84.424,87.786 8.5895,0 -4.2925,-3.327 -4.2915,3.327"
       style="fill:#dc3819;fill-opacity:1;stroke:none"
       sodipodi:nodetypes="cccc" /><path
       inkscape:connector-curvature="0"
       id="path2830_2_"
       d="m 74.522,65.417 c 4.298,-3.376 9.001,-5.347 14.616,-5.347 5.605,0 10.319,1.971 14.606,5.347 -4.525,-2.386 -9.17,-3.733 -14.606,-3.733 -5.446,0.009 -10.091,1.346 -14.616,3.733"
       style="fill:#e55d20;fill-opacity:1;stroke:none" /><path
       id="path2832_2_"
       d="M 94.654,60.763 88.550598,60.257361 89.049,43.692"
       style="fill:#e55d20;fill-opacity:1;stroke:none"
       inkscape:connector-curvature="0"
       sodipodi:nodetypes="ccc" /><path
       inkscape:connector-curvature="0"
       id="path2834_2_"
       d="m 83.593,60.763 c 0.347,-1.069 5.456,-17.072 5.456,-17.072 0,0 -0.04,14.131 -0.03,16.378 -1.317,-0.089 -4.486,0.387 -5.426,0.694 z"
       style="fill:#eb7c24;fill-opacity:1;stroke:none" /><path
       sodipodi:nodetypes="cccc"
       style="fill:#e55d20;fill-opacity:1;stroke:none"
       d="m 84.424,87.786 8.5895,0 -4.2925,3.327 -4.2915,-3.327"
       id="path3250"
       inkscape:connector-curvature="0" /><path
       inkscape:connector-curvature="0"
       id="path3252"
       d="m 84.424,87.786 -4.2865,3.327 8.5835,0 -4.2915,-3.327"
       style="fill:#007233;fill-opacity:1;stroke:none"
       sodipodi:nodetypes="cccc" /><path
       inkscape:connector-curvature="0"
       id="path3254"
       d="m 93.0135,87.786 -4.2925,3.327 8.5845,0"
       style="fill:#007233;fill-opacity:1;stroke:none"
       sodipodi:nodetypes="ccc" /><path
       inkscape:connector-curvature="0"
       id="path3256"
       d="M 93.0135,94.44 88.721,91.113 84.4295,94.44"
       style="fill:#000000;fill-opacity:1;stroke:none"
       sodipodi:nodetypes="ccc" /><path
       sodipodi:nodetypes="ccc"
       style="fill:#e55d20;fill-opacity:1;stroke:none"
       d="m 80.1375,91.113 8.5835,0 -4.2915,3.327"
       id="path3258"
       inkscape:connector-curvature="0" /><path
       sodipodi:nodetypes="ccc"
       style="fill:#e55d20;fill-opacity:1;stroke:none"
       d="m 93.0135,94.44 -4.2925,-3.327 8.5845,0"
       id="path3260"
       inkscape:connector-curvature="0" /><path
       inkscape:connector-curvature="0"
       id="path3275"
       d="m 93.0135,94.44 8.634,0 -4.342,-3.327"
       style="fill:#007233;fill-opacity:1;stroke:none"
       sodipodi:nodetypes="ccc" /><path
       inkscape:connector-curvature="0"
       id="path3277"
       d="m 80.1375,91.113 -4.292,3.327 8.584,0"
       style="fill:#007233;fill-opacity:1;stroke:none"
       sodipodi:nodetypes="ccc" /></g></g></svg>