<svg viewBox="305.403 288.277 1110.319 1124.005" width="1110.319" height="1124.005" xmlns="http://www.w3.org/2000/svg"><path d="M819 288.636c-16.304.943-41.73 3.69-54.573 5.897-87.735 15.076-174.222 54.039-245.7 110.691-93.976 74.483-162.646 177.845-195.584 294.394-10.95 38.744-15.038 69.94-17.206 131.295-1.648 46.659.553 89.967 6.153 121.087 25.064 139.264 105.62 269.256 219.41 354.059 27.446 20.454 54.464 37.045 85.478 52.488 75.379 37.535 131.885 50.791 227.359 53.336 84.303 2.247 133.667-4.708 198.889-28.019 62.586-22.368 117.032-53.271 169.97-96.471 16.458-13.431 55.886-52.617 69.796-69.368 56.827-68.436 95.947-145.924 117.896-233.525 9.349-37.315 13.01-68.155 14.658-123.5.699-23.448-.759-62.788-3.054-82.401-3.011-25.746-11.457-62.119-21.512-92.654-48.558-147.45-158.24-274.529-296.785-343.858-52.963-26.503-118.869-46.148-173.195-51.625-15.751-1.588-84.758-2.824-102-1.826m-12 13.35c-17.969.964-29.453 2.691-51 7.668-20.173 4.659-62.528 16.809-81.299 23.321C629.856 348.534 574.082 379.16 532 411.334c-38.323 29.299-75.785 67.002-104.497 105.166-55.234 73.42-91.664 162.531-105.884 259-4.86 32.967-6.094 49.155-6.063 79.5.031 29.759 1.709 48.147 7.529 82.5 27.089 159.883 111.457 290.117 244.915 378.061 40.854 26.921 81.237 45.918 129.327 60.838 65.272 20.251 101.7 25.391 172.173 24.294 39.029-.608 54.957-1.881 84.159-6.726 77.75-12.9 162.542-49.975 229.949-100.544 37.433-28.083 73.56-63.556 101.789-99.946 30.415-39.208 57.108-85.118 76.154-130.977 13.568-32.669 30.161-87.68 34.838-115.5 5.288-31.452 7.591-80.06 5.818-122.75-1.827-43.956-4.051-60.843-12.322-93.527-43.958-173.725-165.339-318.291-325.385-387.539-42.642-18.45-93.916-33.099-131.682-37.621-28.092-3.363-94.57-5.253-125.818-3.577m15.5 108.898c-7.408 3.752-24.581 19.136-41.831 37.475-7.057 7.503-13.19 13.641-13.629 13.641-.439 0-2.297-3.629-4.128-8.063-3.817-9.247-8.979-15.937-12.294-15.937-6.166 0-21.357 14.425-23.59 22.401-1.106 3.948-1.046 6.29.402 15.72.936 6.095 1.559 11.218 1.386 11.386-.174.167-10.441 5.127-22.816 11.022-40.209 19.154-57.847 26.103-82.193 32.379-29.263 7.543-30.605 8.905-34.267 34.744-2.477 17.476-4.867 23.137-14.234 33.706-7.888 8.9-4.281 12.728 6.495 6.892 12.637-6.844 15.146-11.684 15.177-29.276l.022-12.526 14.75-4.833c56.847-18.628 96.505-39.814 143.925-76.887 9.446-7.385 20.35-15.781 24.231-18.658l7.056-5.231 7.392 4.08c4.066 2.245 8.559 4.081 9.984 4.081 2.737 0 8.935-4.774 10.854-8.359 1.667-3.114 1.169-7.43-1.656-14.371-5.187-12.742-1.991-18.243 11.476-19.754 10.349-1.161 11.935-1.6 14.959-4.145 6.22-5.234 2.863-11.227-6.778-12.101-3.781-.342-5.859.166-10.693 2.614m117.592 14.664c-4.016 4.574-8.843 14.271-13.648 27.419-5.914 16.18-13.592 22.505-22.702 18.699-6.712-2.805-6.912-5.552-1.524-20.938 1.689-4.825 2.89-8.954 2.668-9.176-.223-.222-5.024 3.361-10.67 7.963-5.647 4.602-12.642 9.726-15.546 11.388-6.265 3.584-15.258 6.097-21.821 6.097-2.602 0-4.987.414-5.299.919-1.355 2.192 10.272 10.081 14.856 10.081 1.658 0 6.468-1.223 10.689-2.718 8.957-3.173 10.333-2.689 11.44 4.026 2.568 15.572 18.115 16.609 31.383 2.092 8.759-9.584 26.082-46.88 26.082-56.153 0-4.3-1.956-4.2-5.908.301m34.136 6.709c-4.476 4.765-14.452 30.415-15.81 40.65-.572 4.309-.406 5.16 1.115 5.744 1.269.487 2.475-.16 4.163-2.233 6.028-7.402 15.304-32.515 15.304-41.43 0-5.636-1.328-6.396-4.772-2.731m58.783 11.471c-1.925.978-3.893 2.937-4.39 4.37-1.225 3.536.047 9.57 2.545 12.068 1.731 1.731 2.705 1.93 6.194 1.262 7.178-1.375 10.23-.95 13.609 1.893 8.358 7.032 20.192-2.251 12.576-9.866-2.137-2.138-3.357-2.455-9.433-2.455h-6.98l-2.847-4.25c-3.299-4.926-6.064-5.667-11.274-3.022m-357.938 2.907c-2.508 3.188-2.773 9.921-.516 13.142 1.894 2.705 6.557 2.966 9.018.505 2.539-2.539 5.263-9.184 4.68-11.416-.603-2.306-5.145-4.866-8.633-4.866-1.485 0-3.307 1.055-4.549 2.635m-15.767 11.778c-5.576 4.796-2.415 16.587 4.445 16.587 3.787 0 8.249-5.139 8.249-9.5 0-2.705-.759-4.413-2.923-6.577-3.555-3.555-6.078-3.686-9.771-.51m80.705 6.074c-2.544 3.066 2.173 7.062 6.882 5.831 2.852-.746 2.651-2.745-.528-5.245-3.123-2.457-4.682-2.601-6.354-.586m73.888 26.817a624.912 624.912 0 0 1-3.548 3.878c-.857.925-3.873 2.781-6.704 4.125-9.393 4.46-13.386 10.39-10.234 15.2 1.201 1.834 2.516 2.493 4.975 2.493 3.499 0 8.612-3.217 8.612-5.418 0-2.707 3.652-4.738 7.294-4.055 1.999.375 4.396.174 5.597-.469 2.343-1.254 6.109-7.95 6.109-10.863 0-2.438-2.889-5.016-6.916-6.171-2.699-.774-3.5-.576-5.185 1.28m223.522 2.553c-6.526 3.027-20.116 11.071-21.478 12.712-1.1 1.325-.292 1.423 6.832.829 7.501-.625 8.389-.491 12.402 1.875 2.378 1.402 5.633 3.927 7.234 5.611 4.233 4.452 11.202 6.468 20.336 5.882 6.56-.421 8.784-1.136 17.944-5.769 11.808-5.971 11.892-6.958.597-6.982-10.399-.022-15.587-2.143-29.943-12.243-5.276-3.713-8.958-4.219-13.924-1.915m-177.391 12.47c-.016.455-.95 6.98-2.075 14.5-2.378 15.898-4.509 24.167-6.233 24.187-.672.007-3.541-2.58-6.375-5.75-2.835-3.17-5.509-5.415-5.943-4.988-.434.427-1.04 4.552-1.347 9.167-.306 4.615-.92 8.753-1.364 9.197-1.924 1.925-6.814-2.654-23.505-22.01-1.821-2.112-3.474-3.677-3.673-3.478-.199.198.882 5.758 2.401 12.355 3.293 14.295 4.359 21.493 3.186 21.493-.474 0-5.276-3.15-10.673-7-5.396-3.85-10.149-7-10.561-7-1.889 0-1.689 2.376.773 9.168 3.774 10.41 4.466 13.832 2.797 13.832-1.697 0-14.624-6.794-33.547-17.633-8.034-4.602-14.938-8.367-15.341-8.367-.403 0 1.667 3.038 4.599 6.75 11.824 14.968 23.687 31.158 24.341 33.217.381 1.201.428 2.449.104 2.773-.324.323-4.191-.234-8.594-1.24s-8.341-1.491-8.753-1.079c-.745.747 1.706 3.2 7.173 7.178 5.309 3.862 2.96 4.401-19.179 4.401-12.617 0-20.272.358-19.691.922.522.507 6.713 3.428 13.756 6.49 18.362 7.985 25.917 12.8 24.269 15.467-.342.553-2.749 1.281-5.348 1.618-7.879 1.021-9.127 1.447-10.221 3.492-1.471 2.748 1.905 6.006 6.244 6.026 9.784.046 6.502 4.905-8.45 12.51-6.215 3.161-11.487 5.911-11.717 6.111-1.579 1.38 2.327 1.039 14.006-1.224 7.39-1.433 18.899-2.842 25.634-3.14 10.875-.48 13.003-.289 19.288 1.731 3.944 1.269 6.905 2.763 6.704 3.384-.446 1.378-4.852 3.604-15.174 7.666-10.773 4.24-18.798 4.744-33.541 2.105-18.116-3.244-32.996-4.354-53.5-3.993-18.357.324-19.189.428-24.582 3.076-3.07 1.508-11.276 7.467-18.234 13.243-15.861 13.164-28.241 22.399-32.361 24.14-3.653 1.543-4.927 4.379-3.317 7.386 2.289 4.279 9.378.156 34.591-20.116 20.73-16.668 32.8-23.894 39.914-23.894 1.369 0 3.397.908 4.506 2.017 1.857 1.857 1.9 2.243.538 4.876-4.31 8.335-26.453 24.344-51.211 37.026-17.79 9.112-20.995 11.219-19.86 13.056.997 1.613 7.584.813 21.516-2.613 19.784-4.865 27.572-9.9 54.5-35.241 12.538-11.799 15.502-14.116 18.058-14.118 1.682-.002 13.157.713 25.5 1.588 12.343.875 26.298 1.415 31.012 1.2 10.876-.495 14.147-2.335 26.732-15.041l9.302-9.392-13.122-3.825c-7.218-2.105-14.09-4.61-15.273-5.567-2.145-1.738-2.146-1.755-.394-9.104.966-4.049 3.822-11.637 6.347-16.862 4.024-8.326 5.842-10.743 14.715-19.556 11.513-11.436 19.22-16.865 28.019-19.737 5.27-1.72 8.838-1.993 26.104-1.993 22.726 0 27.736 1.017 37.741 7.658 14.904 9.893 31.856 32.956 35.968 48.936 1.978 7.69 1.223 8.535-18.932 21.192-3.629 2.279-4.777 3.601-4.777 5.5 0 3.888 6.342 3.931 15.888.108 12.582-5.038 20.101-6.206 43.862-6.813 11.962-.306 21.75-.835 21.75-1.176 0-.34-9.45-2.634-21-5.096s-20.983-4.712-20.963-5c.021-.288 4.139-2.998 9.153-6.024 5.013-3.025 9.159-5.95 9.213-6.5.053-.549-2.999-1.305-6.783-1.679-3.784-.374-7.36-1.16-7.947-1.747-1.699-1.699 6.727-8.751 19.205-16.073 6.093-3.575 11.088-6.759 11.1-7.076.012-.316-9.177.614-20.419 2.068l-20.441 2.644 5.191-5.944c12.65-14.485 12.62-13.539.353-11.192-9.702 1.857-11.662 1.875-11.662.111 0-.764 3.738-6.727 8.306-13.25 10.825-15.457 10.481-14.852 7.565-13.294-1.304.697-8.061 4.792-15.016 9.1-6.954 4.308-12.858 7.833-13.12 7.833-.262 0-.787-3.15-1.166-7-.649-6.581-.837-7-3.148-7-1.352 0-4.718 1.182-7.48 2.626-2.762 1.444-5.318 2.33-5.68 1.968-.362-.361-.074-5.031.639-10.376s1.536-12.981 1.83-16.968c.453-6.167.297-7.25-1.048-7.25-1.807 0-5.501 4.602-8.52 10.616-5.101 10.161-10.92 13.384-13.064 7.235-.604-1.732-1.098-5.531-1.098-8.441 0-2.911-.401-5.54-.891-5.843-1.013-.626-6.009 4.661-11.056 11.701-1.879 2.622-3.735 4.422-4.122 4-.387-.423-3.06-8.868-5.939-18.768-4.735-16.279-6.877-22.486-6.962-20.173M1003 531c-1.45 1.45-2 3.333-2 6.845 0 5.916 2.002 8.09 8.172 8.876 5.31.676 7.828 1.894 7.828 3.789 0 3.739 10.617 5.847 14.777 2.933 2.772-1.941 2.992-7.272.432-10.433-1.52-1.877-2.893-2.24-9.058-2.395-7.694-.194-9.106-1.023-9.136-5.365-.02-2.996-3.412-6.25-6.515-6.25-1.375 0-3.4.9-4.5 2m176.915 5.25a573.065 573.065 0 0 0-4.948 5.56c-1.379 1.579-2.64 2.111-3.992 1.682-3.463-1.099-2.14 1.331 2.891 5.308 5.718 4.52 10.45 6.676 12.73 5.802 1.348-.518 1.516-1.548.969-5.931-.626-5.007-.52-5.371 1.886-6.467 3.371-1.535 3.217-3.464-.528-6.615-4.008-3.373-5.466-3.266-9.008.661m-658.406 2.736c-2.613 4.228 18.327 32.099 29.437 39.18 4.65 2.964 9.054 3.728 9.054 1.571 0-4.713-28.184-36.554-36.11-40.796-1.132-.606-1.989-.59-2.381.045m555.158 7.681c-2.947 2.946 3.78 13.136 12.672 19.195 5.778 3.937 8.671 4.411 16.229 2.659 9.164-2.126 17.514-1.901 26.368.708 6.026 1.775 10.106 2.233 20.064 2.248 13.656.021 18.298-1.036 22.04-5.019 3.319-3.533 1.631-4.841-4.48-3.471-5.407 1.211-9.857.621-17.06-2.262-4.2-1.682-8.521-2.124-27-2.765-24.785-.859-28.16-1.564-37.573-7.85-5.732-3.828-9.671-5.032-11.26-3.443M1209 580.559c-7.725 2.004-28.928 12.677-32.38 16.3-4.177 4.383-3.033 6.606 2.977 5.783 9.795-1.343 35.397-11.658 40.653-16.38 2.308-2.073 2.223-4.938-.184-6.227-2.468-1.32-4.291-1.234-11.066.524m-706.022 23.227c-4.946 4.947-6.362 10.233-5.462 20.397.603 6.806.484 7.817-.918 7.817-.886 0-6.78-4.95-13.098-11-11.62-11.127-15.5-13.313-15.5-8.732 0 5.013 12.097 18.888 24.617 28.236 13.806 10.308 15.025 16.348 4.199 20.818-6.13 2.531-7.63 6.978-10.325 30.615-3.812 33.442-14.791 62.677-33.396 88.928-4.3 6.069-8.611 12.703-9.579 14.743-1.703 3.588-1.695 3.843.254 7.801C447.715 811.42 464.463 832 467.037 832c1.637 0 1.097-1.845-2.672-9.128-3.45-6.665-3.574-7.239-2.432-11.199.662-2.295 5.456-11.214 10.653-19.82 18.362-30.407 20.223-36.648 24.399-81.853 1.929-20.867 3.173-28.21 5.203-30.703.539-.662 3.387-1.904 6.329-2.759 11.651-3.387 18.253-13.451 20.512-31.264 1.27-10.019-.279-21.049-4.055-28.863-3.35-6.937-12.606-16.411-16.032-16.411-1.197 0-3.881 1.704-5.964 3.786m643.031.475c-.005.968.905 5.918 2.022 11 4.144 18.855 7.536 25.912 14.082 29.297 1.581.818 7.601 1.856 13.377 2.306 11.839.924 13.56 1.836 16.554 8.77.982 2.274 3.459 11.499 5.505 20.5 4.596 20.225 8.838 32.742 16.521 48.746 16.777 34.952 39.038 63.205 64.226 81.514 5.937 4.317 11.064 7.58 11.391 7.252.328-.328-.174-4.476-1.116-9.217-.941-4.742-1.523-8.81-1.293-9.04.231-.231 2.02 2.175 3.978 5.346 9.296 15.06 30.182 40.265 33.365 40.265 2.845 0 1.157-5.252-6.959-21.651-8.174-16.516-10.369-21.751-12.546-29.911-1.401-5.252-10.264-15.085-19.345-21.463-7.669-5.386-11.577-6.684-14.847-4.934-2.014 1.078-2.14 1.675-1.545 7.316.357 3.379.894 7.493 1.193 9.143.528 2.913.409 2.855-4.108-2-28.829-30.987-43.344-63.823-49.951-113-2.777-20.674-3.488-21.637-18.121-24.553-17.859-3.559-21.79-5.973-39.633-24.335-7.908-8.138-12.745-12.444-12.75-11.351m-638.137 12.393C503.94 621.393 509.46 647 514.414 647c3.608 0 7.058-18.031 4.591-23.989-1.364-3.293-6.346-8.011-8.459-8.011-.716 0-1.919.744-2.674 1.654m721.556.426c-4.711 5.205-.644 14.92 6.246 14.92 6.382 0 9.263-6.353 5.863-12.928-2.38-4.603-8.792-5.658-12.109-1.992M854 616.65c-2.436.973-7.063 5.628-8.687 8.739-.829 1.588-2.373 7.188-3.43 12.442-1.903 9.464-4.07 13.695-6.531 12.751-2.312-.888-11.042 2.011-16.384 5.439-3.822 2.452-5.828 4.612-7.361 7.925-2.031 4.39-2.118 6.228-2.427 51.17l-.319 46.615-11.681.545c-6.429.3-14.067 1.285-16.99 2.191-5.512 1.709-12.645 7.239-13.724 10.641-.847 2.669 2.773 8.488 12.066 19.392 7.557 8.869 11.398 14.903 10.23 16.072-.328.328-2.369.834-4.535 1.124-4.545.61-4.322.808-11.176-9.883-5.682-8.862-9.176-11.784-11.642-9.737-2.102 1.744-1.236 5.859 2.518 11.96 4.284 6.963 6.133 13.246 7.196 24.464 1.136 11.986 2.28 16.685 5.355 22.001 2.642 4.567 6.222 8.133 7.191 7.163.362-.361-.109-4.947-1.046-10.191-1.787-10.005-1.625-11.473 1.262-11.473 3.654 0 8.115 6.876 8.115 12.508 0 4.636 4.295 17.503 8.008 23.992 3.652 6.382 8.659 11.5 11.25 11.5 1.854 0 1.976-.471 1.485-5.75-.294-3.163-1.931-9.249-3.639-13.526-1.707-4.277-3.104-8.001-3.104-8.276 0-.275 1.421.235 3.157 1.133 5.036 2.604 11.998 9.681 18.328 18.628 8.36 11.817 12.323 15.791 15.749 15.791 5.676 0 4.438-5.621-3.115-14.153-2.265-2.56-4.119-4.885-4.119-5.168 0-.283 3.938.841 8.75 2.498 10.59 3.645 24.048 4.976 26.04 2.577 3.617-4.359-3.859-8.675-18.599-10.74-7.313-1.024-13.191-3.249-13.191-4.993 0-1.398 6.827-3.009 12.782-3.015C857.327 859 864 856.84 864 855.051c0-4.036-12.058-8.678-20.073-7.729-2.607.309-8.372 2.388-12.811 4.62S821.754 856 820.177 856c-2.767 0-6.177-2.58-6.177-4.674 0-1.928 3.519-4.098 9.353-5.767 6.64-1.9 10.647-5.285 10.647-8.994 0-3.578-2.793-3.999-17.024-2.563-12.027 1.214-20.376.778-21.553-1.126-1.018-1.647.065-2.039 8.136-2.944 7.833-.879 12.441-2.869 12.441-5.373 0-3.178-1.563-4.812-7.376-7.714-6.636-3.312-11.624-7.419-11.624-9.572 0-2.209-3.898-9.26-9.654-17.461-2.968-4.228-6.102-9.378-6.966-11.444-1.462-3.499-1.447-3.846.217-5.062 2.879-2.106 16.868-1.625 23.403.803 3.025 1.124 6.697 2.28 8.161 2.568 5.139 1.012 5.235.155 5.952-53.177.781-58.048 1.352-62.4 8.362-63.74 9.848-1.882 15.04 11.197 16.174 40.74.643 16.727 1.713 22.351 2.753 14.46.324-2.453 1.06-15.035 1.638-27.96 2.281-51.055 3.951-58.302 13.948-60.497 6.025-1.324 8.947 2.687 11.591 15.908.91 4.551 1.768 19.797 2.396 42.589 1.015 36.833 1.719 48 3.025 48 1.535 0 2.011-4.917 2.566-26.5.854-33.268 2.782-42.745 9.241-45.42 4.738-1.963 9.955.107 11.88 4.713 2.197 5.259 3.243 28.194 3.28 71.957.018 21.038.315 38.25.66 38.25.345 0 3.832-1.757 7.75-3.905 14.385-7.887 36.623-11.911 36.623-6.628 0 .733-1.648 3.74-3.662 6.683-8.916 13.027-10.173 15.218-11.282 19.652-3.026 12.105-3.059 12.175-7.076 14.71-5.75 3.631-7.533 6.738-5.996 10.45 2.464 5.947 13.096 6.098 19.255.275 2.16-2.042 3.794-2.606 7.721-2.664 7.224-.106 9.178 2.171 9.967 11.613.682 8.159 1.358 9.814 4.011 9.814 3.364 0 4.097-4.548 3.823-23.704-.229-15.984-.055-18.412 1.431-19.906 1.591-1.601 1.781-1.5 3.204 1.704.833 1.873 2.206 5.94 3.052 9.037 3.79 13.871 10.576 12.618 10.536-1.946-.02-7.526-2.275-16.802-4.875-20.059-5.669-7.103-6.1-9.751-4.668-28.683.858-11.339.108-15.443-2.821-15.443-2.95 0-4.739 3.832-5.551 11.887-.449 4.457-1.379 8.781-2.065 9.608-1.587 1.912-5.395 1.943-6.96.058-.661-.796-3.304-2.259-5.873-3.25-5.946-2.295-22.406-2.313-29.441-.033-4.695 1.522-5.678 1.323-7.864-1.591-.074-.099-.468-19.079-.876-42.179-.468-26.485-1.162-43.34-1.879-45.627-1.508-4.81-5.432-8.626-11.981-11.65-4.424-2.043-6.387-2.387-11.153-1.955-3.558.323-6.206.103-6.881-.572-.603-.603-1.096-3.234-1.096-5.847 0-16.114-8.836-28.65-20.775-29.473-2.599-.179-5.4-.056-6.225.274m239 16.943c0 1.523 6.082 11.135 8.456 13.366 3.138 2.947 5.484 1.666 3.554-1.94-2.527-4.722-12.01-13.744-12.01-11.426m18.667 8.074c-1.141 1.14-.73 20.1.494 22.786.838 1.841 1.931 2.547 3.943 2.547 7.349 0 7.931-11.837 1.093-22.25-2.35-3.578-4.074-4.54-5.53-3.083m-30.667.873c0 3.091 8.325 14.46 10.589 14.46 2.842 0 1.285-3.977-3.689-9.419-4.528-4.955-6.9-6.687-6.9-5.041m-57 14.5c0 2.994 10.126 17.86 12.75 18.718 2.302.753 1.291-3.308-2.32-9.317-1.964-3.267-4.518-6.954-5.675-8.191-2.195-2.348-4.755-2.999-4.755-1.21m30.328 1.548c-1.122 2.923.427 20.804 2.18 25.162 2.099 5.219 4.797 5.683 6.394 1.101 2.411-6.915.528-19.998-3.58-24.88-2.814-3.344-4.104-3.702-4.994-1.383m23.672 2.716c0 1.889 5.251 9.747 8.616 12.893 3.342 3.125 9.239 5.803 12.779 5.803 2.725 0 6.605-4.158 6.605-7.079 0-3.92-4.155-6.822-11.363-7.935-3.774-.583-8.594-1.944-10.71-3.023-4.501-2.296-5.927-2.455-5.927-.659m52.783 8.446c-2.939 3.37-4.069 6.697-4.069 11.985 0 5.995 2.844 10.265 6.838 10.265 3.689 0 4.906-2.612 4.837-10.385-.093-10.628-3.732-16.305-7.606-11.865m-551.051 7.125c-5.04 5.579-8.197 11.489-11.091 20.767-4.045 12.964-5.974 28.769-5.356 43.858.674 16.419 3.287 29.5 5.893 29.5 1.758 0 4.975-9.133 9.344-26.532 7.699-30.657 11.115-57.032 8.853-68.343-.855-4.275-3.322-4.033-7.643.75M1020 674.356c0 3.716 14.702 20.048 20.405 22.668 5.814 2.671 8.552 1.148 8.58-4.774.02-4.373-2.441-6.573-10.269-9.178-3.59-1.195-9.065-3.95-12.166-6.122-6.291-4.407-6.55-4.509-6.55-2.594m93.333 10.219c-1.562 4.071 4.793 15.425 8.633 15.425 5.02 0 5.293-9.033.427-14.112-3.094-3.229-8.049-3.947-9.06-1.313m-45.28 4.175c-1.334 4.803-1.221 10.683.304 15.742 2.495 8.28 8.006 3.794 7.91-6.437-.104-10.995-5.917-17.579-8.214-9.305m-64.635-1.347c-1.056 2.682 1.259 21.071 3.102 24.635.842 1.629 2.218 2.962 3.057 2.962 1.712 0 4.423-5.692 4.423-9.286 0-4.689-3.043-12.43-6.399-16.278-3.077-3.529-3.51-3.739-4.183-2.033m139.218 5.237c-.35 2.551-.636 6.631-.636 9.065 0 7.41-1.114 8.495-7.928 7.724-6.806-.77-7.738.024-6.043 5.158.643 1.951.903 3.814.577 4.141-.327.326-4.202-1.1-8.612-3.17-4.41-2.069-8.688-3.506-9.506-3.192-1.959.752-1.974 7.794-.024 11.565.805 1.557 2.926 4.061 4.712 5.564 2.87 2.414 3.819 2.666 8.139 2.154 6.5-.77 12.639-4.495 21.531-13.067 10.961-10.567 12.196-14.036 7.514-21.1-2.991-4.513-7.399-9.482-8.411-9.482-.373 0-.963 2.088-1.313 4.64m-42.8-.506c-1.465.536-2.933 1.676-3.262 2.533-1.37 3.572 8.169 13.333 13.03 13.333 4.68 0 5.589-4.104 2.232-10.078-1.726-3.07-7.209-7.246-8.987-6.843-.192.043-1.548.518-3.013 1.055m-122.832 2.116c.008 4.979 5.612 10.798 7.483 7.771 1.062-1.719-4.457-10.021-6.661-10.021-.454 0-.824 1.013-.822 2.25m-452.543 4.169c-1.264 1.929-1.578 4.264-1.311 9.763l.35 7.228-4.198.844c-2.946.592-4.396 1.468-4.863 2.939-.705 2.221 2.349 12.793 4.057 14.042 1.793 1.312 9.206.829 10.46-.682.812-.978.981-3.207.522-6.879-.759-6.08.156-8.585 4.688-12.825 3.565-3.335 3.77-8.159.552-12.951-3.036-4.521-7.812-5.21-10.257-1.479M1043.2 705.2c-2.066 2.066-1.331 4.649 2.55 8.957 8.339 9.258 18.25 9.617 18.25.661 0-6.292-16.497-13.921-20.8-9.618m-74.168 2.385c3.06 8.047 11.743 18.275 17.283 20.357 5.963 2.241 13.685-.064 13.685-4.085 0-3.177-6.893-9.47-11.775-10.749-2.324-.61-6.005-1.57-8.18-2.135-2.175-.564-5.278-2.139-6.894-3.5-3.902-3.283-5.394-3.242-4.119.112m112.378 2.912c-2.172 3.315-1.633 15.708.788 18.129 2.512 2.512 6.53 1.013 8.53-3.182 1.446-3.033 1.501-4.138.409-8.224-1.302-4.871-4.504-9.22-6.788-9.22-.717 0-2.039 1.124-2.939 2.497M713.197 724.75c.368 11.173.85 14.64 2.572 18.5 3.287 7.369 5.037 6.425 9.269-5 2.713-7.322 5.306-2.376 9.527 18.174 1.348 6.558 2.603 12.077 2.79 12.264.186.187.624-4.305.971-9.983.695-11.352-.287-19.775-2.898-24.88-1.822-3.56-20.173-22.825-21.743-22.825-.565 0-.76 5.504-.488 13.75m313.41-9.168c-.334.87-.607 6.22-.607 11.889 0 8.461.325 10.708 1.812 12.545 3.906 4.824 10.177-1.529 10.184-10.316.005-5.66-1.759-9.481-6.037-13.081-3.608-3.036-4.517-3.212-5.352-1.037m130.498-.208c-.674.812-1.586 5.052-2.027 9.422-.44 4.37-1.134 8.486-1.542 9.146-.482.78-2.031.981-4.435.575-5.038-.851-7.627 1.855-6.778 7.084 1.795 11.062 12.596 9.423 21.312-3.232 3.028-4.397 3.812-6.525 4.108-11.151.49-7.638-1.917-12.589-6.328-13.019-1.822-.178-3.587.303-4.31 1.175m-560.992 4.414c-.562 1.051-5.292 14.466-10.512 29.811-9.517 27.979-13.68 38.714-15.436 39.799-.518.32-1.5-2.371-2.181-5.981-1.366-7.24-2.059-7.259-3.982-.112-.757 2.814-1.662 4.435-2.184 3.913-.491-.491-1.304-12.553-1.809-26.805-1.153-32.58-2.51-40.413-7.002-40.413-2.436 0-6.265 6.464-8.554 14.439-2.737 9.534-1.548 27.482 2.928 44.239 1.937 7.247 4.218 18.175 5.07 24.284 1.675 12.009 2.076 37.657.625 39.949-1.282 2.025-2.89-4.272-4.064-15.911a16286.25 16286.25 0 0 1-2.018-20.191c-.584-5.881-1.928-13.211-2.987-16.289-1.954-5.68-5.479-11.52-6.952-11.52-1.304 0-4.773 8.979-6.106 15.809-2.613 13.381.539 27.301 11.565 51.071 8.398 18.104 11.507 28.853 11.418 39.482-.046 5.516-.347 7.494-.935 6.138-.477-1.1-3.413-8.525-6.525-16.5-11.056-28.334-18.744-39.197-23.6-33.346-2.049 2.469-1.721 16.552.543 23.346 3.924 11.773 10.202 22.202 22.572 37.5 5.647 6.984 14.032 24.537 19.347 40.5 5.584 16.774 5.848 18.403 3.048 18.802-3.089.441-7.785-7.155-21.517-34.802-6.42-12.925-12.382-24.4-13.25-25.5-2.874-3.645-3.746-.127-3.343 13.5.322 10.924.727 13.383 3.212 19.5 6.432 15.835 18.117 31 28.326 36.762 6.6 3.725 10.605 7.614 17.652 17.143 12.458 16.846 23.054 39.595 18.442 39.595-2.59 0-7.724-5.137-21.29-21.301-15.479-18.443-32.121-36.984-33.692-37.539-.53-.188-.102 1.837.952 4.5 1.055 2.662 4.487 11.365 7.629 19.34 10.851 27.545 18.688 39.543 28.732 43.986 2.349 1.039 8.319 2.776 13.268 3.86 14.095 3.087 19.992 5.79 30.896 14.161 4.523 3.472 8.181 3.892 9.085 1.043.353-1.111-.51-4.774-2.005-8.511-4.259-10.646-4.56-12.272-5.472-29.539-1.271-24.06-6.995-51.196-14.111-66.89-4.758-10.493-5.403-8.06-5.354 20.194.041 24.45 1.233 38.018 4.073 46.382.829 2.442 1.332 5.2 1.117 6.127-.555 2.399-8.15-5.74-13.008-13.94-11.099-18.735-11.761-38.393-2.17-64.43 14.717-39.956 17.509-51.585 15.498-64.547-1.247-8.035-3.759-14.896-5.454-14.896-.652 0-1.704 2.476-2.339 5.501-.635 3.026-3.031 9.663-5.324 14.75-5.627 12.477-10.082 26.279-16.381 50.749l-5.277 20.5-1.389-6c-.763-3.3-1.37-10.5-1.349-16 .045-11.663.687-13.783 11.842-39.164C596.864 872.486 601 860.198 601 852.903c0-7.325-1.217-7.588-7.654-1.654-11.622 10.713-20.827 30.545-22.859 49.251-.359 3.3-1.212 7.35-1.897 9l-1.245 3-1.347-2.5c-1.861-3.451-2.468-16.419-1.081-23.098 1.411-6.799 5.62-15.857 11.155-24.008C587.074 846.693 601 807.11 601 792.039c0-7.52-1.644-8.283-6.43-2.985-5.432 6.013-13.718 24.288-21.014 46.35-6.227 18.828-9.613 26.596-11.592 26.596-1.487 0-2.225-6.716-1.514-13.768 1.733-17.164 6.483-30.479 18.142-50.853 13.368-23.359 20.768-44.165 21.974-61.78.867-12.665-1.548-21.239-4.453-15.811M657 725.686c-9.24.471-20.373 2.405-22.811 3.963-1.499.958-2.202 2.246-2 3.663.53 3.727 6.443 4.962 20.811 4.345 12.304-.529 16.333-1.225 24.75-4.28 4.818-1.749 5.81-4.851 2-6.256-2.769-1.022-15.329-1.814-22.75-1.435m399.2.514c-3.771 3.771 2.074 10.661 11.324 13.35 6.517 1.894 10.799.998 11.294-2.363.882-5.991-18.297-15.308-22.618-10.987m37.785 2.829c-2.89 5.399-1.952 18.094 1.552 21.002 2.18 1.809 5.953-.145 8.028-4.156 3.218-6.224-.878-18.875-6.111-18.875-1.371 0-2.845.862-3.469 2.029m-83.414 5.542c-2.014 2.015-2.02 7.343-.01 10.212 3.269 4.667 13.728 7.232 15.084 3.699.958-2.495-1.59-7.176-6.234-11.457-4.757-4.385-6.441-4.852-8.84-2.454m110.975 5.286c-1.002 3.154 2.072 8.615 7.697 13.671 5.373 4.831 9.116 6.361 11.662 4.768 2.371-1.484 2.466-7.268.18-10.967-2.413-3.905-9.764-8.342-14.981-9.042-3.32-.445-3.993-.213-4.558 1.57m-80.248 2.893c-.436 2.063-.794 6.976-.795 10.919-.003 6.214.32 7.514 2.421 9.75 6.654 7.083 14.988-1.603 12.041-12.549-1.331-4.943-7.635-11.87-10.802-11.87-1.587 0-2.258.878-2.865 3.75m-51.287.737c-1.979 2.384-.367 6.03 4.6 10.401 4.998 4.401 10.452 6.135 12.9 4.103 1.951-1.619 1.909-7.946-.072-10.774-.858-1.226-2.861-2.901-4.45-3.723-3.771-1.95-11.362-1.954-12.978-.007m-302.866 5.263c-1.793 4.49-2.972 11.059-4.175 23.25-1.373 13.928-3.35 23.811-5.93 29.642-3.186 7.203-5.449 5.376-7.072-5.711-2.58-17.615-3.169-20.55-4.553-22.681-3.619-5.573-6.359-.463-6.515 12.149-.139 11.297-.747 13.03-4.71 13.416-5.042.491-13.766-2.46-16.121-5.454-2.615-3.325-3.518-6.787-5.974-22.903-1.092-7.174-2.454-14.273-3.026-15.776-1.005-2.644-3.584-4.5-4.701-3.383-1.458 1.457-2.515 10.776-3.357 29.574-1.006 22.471-2.055 27.964-6.979 36.571-1.748 3.056-2.728 5.556-2.178 5.556.55 0 6.074-4.473 12.276-9.939 6.201-5.467 12.301-10.489 13.555-11.16 3.018-1.615 7.88.563 19.305 8.647 4.701 3.326 9.115 6.399 9.809 6.828.821.507 3.962-1.643 8.982-6.149 11.853-10.641 12.947-10.967 19.219-5.727 7.819 6.533 10.048 3.549 4.754-6.362-4.612-8.634-5.763-14.344-6.685-33.166-.894-18.235-3.035-24.459-5.924-17.222m384.858 3.753c7.262 7.327 13.386 10.43 16.887 8.556 1.359-.728 2.11-2.105 2.11-3.872 0-6.757-7.2-11.187-18.181-11.187h-7.261l6.445 6.503m94.497-3.707c-11.326 6.251-24.5 16.916-24.5 19.833 0 1.872 2.203 2.172 5.592.762 5.75-2.391 12.459 1.21 15.637 8.394 1.619 3.659 1.856 5.669 1.311 11.092-1.268 12.614-4.63 30.704-9.048 48.685-4.408 17.945-6.623 24.783-8.378 25.867-1.48.915-2.982-7.753-4.526-26.124-1.05-12.483-1.987-18.42-3.423-21.664-2.103-4.755-4.99-7.029-7.635-6.014-4.223 1.62-8.297 17.077-7.077 26.845.709 5.674 2.241 7.854 5.157 7.339 2.29-.405 3.879 4.898 5.369 17.918 5.654 49.417 23.005 115.599 28.795 109.833.399-.397 1.015-11.599 1.369-24.892.701-26.336 1.392-30.832 8.396-54.67 6.979-23.747 8.545-29.543 10.943-40.5 3.525-16.103 4.731-30.604 3.924-47.195-.384-7.891-.853-14.191-1.044-14.001-.19.191-1.945 8.638-3.9 18.771-6.642 34.426-23.97 94.965-26.699 93.278-2.54-1.569.728-30.969 6.763-60.853 6.371-31.546 6.81-35.347 6.924-60 .102-21.82.225-23.247 2.408-27.823 2.317-4.859 2.289-7.692-.077-7.659-.704.01-3.531 1.26-6.281 2.778m-58.187-1.01c-1.909 1.213-3.313 5.968-3.313 11.214 0 2.678-.462 6.084-1.026 7.567-.981 2.582-1.228 2.664-5.75 1.903-2.598-.437-6.749-.834-9.224-.882-3.941-.077-4.54.192-4.82 2.169-.208 1.463.731 3.308 2.673 5.25 2.543 2.543 3.761 2.993 8.102 2.993 6.415 0 10.661-1.756 16.087-6.653 4.813-4.343 6.958-8.617 6.958-13.865 0-7.371-5.184-12.56-9.687-9.696M411 756c-1.1 1.1-2 3.283-2 4.851 0 3.805-1.805 8.778-4.758 13.104-6.39 9.363 4.352 21.88 11.047 12.872 1.762-2.37 1.858-3.185.853-7.178-1.391-5.523-.687-7.649 2.531-7.649 3.97 0 6.329-1.788 6.312-4.785-.018-3.483-2.787-11.468-4.312-12.438-2.303-1.465-7.663-.787-9.673 1.223m615.92 3.25c-.045.138-.607 2.275-1.25 4.75-1.117 4.296-1.329 4.494-4.67 4.365-1.925-.074-6.026-.468-9.113-.875-3.875-.512-5.834-.386-6.324.408-.838 1.355 3.234 14.268 4.835 15.337 1.717 1.145 10.229.892 13.036-.387 1.39-.633 2.822-2.096 3.182-3.25.828-2.658 2.212-3.563 5.479-3.583 5.302-.031 7.496-6.038 4.395-12.035-1.671-3.231-4.279-4.98-7.424-4.98-1.136 0-2.102.112-2.146.25m29.178 12.899c-.604 1.732-1.104 4.545-1.112 6.25-.03 6.856-.727 7.664-6.357 7.369-4.993-.261-5.138-.191-5.461 2.64-.537 4.708.734 9.322 3.461 12.563 4.306 5.118 9.371 3.344 9.371-3.283 0-2.414 2.523-5.498 3.609-4.412 1.34 1.34 6.802-1.861 9.477-5.554 4.702-6.49 3.448-12.375-3.558-16.704-4.945-3.057-8.102-2.678-9.43 1.131m-334.783-.157c-2.741 1.123-4.315 3.998-4.315 7.883 0 4.554 1.485 4.563 5.074.031l3.25-4.103 1.303 2.348c4.195 7.565-1.961 21.465-8.577 19.365-1.594-.506-2.27-.066-3.049 1.982-1.331 3.5-1.332 35.502-.001 35.502.55 0 1-.23 1-.511 0-1.271 3.138-20.177 3.608-21.739.87-2.89 2.077-2.023 4.803 3.446 2.89 5.8 3.25 11.205 1.14 17.12-1.768 4.958-4.299 7.684-7.135 7.684-2.783 0-5.628 2.663-5.202 4.871.602 3.127 7.561 4.361 27.536 4.884 10.587.277 19.25.156 19.25-.269 0-.424-4.05-6.165-9-12.757-5.711-7.605-9-12.895-9-14.473 0-1.63 1.899-4.539 5.5-8.429 7.555-8.16 7.438-9.146-2.583-21.932-8.542-10.9-11.496-15.658-10.393-16.738.369-.361 1.934.849 3.478 2.691 3.296 3.931 5.47 3.71 8.882-.905 4.245-5.742 3.136-6.418-10.896-6.645-6.869-.11-13.471.202-14.673.694m205.352-.325c-1.227 1.227-.684 6.074.82 7.322.849.705 2.559.965 3.985.607 2.93-.735 4.389-4.854 2.517-7.109-1.248-1.504-6.095-2.047-7.322-.82m25.022 7.083c-13.095 20.569-13.589 22.204-6.288 20.835 5.055-.949 11.645-6.338 14.826-12.124 4.258-7.748 3.376-15.461-1.769-15.461-1.96 0-3.36 1.397-6.769 6.75m154.227 7.944c-5.643 4.293-10.445 8.369-10.672 9.056-.304.926 1.542 1.25 7.117 1.25 6.521 0 7.903.323 10.333 2.418 2.717 2.341 2.803 2.714 2.713 11.75-.178 17.862-11.721 62.176-15.907 61.067-.55-.146-.9-2.396-.778-5 .123-2.604.344-12.385.491-21.735.246-15.509.074-17.526-1.961-23-3.026-8.143-7.419-11.948-11.1-9.615-1.082.685-1.135 1.917-.272 6.235 1.924 9.622 3.156 31.68 3.794 67.935l.626 35.555-5.4 2.733c-6.608 3.344-30.4 22.287-30.4 24.203 0 .762 6.412 9.247 14.25 18.856 7.838 9.61 14.25 17.725 14.25 18.035 0 .31-3.937.569-8.75.577-15.09.023-15.728.813-8.897 10.997 6.944 10.351 7.006 13.111.328 14.542-11.966 2.565-2.149 3.417 47.409 4.111l45.59.64 1.207 9.061c.663 4.984 1.41 9.266 1.66 9.515 1.094 1.094 1.461-1.147 1.669-10.205.299-12.999.242-13.051-14.746-13.527-9.211-.292-11.47-.651-11.47-1.821 0-.801 2.292-5.207 5.093-9.791 2.801-4.583 4.936-9.147 4.745-10.141-.462-2.396-3.66-3.175-13.529-3.295-4.505-.055-8.436-.497-8.736-.982-.3-.486.348-2.019 1.441-3.408 2.713-3.449 2.48-7.333-.772-12.916-2.334-4.005-16.295-21.282-28.466-35.228l-3.434-3.934 10.507-18.839c5.778-10.361 10.806-18.49 11.173-18.065.366.424 1.973 3.922 3.571 7.772 2.849 6.863 10.59 16.5 13.255 16.5 2.058 0 2.543-3.094 1.237-7.904-.687-2.528-1.648-8.741-2.137-13.808-1.267-13.122-4.628-20.288-9.516-20.288-1.524 0-4.213 2.188-8.277 6.734-3.311 3.704-6.324 6.431-6.695 6.059-.371-.371 1.385-8.014 3.904-16.984 5.459-19.443 8.189-37.292 9.753-63.751 1.231-20.83.634-28.29-2.309-28.856-.897-.173-6.249 3.198-11.892 7.492m-312.881-4.76c-2.644 4.942.545 10.066 6.265 10.066 6.071 0 7.404-3.822 3.111-8.923-3.071-3.65-7.73-4.218-9.376-1.143m226.215 9.696c-1.7.73-1.577 5.837.224 9.319 1.812 3.504 9.16 9.921 12.249 10.696 5.105 1.282 11.277-2.522 11.277-6.949 0-4.647-10.328-11.752-19-13.07-1.925-.293-4.062-.291-4.75.004m201.093 2.936c-2.075 2.075-2.447 3.177-1.943 5.75.775 3.958 3.474 7.72 6.947 9.684 2.358 1.333 2.948 1.333 5.306 0 1.459-.825 3.58-2.749 4.714-4.275 2.056-2.768 2.056-2.784.101-6.414-2.177-4.043-6.754-7.302-10.263-7.307-1.263-.002-3.451 1.151-4.862 2.562m-491.27 1.069c-4.765 6.057-1.923 18.527 4.862 21.338 3.832 1.587 6.075.752 8.815-3.283 3.095-4.558 2.988-10.302-.275-14.724-4.686-6.352-9.99-7.67-13.402-3.331m326.183 13.646c-8.363 5.07-15.217 9.492-15.231 9.825-.014.334 3.573.907 7.97 1.273 9.173.765 12.787 1.889 13.697 4.261.352.918-.376 6.177-1.619 11.687-2.457 10.898-14.918 50.161-15.678 49.401-.258-.257-1.164-6.466-2.015-13.797-2.757-23.763-7.094-36.908-15.618-47.336-2.291-2.802-4.3-5.282-4.464-5.512-.164-.229-.533-.181-.82.106-.287.287.151 3.399.973 6.916.822 3.517 2.642 15.62 4.044 26.895 7.907 63.574 10.04 75.936 14.953 86.667 4.357 9.518 7.713 5.828 14.701-16.167 8.714-27.426 11.638-29.69 15.987-12.379 3.964 15.781 7.379 18.223 9.173 6.56 1.275-8.288-3.171-33.543-6.489-36.861-3.904-3.904-9.917.698-15.517 11.879-4.085 8.154-7.4 11.861-9.787 10.945-1.404-.538-1.422-.925-.156-3.376 6.87-13.301 25.159-96.149 21.937-99.371-.46-.46-7.678 3.313-16.041 8.384M944.5 820.587c-6.163 6.271-8.501 7.563-12.308 6.801-1.653-.33-5.551.156-8.783 1.096-6.354 1.847-24.995 10.263-24.292 10.967.241.241 4.468.938 9.393 1.55 9.237 1.148 13.544 2.582 14.247 4.743.576 1.767-3.598 3.103-13.059 4.179-10.035 1.141-15.462 3.387-22.948 9.495-5.744 4.687-7.303 7.624-4 7.534.962-.026 6.831-1.529 13.04-3.34 6.21-1.811 10.935-2.989 10.5-2.618-.434.37-5.74 4.459-11.79 9.085-13.53 10.346-26.337 22.423-27.13 25.585-.885 3.524 1.365 5.641 5.315 5 4.837-.785 12.417-6.229 25.195-18.096 10.718-9.953 14.008-12.325 12.827-9.247-1.857 4.839-5.707 18.11-5.707 19.672 0 2.487 1.539 3.34 4.63 2.564 3.51-.881 5.926-6.877 7.788-19.329 1.94-12.974 4.406-18.665 10.755-24.82l5.064-4.908-.63 5c-1.701 13.502-1.806 16.26-.696 18.334.638 1.191 1.863 2.166 2.723 2.166 2.794 0 7.297-6.036 9.272-12.43 2.915-9.439 6.23-30.689 5.893-37.78l-.299-6.29-5 5.087m-260.602 6.671c-4.483 2.979-7.898 9.851-7.898 15.895 0 6.487 1.644 6.961 4.061 1.171 4.922-11.794 6.09-12.937 12.689-12.424 3.905.304 4.154-1.087.795-4.445-3.045-3.046-5.291-3.092-9.647-.197m-46.443 5.197c-2.332 2.331-2.455 3.052-2.455 14.36 0 13.142.811 21.185 2.136 21.185.475 0 .884-3.487.908-7.75.069-12.143 1.502-22.091 3.501-24.299 2.94-3.25 12.378-1.832 14.526 2.182 1.398 2.612 2.777 1.523 2.16-1.706-.751-3.93-5.605-6.419-12.526-6.423-4.823-.003-6.208.408-8.25 2.451m93.761-.002c-2.22 2.822-4.828 11.268-3.798 12.298.381.381 4.04.693 8.13.693 11.892 0 13.426-3.526 4.936-11.352-5.146-4.744-6.621-5.005-9.268-1.639m247.15 2.466c-7.168 4.37-12.366 15.052-12.366 25.41 0 8.73 2.085 15.033 10.095 30.524 10.991 21.254 9.932 21.401-11.203 1.545-7.82-7.347-14.299-11.676-19.163-12.804-2.171-.503-3.336-.078-5.379 1.965-2.413 2.413-2.571 3.104-2.126 9.274.603 8.365 3.948 15.228 10.261 21.047 6.489 5.981 13.425 8.876 25.238 10.534 11.983 1.681 16.277 3.566 16.277 7.145 0 5.41 8.964 18.441 12.685 18.441.797 0 2.881-1.074 4.632-2.386s5.066-3.331 7.367-4.486c9.623-4.832 9.849-12.799.669-23.558-3.865-4.53-4.123-6.588-1.384-11.02 2.963-4.794 5-14.976 5.016-25.077.017-9.979-1.107-12.785-5.568-13.904-5.995-1.505-8.82 3.727-13.461 24.931-2.406 10.994-4.344 16.5-5.807 16.5-2.808 0-4.065-13.158-2.101-22 1.6-7.203 3.095-10.104 5.721-11.102 2.715-1.032 2.688-1.943-.289-9.898-1.229-3.283-1.531-6.2-1.117-10.784.467-5.17.264-6.545-1.147-7.75-5.478-4.68-6.216-5.666-6.216-8.311 0-3.198-2.684-6.157-5.579-6.151-1.056.002-3.331.863-5.055 1.915m262.181 1.004c-.903 1.462 7.213 7.478 16.049 11.896 18.666 9.334 46.074 19.181 53.386 19.181 3.528 0 4.018-.281 4.018-2.304 0-2.767-4.952-7.708-10.5-10.476-5.623-2.806-28.816-10.441-46.172-15.2-16.201-4.442-15.975-4.401-16.781-3.097m-529.942 24.665c-.957 2.493-.703 24.233.29 24.847 1.597.987 2.105-2.384 2.105-13.958 0-10.505-.926-14.717-2.395-10.889m-34.93 7.209c.162 3.137.607 14.253.988 24.703.77 21.084 1.464 20.175 3.232-4.228 1.443-19.917 1.91-20.584 15.951-22.796 6.968-1.097 3.537-2.177-8.906-2.802l-11.561-.58.296 5.703m-275.945-.194c-.401.402-.73 1.086-.73 1.522 0 1.367 8.258 5.601 14.225 7.293 7.373 2.09 23.852 4.573 30.275 4.561 10.417-.02 9.911-4.142-.945-7.705-9.927-3.258-41.109-7.387-42.825-5.671m366.77 4.077c-10.981 2.46-18.699 7.341-21.555 13.632-1.59 3.503-1.905 6.61-1.923 18.997-.024 15.881 1.267 18.881 2.423 5.632 1.324-15.178 4.936-24.535 10.602-27.465 3.913-2.024 5.852-1.868 12.082.973 2.954 1.347 8.459 2.939 12.233 3.537 6.911 1.096 19.463.388 17.952-1.012-.448-.415-4.618-1.511-9.268-2.436-9.905-1.97-15.448-4.078-14.55-5.531.352-.57 2.409-1.938 4.572-3.042 2.163-1.103 3.932-2.447 3.932-2.985 0-.966-12.511-1.194-16.5-.3m-75.727 9.07c-2.294 2.613-3.012 5.874-2.266 10.292.82 4.851 2.02 5.027 3.882.568.779-1.864 3.027-5.172 4.996-7.351 1.968-2.179 3.287-4.254 2.93-4.61-1.382-1.383-8.035-.615-9.542 1.101m564.816 15.5c2.753 12.833 1.774 18.113-5.129 27.648-3.067 4.237-3.245 10.776-.459 16.915 1.804 3.974 24.222 28.187 26.098 28.187.423 0-.79-4.612-2.696-10.25-4.494-13.298-4.584-17.252-.529-23.374 4.298-6.488 4.382-14.217.252-22.949-2.626-5.549-16.242-22.427-18.093-22.427-.432 0-.182 2.813.556 6.25m-495.658 6.432c-1.547 4.07-.793 13.818 1.069 13.818 2.076 0 5.528-10.261 4.641-13.795-.914-3.643-4.329-3.657-5.71-.023m448.524-.227c-3.166 3.165-3.101 6.386.248 12.386l2.704 4.841-3.204 4.356c-1.762 2.396-3.203 4.908-3.203 5.582 0 .675 1.165 2.611 2.589 4.303 1.915 2.276 3.437 3.077 5.845 3.077 6.004 0 8.164-4.978 6.378-14.7-1.245-6.776-.346-9.3 3.31-9.3 4.072 0 .261-7.364-5.725-11.064-4.126-2.55-5.982-2.442-8.942.519m-410.788.212c-.976.975-.786 10.597.241 12.218 2.012 3.177 4.208-6.813 2.485-11.303-.644-1.679-1.631-2.01-2.726-.915m-108.082 3.239c-2.14 2.364-1.773 7.962.62 9.46 2.329 1.458 6.795-2.709 6.795-6.34 0-4.888-4.211-6.66-7.415-3.12m25.103-.114c-2.627 2.903-2.059 11.208.767 11.208 1.693 0 4.8-7.16 4.383-10.098-.426-3.003-2.946-3.546-5.15-1.11m-86.063 1.07c-7.43 8.21-2.03 26.159 16.482 54.785 9.195 14.218 17.366 29.735 19.474 36.984 1.485 5.109 2.152 15.97 1.047 17.074-2.04 2.04-6.2-6.137-10.024-19.705-4.949-17.559-17.442-39.21-21.797-37.773-2.86.944-3.901 5.176-3.558 14.47.323 8.756.585 9.692 5.464 19.5 5.977 12.015 12.169 20.518 22.264 30.574l7.255 7.226-1.76 2.751c-.968 1.514-4.867 5.795-8.664 9.514-7.579 7.423-12.803 16.696-12.811 22.738-.008 5.859-3.055 9.549-9.971 12.071-3.352 1.222-5.932 2.719-5.733 3.326.198.606 2.576 1.672 5.284 2.368 11.814 3.036 18.483-1.775 26.941-19.434 2.984-6.232 5.645-11.331 5.912-11.331.267 0 1.423 3.15 2.57 7 2.071 6.953 4.041 8.834 5.497 5.25 1.806-4.443 2.66-8.354 3.479-15.913 1.174-10.849 4.909-18.702 18.435-38.759 11.961-17.736 16.339-25.819 20.2-37.295 4.555-13.54 3.333-24.283-2.763-24.283-2.779 0-9.278 6.382-13.816 13.567-8.16 12.92-12.651 25.977-14.077 40.923-1.081 11.321-3.117 18.441-6.027 21.076-7.072 6.399-7.119-15.582-.079-37.066 1.082-3.3 3.638-10.5 5.681-16 6.846-18.431 5.791-33.997-3.201-47.239-4.024-5.925-8.705-9.268-12.947-9.246-3.441.019-4.701.76-6.232 3.669-2.027 3.851-1.261 9.731 3.909 29.991 5.411 21.207 7.358 34.934 4.846 34.165-2.552-.781-5.885-9.258-9.802-24.928-5.774-23.102-13.808-39.896-23.102-48.293-4.542-4.102-5.98-4.404-8.376-1.757m-238.579 6.009c-1.272.874-1.272 1.341 0 3.727 3.215 6.033 9.864 8.21 28.633 9.378 11.823.735 14.135 1.18 19.134 3.68 6.555 3.278 8.49 6.177 6.991 10.476-1.534 4.4-.46 10.514 3.49 19.868 5.004 11.853 8.754 25.384 9.046 32.638.279 6.959 1.541 9.275 11.531 21.155 13.476 16.027 13.473 22.23-.008 23.506-10.793 1.021-15.164 5.513-15.074 15.493.095 10.598 12.095 30.208 18.485 30.208 3.434 0 5.221-1.965 7.196-7.91 3.296-9.923 5.846-9.17 11.529 3.407 4.757 10.529 6.627 12.629 12.813 14.392 4.806 1.369 11.51 6.899 13.849 11.422 1.232 2.383 1.297 3.399.333 5.2-.897 1.675-.916 2.767-.075 4.337 2.477 4.629 12.602 15.789 35.067 38.652 32.119 32.688 37.181 39.508 48.989 66l6.687 15 13.919.307c16.018.353 23.416-.319 26.057-2.366 1.796-1.391 1.778-1.514-.514-3.454-2.387-2.021-3.356-2.344-10.488-3.496-5.758-.93-11.517-7.401-24.022-26.991-19.971-31.286-29.207-41.954-54.721-63.207-15.297-12.742-23.699-21.052-26.138-25.851-.822-1.618-1.809-5.098-2.193-7.734-.876-6.02-4.661-10.503-13.83-16.379-7.305-4.683-10.719-9.081-10.734-13.829-.005-1.65-.494-4.745-1.086-6.878-.981-3.535-2.069-4.888-8.109-10.091-1.78-1.534-1.902-2.492-1.279-9.978.812-9.751-.192-12.705-8.503-25.022-6.488-9.614-8.021-13.259-8.021-19.065 0-5.479-.938-7.436-6.6-13.764-4.744-5.304-8.397-13.773-8.406-19.49-.008-5.656-1.906-11.376-3.951-11.911-2.336-.611-4.041-4.44-4.051-9.098-.014-7.237-2.109-16.729-4.491-20.355-3.157-4.804-10.69-8.393-21.537-10.259-11.045-1.9-37.966-3.059-39.918-1.718m446.454 7.638c-38.094 5.391-71.737 22.129-100.36 49.929-17.746 17.236-29.842 33.81-40.184 55.062-20.792 42.725-24.433 88.012-10.868 135.174 10.11 35.148 29.463 65.234 57.224 88.96 30.497 26.064 62.042 40.136 99.586 44.424 15.743 1.798 47.793.746 61.602-2.022 34.152-6.845 62.112-21.621 86.092-45.496 6.651-6.622 13.094-13.503 14.319-15.29l2.225-3.25h-2.83c-1.557 0-9.35 3.192-17.318 7.093-18.882 9.245-26.247 12.129-38.988 15.27-20.564 5.071-39.327 5.579-60.106 1.628-55.886-10.625-99.683-54.207-113.55-112.991-3.069-13.013-4.263-38.15-2.426-51.108 4.798-33.854 19.236-63.197 42.522-86.424 36.122-36.03 84.866-49.837 133.56-37.831 12.741 3.141 20.106 6.025 38.988 15.27 7.968 3.901 15.761 7.093 17.318 7.093h2.83l-2.225-3.25c-1.225-1.788-7.668-8.668-14.319-15.29-23.969-23.865-51.84-38.599-86.092-45.512-14.208-2.868-51.282-3.664-67-1.439m-111.25 4.522c-2.48.997-2.937 3.163-1 4.744.688.561 6.65 1.193 13.25 1.405 10.568.339 12.738.722 18.182 3.209 3.4 1.552 6.669 2.661 7.264 2.462 2.308-.769-4.969-7.698-9.705-9.24-9.732-3.169-23.392-4.428-27.991-2.58m575.313.867c-1.09 1.764-2.731 26.602-2.094 31.702 1.171 9.368 4.887 10.315 11.394 2.903 3.79-4.316 3.94-7.026.637-11.503-2.981-4.04-3.118-5.93-.659-9.115 1.013-1.312 2.103-3.428 2.424-4.703.766-3.046-1.002-7.971-3.304-9.203-2.292-1.227-7.658-1.278-8.398-.081m-604.317 5.352c.449 1.359 12.486 2.285 16.524 1.272 4.846-1.217.75-2.522-7.912-2.522-6.773 0-8.922.312-8.612 1.25M848 931.04c-21.698 2.657-41.21 8.464-60.5 18.007-18.422 9.112-30.285 17.696-45.513 32.933-27.67 27.684-42.393 55.631-49.269 93.52-2.925 16.119-3.146 51.118-.41 65 11.112 56.387 44.483 99.539 96.874 125.265 33.073 16.241 72.492 21.89 109.818 15.738 17.324-2.856 36.261-9.433 39.893-13.855 1.923-2.342 1.401-2.512-4.893-1.595-15.901 2.316-38.97.524-59.173-4.597-21.517-5.454-41.678-15.606-59.66-30.041-25.757-20.676-45.654-55.026-53.24-91.915-2.624-12.759-3.706-42.985-2.004-56.013 3.529-27.021 14.15-53.453 28.926-71.987 11.369-14.26 31.004-32.162 46.997-42.847 23.265-15.545 68.329-25.051 98.154-20.706 6.294.917 6.816.747 4.893-1.595-3.618-4.405-22.449-10.958-39.893-13.881-11.34-1.9-40.491-2.718-51-1.431m229.156 8.406c-4.759 5.164-5.27 8.089-1.697 9.717 4.932 2.247 9.459-3.807 8.378-11.204-.542-3.701-2.249-3.321-6.681 1.487m12.819 6.119c-2.513 6.611-.094 15.16 5.215 18.43 6.731 4.145 18.84 6.817 18.801 4.148-.063-4.31-17.714-25.143-21.304-25.143-.955 0-2.175 1.154-2.712 2.565m142.55 18.185c-1.557 6.462-3.039 15.866-3.293 20.896-.563 11.168 1.048 16.806 7.176 25.102 5.051 6.84 26.696 30.482 27.327 29.85.243-.242-2.455-6.663-5.995-14.269-9.784-21.023-13.806-33.799-18.28-58.079-1.546-8.388-3.102-15.25-3.457-15.25s-1.92 5.288-3.478 11.75m-163.295-7.913c-1.896 1.203 3.18 7.769 15.848 20.5 6.925 6.958 11.397 10.716 12.496 10.5 5.758-1.133 2.79-9.963-4.529-13.474-5.565-2.671-9.045-6.627-9.045-10.284 0-1.545-.933-3.995-2.073-5.444-1.715-2.181-2.878-2.632-6.75-2.62-2.572.009-5.249.378-5.947.822m-652.925 9.662c-1.178.825-3.128 3.097-4.334 5.048-2.103 3.403-2.121 3.63-.427 5.501.971 1.074 2.339 1.952 3.038 1.952.7 0 2.185 1.16 3.301 2.578 1.717 2.183 1.94 3.523 1.456 8.75-.497 5.369-.306 6.411 1.467 8.007 2.951 2.656 9.549 3.318 12.673 1.271 3.667-2.403 3.325-6.455-.979-11.606-3.072-3.677-3.5-4.865-3.5-9.712 0-5.083-.31-5.833-3.882-9.406-4.26-4.26-5.612-4.625-8.813-2.383m691.266 12.072c-2.035 2.036-2.023 6.318.02 7.102 1.983.761 8.269-2.145 9.052-4.184 1.473-3.839-5.809-6.18-9.072-2.918m-709.477 2.179c-4.484 4.198-4.705 6.484-1.032 10.668 4.212 4.797 7.652 4.811 11.834.047 1.707-1.944 3.104-4.239 3.104-5.1 0-2.289-6.453-8.365-8.884-8.365-1.147 0-3.406 1.237-5.022 2.75m808.738 8c-3.656 3.955-10.329 13.215-12.216 16.95-2.56 5.069-1.96 14.489 2.325 36.53 3.868 19.893 5.922 34.651 5.276 37.921-.429 2.174-5.279 4.126-8.313 3.347-4.552-1.17-6.171-3.436-9.789-13.702-3.991-11.322-5.512-12.566-8.316-6.796-2.396 4.931-3.623 14.005-4.392 32.5-.384 9.231-1.216 17.354-1.965 19.202-1.001 2.465-2.895 4.004-8.235 6.694-14.916 7.511-16.351 16.166-3.674 22.163 7.622 3.606 8.107 5.584 6.567 26.793-1.148 15.817-.879 21.648 1 21.648.485 0 2.978-1.599 5.538-3.553 2.804-2.141 5.018-3.191 5.567-2.642 1.009 1.009-1.013 7.085-6.555 19.695-1.933 4.4-4.221 11.469-5.083 15.708-1.674 8.233-2.135 23.792-.706 23.792.474 0 2.311-3.487 4.083-7.75 3.992-9.605 9.449-19.704 17.802-32.945 8.639-13.694 11.272-22.064 11.198-35.593-.063-11.271-1.461-16.999-4.283-17.54-2.258-.433-6.092 3.044-8.936 8.104-2.935 5.221-4.997 4.542-6.112-2.013-.924-5.435 1.435-36.727 3.492-46.318 1.461-6.813 2.483-7.324 8.793-4.401 6.908 3.201 11.107 3.164 15.023-.131 3.011-2.533 4.324-5.872 8.099-20.592 1.607-6.265 4.236-8.47 10.804-9.062 9.323-.84 14.172-6.622 14.174-16.904.002-7.072-3.249-17.812-6.597-21.79-3.155-3.75-8.877-5.399-15.753-4.54-4.531.566-5.431.371-7.165-1.546-1.723-1.906-1.977-3.591-1.939-12.836.038-9.318.442-11.796 3.25-19.908 1.763-5.096 3.206-10.158 3.206-11.25 0-2.887-3.153-2.496-6.168.765m-137.285 6.5c.374 1.237 2.092 4.949 3.817 8.248 4.472 8.553 5.572 8.936 26.841 9.332 20.549.384 27.255-.613 31.093-4.62 2.756-2.879 7.235-12.011 6.332-12.913-.93-.931-28.326-2.186-48.947-2.242l-19.818-.055.682 2.25m-88.317 21.5c-3.224 4.263-10.696 14.56-16.605 22.884-12.015 16.922-18.282 23.991-22.128 24.956-1.719.431-9.593-1.246-23.297-4.964-24.436-6.629-35.076-9.084-35.882-8.277-1.112 1.111 1.95 6.691 10.372 18.906 23.394 33.927 23.74 34.506 22.376 37.501-.687 1.509-6.533 10.619-12.99 20.244-12.48 18.604-16.458 25.124-17.54 28.75-.584 1.96-.308 2.25 2.147 2.247 3.366-.004 14.526-3.018 34.596-9.343 23.589-7.433 22.133-7.337 27.642-1.826 2.568 2.57 10.567 12.547 17.776 22.172 14.7 19.627 17.95 23.188 19.249 21.088 1.742-2.819 2.136-18.378 1.049-41.441-.618-13.119-.982-23.959-.809-24.09.173-.132 9.539-3.345 20.814-7.142 20.352-6.854 36.016-13.748 36.782-16.187.724-2.306-16.43-8.845-49.175-18.747l-8.894-2.69.631-9.645c1.43-21.887 1.988-62.146.861-62.146-.613 0-3.752 3.487-6.975 7.75m103.453 20.215c-4.256 5.058-4.601 14.125-1.026 27.035 1.574 5.688 3.743 9 5.891 9 1.348 0 2.452 2.184 2.452 4.85 0 2.988 4.994 9.15 10.998 13.57l5.849 4.305-6.24.583c-8.196.765-15.864 3.721-24.823 9.57-12.137 7.923-16.505 14.074-18.367 25.867-.827 5.235.599 7.255 5.124 7.255 4.617 0 6.471-.901 7.518-3.654 1.064-2.8 4.577-4.346 9.872-4.346 8.972 0 24.557-10.849 46.197-32.158 16.74-16.484 18.417-19.776 18.259-35.842-.137-14.01-1.692-22.021-5.049-26.01-3.575-4.249-7.589-4.064-11.943.553-4.929 5.226-7.3 14.071-8.565 31.957-1.577 22.293-2.593 22.516-7.704 1.686-3.723-15.173-7.987-24.012-15.165-31.436-6.548-6.772-9.417-7.374-13.278-2.785m-119.599 22.031c-8.68 12.507-15.916 20.004-19.308 20.004-1.069 0-5.393-.866-9.609-1.925-8.873-2.227-25.247-5.328-25.707-4.869-.172.173 3.081 4.809 7.23 10.304 7.85 10.395 12.284 18.405 12.3 22.22.019 4.354-3.467 10.789-12.167 22.453-4.848 6.499-8.6 11.817-8.339 11.817.261 0 5.096-1.315 10.745-2.922 21.036-5.983 27.971-6.291 34.823-1.542 1.997 1.384 7.415 7.526 12.039 13.65l8.409 11.134.5-18.959c.562-21.315.994-22.763 7.641-25.614 2.123-.911 8.689-3.507 14.593-5.771 5.904-2.263 11.035-4.602 11.403-5.197 1.07-1.733-2.192-3.465-13.816-7.339-11.974-3.99-16.11-6.757-17.814-11.918-.619-1.877-1.887-11.117-2.817-20.533l-1.69-17.119-8.416 12.126m-428.753-8.378c-2.631 4.015-2.293 11.729.651 14.863 5.558 5.917 13.061.597 11.429-8.103-.705-3.76-5.844-9.378-8.578-9.378-.983 0-2.559 1.178-3.502 2.618m530.242 27.718c-2.935 2.935-3.133 4.419-1.196 8.946 2.802 6.549 10.02 11.189 15.653 10.062 3.113-.623 6.97-4.512 6.97-7.029 0-4.951-8.797-12.921-15.455-14.001-2.749-.447-3.889-.06-5.972 2.022m-479.938 32.737c-1.747 1.374-2.635 3.034-2.635 4.927 0 3.08 3.909 7 6.98 7 2.308 0 4.48 2.574 6.863 8.133 2.085 4.864 5.321 7.867 8.478 7.867 3.304 0 8.816-3.229 9.762-5.719 1.369-3.599-.461-6.031-6.568-8.732-5.381-2.38-7.482-4.903-8.851-10.628-1.16-4.852-9.364-6.518-14.029-2.848m537.785 32.812c-1.694 1.033-3.687 3.347-4.431 5.141-1.264 3.051-1.195 3.389 1.064 5.218 4.739 3.837 13.947.271 13.947-5.4 0-2.184-4.229-6.846-6.205-6.84-.712.002-2.681.849-4.375 1.881m-630.271 8.002c-1.021.647-.409 1.561 2.5 3.735 5.254 3.926 6.421 5.517 5.861 7.988-.563 2.486 1.587 4.697 6.606 6.794 4.706 1.966 6.116 3.823 5.319 7-.522 2.078-.281 2.618 1.207 2.707 9.395.559 13.955-3.959 9.875-9.784-.816-1.164-3.508-3.304-5.982-4.754-5.093-2.984-6.535-5.088-6.535-9.532 0-2.397-.575-3.309-2.565-4.066-3.153-1.199-14.437-1.26-16.286-.088m607.518 20.78c-.367.366-.667 2.801-.667 5.409 0 6.36 6.776 19.838 19.994 39.767 9.79 14.761 13.722 19.069 16.077 17.613 3.897-2.409-3.924-21.578-17.825-43.685-10.142-16.129-15.132-21.552-17.579-19.104m-544.444 50.89c-1.538 1.077-2.223 2.579-2.223 4.877 0 3.907.989 4.887 7.008 6.944 2.471.844 5.392 2.703 6.492 4.131 8.87 11.515 13.247 14.197 18.041 11.056 5.28-3.46 2.068-11.521-6.016-15.096-5.429-2.402-8.525-5.537-8.525-8.635 0-2.591-3.945-4.834-8.5-4.834-2.23 0-5.055.701-6.277 1.557" fill="#b46529" fill-rule="evenodd"/></svg>