<?xml version="1.0" encoding="UTF-8" standalone="no"?>
<svg
   height="601"
   width="601"
   overflow="visible"
   version="1.1"
   id="svg98"
   sodipodi:docname="Coat_of_arms_of_Mali.svg"
   inkscape:version="1.4.2 (f4327f4, 2025-05-13)"
   xml:space="preserve"
   xmlns:inkscape="http://www.inkscape.org/namespaces/inkscape"
   xmlns:sodipodi="http://sodipodi.sourceforge.net/DTD/sodipodi-0.dtd"
   xmlns="http://www.w3.org/2000/svg"
   xmlns:svg="http://www.w3.org/2000/svg"
   xmlns:rdf="http://www.w3.org/1999/02/22-rdf-syntax-ns#"
   xmlns:cc="http://creativecommons.org/ns#"
   xmlns:dc="http://purl.org/dc/elements/1.1/"><metadata
     id="metadata104"><rdf:RDF><cc:Work
         rdf:about=""><dc:format>image/svg+xml</dc:format><dc:type
           rdf:resource="http://purl.org/dc/dcmitype/StillImage" /></cc:Work></rdf:RDF></metadata><defs
     id="defs102"><inkscape:perspective
       sodipodi:type="inkscape:persp3d"
       inkscape:vp_x="0 : 300.5 : 1"
       inkscape:vp_y="0 : 1000 : 0"
       inkscape:vp_z="601 : 300.5 : 1"
       inkscape:persp3d-origin="300.5 : 200.33333 : 1"
       id="perspective1" /><marker
       markerWidth="43.80921936"
       markerHeight="15.18720722"
       refX="68.120422"
       refY="7.5486712"
       orient="0"
       id="marker6"
       viewBox="0 0 69.510628 16.355453"
       preserveAspectRatio="none"><rect
         style="fill:#efd01c;fill-opacity:1;stroke:none;stroke-width:0.286859;stroke-opacity:1"
         id="rect5"
         width="20.444304"
         height="1.7523683"
         x="-69.510628"
         y="14.603085"
         ry="0"
         transform="scale(-1,1)" /><rect
         style="fill:#efd01c;fill-opacity:1;stroke:none;stroke-width:0.931509;stroke-opacity:1"
         id="rect6"
         width="69.510628"
         height="4.0888605"
         x="-69.510628"
         y="0"
         transform="scale(-1,1)" /></marker></defs><sodipodi:namedview
     pagecolor="#ffffff"
     bordercolor="#666666"
     inkscape:document-rotation="0"
     borderopacity="1"
     objecttolerance="10"
     gridtolerance="10"
     guidetolerance="10"
     inkscape:pageopacity="0"
     inkscape:pageshadow="2"
     inkscape:window-width="1280"
     inkscape:window-height="649"
     id="namedview100"
     showgrid="false"
     inkscape:zoom="0.85598419"
     inkscape:cx="318.347"
     inkscape:cy="256.42997"
     inkscape:window-x="-8"
     inkscape:window-y="-8"
     inkscape:window-maximized="1"
     inkscape:current-layer="g96"
     inkscape:showpageshadow="2"
     inkscape:pagecheckerboard="0"
     inkscape:deskcolor="#d1d1d1"
     showguides="true" /><g
     clip-rule="evenodd"
     fill-rule="evenodd"
     id="g96"><path
       d="M 301.08426,2.8371217 C 136.72926,2.8371217 3.4207447,136.39455 3.4207447,301.08475 3.4330372,465.75321 136.72926,599.33238 301.08426,599.33238 c 164.36403,0 297.66351,-133.57917 297.66351,-298.24763 0,-164.69745 -133.29948,-298.2476283 -297.66351,-298.2476283 z"
       fill="#68b0e5"
       id="path76"
       sodipodi:nodetypes="scsss"
       style="fill:#5eb0f1;fill-opacity:1;stroke-width:0.993185" /><rect
       style="fill:#efd01c;fill-opacity:1;stroke-width:3.42596"
       id="rect13-9-2-2"
       width="54.673054"
       height="4.6146307"
       x="-122.46404"
       y="576.80524"
       transform="matrix(-0.78524758,0.61918191,0.52753968,0.84953039,0,0)" /><rect
       style="fill:#efd01c;fill-opacity:1;stroke-width:3.77561"
       id="rect13-9-2"
       width="59.190926"
       height="5.1768646"
       x="361.2424"
       y="215.29846"
       transform="matrix(0.79517102,0.60638524,-0.42635877,0.90455414,0,0)" /><rect
       style="fill:#efd01c;fill-opacity:1;stroke-width:3.64093"
       id="rect13-9-1-5"
       width="60.594166"
       height="4.7026353"
       x="417.47885"
       y="-144.61713"
       transform="matrix(0.2895115,0.95717454,-0.96131632,0.27544679,0,0)" /><rect
       style="fill:#efd01c;fill-opacity:1;stroke-width:3.64093"
       id="rect13-9-1-5-1"
       width="60.594166"
       height="4.7026353"
       x="251.38547"
       y="427.33035"
       transform="matrix(-0.2895115,0.95717454,0.96131632,0.27544679,0,0)" /><path
       style="fill:#efd01c;fill-opacity:1;stroke:none;stroke-opacity:1"
       d="m 209.52331,500.29453 c -3.45424,-80.53182 69.66078,-94.71986 91.28124,-93.75947 82.90154,2.79004 93.36509,82.90633 88.38998,94.99858 z"
       id="path3"
       sodipodi:nodetypes="cccc" /><path
       d="m 135.71255,252.69937 c 23.56842,46.60764 -0.78553,101.86982 51.84859,135.12357 17.02101,53.95297 72.534,67.83053 93.48126,126.48283 C 250.93073,464.2942 204.32031,452.77322 178.91902,394.89264 126.80859,359.28231 150.90067,312.67467 135.71255,252.69937 Z m 326.34996,0 c -23.56567,46.60764 0.78551,101.86982 -51.84446,135.12357 -17.01965,53.93919 -72.52986,67.81674 -93.49091,126.48283 30.12547,-50.02535 76.7331,-61.54634 102.13165,-119.41313 52.1063,-35.61033 28.01695,-82.23175 43.20372,-142.19327 z m -116.21592,84.79505 c 1.50213,1.19895 3.01806,2.3979 4.52019,3.59686 -1.59861,2.23253 -3.21099,4.46507 -4.80959,6.71138 -2.32901,-1.35054 -4.64423,-2.71487 -6.97324,-4.06541 1.43323,-2.21876 4.06543,-4.27214 7.26264,-6.24283 z m 97.58388,61.90463 c -1.62617,2.59085 -3.23856,5.19549 -4.86474,7.78633 6.42201,3.70711 12.84399,7.40043 19.26597,11.10755 -0.70282,-7.74497 -4.658,-14.33233 -14.40123,-18.89388 z m -10.21579,17.4272 c 1.44701,-2.7011 3.04566,-5.66215 4.49268,-8.36324 6.4082,3.7209 13.20833,7.70667 19.61654,11.42756 -8.91886,4.61704 -15.28932,3.36954 -24.10922,-3.06432 z m -97.4972,-62.67051 c 1.75021,0.79931 3.51419,1.59861 5.26438,2.39791 1.25408,-2.45303 2.52195,-4.89227 3.77603,-7.34531 -2.26011,-1.44702 -4.52021,-2.90781 -6.79409,-4.35483 -1.32298,2.28766 -1.94313,5.56756 -2.24632,9.30223 z M 251.9698,337.50819 c -1.51592,1.18518 -3.01804,2.38413 -4.53398,3.58309 1.6124,2.23253 3.21101,4.47885 4.80961,6.71138 2.329,-1.35054 4.65801,-2.71487 6.98701,-4.06541 -1.43323,-2.21876 -4.0792,-4.27214 -7.26264,-6.22906 z m -97.51711,61.74907 c 1.61928,2.60463 3.34629,5.39635 4.96693,8.00097 -6.41648,3.67956 -13.07796,7.42214 -19.49855,11.11546 0.7629,-10.95301 7.0975,-16.27513 14.53162,-19.11643 z m 10.05608,17.60639 c -1.44564,-2.70108 -3.05532,-5.61487 -4.50095,-8.31596 -6.40546,3.72088 -12.97931,7.61016 -19.38752,11.33107 7.0573,3.25233 15.07685,3.15883 23.88847,-3.01511 z m 97.60391,-62.72168 c -1.76398,0.7993 -3.51417,1.59861 -5.26436,2.39791 -1.25408,-2.43926 -2.52195,-4.8923 -3.7898,-7.34533 2.27386,-1.44702 4.53398,-2.89402 6.80784,-4.35483 1.323,2.28768 1.94316,5.56758 2.24632,9.30225 z"
       fill="#ffffff"
       id="path80"
       inkscape:connector-curvature="0"
       sodipodi:nodetypes="cccccccccccccccccccccccccccccccccccccccccccccc"
       style="stroke-width:0.756381;fill:#000000;fill-opacity:1" /><path
       d="m 132.55145,243.19202 0.9481,4.11041 c 0.18495,0.78223 0.25739,1.05656 0.38785,1.68742 l 2.06859,8.74003 1.07739,5.49494 0.90501,5.40841 0.7757,5.36516 0.60335,5.27862 0.47405,5.19209 0.34475,5.14882 0.30167,5.06228 0.25859,4.97575 0.17237,4.8892 0.17237,4.84596 0.17239,4.80267 0.21546,4.71614 0.21551,4.62962 0.34475,4.54306 0.38785,4.49983 0.51716,4.45654 0.64641,4.37 0.77572,4.32673 0.99121,4.2402 1.16358,4.15368 1.37904,4.1104 1.59453,4.06713 1.8962,3.93733 2.15477,3.93734 2.45643,3.80752 2.80122,3.80752 3.14597,3.67772 3.49071,3.63448 3.87859,3.54791 4.26644,3.4614 4.52502,3.28832 -17.92767,11.55239 -5.55933,-8.91307 -1.6807,0.82207 c -1.978,0.91305 -3.77954,2.15368 -5.51622,3.46139 -2.3552,1.77898 -4.26396,4.09183 -5.7748,6.6199 -1.21551,2.17764 -2.02503,4.55494 -2.45644,7.00933 -0.23596,1.28651 -0.33534,2.59436 -0.47405,3.89405 l -0.15759,0.1713 0.199,0.005 2.19957,0.99219 c 2.03483,0.90121 4.21144,1.51287 6.42121,1.77391 2.28122,0.26713 4.61085,0.15409 6.85216,-0.34598 3.52877,-0.72329 6.74411,-2.37192 9.73958,-4.32675 l 1.55142,-1.03841 -4.86977,-9.08608 17.92768,-11.55239 1.8531,4.06715 2.58573,5.10554 2.67191,4.84595 2.80122,4.58634 2.88738,4.41327 2.97359,4.2402 6.20574,7.87467 3.23216,3.72098 3.23215,3.59121 1.81001,1.86049 4.91288,4.97574 3.40453,3.24507 3.44763,3.20178 3.44764,3.15852 3.49072,3.11525 3.49074,3.072 3.53381,3.07196 3.49074,3.07198 3.49073,3.07199 3.44762,3.15852 3.44763,3.15851 3.44763,3.24506 3.40455,3.37486 3.31836,3.41812 3.27524,3.54792 3.23216,3.67774 3.18906,3.85079 3.10287,3.98059 3.01666,4.15368 2.97359,4.37 3.49073,5.58149 0.21548,1.99031 c 0.79985,0.0692 1.59968,0.11766 2.41334,0.17308 l -1.76693,-4.62963 -7.84336,-67.97304 C 269.78351,411.08027 261.8809,341.58263 261.8809,341.58263 L 134.96481,248.3841 Z m 332.61039,0 -2.24096,4.80268 -127.21767,93.41427 -0.21546,0.17308 v 0.25959 l -11.67886,101.54854 -8.23123,71.6507 -1.29286,3.37486 c 0.70333,-0.0554 1.37906,-0.16097 2.06859,-0.21636 l 0.12921,-1.29801 3.92168,-6.2305 2.9305,-4.37 3.01665,-4.15367 3.10288,-3.9806 3.18906,-3.8508 3.23216,-3.67772 3.27526,-3.54793 3.36143,-3.41813 3.40454,-3.37485 3.40455,-3.24505 3.44763,-3.15852 6.93835,-6.27376 3.49072,-3.02873 3.53384,-3.07198 3.49073,-3.07199 3.49074,-3.11525 15.08337,-14.49456 1.9393,-1.94703 3.23215,-3.5912 3.23215,-3.72099 1.24976,-1.55763 2.24099,-2.76911 2.715,-3.54793 2.97359,-4.24021 2.88738,-4.41326 2.80121,-4.58634 2.67191,-4.84595 2.58572,-5.10555 2.24097,-4.93249 17.66911,11.9418 -4.95608,9.56199 c 2.75231,1.9692 5.68594,3.69055 8.92076,4.71615 2.93627,1.01504 6.09487,1.35929 9.17933,0.99497 3.06093,-0.27587 5.85189,-1.51182 8.60894,-2.78092 l 0.2077,0.0251 -0.15465,-0.18616 c -0.21368,-2.80183 -0.65218,-5.5828 -1.6375,-8.22079 -1.24309,-3.17481 -3.25913,-5.87244 -5.73167,-8.17755 -2.45808,-2.37062 -5.50144,-3.92566 -8.5329,-5.40842 l -5.30064,8.48031 -17.36744,-11.72546 3.70621,-2.68258 4.26644,-3.4614 3.87858,-3.54792 3.49072,-3.63446 3.14596,-3.721 2.80122,-3.76426 2.45644,-3.80754 2.15476,-3.93731 1.8962,-3.93733 1.59453,-4.06714 1.37906,-4.11041 1.20667,-4.15366 0.94811,-4.2402 0.77569,-4.32674 0.64645,-4.37 0.51714,-4.45654 0.38787,-4.49981 0.34476,-4.54308 0.21547,-4.6296 0.21548,-4.71614 0.1724,-4.80268 0.17238,-4.84595 0.21546,-4.88921 0.21547,-4.97575 0.30167,-5.0623 0.34477,-5.1488 0.51715,-5.19209 0.60332,-5.27861 0.73262,-5.36517 0.90501,-5.40842 1.0774,-5.49496 2.15475,-9.04287 c 0.13251,-0.57634 0.25038,-1.04812 0.38786,-1.68743 z m -3.23216,6.96604 -2.75811,5.75456 -1.81,4.5431 -1.59453,4.54306 -1.37907,4.54307 -1.20666,4.58635 -0.99121,4.6296 -0.90499,4.62963 -0.73263,4.62958 -0.64644,4.62963 -0.60332,4.6296 -0.51715,4.6296 -0.47405,4.62961 -0.51714,4.58634 -0.47405,4.54308 -0.56023,4.49981 -0.60334,4.49981 -0.68953,4.45655 -0.77572,4.36999 -0.9481,4.32674 -1.0774,4.28348 -1.24975,4.2402 -1.42214,4.1104 -1.68073,4.06713 -1.89619,3.9806 -2.15478,3.89406 -2.45643,3.76426 -2.75811,3.72099 -3.10288,3.63448 -3.44762,3.50464 -3.8355,3.37485 -4.26644,3.28833 -4.91288,3.37485 -0.21546,0.51922 -62.44525,-40.23866 4.86978,-6.79299 -6.03412,-4.75987 c 0,0 0.1442,-0.28815 0.2163,-0.43221 z m -325.93059,0.34614 115.79736,85.40981 -5.77479,4.6296 5.43004,7.5718 -62.70383,40.36845 -0.47404,-1.47108 -4.95596,-3.33159 -4.26648,-3.28833 -3.83547,-3.41811 -3.44764,-3.50468 -3.10287,-3.59118 -2.75811,-3.72099 -2.45643,-3.80752 -2.15477,-3.8508 -1.89621,-3.9806 -1.68072,-4.06713 -1.42214,-4.15368 -1.24976,-4.19692 -1.07739,-4.28348 -0.9481,-4.32674 -0.77573,-4.36999 -0.68953,-4.45655 -0.60332,-4.49981 -0.56024,-4.49981 -0.47404,-4.54308 -0.51715,-4.58634 -0.47405,-4.62961 -0.51716,-4.6296 -0.60332,-4.6296 -0.64642,-4.62963 -0.73263,-4.62958 -0.86193,-4.62963 -1.03428,-4.6296 -1.20668,-4.58635 -1.37906,-4.58635 -1.59452,-4.54306 -1.81,-4.49982 z m -0.43095,1.38457 c 23.58457,46.82568 -0.78332,102.36368 51.88688,135.77302 17.03267,54.20537 72.59851,68.14957 93.56012,127.07627 -30.1323,-50.24554 -76.80361,-61.82907 -102.22231,-119.98042 -52.14614,-35.77692 -28.02614,-82.61301 -43.22469,-142.86887 z m 326.57701,0 c -15.19718,60.24203 8.91731,107.09195 -43.22469,142.86887 -25.41595,58.13751 -72.07622,69.72104 -102.22233,119.98042 20.9754,-58.94054 76.52884,-72.88474 93.56014,-127.07627 52.66605,-33.40934 28.30508,-88.94734 51.88688,-135.77302 z m -210.21941,85.19345 c 3.18561,1.96608 5.8058,4.04463 7.24003,6.27378 -2.33059,1.35688 -4.65087,2.71026 -6.98146,4.06713 -1.5997,-2.24299 -3.21319,-4.46347 -4.82667,-6.70644 1.51696,-1.20457 3.05115,-2.44374 4.5681,-3.63447 z m 93.9049,0 c 1.50317,1.20458 3.02185,2.4299 4.52501,3.63447 -1.5997,2.24297 -3.18389,4.44962 -4.78359,6.70644 -2.33059,-1.35687 -4.65085,-2.71025 -6.98144,-4.06713 1.4342,-2.22915 4.04062,-4.29386 7.24002,-6.27378 z m -86.01844,7.39873 c 1.3239,2.29837 1.93756,5.5936 2.24096,9.34575 -1.76518,0.80304 -3.50625,1.57666 -5.25762,2.37971 -1.25495,-2.45066 -2.52369,-4.89095 -3.79242,-7.35546 2.27545,-1.45378 4.53365,-2.90237 6.80908,-4.37 z m 78.13197,0 c 2.27545,1.45377 4.54744,2.91622 6.80909,4.37 -1.25494,2.46451 -2.53746,4.93421 -3.7924,7.39872 -1.7514,-0.80305 -3.50625,-1.61993 -5.25765,-2.42297 0.3034,-3.75215 0.91709,-7.04738 2.24096,-9.34575 z m 8.18814,3.80753 62.74692,40.41173 -1.20668,3.5912 -1.93928,4.67286 -2.06858,4.49981 -2.28408,4.32675 -2.45643,4.15366 -2.62881,3.98059 -2.75811,3.80754 -2.8874,3.76425 -3.01668,3.5912 -3.10285,3.54793 -3.23217,3.41811 -3.27525,3.41812 -3.36145,3.3316 -6.89526,6.61984 -3.49072,3.28833 -3.49073,3.33164 -3.49073,3.3316 -3.49073,3.41812 -3.44764,3.46138 -3.44764,3.50466 -3.36143,3.67773 -3.27526,3.72099 -3.23215,3.89406 -3.14595,3.9806 -3.01668,4.19694 -2.88741,4.32674 -2.7581,4.54308 -2.62882,4.71613 -2.45643,4.97574 -2.24097,5.19209 -0.68953,1.77395 17.92769,-156.10867 6.24884,2.85517 z m -94.12037,0.82209 4.30954,8.39385 5.94715,-2.72537 17.79841,154.76743 -0.21548,-0.5625 -2.28405,-5.19207 -2.45643,-4.97576 -2.62883,-4.71613 -2.75812,-4.54307 -2.88738,-4.32675 -3.01668,-4.19693 -3.10286,-3.98061 -3.23216,-3.89406 -3.31834,-3.72099 -3.36144,-3.67772 -3.44763,-3.50468 -3.44765,-3.46137 -3.49071,-3.41813 -3.49074,-3.33158 -3.49072,-3.3316 -3.49073,-3.28831 -3.49075,-3.28832 -6.76595,-6.70645 -3.27526,-3.37485 -3.23215,-3.41812 -3.10288,-3.54793 -3.01669,-3.59118 -2.88738,-3.76427 -2.75811,-3.80754 -2.62883,-4.02385 -2.45643,-4.11041 -2.28404,-4.32675 -2.0686,-4.49979 -1.8962,-4.67289 -0.9481,-2.68257 z m -97.7404,50.14687 c 1.62039,2.61682 3.20494,5.25785 4.82669,7.87467 -6.42086,3.69677 -12.83864,7.40912 -19.26367,11.11971 0.70195,-7.78121 4.68294,-14.4115 14.43698,-18.99438 z m 289.2133,0 c 9.74991,4.58288 13.73364,11.21317 14.43696,18.99438 -6.42639,-3.72444 -12.88036,-7.43853 -19.30674,-11.16298 1.62728,-2.60296 3.24249,-5.22842 4.86978,-7.8314 z m -283.6109,9.34575 c 1.44663,2.71374 2.90601,5.46381 4.35262,8.17755 -8.81763,6.20279 -16.51104,6.33952 -23.57317,3.07197 6.4126,-3.7383 12.81073,-7.51121 19.22055,-11.24952 z m 277.96539,0 c 6.4126,3.73831 12.85107,7.51122 19.26367,11.24952 -7.06077,3.26755 -14.74725,3.13082 -23.5732,-3.07197 z"
       color="#000000"
       fill="#2b0000"
       id="path84"
       inkscape:connector-curvature="0"
       sodipodi:nodetypes="ccccccccccccccccccccccccccccccccccccccccccccccccccccccccccccccccccccccccccccccccccccccccccccccccccccccccccccccccccccccccccccccccccccccccccccccccccccccccccccccccccccccccccccccccccccccccccccccccccccccccccccccccccccccccccccccccccccccccccccccccccccccccccccccccccccccccccccccccccccccccccccccccccccccccccccccccccccccccccccccccccccccccccccccccccccccccccccccccccccccccccccccccc"
       style="fill:#000000;fill-opacity:1;stroke-width:0.758408" /><path
       d="m 270.49235,183.7117 -1.43503,2.35755 -0.41001,0.76876 -0.46126,0.76878 -0.41001,0.76876 -0.35876,0.82002 -0.35876,0.76876 -0.3075,0.76877 -0.30751,0.76876 -0.25625,0.82002 -0.25626,0.76876 -0.205,0.82002 -0.20501,0.76877 -0.15367,0.82002 -0.1025,0.76876 -0.0511,0.82002 -0.0511,0.82002 v 28.1881 h -1.28128 c -3.83768,-2.09925 -5.93488,-5.01236 -7.73891,-8.04643 -1.90244,3.14887 -4.5839,5.89798 -8.40518,8.04643 h -1.02502 v -8.96894 c 0.12069,-5.21408 -2.11769,-9.83697 -4.71489,-14.19655 -2.85291,4.32505 -5.03391,8.9765 -5.38108,14.19655 v 8.96894 h -0.71751 c -2.44365,-1.98444 -3.75568,-4.71306 -4.92011,-7.53391 -1.23002,2.93566 -2.98896,5.51667 -5.43261,7.53391 h -0.51251 v -8.96894 c 0.11705,-5.20753 -2.12062,-9.8405 -4.71571,-14.19655 -2.86474,4.31829 -5.0345,8.98616 -5.38103,14.19655 v 43.30717 h 10.09646 v -0.30751 h 11.58275 v 0.30751 h 10.09647 v -0.30751 h 18.45007 v 35.77325 h 10.09646 v -3.28006 h 7.99518 v -4.7151 h 8.25142 c -1.42064,-14.12426 -1.55012,-29.86694 9.12253,-40.53962 1.18234,-1.04429 2.49476,-1.95077 3.84383,-2.76755 1.33499,0.81552 2.61537,1.7375 3.79258,2.76755 11.0253,10.23902 10.30222,26.78179 9.12298,40.53962 h 8.25142 v 4.7151 h 7.99517 v 3.28006 h 10.09651 V 260.12707 H 362.181 v 0.30751 h 10.09647 v -0.30751 h 11.58275 v 0.30751 h 10.09646 v -43.25592 c -0.519,-5.77293 -2.47998,-9.59486 -5.38103,-14.19655 -2.82943,4.28184 -4.66703,9.78303 -4.71474,14.19655 v 8.91769 h -0.61501 c -2.46005,-2.01724 -4.15134,-4.547 -5.38136,-7.48266 -1.16443,2.82086 -2.51131,5.51462 -4.97136,7.48266 h -0.61501 v -8.91769 c -0.56703,-5.82029 -2.50504,-9.58669 -5.38104,-14.2478 -2.79704,4.32377 -4.66754,9.8165 -4.71489,14.2478 v 8.91769 h -1.07627 c -3.83769,-2.14845 -6.50274,-4.89756 -8.40519,-8.04643 -1.82043,3.03407 -3.95248,5.94718 -7.79016,8.04643 h -1.17878 v -28.1881 -0.82002 l -0.1025,-0.76877 -0.10249,-0.82001 -0.15368,-0.82002 -0.205,-0.76877 -0.15368,-0.76876 -0.25625,-0.82002 -0.3075,-0.76876 -0.25626,-0.82002 -0.35875,-0.76877 -0.35876,-0.76876 -0.35876,-0.76878 -0.41001,-0.82 -0.41001,-0.76878 -0.46126,-0.76876 -1.43503,-2.35755 -1.43503,2.35755 -0.46126,0.82002 -0.41001,0.76876 -0.35875,0.76876 -0.35876,0.82002 -0.25627,0.76878 -0.3075,0.82001 -0.25625,0.76877 -0.20501,0.82001 -0.15367,0.76877 -0.15367,0.76877 -0.15368,0.82002 -0.10249,0.76876 -0.0511,0.76876 -0.10251,0.82002 v 0.76877 23.678 h -5.84262 v -4.45884 -0.76877 c -0.37661,-4.97339 -2.83481,-9.2395 -5.32995,-13.42778 -2.79935,4.03822 -4.38984,8.54445 -4.71461,13.42778 l -0.0511,0.76877 v 4.45884 h -7.48267 v -4.10008 l -0.0511,-0.46126 v -0.46126 c -0.42262,-4.59876 -2.07375,-9.02798 -4.45774,-12.96653 l -1.23003,-2.10129 -1.28128,2.10129 c -2.21314,3.96545 -4.23597,8.34845 -4.4066,12.96653 l -0.0511,0.46126 v 0.46126 4.04883 h -7.5339 v -4.40759 -0.76877 c -0.12696,-4.94315 -2.23841,-9.27082 -4.71489,-13.42778 -2.59963,4.03662 -5.00484,8.48872 -5.32991,13.37653 l -0.0511,0.82002 v 4.40759 h -5.84262 v -23.62675 -0.82002 l -0.0511,-0.76877 -0.1025,-0.76876 -0.1025,-0.82002 -0.1025,-0.76876 -0.20501,-0.76877 -0.15367,-0.82002 -0.205,-0.76876 -0.25626,-0.76877 -0.25625,-0.82001 -0.30751,-0.76878 -0.35876,-0.82002 -0.36376,-0.76876 -0.41001,-0.82002 -0.41,-0.76876 z"
       color="#000000"
       id="path86"
       inkscape:connector-curvature="0"
       sodipodi:nodetypes="ccccccccccccccccccccccccccccccccccccccccccccccccccccccccccccccccccccccccccccccccccccccccccccccccccccccccccccccccccccccccccccccccccccccccccccccccccccccccccccc"
       style="fill:#ffffff;fill-opacity:1;stroke-width:0.90014" /><path
       d="m 216.20394,259.10938 h 7.81174 v -42.03924 c -0.11464,-3.99594 -1.11363,-8.00826 -3.6029,-12.00419 -2.50565,3.99593 -4.11058,8.00825 -4.20884,12.00419 z m 176.47639,0 h -7.81174 v -42.03924 c 0.11464,-3.99594 1.11363,-8.00826 3.60291,-12.00419 2.50564,3.99593 4.11057,8.00825 4.20883,12.00419 z m -67.63619,27.41476 h -6.43608 c 2.55479,-25.38404 -3.71752,-37.53563 -14.16593,-43.39852 -10.4484,5.86289 -16.72071,18.01448 -14.14954,43.39852 h -6.43609 v -49.76909 h 20.58563 20.60201 z m 8.58146,-51.70155 h -29.18347 -29.16708 v -12.23347 h 6.99289 v -5.51898 c 0.0983,-3.99594 1.70319,-8.00826 4.20885,-12.00419 2.50564,3.99593 3.50463,8.00825 3.60289,12.00419 v 5.51898 h 9.77695 v -5.17506 c 0.11464,-4.58552 1.85058,-9.1874 4.5855,-13.77289 2.7513,4.58549 4.47087,9.18737 4.58551,13.77289 v 5.17506 h 9.79333 v -5.51898 c 0.0983,-3.99594 1.09724,-8.00826 3.60288,-12.00419 2.48928,3.99593 4.0942,8.00825 4.19247,12.00419 v 5.51898 h 7.00928 z m -0.21291,56.58184 h -6.64898 v -54.64938 h 6.64898 z m 29.13432,-54.22358 h -19.22635 v 21.61737 h 19.22635 z m 0,-10.07173 h -19.22635 v 8.87622 h 19.22635 z m 21.61738,10.07173 h -12.33173 v 21.61737 h 12.33173 z m 0,-10.07173 h -12.33173 v 8.87622 h 12.33173 z m -41.62982,67.40691 h -7.81174 v -96.65587 c 0.11464,-4.01232 1.11363,-8.00825 3.60291,-12.02058 2.50564,4.01233 4.11057,8.00826 4.20883,12.02058 z m 28.49563,-35.40665 h -7.81174 v -42.03924 c 0.0983,-3.99594 1.09725,-8.00826 3.6029,-12.00419 2.50565,3.99593 4.11058,8.00825 4.20884,12.00419 z m -95.54225,32.29505 h 6.64899 v -54.64938 h -6.64899 z m -29.1507,-54.23996 h 19.22636 v 21.61738 h -19.22636 z m 0,-10.07173 h 19.22636 v 8.8926 h -19.22636 z m -21.61737,10.07173 h 12.33173 v 21.61738 h -12.33173 z m 0,-10.07173 h 12.33173 v 8.8926 h -12.33173 z m 41.62982,67.40691 h 7.79536 v -96.65587 c -0.0983,-4.01232 -1.09725,-8.00825 -3.6029,-12.0042 -2.48927,3.99595 -4.0942,7.99188 -4.19246,12.0042 z m -28.47925,-35.40664 h 7.79535 v -42.03925 c -0.0983,-3.99594 -1.09724,-8.00825 -3.60289,-12.00419 -2.50565,3.99594 -4.0942,8.00825 -4.19246,12.00419 z"
       fill="#ffffff"
       id="path88"
       style="fill:#b5afa2;fill-opacity:1;stroke-width:1.63768" /><path
       d="m 238.63472,121.71736 c -4.27859,0.66583 -8.50694,1.6114 -12.77668,2.32303 -2.29799,0.3025 -4.58799,0.65454 -6.86952,1.06195 -5.62599,0.75724 -11.01772,2.50365 -16.46028,4.01554 -6.19227,2.41277 -12.38614,3.82197 -19.31435,4.5133 1.85099,0.89947 3.68287,1.8457 5.57529,2.6549 3.15823,1.19788 6.10649,1.31469 9.59079,1.59294 0.67441,0.053 1.34847,0.0664 2.02434,0.0664 0.95417,1.31231 2.41283,1.73767 3.84956,2.32302 2.18659,0.87948 4.52242,1.25291 6.83636,1.62615 3.62826,0.44117 7.26789,0.20277 10.88506,-0.19912 1.6179,1.52256 4.18419,2.19233 6.37172,2.42259 2.43479,0.24916 5.02138,0.2509 7.40043,-0.23228 0.738,2.37439 3.94934,2.19023 5.97351,2.19023 1.07344,2.12839 3.73349,1.73409 5.70794,1.4602 0.76962,2.0124 2.80662,2.39624 4.71244,2.15714 l 0.23231,0.19912 c 1.75282,1.30725 3.73466,1.61722 5.708,0.63056 l 0.0995,-0.0664 c 0.14301,1.3585 1.00689,1.97532 2.32299,2.05752 1.12243,-0.0188 2.05334,-0.64699 2.92037,-1.29423 0.14455,-0.10794 0.36498,-0.33187 0.36498,-0.33187 l 0.16591,0.9624 1.1615,0.36505 c 1.11161,0.11583 1.98552,-0.19042 2.78766,-0.82966 0.87095,-0.73766 1.51621,-1.72788 1.89161,-2.75445 0.2888,0.38704 0.52394,0.80957 0.76327,1.2279 1.67102,2.94223 3.30058,5.94868 5.50918,8.52882 l 0.2323,0.29868 1.39379,1.62611 0.89604,-1.6593 c 0.18323,-0.26707 0.6992,-0.0851 1.12804,0 l 3.98231,1.12832 -2.45576,-3.01993 c 0.16044,5.8e-4 0.3108,0.0637 0.46452,0.0996 1.31212,0.45375 2.40615,1.32754 3.55092,2.09073 l 0.0331,-2.25665 c 0.50054,0.65447 1.03114,1.35357 1.4602,1.92479 2.13863,0.51302 4.31969,0.80127 6.50449,1.02876 0.31857,1.58125 0.75,3.17393 1.49337,4.74564 6.25493,-1.04072 12.31736,-2.81367 18.28553,-4.97794 0.28674,-1.24462 -0.11012,-2.50435 -0.89601,-3.75001 l 0.1328,-0.0664 c 1.72234,-0.99906 3.68535,-1.81078 4.94472,-3.38499 1.16109,0.37476 2.37804,0.39137 3.58411,0.29865 0.76941,-0.0543 1.51699,-0.25325 2.25665,-0.46458 l 0.43142,-0.73009 c 0.52175,0.20011 1.0952,0.35967 1.55973,0.49778 l 0.33188,0.0996 c 0.36969,0.13181 0.74943,0.23082 1.12832,0.33186 l 0.86284,-0.0332 0.46461,-0.0664 -0.7633,0.43144 c 7.02016,5.43262 13.88447,11.06677 20.90727,16.49348 0.79451,0.44443 1.61554,0.4748 2.48896,0.33189 0.73295,-0.0886 1.34247,-0.13799 1.85843,-0.69687 0.82557,0.0126 1.64156,0.021 2.45575,-0.0995 0.82654,-0.0785 1.55037,-0.37801 2.1903,-0.89577 0.74596,0.12202 1.50101,0.21083 2.25664,0.23203 1.09247,-0.0176 1.88906,-0.38556 2.72127,-1.06174 0.59708,0.0583 1.1946,0.11151 1.79206,0.16578 1.28782,0.0248 2.56618,-0.21894 3.51772,-1.12824 l 1.16151,-1.29424 c -6.48333,-3.90606 -13.35651,-8.14149 -19.41386,-11.71471 0.3327,0.005 0.66262,0.0279 0.99556,0.0332 1.11668,0.0383 2.21549,-0.16123 3.25224,-0.56411 l 0.29868,0.19911 c 3.0922,2.0118 6.59084,3.02217 10.2545,2.68807 0.48301,-0.0688 0.95361,-0.18647 1.42734,-0.29892 0.27367,0.0783 0.53427,0.18942 0.79646,0.29867 3.2364,1.22939 6.60078,1.84159 10.0554,1.42699 l 0.0995,0.0664 c 0.64287,0.26236 1.28656,0.52295 1.9248,0.7965 3.96885,1.47225 8.17614,1.81547 12.31209,0.92919 l 0.1328,-0.0332 c 0.24602,0.1223 0.56286,0.17312 0.79639,0.2323 2.71818,0.79305 5.63801,0.969 8.32972,0 0.23742,-0.0983 0.49086,-0.22886 0.69691,-0.33186 0.36318,0.11725 0.68084,0.14467 1.06194,0.19913 3.09197,0.56176 6.78703,0.60446 9.22575,-1.65931 0.15942,-0.14072 0.29037,-0.30689 0.4314,-0.46461 0.22128,-0.006 0.44252,-0.0216 0.66366,-0.0332 3.09053,-0.14572 5.0141,-1.74151 6.53776,-4.281 l 0.33186,0.0996 c 1.07726,-0.5731 2.03425,-1.2646 2.78765,-2.22347 0.49664,-0.62492 0.53777,-1.35871 0.63054,-2.12391 -1.29936,-1.19133 -2.57202,-2.40441 -3.88279,-3.58411 -7.63942,1.29308 -15.39434,1.26058 -23.09754,0.69692 -6.89107,-0.5576 -13.71047,-1.70011 -20.50901,-2.92037 -5.30206,-1.8458 -10.66873,-3.50775 -15.96253,-5.37615 -6.13708,-1.99433 -12.19504,-4.2376 -18.35192,-6.17261 -3.56359,-1.37466 -7.3336,-2.09066 -11.15053,-2.09066 -4.03979,0.0629 -7.77982,1.47158 -10.91823,3.9823 l -0.53098,0.46461 c -1.0776,0.9271 -2.38957,1.59501 -3.61729,2.32303 -2.57132,-3.13034 -6.51821,-4.281 -10.42043,-4.281 -2.88907,0.19543 -5.6573,1.16934 -8.23016,2.45577 -4.15346,2.03332 -7.75038,4.9647 -11.31645,7.86512 l 0.16591,0.13278 c -3.38472,-1.34146 -6.60079,-3.30449 -9.02662,-4.97791 l -0.2655,-0.29868 c -1.10904,-1.22396 -2.54279,-1.93695 -4.11506,-2.35623 l -0.4978,-0.0664 h -0.0995 c -3.75961,-7.88796 -11.47146,-11.41473 -19.44711,-12.64392 -4.05184,-0.34166 -8.14544,0.006 -12.14587,0.69672 z"
       color="#000000"
       id="path90"
       inkscape:connector-curvature="0"
       sodipodi:nodetypes="ccccccccccccccccccccsccccccccccccccccccccccccccccccccccccccccccccccccccccccccccccccccccccccccccccccccccccc"
       style="stroke-width:0.582858" /><g
       id="g94"
       transform="matrix(0.57773935,0,0,0.57773935,131.59002,56.908607)"
       style="fill:#8e8f8f;fill-opacity:1"><path
         d="m 190.04,93.031 c 1.35,-0.763 2.7,-0.971 4.06,-0.624 2.04,0.884 4.09,0.815 6.13,0.312 1.53,-0.417 3.09,-0.73 4.89,-0.312 6.66,4.021 13.32,8.043 19.97,12.063 -0.66,0.87 -2.08,0.97 -3.85,0.73 -2.13,-1.89 -4.83,-3.21 -7.8,-4.26 2.58,1.49 5.06,3 6.24,4.78 -0.48,0.48 -1.66,0.55 -3.53,0.21 -1.27,-1.29 -3.49,-2.57 -6.14,-3.85 1.98,1.42 3.78,2.84 5.2,4.26 -0.63,0.45 -1.8,0.63 -3.54,0.52 l -4.78,-3.43 c 1.28,1.32 2.57,2.63 3.85,3.95 -0.83,0.15 -1.67,0.45 -2.5,0 -6.07,-4.78 -12.13,-9.565 -18.2,-14.349 z M 56.28,75.479 c 12.399,-1.314 14.212,-5.249 35.622,-8.214 9.948,-1.552 20.028,-4.641 27.968,-2.181 5.73,1.645 10.5,4.444 13.15,9.783 -3.03,0.708 -4.86,2.135 -5.5,4.281 -4,0.96 -6.73,3.31 -7.95,7.337 5.02,-0.507 9.87,-0.641 13.45,1.834 -0.27,1.49 -1.96,3.581 -3.49,2.949 -0.16,-0.69 0.06,-1.823 -0.48,-2.032 -1.54,1.08 -3.22,3.111 -4.63,2.14 -0.32,-0.634 -0.18,-1.113 -0.11,-1.47 0.26,-1.283 -1.06,-0.986 -1.15,-0.554 -2.12,1.829 -3.92,0.839 -5.42,-0.421 -1.76,0.248 -3.47,0.408 -3.98,-2.14 -2.89,0.52 -5.4,0.729 -5.2,-1.223 -2.62,-0.016 -5.39,0.047 -5.5,-1.223 2.14,-0.917 4.28,-1.834 6.42,-2.751 -8.01,2.656 -14.639,3.187 -19.261,0.611 6.036,-0.977 10.791,-2.684 14.671,-4.892 -15.106,5.456 -26.512,5.918 -34.544,1.834 14.601,-1.835 19.661,-3.669 26.905,-5.503 -18.182,4.45 -32.949,6.004 -40.971,1.835 z m 65.2,9.124 c 1.4,-2.529 3.64,-4.048 6.58,-4.731 1.3,-3.745 6.96,-5.432 10.28,-1.385 5.4,3.9 10.25,5.987 14.42,5.886 -0.96,0.308 -1.92,0.616 -2.88,0.923 0.84,0.323 1.69,0.392 2.54,1.731 -1.07,-0.229 -1.99,0.239 -2.89,0.808 1.01,0.385 1.94,0.949 2.31,2.77 -1.83,-0.403 -2.97,0.054 -4.16,0.462 0.83,0.678 1.48,1.426 1.5,2.423 -0.96,-0.37 -1.92,-0.194 -2.88,0.231 0.73,0.722 1.22,1.643 1.15,3 -1.17,-0.802 -2.5,-1.306 -4.15,-1.154 -0.02,0.568 -0.25,1.053 0.58,1.962 -1.24,-0.364 -2.22,-0.331 -2.66,0.577 -2.32,-2.669 -3.96,-5.672 -5.65,-8.655 -1.49,-2.864 -4.69,-4.435 -10.27,-4.385 0.72,-1 1.92,-1.539 3.57,-1.616 -2.46,-0.54 -4.92,-0.155 -7.39,1.153 z m 13.48,-4.694 c -0.6,-0.348 -1.37,-0.141 -1.72,0.461 -0.35,0.603 -0.14,1.373 0.46,1.721 0.6,0.348 1.38,0.141 1.72,-0.461 0.35,-0.603 0.15,-1.374 -0.46,-1.721 z m 14.42,2.201 c 12.22,-10.229 19.67,-10.16 24.96,-5.409 -2.95,2.869 -7.21,4.585 -12.38,5.513 5.33,0.254 11.31,-2.746 17.48,-6.657 4.56,-4.472 10.79,-5.304 18.41,-3.12 l 34.53,11.649 c 13.98,2.574 27.82,4.335 40.97,2.184 0.94,0.867 1.88,1.733 2.81,2.6 -0.03,0.797 -0.76,1.594 -2.18,2.392 -3.35,-0.798 -6.5,-0.451 -9.57,0.416 3.26,-0.176 6.31,-0.177 7.9,1.04 -0.93,1.621 -2.67,2.644 -5.82,2.6 -1.42,2.253 -4.65,2.842 -9.67,1.768 -2.33,1.283 -5.34,1.317 -9.05,0.104 -4.37,1.109 -8.88,0.555 -13.52,-1.664 -2.88,0.555 -6.31,0 -10.3,-1.664 -3.33,1.109 -7.07,0.277 -11.23,-2.496 -2.24,1.092 -5.25,1.058 -9.98,-1.456 -3.23,0.386 -7.18,-0.934 -11.24,-2.496 1.28,1.109 2.71,1.941 4.27,2.496 -3.33,0.277 -6.66,-0.416 -9.99,-2.08 4.61,2.288 5.2,3.467 1.77,3.536 -3.18,-0.833 -6.25,-2.115 -9.15,-4.056 1.25,1.906 2.91,3.259 4.99,4.056 -4.04,1.092 -7.12,-0.676 -9.77,-3.744 0.73,1.595 1.5,3.189 3.64,4.784 -10.4,6.95 -18.73,6.763 -26.63,5.096 -0.69,-0.936 -1.39,-1.872 -2.08,-2.808 1.04,-0.004 2.08,-0.169 3.12,-0.728 -0.48,-0.589 -0.97,-1.179 -1.45,-1.768 1.32,-0.393 2.71,-0.417 3.74,-2.288 -1.01,-0.207 -1.53,-0.901 -1.98,-1.664 1.42,-0.104 2.43,-0.625 3.02,-1.56 -0.62,0.07 -1.25,0.036 -1.87,-0.729 0.64,-0.986 1.3,-1.955 1.66,-3.224 -2.22,0.625 -4.02,0.417 -5.41,-0.623 z"
         fill="#ffffff"
         transform="matrix(1.82198,0,0,1.82198,-4.697,-3.697)"
         id="path92"
         style="fill:#8e8f8f;fill-opacity:1" /></g><path
       style="fill:none;fill-opacity:1;stroke:none;stroke-width:1.17562;stroke-opacity:1"
       d="m 65.152549,206.76231 c 0,0 47.955481,-153.449634 235.209981,-156.997396 175.83952,-3.331491 228.23729,152.189826 228.23729,152.189826"
       id="path87"
       sodipodi:nodetypes="csc" /><g
       id="text88"
       style="font-weight:600;font-size:50.4297px;font-family:'Lucida Bright';-inkscape-font-specification:'Lucida Bright, Semi-Bold';stroke-width:4.20248"
       transform="translate(1.6521491,8.2607457)"
       aria-label="REPUBLIQUE DU MALI"><path
         d="m 55.068421,188.59543 8.000785,3.70105 q 2.972358,1.37497 3.796215,1.29485 0.834194,-0.10246 1.804003,-1.9057 l 0.208435,-0.39194 2.078416,0.96145 -6.120179,13.23034 -2.078416,-0.96144 0.174076,-0.43496 q 0.887712,-2.32958 0.491064,-3.05568 -0.418997,-0.73644 -3.413704,-2.12175 l -20.136053,-9.31466 q -2.994707,-1.38531 -3.804881,-1.21747 -0.799836,0.14549 -2.033114,2.34234 l -0.218774,0.41428 -2.056067,-0.9511 4.455738,-9.63223 1.780137,-4.14148 0.896074,-2.0544 q 4.734868,-10.23564 13.115578,-6.35883 3.41933,1.58173 5.05427,4.26432 1.634939,2.68259 1.452801,6.47805 l 11.971844,-2.3028 q 4.324374,-0.90261 5.10551,-1.30093 0.791475,-0.42067 1.771621,-2.24625 l 0.218773,-0.41429 2.078416,0.96145 -4.55912,9.85571 -18.720504,2.4638 z m -2.212507,-1.02348 0.568597,-1.22917 q 1.623088,-3.50873 0.495781,-6.52624 -1.127307,-3.01751 -4.725425,-4.68195 -6.436385,-2.97739 -9.372417,3.3696 l -1.157872,2.50304 z m 42.906253,-38.10519 -15.208042,23.27177 -1.916984,-1.25274 0.235325,-0.40512 q 1.216217,-2.17617 0.929081,-2.95213 -0.307749,-0.78942 -3.069855,-2.59445 l -18.572068,-12.1368 q -2.762105,-1.80503 -3.588056,-1.75648 -0.812481,0.028 -2.35136,2.02268 l -0.276549,0.37817 -1.896371,-1.23927 14.628816,-22.38542 5.462373,3.56964 -1.993614,3.05069 -0.418582,-0.21471 q -1.091661,-0.62515 -1.277175,-0.74639 -1.154313,-0.75434 -1.847816,-0.41332 -0.680034,0.32041 -1.932778,2.23739 l -4.283576,6.55485 11.584353,7.57034 2.774896,-4.24622 q 1.602973,-2.45291 1.708293,-2.88415 0.11879,-0.45185 -1.647576,-1.665 l -0.364702,-0.29716 1.414389,-2.16434 6.616685,4.32399 -1.414388,2.16433 -0.39797,-0.20124 q -1.655346,-1.02293 -2.211703,-0.6217 -0.556357,0.40122 -1.916863,2.48311 l -2.869188,4.39051 9.152051,5.98084 q 3.421713,2.23608 4.173797,1.58036 0.555542,-0.49001 2.30669,-3.16966 l 1.670325,-2.55598 q 2.020555,-3.09191 1.974443,-3.65152 -0.05325,-0.5937 -2.522082,-2.4424 l -0.378171,-0.27655 1.993614,-3.05068 z m -2.647103,-20.28447 5.937971,5.02859 q 2.555585,2.1642 3.394245,2.16454 0.83866,3.4e-4 2.94631,-2.18365 l 0.32115,-0.34112 1.74756,1.47994 -10.216308,12.06385 -1.747567,-1.47993 0.28356,-0.37295 q 1.475702,-2.00929 1.286609,-2.81477 -0.207884,-0.82139 -2.725884,-2.95376 L 77.411976,125.43518 q -2.518,-2.13238 -3.343623,-2.18622 -0.809711,-0.0726 -2.583191,1.71676 l -0.321143,0.34111 -1.728777,-1.46402 7.256447,-8.56871 2.945477,-3.66866 1.299132,-1.61027 q 6.954094,-8.21169 14.320185,-1.97369 4.585015,3.88283 4.429759,8.75277 -0.174048,4.85403 -5.107158,10.67926 z m -1.860314,-1.57542 0.938883,-1.10867 q 2.705254,-3.19448 2.329105,-6.25574 -0.37615,-3.06125 -3.814911,-5.97338 -5.825225,-4.93311 -10.455984,0.53508 l -1.718632,2.02944 z m 1.339126,-30.830165 11.583234,-10.282014 1.50389,1.694209 -0.31513,0.312654 q -1.74759,1.814676 -1.67454,2.638822 0.0915,0.807799 2.28191,3.275451 l 10.46183,11.785803 q 4.36454,4.91689 7.61334,5.72072 3.26722,0.78748 6.67405,-2.23665 3.62782,-3.22028 3.33788,-6.84813 -0.28787,-3.662619 -4.57068,-8.487431 l -10.33105,-11.63848 q -2.19045,-2.467652 -3.00011,-2.637934 -0.79125,-0.186628 -2.8188,1.34975 l -0.34782,0.275824 -1.50389,-1.69421 8.56312,-7.60117 1.50389,1.694209 -0.31513,0.312654 q -1.72917,1.79833 -1.63771,2.606129 0.0915,0.807799 2.28192,3.275451 l 9.93873,11.196512 q 5.21457,5.874485 5.14366,10.876266 -0.0546,5.0202 -5.395,9.76071 -11.23335,9.97143 -21.04131,-1.07776 L 100.37892,99.612181 q -2.190443,-2.467652 -3.016455,-2.656349 -0.826011,-0.188696 -2.784037,1.351819 l -0.382585,0.273754 z M 151.20028,72.685028 q 4.82111,-1.938311 8.29056,-1.260935 3.46946,0.677377 5.59444,3.936364 2.47467,3.795277 1.20901,7.354351 -1.2791,3.538449 -6.33259,6.833518 l -14.29417,9.320339 -1.25078,-1.918265 0.37846,-0.276162 q 1.98913,-1.502761 2.03853,-2.328662 0.0359,-0.846527 -1.76625,-3.610479 L 132.9497,72.150618 q -1.8022,-2.763952 -2.57786,-3.051882 -0.75503,-0.301379 -2.96653,0.905433 l -0.40535,0.23491 -1.23734,-1.897638 14.23229,-9.279992 q 4.4347,-2.891591 7.74458,-2.639289 3.3305,0.238853 5.54963,3.642226 1.7215,2.640192 1.1975,5.803872 -0.50338,3.15023 -3.28634,6.81677 z m -5.66259,5.426583 5.64869,8.663131 q 1.51977,2.330795 2.52051,2.648339 0.98729,0.296918 2.90556,-0.953863 2.45455,-1.600462 2.91751,-4.136423 0.46297,-2.535962 -1.21819,-5.114274 -1.93669,-2.970217 -5.121,-3.480771 -3.17713,-0.544629 -6.37424,1.540006 z m -1.33148,-2.042024 1.25822,-0.820405 q 3.07335,-2.00394 3.60447,-4.525547 0.51766,-2.542233 -1.48628,-5.615582 -1.856,-2.846457 -4.31036,-3.274441 -2.45436,-0.427983 -5.50708,1.562508 l -1.27884,0.833854 z m 53.78997,-6.703056 -25.19486,12.096086 -0.99113,-2.064424 0.4111,-0.224688 q 2.16741,-1.231779 2.32363,-2.044275 0.14555,-0.834694 -1.28253,-3.809241 l -9.60227,-20.000501 q -1.42808,-2.974548 -2.15979,-3.36075 -0.70952,-0.39686 -3.05898,0.512605 l -0.43242,0.180291 -0.98048,-2.042226 13.96261,-6.70347 0.98048,2.042226 -0.38891,0.214031 q -2.20115,1.275291 -2.35736,2.087787 -0.13401,0.801839 1.29407,3.776386 l 9.60227,20.000502 q 1.76912,3.684887 2.75207,3.513429 0.72901,-0.131478 3.61476,-1.516932 l 2.75257,-1.321511 q 1.68706,-0.809958 3.08907,-1.701585 0.71211,-0.451143 0.68809,-1.013219 -0.024,-0.562077 -1.8784,-4.424549 l -0.1803,-0.432421 3.28533,-1.577287 z m 16.09148,-5.627794 -14.54337,5.327404 -0.78768,-2.150292 0.43084,-0.184045 q 2.27597,-1.017284 2.50972,-1.810955 0.22528,-0.816793 -0.90965,-3.915065 l -7.63115,-20.832407 q -1.13493,-3.098271 -1.82604,-3.553157 -0.66799,-0.463355 -3.09413,0.215577 l -0.44778,0.137802 -0.7792,-2.127172 14.54337,-5.327405 0.77921,2.127172 -0.40771,0.175575 q -2.31375,1.057344 -2.5475,1.851016 -0.21063,0.785202 0.9243,3.883473 l 7.63115,20.832407 q 1.13493,3.098271 1.83451,3.576279 0.69111,0.454885 3.10878,-0.247168 l 0.42466,-0.129332 z m 24.63375,-6.201319 q -1.80271,0.819037 -3.64494,1.267548 -8.37375,2.038689 -14.41235,-1.737176 -6.02049,-3.805615 -8.12908,-12.466473 -2.10276,-8.636933 1.49461,-14.784128 3.59736,-6.147194 11.9472,-8.180058 8.3259,-2.027039 14.3464,1.778576 6.02049,3.805615 8.12325,12.442548 1.58436,6.507606 -0.0351,11.51434 -1.62531,4.98281 -6.44863,8.488673 6.71831,1.050722 17.57589,-0.883074 l -4.86746,5.822835 q -7.58399,-0.130354 -15.94976,-3.263611 z m 1.90744,-19.75052 q -1.98045,-8.134508 -5.50672,-11.58433 -3.50235,-3.455648 -8.57445,-2.220785 -5.04818,1.229038 -6.59984,5.889799 -1.55748,4.636835 0.41131,12.723492 1.98627,8.158433 5.51836,11.632181 3.52628,3.449822 8.57446,2.220784 5.0721,-1.234863 6.59983,-5.889799 1.54584,-4.684685 -0.42295,-12.771342 z m 10.85589,-20.798454 15.40748,-1.581281 0.23129,2.253559 -0.4384,0.06975 q -2.4784,0.452385 -2.90043,1.164035 -0.39753,0.709136 -0.0607,3.991494 l 1.60894,15.676934 q 0.67122,6.540221 2.83892,9.09011 2.19219,2.547374 6.7238,2.082291 4.82556,-0.49525 6.70898,-3.609427 1.90541,-3.141187 1.24675,-9.558932 l -1.58882,-15.480972 q -0.33687,-3.282358 -0.89465,-3.89345 -0.53329,-0.613605 -3.07641,-0.550629 l -0.44342,0.02076 -0.23129,-2.253559 11.39027,-1.168992 0.23129,2.253559 -0.4384,0.06975 q -2.45391,0.449872 -2.85144,1.159008 -0.39753,0.709136 -0.0607,3.991494 l 1.52849,14.893087 q 0.80195,7.813972 -2.1768,11.832666 -2.97623,4.043189 -10.07984,4.772238 -14.94208,1.533516 -16.45046,-13.163609 L 256.1481,23.836793 q -0.33687,-3.282358 -0.89716,-3.917945 -0.5603,-0.635587 -3.0494,-0.528648 l -0.47044,-0.0012 z m 69.63722,32.812875 -27.79982,-0.172926 0.0143,-2.289976 0.46799,-0.02171 q 2.48804,-0.156894 2.98464,-0.818663 0.49676,-0.686391 0.51728,-3.985927 l 0.13801,-22.185683 q 0.0205,-3.299536 -0.46781,-3.967431 -0.46371,-0.667742 -2.97407,-0.880352 l -0.46769,-0.02753 0.0141,-2.265353 26.74101,0.16634 -0.0406,6.525201 -3.64426,-0.02267 -0.0463,-0.468151 q -0.0661,-1.256253 -0.0647,-1.477863 0.009,-1.378911 -0.6538,-1.777021 -0.63776,-0.397956 -2.92773,-0.412201 l -7.83025,-0.04871 -0.0861,13.838351 5.07242,0.03155 q 2.93019,0.01823 3.34971,-0.12691 0.44414,-0.144983 0.50671,-2.286912 l 0.0522,-0.467539 2.58545,0.01608 -0.0492,7.904111 -2.58546,-0.01608 -0.0465,-0.443528 q -0.0371,-1.945555 -0.67582,-2.195771 -0.63868,-0.250216 -3.12564,-0.265686 l -5.24479,-0.03262 -0.068,10.93279 q -0.0254,4.087484 0.9332,4.364315 0.71285,0.201429 3.91389,0.221341 l 3.0533,0.01899 q 3.69351,0.02298 4.13888,-0.318996 0.47014,-0.366441 0.68627,-3.44314 l 0.0275,-0.467692 3.64426,0.02267 z"
         id="path4"
         inkscape:label="PUKIMAK" /><path
         d="m 339.39213,50.992937 0.45807,-2.243741 0.46332,0.06946 q 2.47123,0.328584 3.08674,-0.224316 0.62044,-0.577026 1.28045,-3.809942 l 4.4378,-21.737743 q 0.66001,-3.232916 0.31047,-3.982833 -0.32541,-0.744991 -2.74688,-1.440395 l -0.45347,-0.117709 0.45313,-2.219614 11.70123,2.388831 5.20192,0.986588 1.9109,0.364983 q 8.42006,1.718973 12.04458,7.108308 3.60041,5.384409 1.91099,13.659709 -1.73375,8.492437 -7.3762,12.618191 -5.6134,4.106553 -13.3338,2.530417 z m 18.0739,-31.042291 -5.37857,26.345855 q -0.6009,2.943401 0.13416,3.897681 0.76411,0.93508 4.26241,1.649267 5.91093,1.206729 9.67195,-2.197325 3.76595,-3.42818 5.40612,-11.462218 1.63524,-8.009912 -0.9613,-12.033317 -2.56748,-4.042606 -10.38438,-5.638444 z m 33.80124,5.093398 14.4378,5.60723 -0.82014,2.111729 -0.42208,-0.137507 q -2.41258,-0.725652 -3.11234,-0.284196 -0.67681,0.450371 -1.87136,3.52615 l -5.70529,14.690289 q -2.38017,6.128606 -1.61117,9.385824 0.79195,3.266133 5.03836,4.915318 4.52186,1.75616 7.61664,-0.158971 3.12665,-1.929169 5.46225,-7.943006 l 5.63397,-14.506661 q 1.19455,-3.075779 0.97617,-3.873816 -0.19543,-0.789123 -2.48833,-1.890946 l -0.40425,-0.183415 0.82014,-2.111729 10.67341,4.145249 -0.82014,2.11173 -0.42208,-0.137508 q -2.38962,-0.716738 -3.06643,-0.266367 -0.67681,0.450371 -1.87136,3.52615 l -5.42002,13.955775 q -2.84373,7.322191 -7.32555,9.543939 -4.49073,2.244702 -11.14727,-0.340508 -14.00168,-5.437854 -8.65297,-19.21 l 5.53591,-14.254172 q 1.19455,-3.075779 0.98508,-3.896769 -0.20946,-0.820991 -2.47429,-1.859078 l -0.41829,-0.215283 z m 57.98288,25.799325 9.81305,7.146551 -5.72626,25.01215 22.20741,-13.009423 8.85762,6.450741 -1.33363,1.831239 -0.39269,-0.25552 q -2.16616,-1.333855 -2.95565,-1.086347 -0.76958,0.262004 -2.71205,2.929244 l -13.06094,17.934198 q -1.94247,2.667238 -1.95026,3.514498 0.007,0.82735 1.91561,2.43078 l 0.36369,0.29533 -1.34813,1.85114 -11.54477,-8.407704 1.34814,-1.851144 0.39268,0.25552 q 1.74448,1.118145 2.46885,0.792748 0.74427,-0.310901 2.70124,-2.998045 l 12.72752,-17.476389 -23.73553,13.267311 -1.97058,-1.435108 6.46124,-27.736299 -13.62628,18.710485 q -1.92798,2.647335 -2.00998,3.471006 -0.082,0.823671 1.49761,2.126367 l 0.34379,0.280833 -1.34813,1.851144 -8.83772,-6.436245 1.34813,-1.851144 0.39269,0.25552 q 2.11185,1.324768 2.90134,1.07726 0.80399,-0.267413 2.74646,-2.934652 l 13.06093,-17.934199 q 1.94248,-2.667239 1.93577,-3.494589 0.0132,-0.812853 -1.90111,-2.450688 l -0.3637,-0.29533 z m 29.31078,55.620421 -4.11307,1.34982 q -3.0413,1.01356 -3.81034,1.74136 -0.59019,0.55854 0.47612,1.68527 0.13445,0.17789 0.58952,0.7304 l 0.3037,0.35673 -1.66327,1.57408 -6.6856,-7.06444 1.66327,-1.57407 0.33947,0.32288 q 1.44347,1.34614 2.15756,1.3484 0.73101,0.0201 4.58157,-1.28465 l 30.82334,-10.490091 1.74333,1.842118 -12.12154,30.287433 q -1.42925,3.82749 -1.44843,4.52369 -0.002,0.71409 1.2943,2.33488 l 0.20214,0.24943 -1.66327,1.57407 -10.44307,-11.03482 1.66327,-1.57408 0.33947,0.32288 q 2.2757,2.11806 2.86398,1.62914 0.57039,-0.472 1.8789,-3.71059 l 1.59021,-3.97982 z m 2.54916,-0.85294 8.98747,9.49675 5.71377,-14.56105 z m 26.68396,54.28033 -16.2261,-22.75544 1.86454,-1.32954 0.29168,0.36663 q 1.58425,1.92486 2.41149,1.93984 0.84729,6.9e-4 3.53383,-1.91499 l 18.06402,-12.88081 q 2.68654,-1.91568 2.94194,-2.70265 0.26969,-0.76692 -1.02812,-2.92627 l -0.25158,-0.39523 1.84449,-1.31524 8.99226,12.61072 -1.84449,1.31525 -0.27738,-0.34659 q -1.63289,-1.95066 -2.46013,-1.96564 -0.81295,0.005 -3.49949,1.92075 l -18.06401,12.8808 q -3.32811,2.37316 -2.9911,3.31232 0.25419,0.69578 2.11269,3.30213 l 1.77272,2.48606 q 1.0865,1.52371 2.20474,2.75262 0.56626,0.62447 1.11595,0.5047 0.54969,-0.11978 4.03819,-2.60731 l 0.39522,-0.25158 2.11583,2.96723 z"
         id="path5"
         inkscape:label="ANJING" /><path
         d="m 516.19633,174.7202 -7.81254,-13.37368 1.97734,-1.15511 0.25726,0.39155 q 1.40331,2.0605 2.22579,2.15038 0.84374,0.0775 3.69282,-1.58689 l 19.1569,-11.19094 q 2.84908,-1.66435 3.17474,-2.42495 0.33807,-0.73933 -0.75873,-3.0074 l -0.21473,-0.41639 1.95609,-1.14269 7.81254,13.37368 -1.95609,1.14269 -0.24483,-0.37029 q -1.44941,-2.0906 -2.27189,-2.18049 -0.81006,-0.0686 -3.65915,1.59574 l -19.15689,11.19094 q -2.84908,1.66436 -3.196,2.43737 -0.32566,0.76059 0.79241,3.01624 l 0.2023,0.39513 z"
         id="path6"
         inkscape:label="IKHWAN" /></g></g><path
     style="fill:none;fill-opacity:1;stroke:none;stroke-width:1.17562;stroke-opacity:1"
     d="m 16.899954,385.14593 c 0,0 75.665685,215.9938 286.189656,205.69955 306.2044,-14.97286 295.82717,-350.56976 295.82717,-350.56976"
     id="path87-8"
     sodipodi:nodetypes="csc" /><path
     d="m 45.280683,373.79201 1.815019,-0.81953 q 1.839043,4.4762 3.341521,7.80373 0.956122,2.11753 2.853759,5.91695 l -1.815019,0.81954 q -0.897584,-1.98788 -1.614043,-2.65286 -0.23487,-0.23212 -0.572209,-0.2879 -0.409823,-0.10109 -1.161892,0.13444 -1.268551,0.41671 -7.055138,2.92547 -4.026634,1.7401 -8.153643,3.60356 -3.392357,1.53175 -4.640075,3.03158 -1.22611,1.49008 -1.330787,3.33222 -0.126342,2.65831 1.024907,5.20798 1.570772,3.47879 3.545252,4.79833 1.97448,1.31954 4.2669,1.03881 2.29242,-0.28072 9.077136,-3.34421 l 7.984973,-3.63146 q 2.691166,-1.24115 3.12403,-1.72274 0.243965,-0.26623 0.248872,-0.65864 0.06835,-0.65516 -0.949065,-3.36932 l 1.81502,-0.81953 q 1.107317,2.85565 2.170759,5.21085 0.917096,2.03109 2.404967,4.92301 l -1.815019,0.81953 q -0.965878,-2.13913 -1.685149,-2.46467 -0.709515,-0.30394 -2.746175,0.48561 -4.947372,1.94774 -11.072016,4.68718 -3.910935,1.7659 -5.16973,2.20421 -3.089137,1.1087 -5.753015,0.85481 -2.642271,-0.26365 -5.271861,-2.45796 -2.62959,-2.19431 -4.512564,-6.36453 -1.961026,-4.34308 -1.962178,-7.80225 -0.0012,-3.45916 1.418765,-5.557 1.441523,-2.10759 5.266028,-3.83447 l 9.772101,-4.28232 q 1.166798,-0.52684 5.893247,-2.79103 1.471396,-0.7164 1.884748,-1.24121 0.224452,-0.30944 0.231453,-0.75482 0.01676,-0.42377 -0.859879,-2.94136 z m -12.626883,47.4805 1.717349,-1.00829 q 1.566639,2.43423 2.043602,2.73153 0.331605,0.1902 0.783632,0.11725 0.622709,-0.0632 3.623191,-1.74235 4.978733,-2.75815 7.472979,-4.22257 l 8.624074,-5.11833 q 3.434699,-2.01657 3.834222,-2.55355 0.234649,-0.30272 0.221718,-0.65253 0.0053,-0.55293 -1.354292,-3.38366 l 1.717349,-1.00829 q 1.794316,3.29027 2.706575,4.84407 1.008286,1.71735 2.394874,3.84491 -3.249939,8.23126 -6.801905,18.28938 -2.385609,6.7066 -3.771827,11.36936 l 8.096076,-4.75335 q 4.600043,-2.70077 7.860499,-4.77999 1.935116,-1.24611 2.240857,-1.75552 0.173315,-0.26671 0.08348,-0.65384 -0.08983,-0.38713 -1.394253,-3.0303 l 1.71735,-1.00828 q 1.206148,2.28848 2.502516,4.4965 1.776505,3.02581 3.319137,5.41915 l -1.71735,1.00828 q -1.487494,-2.20577 -1.947574,-2.56797 -0.258267,-0.20576 -0.538296,-0.26129 -0.280029,-0.0555 -0.614268,0.0307 -0.574695,0.14497 -3.244501,1.68497 l -8.213865,4.74003 -8.263195,4.79649 q -3.312031,1.94455 -6.540038,4.03221 l -0.44227,-0.0977 q -1.00263,-2.73788 -1.459688,-3.84413 2.741845,-8.67524 7.184243,-21.29056 2.248303,-6.37856 3.938169,-10.47731 l -7.952964,4.66933 q -3.250697,1.90854 -7.770278,4.69953 -3.337355,2.04189 -3.716434,2.56687 -0.176877,0.21381 -0.167507,0.51073 0.0032,0.52048 1.319598,3.18409 l -1.71735,1.00829 Q 36.626,427.71032 35.785761,426.2792 35.089563,425.09341 32.6538,421.27251 Z m 27.833647,44.91399 1.580844,-1.21114 q 1.88516,2.10976 2.304049,2.26669 0.285938,0.13933 0.654741,0.036 0.614673,-0.17227 4.097508,-2.72113 3.497252,-2.53004 6.715398,-4.99558 6.003441,-4.59945 8.480793,-6.7065 2.491771,-2.08824 2.576609,-2.60122 0.09926,-0.49417 -0.844768,-1.92127 l -0.742167,-1.16363 1.580844,-1.21114 1.553996,2.18428 q 1.457468,2.01931 2.351406,3.18613 1.22556,1.59966 4.063546,5.07005 1.545951,1.86192 2.238032,2.76526 2.580885,3.3687 3.166582,5.45859 0.60011,2.1087 -0.064,3.93163 -0.649726,1.84175 -2.588141,3.32684 -3.500439,2.68181 -7.774927,2.01434 -4.24125,-0.66307 -7.168176,-4.48344 -0.374877,-0.48931 -0.717731,-1.09275 -0.342854,-0.60344 -0.686923,-1.32541 0.432392,-0.839 0.798309,-1.68679 l 0.802111,0.0724 q 0.223106,0.48612 0.426178,0.86813 0.21749,0.40083 0.433765,0.68312 1.456254,1.90078 3.677579,2.11036 2.240144,0.19517 4.592589,-1.60713 2.61592,-2.00415 2.944039,-4.22669 0.346939,-2.23695 -1.49861,-4.64586 -0.749755,-0.97862 -2.022513,-2.09413 -5.955028,4.23384 -9.982416,7.31937 -1.355008,1.03812 -8.522833,6.76858 -2.836139,2.26247 -3.16806,2.72582 -0.247841,0.33921 -0.177721,0.70362 0.110188,0.57263 2.074729,3.48769 l -1.580844,1.21114 q -2.420312,-3.43199 -4.164932,-5.70916 -0.778591,-1.01625 -5.408855,-6.78703 z m 19.114506,24.5373 0.947187,-0.86129 q 1.266311,0.54685 2.529398,0.80824 3.055314,-2.13736 11.825568,-10.11225 5.981314,-5.43887 7.816664,-7.33208 0.98704,-0.99366 0.96305,-1.54864 0.01,-0.55338 -1.88698,-3.02664 l 1.47341,-1.33978 q 3.60628,4.28311 5.7914,6.68616 l 8.89358,9.56912 q 1.38763,1.52602 2.38133,2.86551 l -0.0813,0.29823 q -2.26281,1.35263 -5.59714,4.06414 l -1.26003,-1.3857 q 2.48116,-2.41637 2.54492,-2.69865 0.0797,-0.26474 -0.38447,-1.09237 -1.0081,-1.74296 -3.73552,-4.74239 -1.33978,-1.4734 -3.24894,-3.32629 -5.62736,4.70046 -8.869174,7.58419 1.583844,1.98848 3.083124,3.63729 2.21702,2.43813 2.82148,2.78571 0.37639,0.20249 0.89147,-0.0416 0.41142,-0.18185 2.4334,-1.7641 l 1.37168,1.50848 q -3.0441,2.60781 -3.93866,3.42125 l -3.86687,3.6764 -1.37168,-1.50848 q 2.18616,-2.2122 2.36152,-2.72415 0.11479,-0.29664 -0.13245,-0.74474 -0.60455,-1.05247 -3.395759,-4.12206 -0.877238,-0.96472 -2.162765,-2.16702 -0.961547,0.81025 -1.926275,1.68749 -5.016584,4.56164 -7.558325,7.19331 l 3.105436,3.52087 q 2.695513,2.96435 5.244212,5.13292 2.012471,-1.02887 4.431556,-2.49156 l 1.32383,1.45586 q -3.453972,2.40373 -6.359334,4.91744 -1.626835,-1.43669 -2.966617,-2.91009 -0.877238,-0.96473 -3.390941,-3.87009 -2.338255,-2.71242 -4.363878,-4.94006 -2.663614,-2.92927 -5.737107,-6.06261 z m 39.411257,-2.71324 1.32447,-1.48718 q 3.50134,3.34052 6.22784,5.76872 1.73503,1.54522 5.01451,4.24369 l -1.32448,1.48717 q -1.62881,-1.45061 -2.55386,-1.76651 -0.309,-0.11646 -0.63984,-0.0301 -0.4155,0.0744 -1.00665,0.59559 -0.98921,0.89685 -5.2542,5.54317 -2.97011,3.22803 -5.98172,6.60959 -2.47551,2.7796 -3.00494,4.65736 -0.51367,1.86006 0.1403,3.58539 0.9663,2.47968 3.05543,4.34026 2.85043,2.53858 5.19099,2.94048 2.34056,0.40191 4.32037,-0.78735 1.97982,-1.18926 6.93083,-6.74847 l 5.8163,-6.56642 q 1.95324,-2.22883 2.15268,-2.84489 0.11452,-0.34246 -0.0407,-0.70291 -0.20416,-0.62628 -2.23797,-2.69156 l 1.32447,-1.48718 q 2.17351,2.15795 4.1033,3.87661 1.66422,1.48215 4.20011,3.51838 l -1.32448,1.48718 q -1.75274,-1.56099 -2.54224,-1.56568 -0.7718,0.0111 -2.31093,1.56105 -3.72669,3.79236 -8.20661,8.78696 -2.85393,3.20451 -3.82544,4.11713 -2.37068,2.26977 -4.90735,3.12183 -2.5209,0.83435 -5.81584,-0.10005 -3.29494,-0.93441 -6.71191,-3.97755 -3.5586,-3.16928 -4.96724,-6.32863 -1.40864,-3.15936 -0.96525,-5.65345 0.45917,-2.5118 3.25003,-5.64549 l 7.18393,-7.88818 q 0.85145,-0.95604 4.24756,-4.94757 1.05255,-1.25315 1.21658,-1.90074 0.0791,-0.374 -0.0957,-0.78368 -0.15713,-0.39392 -1.98235,-2.33693 z m 8.07204,48.52066 1.1441,-1.63002 q 2.43178,1.44617 2.87846,1.47004 0.31458,0.047 0.63531,-0.16234 0.53456,-0.34892 3.09106,-3.82615 2.57591,-3.46361 4.90497,-6.78187 4.34486,-6.19019 6.075,-8.94402 1.74954,-2.7402 1.67639,-3.25499 -0.0537,-0.50116 -1.3828,-1.57884 l -1.05739,-0.887 1.1441,-1.63002 2.13828,1.61671 q 1.99667,1.48834 3.19978,2.33279 1.64942,1.15772 5.39869,3.61552 2.03379,1.31164 2.96523,1.96541 3.47349,2.43803 4.65983,4.25552 1.20574,1.83111 1.11976,3.76934 -0.0666,1.95186 -1.46945,3.95058 -2.53337,3.60932 -6.81098,4.25648 -4.24458,0.64138 -8.1838,-2.12353 -0.50453,-0.35413 -1.01279,-0.82674 -0.50827,-0.4726 -1.05329,-1.05791 0.16044,-0.93012 0.25484,-1.84868 l 0.78682,-0.17185 q 0.35881,0.39667 0.66724,0.70005 0.32783,0.31699 0.61891,0.5213 1.9599,1.37564 4.14162,0.90839 2.19533,-0.48665 3.89786,-2.91228 1.89322,-2.69729 1.53867,-4.91577 -0.34094,-2.23788 -2.82478,-3.98127 -1.00906,-0.70825 -2.55809,-1.39 -4.40849,5.82692 -7.32322,9.97959 -0.98066,1.39716 -6.09645,9.01585 -2.02569,3.00983 -2.20312,3.55149 -0.13452,0.39798 0.0418,0.7245 0.27709,0.5131 3.02645,2.70354 l -1.1441,1.63002 q -3.33935,-2.54662 -5.68735,-4.19466 -1.04787,-0.7355 -7.19757,-4.84918 z m 25.61646,17.57468 0.59316,-1.08073 q 1.43967,0.087 2.85729,-0.0815 3.36149,-5.48398 6.71516,-11.59427 2.63502,-4.80093 4.86954,-9.11854 1.60308,-3.06858 1.62542,-3.65129 0.0444,-0.32722 -0.21972,-0.63443 -0.2319,-0.31659 -2.80825,-2.02812 l 0.9582,-1.74579 q 3.95413,2.30547 7.38337,4.18763 3.32533,1.82512 6.35437,3.35241 l -0.95819,1.7458 q -2.97075,-1.38712 -3.57831,-1.31492 -0.37284,0.0388 -0.81694,0.55225 -0.41191,0.50411 -3.85074,6.62174 l -5.67992,10.05301 q -1.56276,2.84731 -3.47054,6.66815 2.64276,1.63981 3.9521,2.35845 3.92804,2.15593 6.93989,3.02472 1.57841,-1.5947 3.53527,-3.92821 l 1.82893,1.00381 q -2.08843,2.72106 -4.86004,6.93319 -2.13411,-0.7927 -3.79677,-1.70526 l -7.47792,-4.21248 -3.34408,-1.8895 q -2.31632,-1.29837 -6.75128,-3.51617 z m 26.24415,13.98745 0.48261,-1.18578 q 1.37832,-0.0533 2.6305,-0.36279 1.83338,-3.24683 6.30199,-14.22626 3.04759,-7.48797 3.8859,-9.98796 0.46142,-1.32239 0.20022,-1.81264 -0.2303,-0.50327 -3.0086,-1.9156 l 0.75072,-1.84454 q 5.10186,2.30681 8.11022,3.53121 l 12.15295,4.79265 q 1.91042,0.77754 3.38498,1.55686 l 0.0554,0.30411 q -1.45725,2.19689 -3.29447,6.08207 l -1.73475,-0.70604 q 1.19504,-3.25068 1.1307,-3.53283 -0.0424,-0.27321 -0.81834,-0.81939 -1.66172,-1.13705 -5.41668,-2.66531 -1.84455,-0.75073 -4.3665,-1.59798 -3.04706,6.6691 -4.72649,10.6697 2.28704,1.10999 4.35117,1.95009 3.05228,1.24227 3.74756,1.29488 0.42693,0.0202 0.78619,-0.42231 0.29263,-0.34164 1.43352,-2.6417 l 1.88846,0.7686 q -1.62019,3.66636 -2.07598,4.78627 l -1.90108,4.98542 -1.88846,-0.7686 q 1.01706,-2.93917 0.95426,-3.47665 -0.0245,-0.31713 -0.44096,-0.61461 -0.99963,-0.68841 -4.84243,-2.25242 -1.20774,-0.49155 -2.88632,-1.02115 -0.51759,1.14595 -1.00913,2.35369 -2.55605,6.28023 -3.71279,9.75126 l 4.32104,1.83545 q 3.71105,1.51039 6.94616,2.36634 1.37119,-1.79679 2.9219,-4.16042 l 1.82258,0.74179 q -2.078,3.6592 -3.61366,7.18079 -2.08763,-0.5937 -3.93217,-1.34442 -1.20774,-0.49155 -4.72933,-2.02722 -3.28003,-1.43735 -6.06881,-2.57238 -3.66713,-1.49251 -7.79208,-2.99218 z m 38.962,4.57067 -0.21133,-0.51808 q 1.42509,-1.76712 2.73185,-4.42006 4.21139,1.23628 6.90055,1.91638 2.82706,0.71499 6.49926,1.47254 l 0.20552,0.54106 q -1.37939,1.87649 -2.81797,4.37382 -3.78051,-1.10284 -6.79145,-1.86433 -3.07988,-0.77893 -6.51643,-1.50133 z m 29.16911,-15.43726 0.19464,-1.98193 q 4.79704,0.63786 8.43058,0.9947 2.31225,0.22708 6.55187,0.47669 l -0.19464,1.98192 q -2.17068,-0.21317 -3.10435,0.0763 -0.31831,0.0879 -0.53487,0.35244 -0.29198,0.30483 -0.46282,1.07418 -0.27133,1.30738 -0.98207,7.57423 -0.49945,4.35801 -0.94203,8.86454 -0.36379,3.70432 0.31414,5.53373 0.68025,1.8058 2.22485,2.81509 2.24126,1.43502 5.0254,1.70845 3.7987,0.37306 5.92703,-0.68049 2.12834,-1.05355 3.02807,-3.18063 0.89973,-2.12708 1.62731,-9.53572 l 0.83375,-8.73225 q 0.26605,-2.95162 0.0644,-3.56696 -0.10913,-0.34423 -0.44682,-0.54415 -0.53383,-0.38593 -3.39381,-0.85738 l 0.19464,-1.98193 q 3.02746,0.46408 5.59925,0.71664 2.21787,0.21782 5.46653,0.3701 l -0.19464,1.98193 q -2.33585,-0.22939 -2.97669,0.23176 -0.61724,0.46346 -0.94839,2.62256 -0.77858,5.25966 -1.45792,11.93456 -0.41941,4.27058 -0.66714,5.58028 -0.5793,3.23054 -2.12767,5.41303 -1.54605,2.1589 -4.7593,3.34412 -3.21325,1.18522 -7.76697,0.73801 -4.74248,-0.46575 -7.7415,-2.18959 -2.99903,-1.72384 -4.10946,-4.0007 -1.10811,-2.30044 -0.69797,-6.47665 l 1.16068,-10.6059 q 0.12513,-1.27409 0.51925,-6.50004 0.11269,-1.63265 -0.13611,-2.25263 -0.15631,-0.34886 -0.53888,-0.57701 -0.35897,-0.22583 -2.97838,-0.72129 z m 34.87772,34.5802 -0.073,-1.99013 q 2.88608,-0.22445 3.37405,-0.50331 0.32474,-0.2017 0.47494,-0.63424 0.23976,-0.57816 0.18486,-4.01611 -0.0664,-5.69129 -0.17236,-8.58171 l -0.4149,-10.01997 q -0.14596,-3.98025 -0.42917,-4.58669 -0.15518,-0.35017 -0.46926,-0.50471 -0.48426,-0.26693 -3.62116,-0.41286 l -0.073,-1.99012 q 3.74767,-0.0188 5.54826,-0.0848 1.99013,-0.073 4.52083,-0.28441 5.70459,6.76562 12.87414,14.6637 4.77239,5.28147 8.21959,8.71363 l -0.34406,-9.38202 q -0.19548,-5.3307 -0.47925,-9.18728 -0.17905,-2.29465 -0.48247,-2.80544 -0.15257,-0.2791 -0.53599,-0.38365 -0.38342,-0.10456 -3.32904,-0.21006 l -0.073,-1.99012 q 2.58677,0.0238 5.1455,-0.0701 3.50642,-0.12858 6.34511,-0.3513 l 0.073,1.99012 q -2.64742,0.26316 -3.18452,0.49637 -0.30365,0.12975 -0.48536,0.34993 -0.18172,0.22018 -0.26432,0.55534 -0.145,0.57469 -0.0557,3.65552 l 0.27645,9.4794 0.30276,9.5496 q 0.14075,3.83811 0.44734,7.67013 l -0.29583,0.34298 q -2.88584,-0.4161 -4.07653,-0.5385 -6.33645,-6.52893 -15.3348,-16.42392 -4.54873,-5.00499 -7.35538,-8.43691 l 0.33798,9.21618 q 0.13814,3.76702 0.45122,9.06968 0.21443,3.90657 0.49676,4.48932 0.10433,0.25713 0.37015,0.38973 0.45971,0.2441 3.42902,0.34873 l 0.073,1.99012 q -3.84419,-0.0251 -5.50263,0.0357 -1.37413,0.0504 -5.89322,0.38218 z m 54.52156,-3.60095 -0.18855,-1.09821 q 1.19548,-1.0231 1.78414,-1.7977 -0.2732,-3.27265 -2.16664,-14.30143 -1.37194,-7.99119 -2.17523,-11.26906 -0.42572,-1.77913 -0.85173,-2.0187 -0.59428,-0.37907 -3.65594,0.002 l -0.33696,-1.96275 4.50232,-0.67674 3.44685,-0.5196 q 1.56553,-0.26877 4.60642,-0.91111 2.94743,-0.62629 4.23257,-0.84693 5.18726,-0.89055 7.73127,0.47679 2.53999,1.34399 3.05748,4.35821 0.53353,3.10768 -1.34928,5.45153 -1.88281,2.34384 -5.78072,3.87901 l 0.0321,0.18693 q 4.23137,-0.29346 6.05814,0.25889 1.82677,0.55235 3.15975,2.15166 1.33298,1.59931 1.7221,3.86582 0.47737,2.78056 -0.80313,5.5502 -1.25713,2.76564 -3.83642,4.55552 -2.55591,1.78587 -7.62635,2.65637 -1.00474,0.17249 -3.02625,0.44739 -1.88132,0.25082 -3.07299,0.45541 -1.33187,0.22865 -5.46294,1.10627 z m 5.63969,-20.81341 1.21504,-0.2086 q 3.94886,-0.67795 5.29305,-2.37606 1.36756,-1.70213 0.84606,-4.73972 -0.45731,-2.66373 -1.98244,-3.70085 -1.50175,-1.04113 -4.46924,-0.53167 -1.09821,0.18854 -2.65501,0.64825 1.09134,7.19745 1.36814,8.80971 z m 2.89893,16.60524 q 1.4154,0.11782 2.60707,-0.0868 3.31798,-0.56964 4.76887,-2.76717 1.44687,-2.22089 0.81305,-5.91273 -0.41318,-2.4067 -1.49175,-3.78509 -1.0592,-1.40577 -2.6129,-1.90878 -1.53033,-0.50702 -4.14733,-0.0577 l -2.35596,0.42853 0.1043,0.60751 0.99225,6.05984 1.09775,6.11388 z m 12.6022,-30.90931 -0.546,-1.91515 q 4.69658,-1.16642 8.20769,-2.16743 2.23435,-0.63701 6.26994,-1.96012 l 0.54601,1.91515 q -2.09755,0.59801 -2.85992,1.2098 -0.2639,0.1985 -0.36829,0.52409 -0.15979,0.3907 -0.0365,1.16908 0.22721,1.31577 1.86503,7.40642 1.13412,4.23739 2.37564,8.59208 1.02051,3.57951 2.32229,5.03267 1.29529,1.43035 3.10245,1.80263 2.61145,0.51276 5.30178,-0.25425 3.67071,-1.04651 5.26416,-2.80739 1.59344,-1.76088 1.65012,-4.06973 0.0567,-2.30885 -1.98435,-9.46787 l -2.42783,-8.42928 q -0.83531,-2.84343 -1.2486,-3.34192 -0.2278,-0.28019 -0.61529,-0.34228 -0.63819,-0.16319 -3.47172,0.44742 l -0.54601,-1.91515 q 2.98663,-0.67892 5.47177,-1.38742 2.14314,-0.61101 5.22116,-1.66112 l 0.54601,1.91515 q -2.25714,0.64351 -2.68413,1.3076 -0.40418,0.65759 0.0798,2.78764 1.20522,5.17857 3.02195,11.63731 1.17651,4.12669 1.42652,5.43596 0.64622,3.21782 0.006,5.81617 -0.64626,2.57555 -3.20068,4.85693 -2.55442,2.28137 -6.95471,3.53589 -4.58268,1.30651 -8.00501,0.80306 -3.42233,-0.50346 -5.2906,-2.2142 -1.87478,-1.73354 -3.02529,-5.76904 l -2.81104,-10.29224 q -0.35101,-1.23117 -1.90152,-6.23735 -0.49411,-1.56016 -0.953,-2.04564 -0.2734,-0.26719 -0.71299,-0.33909 -0.41679,-0.0784 -3.03533,0.42162 z m 51.11191,16.81359 -0.77167,-1.83589 q 1.24578,-0.52363 2.50897,-1.31175 0.58789,-0.37568 0.74911,-0.72633 0.15203,-0.37251 -0.002,-1.10516 -0.24203,-1.0041 -2.64066,-7.01665 -1.7166,-4.26757 -3.57227,-8.68244 -3.64703,-8.67673 -3.7769,-8.80216 -0.11721,-0.15647 -1.6034,0.46821 -3.03795,1.27692 -5.15003,2.37041 -1.2217,0.6421 -1.35062,0.82487 -0.10705,0.17358 -0.075,0.49445 0.0228,0.29902 1.23608,3.98093 l -1.87959,0.79003 q -1.71091,-4.19282 -3.26276,-7.08948 l 0.16692,-0.2759 q 7.01317,-2.58776 13.52618,-5.32533 6.49116,-2.72838 14.40546,-6.41499 l 0.3874,0.24865 q 0.84329,3.16878 2.35875,7.26372 l -1.81403,0.76248 q -1.73084,-3.56723 -2.05615,-3.79053 -0.25404,-0.17611 -0.83718,-0.0339 -1.86789,0.45079 -7.06955,2.63717 -0.43712,0.18373 -0.46942,0.35161 -0.0231,0.18974 0.39946,1.1951 l 6.04217,14.74218 q 2.68245,6.38188 3.40723,7.80029 0.71558,1.39654 1.25945,1.52798 0.36681,0.0773 3.62427,-0.98331 l 0.77166,1.83589 q -3.2771,1.19742 -6.88329,2.71319 -4.7427,1.99346 -7.62892,3.38663 z m 28.85604,-23.49936 -0.51479,-0.21923 q -0.23164,-2.2583 -1.17087,-5.06251 3.86155,-2.0863 6.25037,-3.49613 2.51133,-1.48213 5.65291,-3.52892 l 0.52684,0.23964 q 0.3411,2.30382 1.07716,5.09029 -3.46157,1.87777 -6.13624,3.4563 -2.73592,1.61468 -5.68538,3.52056 z m 9.85247,-31.44452 -1.2584,-1.54348 q 3.85333,-2.92751 6.68305,-5.23459 1.80073,-1.46814 4.98496,-4.27836 l 1.2584,1.54348 q -1.69048,1.37826 -2.14903,2.24153 -0.16397,0.28663 -0.13119,0.62698 0.008,0.42203 0.42848,1.08833 0.72869,1.11887 4.64014,6.0665 2.71637,3.44428 5.57774,6.95387 2.35202,2.88485 4.12211,3.70527 1.75511,0.80205 3.56229,0.42985 2.60151,-0.56099 4.76974,-2.32875 2.95835,-2.41194 3.72621,-4.65919 0.76787,-2.24726 -0.0925,-4.39056 -0.86036,-2.14331 -5.5644,-7.91301 l -5.56135,-6.7837 q -1.89101,-2.28187 -2.46766,-2.57645 -0.31998,-0.16736 -0.70047,-0.0713 -0.65073,0.1023 -3.0123,1.78299 l -1.25841,-1.54349 q 2.47522,-1.80393 4.47807,-3.43686 1.72724,-1.40821 4.13972,-3.58924 l 1.25841,1.54349 q -1.81911,1.48312 -1.9489,2.26189 -0.11141,0.76379 1.17497,2.52918 3.15362,4.28075 7.37488,9.4958 2.71156,3.32585 3.45863,4.42974 1.86525,2.70052 2.3044,5.34019 0.42417,2.62129 -1.02075,5.72644 -1.44492,3.10514 -4.99126,5.99648 -3.69334,3.01119 -7.03605,3.90117 -3.34271,0.88999 -5.73498,0.0568 -2.40724,-0.85155 -5.05888,-4.10389 l -6.64959,-8.34357 q -0.80897,-0.99224 -4.21165,-4.97817 -1.07044,-1.23791 -1.68384,-1.50252 -0.35673,-0.1374 -0.78895,-0.0297 -0.41385,0.0927 -2.62164,1.58682 z m 49.18254,0.015 -1.47178,-1.34157 q 1.86087,-2.21743 2.00353,-2.76106 0.0834,-0.37306 -0.12016,-0.78319 -0.24482,-0.57604 -2.73747,-2.94441 -4.10924,-3.93818 -6.24682,-5.88666 l -7.44338,-6.72072 q -2.94354,-2.68314 -3.57477,-2.90566 -0.35865,-0.13444 -0.68892,-0.0185 -0.52967,0.15877 -2.83059,2.29588 l -1.47177,-1.34157 q 2.61103,-2.68849 3.82483,-4.02009 1.34157,-1.47177 2.96287,-3.42639 8.82456,0.66564 19.48344,1.07857 7.11228,0.29177 11.97639,0.23447 l -6.93836,-6.32454 q -3.94225,-3.5935 -6.89402,-6.09166 -1.76343,-1.47911 -2.34055,-1.62022 -0.30608,-0.0865 -0.64922,0.11396 -0.34315,0.20048 -2.48125,2.22936 l -1.47177,-1.34157 q 1.82845,-1.82995 3.55333,-3.72223 2.36371,-2.59312 4.19264,-4.77551 l 1.47177,1.34157 q -1.66611,2.07416 -1.87575,2.62089 -0.12002,0.30763 -0.0901,0.59154 0.0299,0.2839 0.21133,0.57758 0.30871,0.50596 2.57048,2.59972 l 6.96054,6.44099 7.02907,6.47139 q 2.83842,2.58731 5.78864,5.05198 l 0.0377,0.45137 q -2.31796,1.76869 -3.23917,2.53295 -9.09808,-0.0488 -22.46316,-0.55467 -6.75828,-0.25781 -11.17366,-0.65762 l 6.81572,6.21275 q 2.78586,2.5394 6.79044,6.02932 2.9389,2.58266 3.55261,2.78921 0.25662,0.1056 0.53742,0.009 0.49619,-0.15722 2.65026,-2.20362 l 1.47178,1.34157 q -2.70997,2.72662 -3.82794,3.9531 -0.92632,1.01623 -3.85415,4.47456 z m 27.79436,-31.66063 -1.04561,-0.7387 q 0.26031,-1.35456 0.2426,-2.64429 -2.74705,-2.52129 -12.42862,-9.36115 -6.60282,-4.66477 -8.84789,-6.04768 -1.18346,-0.74901 -1.72014,-0.60567 -0.54237,0.1103 -2.5474,2.49639 l -1.62651,-1.1491 q 3.40268,-4.44658 5.2768,-7.09933 l 7.42134,-10.75116 q 1.19013,-1.68459 2.28326,-2.94425 l 0.30875,0.0149 q 1.80963,1.91707 5.17755,4.58673 l -1.08069,1.52969 q -2.89542,-1.90042 -3.18481,-1.90168 -0.27571,-0.0206 -0.98348,0.61143 -1.48395,1.3609 -3.82318,4.672 -1.1491,1.6265 -2.54568,3.89093 5.80537,4.47875 9.32146,7.02086 1.59927,-1.9761 2.88516,-3.79623 1.90148,-2.69148 2.11024,-3.35676 0.11638,-0.41125 -0.23321,-0.86143 -0.26646,-0.36241 -2.24824,-1.99472 l 1.17645,-1.66523 q 3.20397,2.40868 4.19149,3.10635 l 4.4251,2.98112 -1.17645,1.66522 q -2.63233,-1.6565 -3.17007,-1.7171 -0.31443,-0.048 -0.69852,0.29025 -0.89698,0.81768 -3.29093,4.20623 -0.75238,1.06497 -1.6485,2.57992 0.99888,0.76375 2.06385,1.51614 5.53786,3.91239 8.65658,5.82544 l 2.76667,-3.79286 q 2.31187,-3.27237 3.87849,-6.22945 -1.43941,-1.74261 -3.39027,-3.78848 l 1.13542,-1.60714 q 3.09328,2.85298 6.17538,5.14654 -1.05122,1.89884 -2.20031,3.52535 -0.75239,1.06497 -3.04595,4.14708 -2.14309,2.86911 -3.88041,5.32823 -2.28451,3.23364 -4.67972,6.91157 z m 22.29307,-33.57153 -1.76072,-0.93048 q 1.38584,-2.67312 1.24116,-3.31269 -0.0743,-0.4683 -1.27776,-1.18473 -3.95447,-2.41158 -9.29951,-5.23624 -3.96163,-2.09358 -8.54458,-4.38144 -4.60392,-2.29893 -5.42855,-2.41294 -0.38088,-0.0404 -0.6285,0.12371 -0.41888,0.23449 -1.92809,2.73515 l -1.76072,-0.93048 q 2.0433,-3.61278 3.43902,-6.25387 2.03819,-3.85681 4.17097,-8.14631 1.38941,-2.83212 2.39743,-4.73957 0.72002,-1.36246 1.45741,-2.55485 l 0.55095,0.023 q 2.42942,1.84698 5.97933,3.85705 l -0.93048,1.76072 -2.33144,-1.01757 q -1.10225,-0.50205 -1.45466,-0.39333 -0.36231,0.0767 -1.32278,1.28526 -0.94939,1.18762 -2.25649,3.66101 -0.96371,1.82361 -1.84954,3.95652 3.42055,2.1026 4.88782,2.878 l 4.52876,2.33966 0.95313,0.53051 q 0.70655,-1.2355 1.64811,-3.01718 1.6948,-3.20703 1.89146,-3.93436 0.0934,-0.37969 -0.0806,-0.65934 -0.31833,-0.46319 -2.42073,-1.76194 l 0.95263,-1.80264 q 1.81134,1.03767 3.63494,2.00138 1.7188,0.90833 5.50404,2.82825 l -0.95263,1.80264 q -2.81354,-1.27234 -3.39653,-1.28546 -0.318,-0.007 -0.63327,0.33571 -0.80419,0.86212 -2.43253,3.94339 l -1.40918,2.76804 8.09332,4.16977 q 2.95788,1.45588 3.52979,1.48997 0.37099,0.008 0.6728,-0.20756 0.43115,-0.30845 2.22718,-3.3011 l 1.76072,0.93048 q -1.91907,3.27622 -3.46987,6.21075 -1.37356,2.59916 -3.95181,7.8331 z m 20.10503,-40.49476 q -3.33692,8.0868 -9.2514,10.67306 -5.93639,2.57723 -13.21232,-0.4251 -5.08438,-2.09801 -7.77558,-5.64497 -2.71311,-3.556 -3.1005,-8.02455 -0.37835,-4.49047 2.01809,-10.29806 2.306,-5.58843 5.61189,-8.37911 3.28397,-2.79971 7.33613,-3.35892 4.03928,-0.59018 8.77301,1.36315 5.12822,2.1161 8.00761,5.76636 2.85748,3.64122 3.33498,8.32648 0.46462,4.6543 -1.74191,10.00166 z m -2.04514,-1.81849 q 1.81768,-4.405 -0.34967,-8.35133 -2.18022,-3.97728 -8.8206,-6.71736 -6.96911,-2.87572 -11.93364,-1.41065 -4.00621,1.19371 -6.09518,6.25617 -1.95332,4.73373 0.10445,8.63484 2.06681,3.8792 8.5757,6.56501 4.6899,1.93524 8.54311,1.85817 3.83129,-0.0861 6.18202,-1.68081 2.33786,-1.62566 3.79381,-5.15404 z m 9.5586,-19.1185 -1.8931,-0.61813 q 0.85774,-3.16161 0.6296,-3.68501 -0.22813,-0.52341 -1.61853,-1.07715 -2.92336,-1.12911 -11.03667,-3.77824 -3.1101,-1.0155 -9.04422,-2.85333 -4.04883,-1.27213 -4.47611,-1.262 -0.44982,0.003 -0.7405,0.28195 -0.4098,0.41486 -1.54672,3.2858 l -1.89311,-0.61813 q 1.69619,-4.58375 2.49829,-7.04027 1.38343,-4.23695 2.32166,-7.72144 l 1.8931,0.61813 q -0.82048,3.1239 -0.63742,3.63258 0.16788,0.47879 1.2354,0.95205 2.09732,0.90927 8.70065,3.06537 8.78941,2.86989 12.28218,3.93552 3.47023,1.05826 4.23418,0.93361 0.33714,-0.0396 0.65725,-0.40889 0.30493,-0.39923 1.36091,-3.02226 l 1.8931,0.61813 -0.93593,2.63729 q -0.91432,2.4947 -1.56189,4.47796 z"
     id="text1"
     style="font-weight:bold;font-size:48.5538px;font-family:'Book Antiqua';-inkscape-font-specification:'Book Antiqua, Bold';stroke-width:4.04614"
     transform="translate(3.5047376,-8.2607457)"
     aria-label="UN PEUPLE - UN BUT - UNE FOI"
     inkscape:label="Raffa keren bangets (Aku Bukan Raffa)" /><rect
     style="fill:#efd01c;fill-opacity:1;stroke-width:1.64013"
     id="rect13"
     width="24.777733"
     height="2.3337049"
     x="192.70471"
     y="479.28372"
     transform="matrix(0.99980053,0.01997244,-0.0150022,0.99988746,0,0)" /><rect
     style="fill:#efd01c;fill-opacity:1;stroke-width:1.64013"
     id="rect13-5"
     width="24.777733"
     height="2.3337049"
     x="460.04089"
     y="106.43705"
     transform="matrix(0.66749275,0.7446163,-0.741289,0.67118598,0,0)" /><rect
     style="fill:#efd01c;fill-opacity:1;stroke-width:1.64013"
     id="rect13-5-1"
     width="24.777733"
     height="2.3337049"
     x="472.71213"
     y="-6.826695"
     transform="matrix(0.52392013,0.8517674,-0.84915247,0.52814779,0,0)" /><rect
     style="fill:#efd01c;fill-opacity:1;stroke-width:1.64013"
     id="rect13-5-1-7"
     width="24.777733"
     height="2.3337049"
     x="442.49307"
     y="-184.61938"
     transform="matrix(0.2343287,0.97215743,-0.97098057,0.23915839,0,0)" /><rect
     style="fill:#efd01c;fill-opacity:1;stroke-width:1.64013"
     id="rect13-5-1-7-2"
     width="24.777733"
     height="2.3337049"
     x="318.90652"
     y="-386.64481"
     transform="matrix(-0.19490375,0.98082237,-0.98177912,-0.19002568,0,0)" /><rect
     style="fill:#efd01c;fill-opacity:1;stroke-width:3.64093"
     id="rect13-9"
     width="60.594166"
     height="4.7026353"
     x="262.84766"
     y="406.29623"
     transform="matrix(0.97595514,0.21797149,-0.23225701,0.97265445,0,0)" /><rect
     style="fill:#efd01c;fill-opacity:1;stroke-width:1.64013"
     id="rect13-6"
     width="24.777733"
     height="2.3337049"
     x="-406.16388"
     y="492.61523"
     transform="matrix(-0.99980053,0.01997244,0.0150022,0.99988746,0,0)" /><rect
     style="fill:#efd01c;fill-opacity:1;stroke-width:3.64093"
     id="rect13-9-8"
     width="60.594166"
     height="4.7026353"
     x="-319.4675"
     y="538.20044"
     transform="matrix(-0.97595514,0.21797149,0.23225701,0.97265445,0,0)" /><rect
     style="fill:#efd01c;fill-opacity:1;stroke-width:3.64093"
     id="rect13-9-1"
     width="60.594166"
     height="4.7026353"
     x="437.34131"
     y="26.471163"
     transform="matrix(0.56107243,0.82776671,-0.83590389,0.54887584,0,0)" /><rect
     style="fill:#efd01c;fill-opacity:1;stroke-width:1.64013"
     id="rect13-5-2"
     width="24.777733"
     height="2.3337049"
     x="460.5304"
     y="106.63618"
     transform="matrix(0.66749275,0.7446163,-0.741289,0.67118598,0,0)" /><rect
     style="fill:#efd01c;fill-opacity:1;stroke-width:1.64013"
     id="rect13-5-1-4"
     width="24.777733"
     height="2.3337049"
     x="473.2298"
     y="-6.7182865"
     transform="matrix(0.52392013,0.8517674,-0.84915247,0.52814779,0,0)" /><rect
     style="fill:#efd01c;fill-opacity:1;stroke-width:3.64093"
     id="rect13-9-1-55"
     width="60.594166"
     height="4.7026353"
     x="437.85611"
     y="26.60239"
     transform="matrix(0.56107243,0.82776671,-0.83590389,0.54887584,0,0)" /><rect
     style="fill:#efd01c;fill-opacity:1;stroke-width:3.64093"
     id="rect13-9-1-1"
     width="60.594166"
     height="4.7026353"
     x="350.11438"
     y="-302.05377"
     transform="matrix(3.6632868e-4,0.99999993,-0.99989782,-0.01429519,0,0)" /><rect
     style="fill:#efd01c;fill-opacity:1;stroke-width:1.64013"
     id="rect13-5-2-2"
     width="24.777733"
     height="2.3337049"
     x="57.858982"
     y="550.44562"
     transform="matrix(-0.66749275,0.7446163,0.741289,0.67118598,0,0)" /><rect
     style="fill:#efd01c;fill-opacity:1;stroke-width:1.64013"
     id="rect13-5-1-4-7"
     width="24.777733"
     height="2.3337049"
     x="155.85246"
     y="501.42477"
     transform="matrix(-0.52392013,0.8517674,0.84915247,0.52814779,0,0)" /><rect
     style="fill:#efd01c;fill-opacity:1;stroke-width:3.64093"
     id="rect13-9-1-55-6"
     width="60.594166"
     height="4.7026353"
     x="108.08256"
     y="520.37262"
     transform="matrix(-0.56107243,0.82776671,0.83590389,0.54887584,0,0)" /></svg>
