<?xml version="1.0" encoding="UTF-8" standalone="no"?>
<!-- Created with Inkscape (http://www.inkscape.org/) -->
<svg
   xmlns:dc="http://purl.org/dc/elements/1.1/"
   xmlns:cc="http://web.resource.org/cc/"
   xmlns:rdf="http://www.w3.org/1999/02/22-rdf-syntax-ns#"
   xmlns:svg="http://www.w3.org/2000/svg"
   xmlns="http://www.w3.org/2000/svg"
   xmlns:sodipodi="http://sodipodi.sourceforge.net/DTD/sodipodi-0.dtd"
   xmlns:inkscape="http://www.inkscape.org/namespaces/inkscape"
   width="1206.7284"
   height="525.02509"
   id="svg2"
   sodipodi:version="0.32"
   inkscape:version="0.44"
   sodipodi:docbase="C:\Documents and Settings\moi\Bureau"
   sodipodi:docname="îles éparses.svg"
   version="1.0">
  <defs
     id="defs4" />
  <sodipodi:namedview
     id="base"
     pagecolor="#ffffff"
     bordercolor="#666666"
     borderopacity="1.0"
     inkscape:pageopacity="0.0"
     inkscape:pageshadow="2"
     inkscape:zoom="0.35"
     inkscape:cx="564.91134"
     inkscape:cy="280.88787"
     inkscape:document-units="px"
     inkscape:current-layer="layer2"
     inkscape:window-width="1024"
     inkscape:window-height="712"
     inkscape:window-x="-4"
     inkscape:window-y="-4"
     showguides="true"
     inkscape:guide-bbox="true" />
  <metadata
     id="metadata7">
    <rdf:RDF>
      <cc:Work
         rdf:about="">
        <dc:format>image/svg+xml</dc:format>
        <dc:type
           rdf:resource="http://purl.org/dc/dcmitype/StillImage" />
      </cc:Work>
    </rdf:RDF>
  </metadata>
  <g
     inkscape:label="Calque 1"
     inkscape:groupmode="layer"
     id="layer1"
     transform="translate(218.0383,-307.2817)" />
  <g
     inkscape:groupmode="layer"
     id="layer2"
     inkscape:label="dessin"
     transform="translate(218.0383,-307.2817)">
    <rect
       style="opacity:1;color:black;fill:#d3ebfa;fill-opacity:1;fill-rule:evenodd;stroke:black;stroke-width:0.98771739;stroke-linecap:butt;stroke-linejoin:miter;marker:none;marker-start:none;marker-mid:none;marker-end:none;stroke-miterlimit:4;stroke-dasharray:none;stroke-dashoffset:0;stroke-opacity:1;visibility:visible;display:inline;overflow:visible"
       id="rect17427"
       width="1205.7407"
       height="524.03735"
       x="-217.54443"
       y="307.7756" />
    <g
       id="g1921"
       transform="translate(-31.96084,-80.54968)">
      <rect
         y="390.71228"
         x="177.78685"
         height="518.20825"
         width="470.73108"
         id="rect2823"
         style="opacity:1;color:black;fill:none;fill-opacity:1;fill-rule:evenodd;stroke:black;stroke-width:1;stroke-linecap:butt;stroke-linejoin:miter;marker:none;marker-start:none;marker-mid:none;marker-end:none;stroke-miterlimit:4;stroke-dasharray:none;stroke-dashoffset:0;stroke-opacity:1;visibility:visible;display:inline;overflow:visible" />
      <path
         id="path3710"
         d="M 498.0052,626.07781 L 503.05597,637.18949 L 460.62956,764.46871 L 445.47727,812.95603 L 437.39605,846.29106 L 432.34529,856.39259 L 431.33514,868.51442 L 423.25392,881.6464 L 416.18285,884.67686 L 403.05087,884.67686 L 389.91888,888.71747 L 379.81736,897.80884 L 375.77675,898.819 L 363.65492,896.79869 L 354.56354,888.71747 L 349.51278,888.71747 L 340.42141,885.68701 L 335.37065,878.61594 L 330.31988,874.57533 L 329.30973,863.46366 L 323.24881,860.4332 L 320.21836,837.19969 L 323.24881,832.14893 L 321.22851,825.07786 L 318.19805,820.0271 L 314.15744,812.95603 L 310.11683,802.8545 L 307.08637,793.76313 L 307.08637,782.65145 L 310.11683,773.56008 L 314.15744,767.49916 L 314.15744,759.41794 L 323.24881,758.40779 L 324.25897,748.30627 L 330.31988,739.21489 L 341.43156,719.01184 L 345.47217,715.98139 L 345.47217,709.92047 L 339.41126,706.89001 L 344.46202,698.80879 L 339.41126,692.74788 L 336.3808,684.66666 L 336.3808,675.57528 L 329.30973,663.45345 L 329.30973,655.37223 L 329.30973,650.32147 L 329.30973,642.24025 L 325.26912,635.16918 L 341.43156,603.85445 L 340.42141,595.77323 L 340.42141,588.70216 L 352.54324,589.71232 L 361.63461,585.67171 L 365.67522,579.61079 L 368.70568,586.68186 L 374.76659,582.64125 L 378.8072,583.6514 L 379.81736,574.56003 L 387.89858,577.59049 L 392.14286,578.07647 L 394.28571,575.21932 L 398.57143,578.07647 L 403.57143,582.36218 L 405,578.07647 L 400.71429,575.21932 L 400.71429,569.50504 L 419.28571,556.6479 L 422.85714,559.50504 L 420.71429,568.07647 L 430.71429,564.50504 L 425,555.93361 L 428.57143,550.93361 L 435,540.21932 L 439.64286,539.86218 L 437.85714,547.00504 L 436.42857,552.36218 L 442.85714,546.6479 L 446.42857,537.71932 L 453.92857,540.93361 L 455,537.36218 L 448.57143,535.93361 L 444.28571,534.50504 L 445.35714,524.86218 L 452.14286,524.50504 L 455.71429,527.36218 L 454.64286,517.00504 L 451.78572,511.29075 L 451.78572,504.1479 L 455.35714,501.29075 L 460,506.6479 L 461.42857,510.57647 L 465.71429,510.57647 L 466.42857,503.79075 L 470.71429,501.6479 L 471.07143,496.6479 L 476.78572,498.43361 L 480.35714,495.57647 L 481.78572,489.50504 L 482.85714,484.50504 L 486.42857,480.21932 L 484.28572,475.57647 L 483.21429,469.86218 L 479.28572,465.57647 L 483.21429,464.1479 L 485,467.71932 L 486.07143,463.79075 L 489.28572,460.21932 L 492.5,459.50504 L 492.85714,454.86218 L 490.35714,453.43361 L 496.78572,448.43361 L 499.28572,456.29075 L 495.35714,457.00504 C 495.35714,457.00504 493.92857,461.6479 495.35714,461.6479 C 496.78572,461.6479 500.35714,459.86218 500.35714,459.86218 L 505,465.21932 L 505,472.00504 L 510.35714,476.6479 L 516.07143,484.50504 L 521.07143,500.21932 L 524.28572,515.57647 L 524.28572,523.79075 L 526.07143,528.79075 L 525.71429,535.57647 L 526.07143,544.50504 L 530.35714,553.79075 L 533.21429,558.43361 L 532.5,563.79075 L 531.42857,573.43361 L 527.85714,578.43361 L 524.64286,583.07647 L 522.14286,582.00504 L 518.57143,577.00504 L 516.42857,572.36218 L 515,566.6479 L 513.57143,564.1479 L 507.14286,566.6479 L 507.14286,573.79075 L 509.28572,578.79075 L 507.85714,584.50504 L 508.92857,588.43361 L 512.14286,589.50504 L 513.57143,594.1479 L 512.14286,601.29075 L 509.64286,606.6479 L 510.71429,611.29075 L 508.92857,613.07647 L 504.28572,612.71932 L 502.14286,618.79075 L 498.0052,626.07781 z "
         style="opacity:1;fill:#f4e2ba;fill-opacity:1;fill-rule:evenodd;stroke:black;stroke-width:1px;stroke-linecap:butt;stroke-linejoin:miter;stroke-opacity:1" />
      <path
         id="path4601"
         d="M 517.5,606.6479 C 516.39322,607.50257 515.57935,609.08971 515,609.86218 C 514.48533,610.54842 514.03397,611.00679 513.57143,611.46932 C 513.19392,611.84684 512.95193,613.05447 512.85714,613.43361 C 512.61831,614.38897 512.49509,614.87201 512.14286,615.57647 C 511.82585,616.21049 511.78572,617.05105 511.78572,617.8979 C 511.78572,619.24729 512.28103,619.02407 513.21429,618.79075 C 513.90857,618.61718 513.78722,617.46631 514.10714,616.82647 C 514.51077,616.01922 514.99178,615.58469 515.71429,614.86218 C 516.55442,614.02205 516.60714,614.11672 516.60714,612.71932 C 516.60714,611.70742 516.60714,610.69552 516.60714,609.68361 C 516.60714,608.13994 516.96053,607.99658 517.5,606.6479 z "
         style="fill:#f4e2ba;fill-opacity:1;fill-rule:evenodd;stroke:black;stroke-width:1px;stroke-linecap:butt;stroke-linejoin:miter;stroke-opacity:1" />
      <path
         id="path4603"
         d="M 465.35714,492.00504 C 464.87174,491.60613 463.40713,491.6479 462.32143,491.6479 C 461.0817,491.6479 460.79257,491.84848 460.35714,492.71932 C 460.07574,493.28212 460.35714,494.75208 460.35714,495.3979 C 460.35714,496.35171 461.17646,497.14684 461.96429,497.54075 C 463.35756,498.23739 463.76594,498.43361 465.35714,498.43361 C 466.57513,498.43361 466.78572,498.42556 466.78572,497.18361 C 466.78572,496.29075 466.78572,495.3979 466.78572,494.50504 C 466.78572,493.20729 466.52661,492.70672 465.35714,492.00504 z "
         style="fill:#f4e2ba;fill-opacity:1;fill-rule:evenodd;stroke:black;stroke-width:1px;stroke-linecap:butt;stroke-linejoin:miter;stroke-opacity:1" />
      <path
         id="path4623"
         d="M 300.71429,430.93361 L 305.35714,430.93361 L 305.71429,439.86218 L 307.85714,444.86218 L 308.57143,449.50504 L 300.35714,445.93361 L 300.71429,430.93361 z "
         style="fill:#f4e2ba;fill-opacity:1;fill-rule:evenodd;stroke:black;stroke-width:1px;stroke-linecap:butt;stroke-linejoin:miter;stroke-opacity:1" />
      <path
         id="path4625"
         d="M 340.71429,453.07647 L 343.92857,460.21932 L 342.85714,464.1479 L 332.14286,457.71932 L 337.14286,457.71932 L 338.57143,454.86218 L 340.71429,453.07647 z "
         style="fill:#f4e2ba;fill-opacity:1;fill-rule:evenodd;stroke:black;stroke-width:1px;stroke-linecap:butt;stroke-linejoin:miter;stroke-opacity:1" />
      <path
         id="path4627"
         d="M 360,472.36218 L 365,476.29075 L 365,481.29075 L 362.5,483.79075 L 360.71429,482.00504 L 360.71429,478.07647 L 360,472.36218 z "
         style="fill:#f4e2ba;fill-opacity:1;fill-rule:evenodd;stroke:black;stroke-width:1px;stroke-linecap:butt;stroke-linejoin:miter;stroke-opacity:1" />
      <path
         id="path4629"
         d="M 312.5,460.21932 L 314.64286,464.1479 L 321.78571,464.1479 L 314.28571,459.86218 L 312.5,460.21932 z "
         style="fill:#f4e2ba;fill-opacity:1;fill-rule:evenodd;stroke:black;stroke-width:1px;stroke-linecap:butt;stroke-linejoin:miter;stroke-opacity:1" />
      <path
         transform="matrix(0.852941,0,0,0.852941,69.85294,68.67721)"
         d="M 433.21427 430.57648 A 6.7857141 6.7857141 0 1 1  419.64284,430.57648 A 6.7857141 6.7857141 0 1 1  433.21427 430.57648 z"
         sodipodi:ry="6.7857141"
         sodipodi:rx="6.7857141"
         sodipodi:cy="430.57648"
         sodipodi:cx="426.42856"
         id="path4633"
         style="opacity:1;color:black;fill:#fff3e3;fill-opacity:1;fill-rule:evenodd;stroke:black;stroke-width:1;stroke-linecap:butt;stroke-linejoin:miter;marker:none;marker-start:none;marker-mid:none;marker-end:none;stroke-miterlimit:4;stroke-dasharray:none;stroke-dashoffset:0;stroke-opacity:1;visibility:visible;display:inline;overflow:visible"
         sodipodi:type="arc" />
      <path
         transform="matrix(0.852941,0,0,0.852941,266.6388,215.1059)"
         d="M 433.21427 430.57648 A 6.7857141 6.7857141 0 1 1  419.64284,430.57648 A 6.7857141 6.7857141 0 1 1  433.21427 430.57648 z"
         sodipodi:ry="6.7857141"
         sodipodi:rx="6.7857141"
         sodipodi:cy="430.57648"
         sodipodi:cx="426.42856"
         id="path5520"
         style="opacity:1;color:black;fill:#fff3e3;fill-opacity:1;fill-rule:evenodd;stroke:black;stroke-width:1;stroke-linecap:butt;stroke-linejoin:miter;marker:none;marker-start:none;marker-mid:none;marker-end:none;stroke-miterlimit:4;stroke-dasharray:none;stroke-dashoffset:0;stroke-opacity:1;visibility:visible;display:inline;overflow:visible"
         sodipodi:type="arc" />
      <path
         transform="matrix(0.852941,0,0,0.852941,-77.28983,251.5344)"
         d="M 433.21427 430.57648 A 6.7857141 6.7857141 0 1 1  419.64284,430.57648 A 6.7857141 6.7857141 0 1 1  433.21427 430.57648 z"
         sodipodi:ry="6.7857141"
         sodipodi:rx="6.7857141"
         sodipodi:cy="430.57648"
         sodipodi:cx="426.42856"
         id="path5522"
         style="opacity:1;color:black;fill:#fff3e3;fill-opacity:1;fill-rule:evenodd;stroke:black;stroke-width:1;stroke-linecap:butt;stroke-linejoin:miter;marker:none;marker-start:none;marker-mid:none;marker-end:none;stroke-miterlimit:4;stroke-dasharray:none;stroke-dashoffset:0;stroke-opacity:1;visibility:visible;display:inline;overflow:visible"
         sodipodi:type="arc" />
      <path
         transform="matrix(0.852941,0,0,0.852941,-166.5755,399.3916)"
         d="M 433.21427 430.57648 A 6.7857141 6.7857141 0 1 1  419.64284,430.57648 A 6.7857141 6.7857141 0 1 1  433.21427 430.57648 z"
         sodipodi:ry="6.7857141"
         sodipodi:rx="6.7857141"
         sodipodi:cy="430.57648"
         sodipodi:cx="426.42856"
         id="path5524"
         style="opacity:1;color:black;fill:#fff3e3;fill-opacity:1;fill-rule:evenodd;stroke:black;stroke-width:1;stroke-linecap:butt;stroke-linejoin:miter;marker:none;marker-start:none;marker-mid:none;marker-end:none;stroke-miterlimit:4;stroke-dasharray:none;stroke-dashoffset:0;stroke-opacity:1;visibility:visible;display:inline;overflow:visible"
         sodipodi:type="arc" />
      <path
         transform="matrix(0.852941,0,0,0.852941,-144.4327,427.963)"
         d="M 433.21427 430.57648 A 6.7857141 6.7857141 0 1 1  419.64284,430.57648 A 6.7857141 6.7857141 0 1 1  433.21427 430.57648 z"
         sodipodi:ry="6.7857141"
         sodipodi:rx="6.7857141"
         sodipodi:cy="430.57648"
         sodipodi:cx="426.42856"
         id="path5526"
         style="opacity:1;color:black;fill:#fff3e3;fill-opacity:1;fill-rule:evenodd;stroke:black;stroke-width:1;stroke-linecap:butt;stroke-linejoin:miter;marker:none;marker-start:none;marker-mid:none;marker-end:none;stroke-miterlimit:4;stroke-dasharray:none;stroke-dashoffset:0;stroke-opacity:1;visibility:visible;display:inline;overflow:visible"
         sodipodi:type="arc" />
      <text
         sodipodi:linespacing="125%"
         id="text5528"
         y="675.27887"
         x="413.48477"
         style="font-size:18px;font-style:normal;font-variant:normal;font-weight:normal;font-stretch:normal;text-align:center;line-height:125%;writing-mode:lr-tb;text-anchor:middle;fill:black;fill-opacity:1;stroke:none;stroke-width:1px;stroke-linecap:butt;stroke-linejoin:miter;stroke-opacity:1;font-family:Arial"
         xml:space="preserve"><tspan
           y="675.27887"
           x="413.48477"
           id="tspan5530"
           sodipodi:role="line">MADAGASCAR</tspan></text>
      <text
         sodipodi:linespacing="125%"
         id="text5536"
         y="447.1572"
         x="360.5802"
         style="font-size:18px;font-style:normal;font-variant:normal;font-weight:normal;font-stretch:normal;text-align:center;line-height:125%;writing-mode:lr-tb;text-anchor:middle;fill:black;fill-opacity:1;stroke:none;stroke-width:1px;stroke-linecap:butt;stroke-linejoin:miter;stroke-opacity:1;font-family:Arial"
         xml:space="preserve"><tspan
           y="447.1572"
           x="360.5802"
           id="tspan5538"
           sodipodi:role="line">COMORES</tspan></text>
      <text
         sodipodi:linespacing="125%"
         id="text5540"
         y="498.67938"
         x="360.15012"
         style="font-size:18px;font-style:normal;font-variant:normal;font-weight:normal;font-stretch:normal;text-align:center;line-height:125%;writing-mode:lr-tb;text-anchor:middle;fill:black;fill-opacity:1;stroke:none;stroke-width:1px;stroke-linecap:butt;stroke-linejoin:miter;stroke-opacity:1;font-family:Arial"
         xml:space="preserve"><tspan
           y="498.67938"
           x="360.15012"
           id="tspan5542"
           sodipodi:role="line">Mayotte</tspan></text>
      <path
         sodipodi:nodetypes="cccccccccccccccccccccccccccc"
         id="path5544"
         d="M 180.31223,596.78338 L 210.61681,577.59049 L 220.71833,562.94327 L 220.71833,559.40774 L 214.15234,558.39759 L 220.71833,555.36713 L 224.75894,551.32652 L 219.2031,548.80114 L 224.75894,545.2656 L 225.76909,539.20469 L 223.74879,533.14377 L 218.69803,538.19454 L 218.69803,534.15393 L 223.24371,531.12347 L 215.66757,525.56763 L 217.1828,522.0321 L 217.1828,517.48641 L 215.66757,507.88996 L 215.66757,500.81889 L 214.65742,487.18183 L 211.62696,487.18183 L 210.61681,482.13107 L 215.66757,480.61584 L 215.66757,471.01939 L 212.13203,466.97878 L 213.14219,461.92802 L 213.64726,451.32142 L 213.64727,439.19959 L 214.65742,431.62344 L 216.67772,426.57268 L 214.65742,421.52192 L 215.16249,415.461 L 215.66757,410.41024 L 213.64726,402.8341 L 213.64726,396.77318 L 215.16249,392.22749 L 214.65742,390.71227 L 178.29192,390.71227 L 178.29192,597.28846 L 180.31223,596.78338 z "
         style="fill:#f4e2ba;fill-opacity:1;fill-rule:evenodd;stroke:black;stroke-width:1px;stroke-linecap:butt;stroke-linejoin:miter;stroke-opacity:1" />
      <text
         transform="matrix(0.11059,-0.993866,0.993866,0.11059,0,0)"
         sodipodi:linespacing="125%"
         id="text5548"
         y="255.98454"
         x="-458.22202"
         style="font-size:17.99998665px;font-style:normal;font-variant:normal;font-weight:normal;font-stretch:normal;text-align:center;line-height:125%;writing-mode:lr-tb;text-anchor:middle;fill:black;fill-opacity:1;stroke:none;stroke-width:1px;stroke-linecap:butt;stroke-linejoin:miter;stroke-opacity:1;font-family:Arial"
         xml:space="preserve"><tspan
           y="255.98454"
           x="-458.22202"
           id="tspan5550"
           sodipodi:role="line">MOZAMBIQUE</tspan></text>
      <text
         sodipodi:linespacing="100%"
         id="text5552"
         y="680.12103"
         x="250.51782"
         style="font-size:18px;font-style:normal;font-variant:normal;font-weight:normal;font-stretch:normal;text-align:center;line-height:100%;writing-mode:lr-tb;text-anchor:middle;fill:#27bbea;fill-opacity:1;stroke:none;stroke-width:1px;stroke-linecap:butt;stroke-linejoin:miter;stroke-opacity:1;font-family:Arial"
         xml:space="preserve"><tspan
           y="680.12103"
           x="250.51782"
           id="tspan5554"
           sodipodi:role="line">Canal du</tspan><tspan
           id="tspan6441"
           y="698.12103"
           x="250.51782"
           sodipodi:role="line">Mozambique</tspan></text>
      <text
         sodipodi:linespacing="100%"
         id="text6443"
         y="757.26465"
         x="552.50989"
         style="font-size:18px;font-style:normal;font-variant:normal;font-weight:normal;font-stretch:normal;text-align:center;line-height:100%;writing-mode:lr-tb;text-anchor:middle;fill:#27bbea;fill-opacity:1;stroke:none;stroke-width:1px;stroke-linecap:butt;stroke-linejoin:miter;stroke-opacity:1;font-family:Arial"
         xml:space="preserve"><tspan
           id="tspan6447"
           y="757.26465"
           x="552.50989"
           sodipodi:role="line">OCÉAN</tspan><tspan
           id="tspan6451"
           y="775.26465"
           x="552.50989"
           sodipodi:role="line">INDIEN</tspan></text>
      <text
         sodipodi:linespacing="89.999998%"
         id="text6453"
         y="590.00464"
         x="283.92178"
         style="font-size:18px;font-style:normal;font-variant:normal;font-weight:normal;font-stretch:normal;text-align:center;line-height:89.99999762%;writing-mode:lr-tb;text-anchor:middle;fill:black;fill-opacity:1;stroke:none;stroke-width:1px;stroke-linecap:butt;stroke-linejoin:miter;stroke-opacity:1;font-family:Arial"
         xml:space="preserve"><tspan
           id="tspan6457"
           y="590.00464"
           x="283.92178"
           sodipodi:role="line">Juan de</tspan><tspan
           id="tspan6461"
           y="606.20464"
           x="283.92178"
           sodipodi:role="line">Nova</tspan></text>
      <text
         sodipodi:linespacing="89.999998%"
         id="text6463"
         y="425.31467"
         x="475.91806"
         style="font-size:18px;font-style:normal;font-variant:normal;font-weight:normal;font-stretch:normal;text-align:center;line-height:89.99999762%;writing-mode:lr-tb;text-anchor:middle;fill:black;fill-opacity:1;stroke:none;stroke-width:1px;stroke-linecap:butt;stroke-linejoin:miter;stroke-opacity:1;font-family:Arial"
         xml:space="preserve"><tspan
           id="tspan6467"
           y="425.31467"
           x="475.91806"
           sodipodi:role="line">Les Glorieuses</tspan></text>
      <text
         sodipodi:linespacing="89.999998%"
         id="text6471"
         y="571.91107"
         x="612.85059"
         style="font-size:18px;font-style:normal;font-variant:normal;font-weight:normal;font-stretch:normal;text-align:center;line-height:89.99999762%;writing-mode:lr-tb;text-anchor:middle;fill:black;fill-opacity:1;stroke:none;stroke-width:1px;stroke-linecap:butt;stroke-linejoin:miter;stroke-opacity:1;font-family:Arial"
         xml:space="preserve"><tspan
           id="tspan6473"
           y="571.91107"
           x="612.85059"
           sodipodi:role="line">Tromelin</tspan></text>
      <text
         sodipodi:linespacing="89.999998%"
         id="text6475"
         y="803.13049"
         x="261.03244"
         style="font-size:18px;font-style:normal;font-variant:normal;font-weight:normal;font-stretch:normal;text-align:center;line-height:89.99999762%;writing-mode:lr-tb;text-anchor:middle;fill:black;fill-opacity:1;stroke:none;stroke-width:1px;stroke-linecap:butt;stroke-linejoin:miter;stroke-opacity:1;font-family:Arial"
         xml:space="preserve"><tspan
           id="tspan6477"
           y="803.13049"
           x="261.03244"
           sodipodi:role="line">Europa</tspan></text>
      <text
         sodipodi:linespacing="89.999998%"
         id="text6479"
         y="759.021"
         x="239.08096"
         style="font-size:18px;font-style:normal;font-variant:normal;font-weight:normal;font-stretch:normal;text-align:center;line-height:89.99999762%;writing-mode:lr-tb;text-anchor:middle;fill:black;fill-opacity:1;stroke:none;stroke-width:1px;stroke-linecap:butt;stroke-linejoin:miter;stroke-opacity:1;font-family:Arial"
         xml:space="preserve"><tspan
           id="tspan6481"
           y="759.021"
           x="239.08096"
           sodipodi:role="line">Bassas</tspan><tspan
           id="tspan6483"
           y="775.221"
           x="239.08096"
           sodipodi:role="line">da India</tspan></text>
      <path
         id="path9142"
         d="M 177.78685,837.19969 L 296.98485,832.14893 L 464.67017,831.13878 L 646.49763,837.19969"
         style="fill:none;fill-opacity:1;fill-rule:evenodd;stroke:#27bbea;stroke-width:1;stroke-linecap:butt;stroke-linejoin:miter;stroke-miterlimit:4;stroke-dasharray:8, 4;stroke-dashoffset:0;stroke-opacity:1" />
      <text
         transform="matrix(0.99909,4.265129e-2,-4.265129e-2,0.99909,0,0)"
         sodipodi:linespacing="100%"
         id="text11799"
         y="806.05029"
         x="635.29108"
         style="font-size:8px;font-style:normal;font-variant:normal;font-weight:normal;font-stretch:normal;text-align:center;line-height:100%;writing-mode:lr-tb;text-anchor:middle;fill:#27bbea;fill-opacity:1;stroke:none;stroke-width:1px;stroke-linecap:butt;stroke-linejoin:miter;stroke-opacity:1;font-family:Arial"
         xml:space="preserve"><tspan
           id="tspan11803"
           y="806.05029"
           x="635.29108"
           sodipodi:role="line">Tropique du Capricorne</tspan></text>
      <path
         id="path1915"
         d="M 550.71428,896.29071 L 550.71428,899.14791 L 609.64286,899.14791 L 609.64286,896.29071 L 609.64286,896.29071 L 609.64286,896.29071"
         style="fill:none;fill-opacity:0.75;fill-rule:evenodd;stroke:black;stroke-width:1px;stroke-linecap:butt;stroke-linejoin:miter;stroke-opacity:1" />
      <text
         sodipodi:linespacing="125%"
         id="text1917"
         y="894.505"
         x="551.07141"
         style="font-size:12px;font-style:normal;font-variant:normal;font-weight:normal;font-stretch:normal;text-align:center;line-height:125%;writing-mode:lr-tb;text-anchor:middle;fill:black;fill-opacity:1;stroke:none;stroke-width:1px;stroke-linecap:butt;stroke-linejoin:miter;stroke-opacity:1;font-family:Arial"
         xml:space="preserve"><tspan
           y="894.505"
           x="551.07141"
           id="tspan1919"
           sodipodi:role="line">0</tspan></text>
      <text
         sodipodi:linespacing="125%"
         id="text1921"
         y="894.45862"
         x="620.04102"
         style="font-size:12px;font-style:normal;font-variant:normal;font-weight:normal;font-stretch:normal;text-align:center;line-height:125%;writing-mode:lr-tb;text-anchor:middle;fill:black;fill-opacity:1;stroke:none;stroke-width:1px;stroke-linecap:butt;stroke-linejoin:miter;stroke-opacity:1;font-family:Arial"
         xml:space="preserve"><tspan
           y="894.45862"
           x="620.04102"
           id="tspan1923"
           sodipodi:role="line">350 Km</tspan></text>
    </g>
    <g
       id="g6525"
       transform="translate(61.24655,-105.8789)">
      <g
         id="g9198" />
    </g>
    <g
       id="g14592"
       transform="translate(-9.091373,192.9391)">
      <path
         transform="translate(51.96084,-105.8789)"
         style="opacity:1;fill:#fff3e3;fill-opacity:1;fill-rule:evenodd;stroke:black;stroke-width:1px;stroke-linecap:butt;stroke-linejoin:miter;stroke-opacity:1"
         d="M 641.42857,597.36218 C 641.42857,597.36218 649.10714,616.82647 660,633.07647 C 670.89286,649.32647 672.5,649.14789 685,662.36218 C 697.5,675.57646 710,685.93361 710,685.93361 C 710,685.93361 714.46429,691.11218 720,692.36218 C 725.53571,693.61218 732.14286,690.93361 732.14286,690.93361 L 742.14286,681.6479 C 742.14286,681.6479 748.92857,676.29075 751.42857,669.50504 C 753.92857,662.71933 751.96429,661.82647 752.14286,654.50504 C 752.32143,647.18361 752.14286,640.21932 752.14286,640.21932 C 752.14286,640.21932 750.17858,629.86218 744.28572,620.93361 C 738.39286,612.00504 738.21429,612.00504 728.57143,604.50504 C 718.92857,597.00504 715.89286,597.36218 705.71429,590.93361 C 695.53572,584.50504 698.39287,584.32646 687.85715,578.79075 C 677.32144,573.25504 663.57143,568.79075 663.57143,568.79075 L 645,563.79075 C 645,563.79075 638.92857,562.36218 636.42857,563.07647 C 633.92857,563.79075 633.75,563.61218 635,566.64789 C 636.25,569.6836 639.82143,571.29075 641.42857,575.21932 C 643.03571,579.14789 641.42857,582.36218 641.42857,582.36218 L 641.42857,597.36218 z "
         id="path2047"
         sodipodi:nodetypes="csscsccsscssssccssscc" />
      <g
         transform="translate(-9.285714,0)"
         id="g15413">
        <rect
           transform="translate(61.24655,-105.8789)"
           y="581.29077"
           x="656.07141"
           height="6.0714288"
           width="6.0714288"
           id="rect2940"
           style="opacity:1;color:black;fill:black;fill-opacity:1;fill-rule:evenodd;stroke:none;stroke-width:1;stroke-linecap:butt;stroke-linejoin:miter;marker:none;marker-start:none;marker-mid:none;marker-end:none;stroke-miterlimit:4;stroke-dasharray:8, 4;stroke-dashoffset:0;stroke-opacity:1;visibility:visible;display:inline;overflow:visible" />
        <text
           transform="translate(61.24655,-105.8789)"
           sodipodi:linespacing="125%"
           id="text3827"
           y="587.7193"
           x="617.14294"
           style="font-size:12px;font-style:normal;font-variant:normal;font-weight:normal;font-stretch:normal;text-align:center;line-height:125%;writing-mode:lr-tb;text-anchor:middle;fill:black;fill-opacity:1;stroke:none;stroke-width:1px;stroke-linecap:butt;stroke-linejoin:miter;stroke-opacity:1;font-family:Arial"
           xml:space="preserve"><tspan
             y="587.7193"
             x="617.14294"
             id="tspan3829"
             sodipodi:role="line">Station météo</tspan></text>
        <path
           transform="translate(61.24655,-105.8789)"
           id="path3831"
           d="M 656.07143,591.29075 L 727.14286,671.29075"
           style="fill:none;fill-opacity:0.75;fill-rule:evenodd;stroke:black;stroke-width:4;stroke-linecap:butt;stroke-linejoin:miter;stroke-miterlimit:4;stroke-dasharray:none;stroke-opacity:1" />
        <text
           transform="matrix(0.680108,0.733112,-0.733112,0.680108,61.24655,-105.8789)"
           sodipodi:linespacing="125%"
           id="text4718"
           y="-83.699165"
           x="944.48083"
           style="font-size:11.99999428px;font-style:normal;font-variant:normal;font-weight:normal;font-stretch:normal;text-align:center;line-height:125%;writing-mode:lr-tb;text-anchor:middle;fill:black;fill-opacity:1;stroke:none;stroke-width:1px;stroke-linecap:butt;stroke-linejoin:miter;stroke-opacity:1;font-family:Arial"
           xml:space="preserve"><tspan
             y="-83.699165"
             x="944.48084"
             id="tspan4720"
             sodipodi:role="line">Piste d'aviation</tspan></text>
        <path
           transform="translate(61.24655,-105.8789)"
           sodipodi:nodetypes="csscsccsscssssccssscc"
           id="path5609"
           d="M 631.37597,587.0509 C 631.37597,587.0509 640.33329,609.75667 653.04019,628.71286 C 665.74709,647.66903 667.62186,647.46072 682.20355,662.87564 C 696.78523,678.29056 711.3669,690.37253 711.3669,690.37253 C 711.3669,690.37253 716.57466,696.41351 723.03225,697.87168 C 729.48985,699.32984 737.19732,696.20519 737.19732,696.20519 L 748.86267,685.3731 C 748.86267,685.3731 756.77843,679.1238 759.69476,671.20803 C 762.6111,663.29227 760.3197,662.25072 760.528,653.71002 C 760.73632,645.16932 760.528,637.04523 760.528,637.04523 C 760.528,637.04523 758.23661,624.96327 751.36238,614.54778 C 744.48816,604.13231 744.27985,604.13231 733.03112,595.38329 C 721.78239,586.63429 718.24113,587.0509 706.36749,579.55176 C 694.49383,572.0526 697.82679,571.84429 685.53651,565.38669 C 673.24625,558.9291 657.20639,553.72134 657.20639,553.72134 L 635.54217,547.88867 C 635.54217,547.88867 628.45964,546.22219 625.54331,547.05544 C 622.62697,547.88867 622.41866,547.68037 623.87682,551.22163 C 625.335,554.76289 629.50119,556.63768 631.37597,561.2205 C 633.25076,565.8033 631.37597,569.55289 631.37597,569.55289 L 631.37597,587.0509 z "
           style="opacity:1;fill:none;fill-opacity:1;fill-rule:evenodd;stroke:#27bbea;stroke-width:1.16653442px;stroke-linecap:butt;stroke-linejoin:miter;stroke-opacity:1" />
        <text
           transform="translate(61.24655,-105.8789)"
           sodipodi:linespacing="100%"
           id="text6514"
           y="631.88617"
           x="784.88855"
           style="font-size:12px;font-style:italic;font-variant:normal;font-weight:normal;font-stretch:normal;text-align:center;line-height:100%;writing-mode:lr-tb;text-anchor:middle;fill:#27bbea;fill-opacity:1;stroke:none;stroke-width:1px;stroke-linecap:butt;stroke-linejoin:miter;stroke-opacity:1;font-family:Arial"
           xml:space="preserve"><tspan
             y="631.88617"
             x="784.88855"
             id="tspan6516"
             sodipodi:role="line">Barrière</tspan><tspan
             id="tspan6518"
             y="643.88617"
             x="784.88855"
             sodipodi:role="line">de récifs</tspan></text>
        <g
           id="g15432">
          <path
             transform="translate(61.24655,-105.8789)"
             id="path6496"
             d="M 759.07925,694.37686 L 759.07925,697.94829 L 855.50782,697.94829 L 855.50782,694.37686"
             style="fill:none;fill-opacity:0.75;fill-rule:evenodd;stroke:black;stroke-width:1px;stroke-linecap:butt;stroke-linejoin:miter;stroke-opacity:1" />
          <text
             transform="translate(61.24655,-105.8789)"
             sodipodi:linespacing="125%"
             id="text6498"
             y="692.6297"
             x="759.26703"
             style="font-size:12px;font-style:normal;font-variant:normal;font-weight:normal;font-stretch:normal;text-align:center;line-height:125%;writing-mode:lr-tb;text-anchor:middle;fill:black;fill-opacity:1;stroke:none;stroke-width:1px;stroke-linecap:butt;stroke-linejoin:miter;stroke-opacity:1;font-family:Arial"
             xml:space="preserve"><tspan
               y="692.6297"
               x="759.26703"
               id="tspan6500"
               sodipodi:role="line">0</tspan></text>
          <text
             sodipodi:linespacing="125%"
             id="text6502"
             y="587.5517"
             x="917.28644"
             style="font-size:12px;font-style:normal;font-variant:normal;font-weight:normal;font-stretch:normal;text-align:center;line-height:125%;writing-mode:lr-tb;text-anchor:middle;fill:black;fill-opacity:1;stroke:none;stroke-width:1px;stroke-linecap:butt;stroke-linejoin:miter;stroke-opacity:1;font-family:Arial"
             xml:space="preserve"><tspan
               y="587.5517"
               x="917.28644"
               id="tspan6504"
               sodipodi:role="line">1 Km</tspan></text>
        </g>
      </g>
    </g>
    <rect
       style="opacity:1;color:black;fill:black;fill-opacity:1;fill-rule:evenodd;stroke:none;stroke-width:1;stroke-linecap:butt;stroke-linejoin:miter;marker:none;marker-start:none;marker-mid:none;marker-end:none;stroke-miterlimit:4;stroke-dasharray:none;stroke-dashoffset:0;stroke-opacity:1;visibility:visible;display:inline;overflow:visible"
       id="rect15493"
       width="44.446712"
       height="8.586297"
       x="111.99097"
       y="681.38855" />
    <path
       sodipodi:type="star"
       style="opacity:1;color:black;fill:black;fill-opacity:1;fill-rule:evenodd;stroke:none;stroke-width:1;stroke-linecap:butt;stroke-linejoin:miter;marker:none;marker-start:none;marker-mid:none;marker-end:none;stroke-miterlimit:4;stroke-dasharray:none;stroke-dashoffset:0;stroke-opacity:1;visibility:visible;display:inline;overflow:visible"
       id="path15497"
       sodipodi:sides="3"
       sodipodi:cx="-81.25"
       sodipodi:cy="368.13681"
       sodipodi:r1="7.2711692"
       sodipodi:r2="3.6355846"
       sodipodi:arg1="0.52359878"
       sodipodi:arg2="1.5707963"
       inkscape:flatsided="true"
       inkscape:rounded="0"
       inkscape:randomized="0"
       d="M -74.952983,371.77239 L -87.547017,371.77239 L -81.25,360.86564 L -74.952983,371.77239 z "
       transform="matrix(0.65593,-0.754822,0.754822,0.65593,-146.1946,352.6827)" />
    <rect
       style="opacity:1;color:black;fill:black;fill-opacity:1;fill-rule:evenodd;stroke:none;stroke-width:1;stroke-linecap:butt;stroke-linejoin:miter;marker:none;marker-start:none;marker-mid:none;marker-end:none;stroke-miterlimit:4;stroke-dasharray:none;stroke-dashoffset:0;stroke-opacity:1;visibility:visible;display:inline;overflow:visible"
       id="rect15495"
       width="44.446709"
       height="8.5862961"
       x="490.78262"
       y="440.87851"
       transform="matrix(0.757344,0.653016,-0.653016,0.757344,0,0)" />
    <path
       style="fill:#fff3e3;fill-opacity:1;fill-rule:evenodd;stroke:black;stroke-width:1px;stroke-linecap:butt;stroke-linejoin:miter;stroke-opacity:1"
       d="M -93.944187,236.61808 L -90.913729,235.60792 L -90.156115,235.35539 L -88.893424,236.36554 L -91.166268,237.37569 L -91.166268,239.90107 L -91.166268,243.18407 L -91.923882,244.44676 L -91.923882,246.97214 L -92.681496,252.78052 L -94.95434,254.80082 L -93.439111,257.07367 L -91.166268,260.6092 L -90.156115,264.14473 L -88.388348,264.14473 L -88.388348,266.16504 L -85.35789,268.18534 L -84.600276,270.20565 L -81.822356,271.2158 L -82.074895,271.97342 L -80.559666,273.99372 L -79.296975,274.75134 L -77.27667,278.79195 L -77.27667,280.55971 L -74.498751,282.32748 L -73.23606,284.60032 L -73.993674,286.36809 L -71.468293,289.39855 L -63.134534,291.67139 L -60.104077,291.41885 L -59.093924,295.96454 L -61.366767,299.75261 L -62.881996,300.76276 L -65.912454,299.50007 L -63.639611,302.78307 L -65.407378,303.79322 L -71.720831,306.82368 L -73.23606,308.84398 L -76.771594,313.64221 L -77.781746,316.9252 L -79.296975,320.2082 L -81.822356,323.23866 L -81.964286,326.17254 L -83.571429,326.88682 L -84.285715,329.20825 L -85.892858,329.20825 L -86.964286,328.49397 L -87.857143,330.27968 L -87.5,332.06539 L -88.75,333.67254 L -91.071429,336.70825 L -92.321429,336.88682 L -93.928572,339.02968 L -96.964286,341.17254 L -98.75,341.70825 L -99.464286,344.02968 L -103.57143,343.31539 L -105,344.92254 L -106.25,345.10111 L -107.85714,345.63682 L -109.10714,343.85111 L -110.89286,346.88682 L -112.32143,347.77968 L -116.42857,349.74397 L -118.92857,349.74397 L -120.89286,351.70825 L -125.35714,352.77968 L -130.17857,352.95825 L -132.32143,354.02968 L -136.42857,353.85111 L -138.39286,352.77968 L -141.07143,352.77968 L -146.42857,348.85111 L -148.57143,347.42254 L -150,346.88682 L -153.21429,344.38682 L -155.35714,342.60111 L -155.53572,340.99397 L -156.07143,340.10111 L -157.32143,339.74397 L -158.03572,338.49397 L -158.57143,336.88682 L -160.35714,334.38682 L -162.67857,331.35111 L -162.67857,330.27968 L -164.10714,327.95825 L -166.07143,326.17254 L -168.03572,325.63682 L -168.03572,323.31539 L -169.28572,322.42254 L -172.14286,320.27968 L -174.10714,316.52968 L -174.10714,314.92254 L -176.96429,313.49397 L -177.85714,311.88682 L -178.57143,309.74397 L -181.42857,306.52968 L -180.89286,303.85111 L -182.32143,302.24397 L -183.39286,298.31539 L -182.5,297.24397 L -183.75,294.38682 L -183.39286,290.45825 L -183.21429,288.49397 L -184.28572,284.38682 L -184.28572,279.56539 L -183.39286,278.67254 L -183.03572,276.52968 L -182.5,273.49397 L -179.10714,272.60111 L -178.21429,269.74396 L -176.25,265.63682 L -172.32143,260.45825 L -170.53572,258.49396 L -169.10714,254.56539 L -166.96429,252.42254 L -166.42857,249.74396 L -164.28572,246.70825 L -161.60714,242.95825 L -159.10714,239.92254 L -158.57143,238.85111 L -155.17857,238.31539 L -151.96429,237.24396 L -150.17857,236.52968 L -147.67857,236.35111 L -144.28572,235.81539 L -137.85714,233.85111 L -135.17857,233.49396 L -132.67857,233.49396 L -128.75,233.67254 L -126.60714,233.31539 L -124.64286,233.31539 L -123.57143,233.67254 L -123.57143,236.88682 L -124.10714,238.13682 L -128.92857,238.49396 L -131.07143,240.99396 L -133.75,242.06539 L -135.89286,244.02968 L -139.10714,245.10111 L -141.42857,245.81539 L -141.96429,248.67254 L -146.96429,248.67254 L -149.46429,250.81539 L -152.67857,253.31539 L -157.32143,255.10111 L -158.57143,257.42254 L -160.35714,257.60111 L -161.96429,259.02968 L -164.10714,260.27968 L -165.17857,262.06539 L -165.71429,263.67254 L -168.75,266.88682 L -170.89286,269.74396 L -170.89286,273.13682 L -170.89286,276.17254 L -171.60714,278.67254 L -172.67857,283.31539 L -170.71429,284.02968 L -170.17857,287.95825 L -170.89286,290.81539 L -171.60714,296.70825 L -170.17857,303.13682 L -168.57143,310.63682 L -167.32143,311.35111 L -166.07143,314.02968 L -164.10714,318.31539 L -161.60714,319.92254 L -157.14286,324.56539 L -153.92857,328.13682 L -153.39286,330.45825 L -149.28572,330.45825 L -146.25,333.31539 L -144.46429,336.52968 L -140.89286,340.81539 L -137.5,341.17254 L -136.60714,337.77968 L -134.82143,337.95825 L -134.82143,341.70825 L -129.82143,341.17254 L -126.78571,340.10111 L -122.5,338.67254 L -114.82143,335.81539 L -112.32143,334.38682 L -109.28571,334.20825 L -108.92857,335.10111 L -104.28571,331.70825 L -103.21429,329.92254 L -101.25,327.60111 L -98.75,325.63682 L -98.75,323.85111 L -96.964286,323.85111 L -95.714286,321.88682 L -95.357143,319.92254 L -93.392858,320.63682 L -90.178572,317.95825 L -86.607143,316.70825 L -85.714286,314.02968 L -83.571429,311.35111 L -83.571429,310.45825 L -81.071429,310.45825 L -81.071429,309.02968 L -81.25,306.52968 L -79.464286,306.35111 L -77.142858,305.99397 L -77.142858,302.24397 L -80,297.95825 L -80,295.10111 L -81.607143,290.10111 L -84.464286,286.17254 L -83.75,282.95825 L -84.642858,280.99397 L -88.75,277.42254 L -90.178572,274.20825 L -91.964286,273.49397 L -95.892858,273.49397 L -96.428572,269.74396 L -98.75,268.85111 L -101.25,267.77968 L -102.67857,266.70825 L -105.53571,267.24396 L -105.71429,265.81539 L -103.92857,263.13682 L -101.42857,261.88682 L -97.321429,258.85111 L -95,257.06539 L -96.25,254.56539 L -98.75,253.49396 L -102.67857,251.52968 L -103.57143,251.17254 L -106.96429,247.60111 L -111.78571,245.27968 L -116.07143,242.24396 L -117.67857,239.92254 L -120.35714,239.92254 L -122.5,239.20825 L -123.21429,237.77968 L -123.21429,233.49396 L -122.5,232.60111 L -119.10714,234.20825 L -116.25,233.49396 L -112.67857,233.49396 L -110,233.67254 L -106.42857,234.02968 L -102.5,234.20825 L -101.42857,233.85111 L -99.464286,234.38682 L -97.5,235.63682 L -93.944187,236.61808 z "
       id="path16386"
       transform="translate(145.326,309.6626)" />
    <text
       sodipodi:linespacing="100%"
       id="text18158"
       y="603.92029"
       x="17.178818"
       style="font-size:12px;font-style:italic;font-variant:normal;font-weight:normal;font-stretch:normal;text-align:center;line-height:100%;writing-mode:lr-tb;text-anchor:middle;fill:#27bbea;fill-opacity:1;stroke:none;stroke-width:1px;stroke-linecap:butt;stroke-linejoin:miter;stroke-opacity:1;font-family:Arial"
       xml:space="preserve"><tspan
         id="tspan18162"
         y="603.92029"
         x="17.178818"
         sodipodi:role="line">Lagon</tspan></text>
    <path
       style="opacity:1;fill:#fff3e3;fill-opacity:1;fill-rule:evenodd;stroke:black;stroke-width:1px;stroke-linecap:butt;stroke-linejoin:miter;stroke-opacity:1"
       d="M -51.770318,381.82751 L -45.204326,385.36304 L -44.951788,389.40365 L -41.416254,392.43411 L -41.416254,395.96964 L -39.648487,399.50518 L -35.607877,410.61685 L -35.607877,414.40493 L -32.577419,421.98107 L -32.324881,425.01153 L -29.546962,433.09275 L -28.031733,439.15366 L -27.274119,442.6892 L -26.769042,445.21458 L -25.253813,446.47727 L -26.516504,447.23488 L -27.779195,447.23488 L -28.789347,449.50773 L -29.294424,451.02296 L -31.314729,452.03311 L -33.84011,450.51788 L -33.335034,453.2958 L -33.335034,459.86179 L -41.92133,471.47854 L -43.689097,471.47854 L -44.951788,474.25646 L -47.224631,474.25646 L -51.012703,478.80215 L -53.033008,479.05469 L -56.316004,485.1156 L -57.831233,484.61053 L -59.346462,483.60037 L -60.104076,485.62068 L -59.851538,488.3986 L -60.104076,490.4189 L -63.63961,494.45951 L -65.154839,497.23743 L -66.922606,498.50012 L -69.953063,496.22728 L -72.478445,499.76282 L -78.034284,499.76282 L -80.054589,500.77297 L -80.812203,502.2882 L -79.802051,503.55089 L -81.064741,504.3085 L -83.085046,505.31865 L -84.600275,505.57119 L -87.883271,504.05596 L -89.651038,504.05596 L -92.176419,504.05596 L -95.459415,499.76282 L -97.227182,501.27804 L -99.752563,501.27804 L -101.01525,499.76282 L -104.04571,499.76282 L -105.3084,500.26789 L -110.35916,496.9849 L -110.35916,495.72221 L -112.12693,495.72221 L -117.68277,492.43921 L -120.46069,488.3986 L -122.98607,485.87322 L -124.24876,482.59022 L -126.77414,480.56992 L -129.8046,477.792 L -130.56222,475.77169 L -131.82491,474.76154 L -133.84521,474.76154 L -134.85536,471.73108 L -136.11805,469.45824 L -139.14851,468.19555 L -141.92643,466.42778 L -145.46197,462.63971 L -148.49242,462.63971 L -149.75511,459.60925 L -152.2805,454.55849 L -153.29065,447.23488 L -151.27034,441.93158 L -149.25004,439.65874 L -147.73481,430.56737 L -147.73481,429.05214 L -145.46197,427.28437 L -145.7145,425.01153 L -146.72466,420.71838 L -148.49242,420.71838 L -148.49242,404.55594 L -143.94674,401.77802 L -135.36044,398.49502 L -128.28937,393.19172 L -119.95561,391.67649 L -114.14724,390.16127 L -108.84394,388.89857 L -100.0051,388.89857 L -94.954339,388.64604 L -90.156114,388.89857 L -87.125656,389.65619 L -84.347737,389.65619 L -77.529207,390.91888 L -73.236059,393.94934 L -71.72083,396.97979 L -69.447987,399.0001 L -68.942911,402.2831 L -69.195449,404.55594 L -71.72083,406.32371 L -75.76144,405.81863 L -80.812203,407.08132 L -83.842661,411.37447 L -84.600275,413.14224 L -82.832508,415.41508 L -79.549512,417.43538 L -76.266517,416.67777 L -74.49875,414.91 L -74.49875,410.11178 L -73.488597,409.10163 L -70.963216,408.34401 L -69.700525,407.33386 L -70.963216,409.6067 L -69.195449,412.13208 L -69.953063,414.15239 L -67.175144,417.68792 L -66.670068,421.22346 L -66.922606,424.00138 L -67.175144,426.27422 L -67.175144,429.30468 L -67.175144,430.56737 L -69.447987,429.05214 L -72.730983,432.0826 L -76.266517,434.35544 L -79.296974,434.60798 L -80.812203,438.39605 L -82.57997,438.64859 L -85.862966,438.39605 L -89.145961,441.42651 L -90.408652,444.45696 L -95.711953,447.9925 L -101.77287,451.52803 L -105.81348,453.04326 L -108.5914,453.54834 L -113.13708,458.09402 L -115.915,459.10418 L -113.64216,463.9024 L -111.11678,466.17524 L -110.35916,467.43793 L -110.35916,469.71078 L -108.84394,472.4887 L -103.54064,475.51915 L -94.954339,478.04454 L -87.883271,478.80215 L -83.337584,477.792 L -81.822356,477.53946 L -81.317279,480.06484 L -79.802051,479.30723 L -79.802051,475.51915 L -75.76144,474.76154 L -72.983521,475.51915 L -71.72083,476.78185 L -69.953063,475.51915 L -64.649762,477.03438 L -61.114229,477.03438 L -59.851538,476.02423 L -58.588847,477.792 L -55.305851,474.25646 L -54.800775,470.46839 L -56.316004,469.71078 L -55.053313,467.94301 L -52.527932,467.94301 L -49.244936,464.66001 L -46.214479,463.39732 L -46.467017,460.6194 L -44.194174,460.11433 L -42.173868,458.85164 L -42.173868,456.32626 L -39.395949,449.25519 L -41.92133,445.46712 L -42.931483,442.6892 L -40.65864,443.44681 L -38.385796,444.20443 L -37.628182,442.6892 L -35.102801,442.43666 L -36.61803,439.15366 L -37.123106,436.62828 L -38.638335,436.37574 L -38.890873,435.11305 L -37.375644,434.1029 L -34.850263,435.36559 L -33.335034,434.1029 L -34.345186,431.83006 L -33.335034,430.56737 L -33.587572,428.29452 L -33.84011,426.27422 L -35.607877,425.76914 L -35.860415,422.73868 L -36.112953,420.71838 L -37.375644,420.46584 L -36.112953,417.94046 L -37.123106,415.66762 L -38.133258,412.8897 L -38.385796,410.11178 L -40.153563,407.83893 L -39.648487,405.81863 L -40.911178,404.55594 L -41.416254,402.78817 L -42.426407,401.0204 L -41.668792,399.0001 L -42.678945,395.7171 L -44.446712,392.68665 L -47.224631,392.93918 L -48.73986,392.68665 L -49.244936,390.91888 L -47.224631,389.90873 L -46.467017,388.14096 L -48.487322,387.13081 L -50.255089,385.36304 L -52.78047,386.12066 L -52.78047,389.40365 L -53.033008,391.92903 L -55.305851,392.93918 L -56.568542,392.43411 L -51.770318,381.82751 z "
       id="path2837"
       transform="translate(145.326,309.6626)" />
    <path
       style="fill:#fff3e3;fill-opacity:1;fill-rule:evenodd;stroke:black;stroke-width:1px;stroke-linecap:butt;stroke-linejoin:miter;stroke-opacity:1"
       d="M -61.114229,400.51533 L -62.881995,403.79832 L -61.619305,405.56609 L -58.841385,403.79832 L -61.114229,400.51533 z "
       id="path3724"
       transform="translate(145.326,309.6626)" />
    <path
       style="fill:#fff3e3;fill-opacity:1;fill-rule:evenodd;stroke:black;stroke-width:1px;stroke-linecap:butt;stroke-linejoin:miter;stroke-opacity:1"
       d="M -55.053313,408.59655 L -53.285546,408.59655 L -51.770318,410.86939 L -55.053313,412.38462 L -55.053313,408.59655 z "
       id="path3726"
       transform="translate(145.326,309.6626)" />
    <path
       style="fill:#fff3e3;fill-opacity:1;fill-rule:evenodd;stroke:black;stroke-width:1px;stroke-linecap:butt;stroke-linejoin:miter;stroke-opacity:1"
       d="M -52.275394,413.64731 L -53.285546,415.41508 L -50.760165,417.18285 L -52.275394,413.64731 z "
       id="path3728"
       transform="translate(145.326,309.6626)" />
    <path
       style="fill:#fff3e3;fill-opacity:1;fill-rule:evenodd;stroke:black;stroke-width:1px;stroke-linecap:butt;stroke-linejoin:miter;stroke-opacity:1"
       d="M -53.285546,417.68792 L -50.507627,419.20315 L -50.255089,422.23361 L -46.719555,426.27422 L -45.709402,427.53691 L -49.497474,427.78945 L -51.012703,425.76914 L -52.022856,422.73868 L -53.285546,417.68792 z "
       id="path3730"
       transform="translate(145.326,309.6626)" />
    <path
       style="fill:#fff3e3;fill-opacity:1;fill-rule:evenodd;stroke:black;stroke-width:1px;stroke-linecap:butt;stroke-linejoin:miter;stroke-opacity:1"
       d="M -41.668792,438.14351 C -41.070847,438.22109 -39.790684,438.86558 -38.638335,439.15366 C -37.67568,439.39433 -39.005406,441.42651 -40.153563,441.42651 C -41.75628,441.42651 -42.584875,441.80278 -42.931483,440.41635 C -43.141347,439.5769 -42.203332,438.81169 -41.668792,438.14351 z "
       id="path3732"
       transform="translate(145.326,309.6626)" />
    <path
       style="fill:#fff3e3;fill-opacity:1;fill-rule:evenodd;stroke:black;stroke-width:1px;stroke-linecap:butt;stroke-linejoin:miter;stroke-opacity:1"
       d="M -47.982246,433.09275 C -46.896516,433.20473 -45.204326,432.3572 -45.204326,434.35544 C -45.204326,434.75562 -44.194174,435.90836 -44.194174,437.13336 C -44.194174,438.986 -44.904913,438.57373 -46.214479,438.90113 C -47.443619,439.20841 -46.36069,440.41635 -48.487322,440.41635 C -50.202755,440.41635 -49.269662,438.69804 -48.992398,438.14351 C -48.645318,437.44935 -48.834402,436.56483 -48.487322,435.87067 C -48.450747,435.79752 -46.719555,437.07951 -46.719555,434.86052 C -46.719555,433.61703 -46.541947,433.95693 -47.982246,433.09275 z "
       id="path3734"
       transform="translate(145.326,309.6626)" />
    <path
       style="fill:#fff3e3;fill-opacity:1;fill-rule:evenodd;stroke:black;stroke-width:1px;stroke-linecap:butt;stroke-linejoin:miter;stroke-opacity:1"
       d="M -51.517779,428.7996 C -51.333925,429.71126 -52.284474,431.10876 -52.527932,432.0826 C -52.818353,433.24428 -52.703215,434.66446 -52.527932,435.36559 C -52.275394,436.37574 -50.233743,435.34425 -49.497474,434.60798 C -48.789893,433.9004 -49.919764,431.49056 -50.002551,431.32498 C -50.523214,430.28365 -50.392748,430.20589 -51.517779,428.7996 z "
       id="path3736"
       transform="translate(145.326,309.6626)" />
    <path
       style="fill:#fff3e3;fill-opacity:1;fill-rule:evenodd;stroke:black;stroke-width:1px;stroke-linecap:butt;stroke-linejoin:miter;stroke-opacity:1"
       d="M -67.68022,446.22473 C -69.306215,446.02981 -69.866316,446.31918 -69.447987,447.9925 C -69.239779,448.82533 -67.69044,447.87134 -66.922606,447.48742 C -66.48358,447.26791 -67.427682,446.64563 -67.68022,446.22473 z "
       id="path3738"
       transform="translate(145.326,309.6626)" />
    <path
       style="fill:#27bbea;fill-opacity:1;fill-rule:evenodd;stroke:black;stroke-width:1px;stroke-linecap:butt;stroke-linejoin:miter;stroke-opacity:1"
       d="M 15.26886,755.63483 C 13.947168,756.30295 11.503441,755.78664 11.053707,757.49047 C 10.431307,758.70513 11.192995,760.14332 12.617228,759.48768 C 14.103052,759.19787 15.854184,759.64169 16.98436,758.43717 C 18.243393,757.98778 18.216811,756.53103 16.832327,756.35871 C 16.306393,756.12813 15.775711,755.90597 15.26886,755.63483 z "
       id="path3740" />
    <path
       style="fill:#27bbea;fill-opacity:1;fill-rule:evenodd;stroke:black;stroke-width:1px;stroke-linecap:butt;stroke-linejoin:miter;stroke-opacity:1"
       d="M 25.117849,721.28961 C 23.939337,721.79469 22.760826,722.29977 21.58231,722.80484 C 21.718126,723.68348 21.309959,725.02884 21.787499,725.6143 C 22.813444,725.77209 23.839372,725.92999 24.86531,726.08783 C 27.053973,725.33022 29.242637,724.57261 31.4313,723.815 C 31.327349,722.99813 32.181467,721.62638 31.102424,721.27583 C 30.301857,720.6538 29.318517,720.42217 28.349545,720.75098 C 27.272312,720.93052 26.195078,721.11007 25.117849,721.28961 z "
       id="path3742" />
    <path
       style="fill:#27bbea;fill-opacity:1;fill-rule:evenodd;stroke:black;stroke-width:1px;stroke-linecap:butt;stroke-linejoin:miter;stroke-opacity:1"
       d="M 17.036631,711.94574 C 15.721216,712.59893 14.508575,713.51438 13.051985,713.8396 C 12.399485,714.44863 12.708719,715.40691 12.552198,716.18515 C 12.410627,716.92705 12.986319,717.47035 13.435961,717.9666 C 13.989269,718.43142 14.001512,719.11311 13.373995,719.49123 C 12.85705,719.98723 12.372932,720.63154 12.463741,721.39135 C 12.388594,722.33052 13.288009,721.57878 13.608507,721.286 C 14.252656,720.98753 14.905658,720.54879 14.886033,719.73857 C 14.980892,718.65263 15.140009,717.57361 15.26886,716.49137 C 15.8347,715.35514 16.863089,714.38221 16.899967,713.03899 C 16.945521,712.67458 16.991075,712.31016 17.036631,711.94574 z "
       id="path3760" />
    <path
       style="fill:none;fill-opacity:0.75;fill-rule:evenodd;stroke:black;stroke-width:1px;stroke-linecap:butt;stroke-linejoin:miter;stroke-opacity:1"
       d="M -126.07143,451.70825 L -121.78571,467.42254"
       id="path3771"
       transform="translate(145.326,309.6626)" />
    <rect
       style="opacity:1;color:black;fill:black;fill-opacity:1;fill-rule:evenodd;stroke:none;stroke-width:1;stroke-linecap:butt;stroke-linejoin:miter;marker:none;marker-start:none;marker-mid:none;marker-end:none;stroke-miterlimit:4;stroke-dasharray:8, 4;stroke-dashoffset:0;stroke-opacity:1;visibility:visible;display:inline;overflow:visible"
       id="rect3773"
       width="6.0714288"
       height="6.0714288"
       x="18.12953"
       y="711.8324" />
    <text
       xml:space="preserve"
       style="font-size:12px;font-style:normal;font-variant:normal;font-weight:normal;font-stretch:normal;text-align:center;line-height:125%;writing-mode:lr-tb;text-anchor:middle;fill:black;fill-opacity:1;stroke:none;stroke-width:1px;stroke-linecap:butt;stroke-linejoin:miter;stroke-opacity:1;font-family:Arial"
       x="60.770882"
       y="710.93732"
       id="text3775"
       sodipodi:linespacing="125%"><tspan
         sodipodi:role="line"
         id="tspan3777"
         x="60.770882"
         y="710.93732">Station météo</tspan></text>
    <path
       style="fill:none;fill-opacity:1;fill-rule:evenodd;stroke:#27bbea;stroke-width:1px;stroke-linecap:butt;stroke-linejoin:miter;stroke-opacity:1"
       d="M -8.4697199,715.2287 C -1.5282522,709.19394 5.1718964,702.7612 13.538585,698.69411 C 20.215109,694.45928 27.222332,690.739 34.934562,688.8109 C 41.897126,683.77575 49.621542,688.81395 57.256014,685.23051 C 65.600209,683.43947 74.089713,681.76449 82.633766,682.98801 C 89.876451,681.50427 93.186621,688.25647 98.276948,692.0378 C 104.35369,697.31542 106.21152,705.81473 109.28217,712.99635 C 113.02079,724.28087 115.5067,735.97486 118.65416,747.38427 C 120.86608,751.71428 125.07109,757.2163 118.75638,759.69854 C 117.49573,762.75689 114.96391,762.58093 113.51438,764.02967 C 114.71063,771.42368 108.7078,777.69783 104.54435,783.09808 C 93.961837,788.40506 87.112569,798.52049 81.167324,808.37398 C 79.813492,811.40897 75.287602,806.72171 73.676091,810.63397 C 69.40007,810.24789 67.523991,810.54957 65.852478,814.26197 C 59.504428,819.45634 52.522574,813.10241 45.945978,812.79017 C 38.76712,811.33554 31.087214,808.10652 26.349218,802.47791 C 20.934138,795.33039 13.936561,789.61076 8.8673192,782.19608 C 4.6563547,777.67916 -1.5938364,775.56774 -5.80786,770.93033 C -6.8919495,765.24387 -11.502207,759.50155 -8.6560307,753.74488 C -6.4997969,745.64257 -1.30449,737.12919 -4.9162988,728.67471 C -6.6331364,724.33396 -7.6116338,719.80298 -8.4697199,715.2287 z "
       id="path3779" />
    <path
       style="fill:none;fill-opacity:1;fill-rule:evenodd;stroke:#27bbea;stroke-width:1px;stroke-linecap:butt;stroke-linejoin:miter;stroke-opacity:1"
       d="M -16.80349,752.09924 C -17.374125,754.15348 -18.050042,756.17834 -18.55528,758.25063 C -18.163655,760.51492 -17.913078,762.89329 -16.661532,764.88281 C -15.594207,767.05362 -14.734086,769.34504 -13.445641,771.39544 C -11.618616,773.38128 -9.7916446,775.36718 -7.96465,777.35306 C -6.8702865,777.52125 -5.7759762,777.68979 -4.68164,777.85816"
       id="path4670" />
    <path
       style="fill:none;fill-opacity:1;fill-rule:evenodd;stroke:#27bbea;stroke-width:1px;stroke-linecap:butt;stroke-linejoin:miter;stroke-opacity:1"
       d="M -127.27922,492.43921 L -120.46069,502.54074 L -107.83378,509.35926 L -95.206877,511.88465 L -83.590123,512.64226 L -77.276669,509.6118"
       id="path5564"
       transform="translate(145.326,309.6626)" />
    <path
       style="fill:none;fill-opacity:1;fill-rule:evenodd;stroke:#27bbea;stroke-width:1px;stroke-linecap:butt;stroke-linejoin:miter;stroke-opacity:1"
       d="M 122.8501,727.85559 C 124.99955,735.02996 128.48628,741.92682 128.85615,749.52108 C 130.16899,753.80325 131.35311,758.02651 128.56657,762.1405 C 127.41871,765.8538 124.71966,768.56958 122.29142,771.48123 C 119.1346,775.60576 114.89567,778.68325 111.71769,782.78187 C 106.37407,789.11198 99.619312,794.03509 93.98123,800.08729 C 91.458578,804.74155 87.432149,808.36192 83.042748,811.20766 C 81.696913,812.01806 80.300331,812.73911 78.908474,813.46604"
       id="path6451" />
    <path
       style="fill:none;fill-opacity:0.75;fill-rule:evenodd;stroke:black;stroke-width:1px;stroke-linecap:butt;stroke-linejoin:miter;stroke-opacity:1"
       d="M 83.454158,822.5574 L 83.454158,824.83025 L 139.51762,824.83025 L 139.51762,822.5574"
       id="path8232" />
    <text
       xml:space="preserve"
       style="font-size:11.99999142px;font-style:normal;font-variant:normal;font-weight:normal;font-stretch:normal;text-align:center;line-height:125%;writing-mode:lr-tb;text-anchor:middle;fill:black;fill-opacity:1;stroke:none;stroke-width:1px;stroke-linecap:butt;stroke-linejoin:miter;stroke-opacity:1;font-family:Arial"
       x="-7.8402686"
       y="787.93524"
       id="text3767"
       sodipodi:linespacing="125%"
       transform="matrix(0.999999,1.23483e-3,-1.23483e-3,0.999999,0,0)"><tspan
         sodipodi:role="line"
         id="tspan3769"
         x="-7.8402704"
         y="787.93524">Piste d'aviation</tspan></text>
    <text
       xml:space="preserve"
       style="font-size:12px;font-style:normal;font-variant:normal;font-weight:normal;font-stretch:normal;text-align:center;line-height:125%;writing-mode:lr-tb;text-anchor:middle;fill:black;fill-opacity:1;stroke:none;stroke-width:1px;stroke-linecap:butt;stroke-linejoin:miter;stroke-opacity:1;font-family:Arial"
       x="82.949081"
       y="820.78961"
       id="text8234"
       sodipodi:linespacing="125%"><tspan
         sodipodi:role="line"
         id="tspan8236"
         x="82.949081"
         y="820.78961">0</tspan></text>
    <text
       xml:space="preserve"
       style="font-size:12px;font-style:normal;font-variant:normal;font-weight:normal;font-stretch:normal;text-align:center;line-height:125%;writing-mode:lr-tb;text-anchor:middle;fill:black;fill-opacity:1;stroke:none;stroke-width:1px;stroke-linecap:butt;stroke-linejoin:miter;stroke-opacity:1;font-family:Arial"
       x="130.46727"
       y="821.24078"
       id="text8238"
       sodipodi:linespacing="125%"><tspan
         sodipodi:role="line"
         id="tspan8240"
         x="130.46727"
         y="821.24078">3 Km</tspan></text>
    <text
       xml:space="preserve"
       style="font-size:12px;font-style:italic;font-variant:normal;font-weight:normal;font-stretch:normal;text-align:center;line-height:100%;writing-mode:lr-tb;text-anchor:middle;fill:#27bbea;fill-opacity:1;stroke:none;stroke-width:1px;stroke-linecap:butt;stroke-linejoin:miter;stroke-opacity:1;font-family:Arial"
       x="-33.796192"
       y="721.02942"
       id="text8242"
       sodipodi:linespacing="100%"><tspan
         sodipodi:role="line"
         id="tspan8244"
         x="-33.796192"
         y="721.02942">Barrière</tspan><tspan
         sodipodi:role="line"
         x="-33.796192"
         y="733.02942"
         id="tspan8246">de récifs</tspan></text>
    <rect
       style="opacity:1;color:black;fill:black;fill-opacity:1;fill-rule:evenodd;stroke:none;stroke-width:1;stroke-linecap:butt;stroke-linejoin:miter;marker:none;marker-start:none;marker-mid:none;marker-end:none;stroke-miterlimit:4;stroke-dasharray:none;stroke-dashoffset:0;stroke-opacity:1;visibility:visible;display:inline;overflow:visible"
       id="rect8266"
       width="44.446712"
       height="8.586297"
       x="133.70924"
       y="710.93555" />
    <path
       sodipodi:type="star"
       style="opacity:1;color:black;fill:black;fill-opacity:1;fill-rule:evenodd;stroke:none;stroke-width:1;stroke-linecap:butt;stroke-linejoin:miter;marker:none;marker-start:none;marker-mid:none;marker-end:none;stroke-miterlimit:4;stroke-dasharray:none;stroke-dashoffset:0;stroke-opacity:1;visibility:visible;display:inline;overflow:visible"
       id="path8268"
       sodipodi:sides="3"
       sodipodi:cx="-81.25"
       sodipodi:cy="368.13681"
       sodipodi:r1="7.2711692"
       sodipodi:r2="3.6355846"
       sodipodi:arg1="0.52359878"
       sodipodi:arg2="1.5707963"
       inkscape:flatsided="true"
       inkscape:rounded="0"
       inkscape:randomized="0"
       d="M -74.952983,371.77239 L -87.547017,371.77239 L -81.25,360.86564 L -74.952983,371.77239 z "
       transform="matrix(-5.628099e-3,-0.999984,0.999984,-5.628099e-3,-237.937,635.9979)" />
    <path
       style="opacity:1;fill:#fff3e3;fill-opacity:1;fill-rule:evenodd;stroke:black;stroke-width:1px;stroke-linecap:butt;stroke-linejoin:miter;stroke-opacity:1"
       d="M -250.01275,102.01525 L -234.35539,109.08632 L -222.73863,107.06602 L -211.12188,106.05586 L -205.56604,110.60155 L -200.51528,109.08632 L -180.8173,112.11678 L -163.64471,116.15739 L -154.04826,116.66247 L -145.46197,120.70308 L -107.07617,142.42136 L -102.53048,147.97719 L -105.56094,148.98735 L -121.2183,148.48227 L -132.32998,147.97719 L -139.40105,144.94674 L -142.93658,144.94674 L -158.08887,143.93658 L -160.61425,152.52288 L -164.14979,154.54319 L -175.76654,154.03811 L -183.34269,158.5838 L -189.4036,160.09902 L -194.95944,157.57364 L -197.9899,153.53303 L -208.09142,151.00765 L -213.64726,146.96704 L -222.73863,144.44166 L -223.74879,138.38075 L -227.7894,133.32998 L -224.25386,126.76399 L -227.28432,120.70308 L -239.91123,113.12693 L -250.01275,106.56094 L -260.11428,101.0051 L -261.62951,98.47972 L -259.6092,96.964491 L -250.01275,102.01525 z "
       id="path9231"
       transform="translate(145.326,309.6626)" />
    <text
       xml:space="preserve"
       style="font-size:11.99997234px;font-style:normal;font-variant:normal;font-weight:normal;font-stretch:normal;text-align:center;line-height:125%;writing-mode:lr-tb;text-anchor:middle;fill:black;fill-opacity:1;stroke:none;stroke-width:1px;stroke-linecap:butt;stroke-linejoin:miter;stroke-opacity:1;font-family:Arial"
       x="36.314003"
       y="448.28406"
       id="text11003"
       sodipodi:linespacing="125%"
       transform="matrix(0.986442,0.164108,-0.164108,0.986442,0,0)"><tspan
         sodipodi:role="line"
         id="tspan11005"
         x="36.314004"
         y="448.28406">Piste d'aviation</tspan></text>
    <path
       style="fill:none;fill-opacity:0.75;fill-rule:evenodd;stroke:black;stroke-width:1px;stroke-linecap:butt;stroke-linejoin:miter;stroke-opacity:1"
       d="M -220.21325,119.69292 L -192.93913,127.26907"
       id="path11007"
       transform="translate(145.326,309.6626)" />
    <rect
       style="opacity:1;color:black;fill:black;fill-opacity:1;fill-rule:evenodd;stroke:none;stroke-width:1;stroke-linecap:butt;stroke-linejoin:miter;marker:none;marker-start:none;marker-mid:none;marker-end:none;stroke-miterlimit:4;stroke-dasharray:8, 4;stroke-dashoffset:0;stroke-opacity:1;visibility:visible;display:inline;overflow:visible"
       id="rect11009"
       width="6.0714288"
       height="6.0714288"
       x="-62.265602"
       y="422.27921" />
    <text
       xml:space="preserve"
       style="font-size:12px;font-style:normal;font-variant:normal;font-weight:normal;font-stretch:normal;text-align:center;line-height:125%;writing-mode:lr-tb;text-anchor:middle;fill:black;fill-opacity:1;stroke:none;stroke-width:1px;stroke-linecap:butt;stroke-linejoin:miter;stroke-opacity:1;font-family:Arial"
       x="-27.454031"
       y="419.00323"
       id="text11011"
       sodipodi:linespacing="125%"><tspan
         sodipodi:role="line"
         id="tspan11013"
         x="-27.454031"
         y="419.00323">Station météo</tspan></text>
    <path
       style="fill:none;fill-opacity:1;fill-rule:evenodd;stroke:#27bbea;stroke-width:1px;stroke-linecap:butt;stroke-linejoin:miter;stroke-opacity:1"
       d="M 111.48589,424.80984 C 116.67062,422.68667 121.51274,419.53874 127.14325,418.74892 C 131.64466,425.57291 136.01347,432.48103 140.27524,439.45705 C 141.12783,446.42118 134.77793,444.08488 130.17371,444.00273 C 127.67289,450.43799 132.44352,450.97323 137.74986,451.07379 C 140.9998,455.10421 140.28313,460.31928 138.83558,464.85004 C 133.50265,471.63106 130.55331,480.84063 122.2839,484.62978 C 111.91197,491.27418 101.84913,498.50715 90.050964,502.43589 C 77.705637,507.22403 65.78682,513.4898 53.132896,517.23879 C 48.215165,517.84099 42.38989,515.98988 38.08421,518.2466 C 34.69337,521.99941 31.09562,524.69594 26.31243,521.34088 C 21.93248,519.89782 20.50604,528.74204 15.18545,526.33017 C 11.45165,523.36508 7.61809,521.2079 2.54839,523.17572 C -5.89007,524.74721 -14.3599,525.00306 -22.8644,523.8048 C -32.14983,526.81187 -41.88632,525.34096 -51.38881,524.60475 C -61.42171,521.74509 -71.76679,519.66153 -80.5896,513.79348 C -86.01012,509.24368 -94.13585,511.92772 -98.91328,506.39996 C -112.30907,495.86978 -126.97213,486.79714 -138.36538,473.96372 C -147.59318,464.14087 -158.14205,455.41692 -166.47906,444.85309 C -173.38179,434.15127 -181.58346,424.1449 -188.00896,413.23919 C -190.92031,405.0466 -193.78434,396.3654 -193.75556,387.74375 C -191.1686,383.09407 -189.14277,378.31895 -190.04464,372.88939 C -190.99017,365.99659 -186.14023,360.33367 -183.98372,354.09916 C -179.52021,353.85436 -173.2499,356.78099 -172.23161,350.48886 C -169.94303,346.61393 -168.17866,341.27576 -164.52162,338.94687 C -159.55481,340.12242 -156.04911,337.77052 -153.17406,333.89611 C -148.75086,337.20789 -154.17114,343.86111 -149.73414,346.30827 C -144.17961,350.42901 -137.64624,353.75422 -132.67785,358.35134 C -130.2111,362.80554 -130.20674,369.62214 -124.20203,370.68205 C -119.92119,372.6977 -115.49794,376.13958 -111.92011,371.11428 C -106.83088,369.29715 -100.60398,371.12402 -95.05908,370.84807 C -89.31683,371.65556 -84.70613,371.83555 -90.54462,366.22099 C -88.26389,358.76257 -84.24639,368.04508 -80.86535,367.73739 C -75.27232,365.09129 -83.17348,359.67234 -74.51795,361.6753 C -67.89681,360.17572 -68.69151,365.01363 -70.09928,369.81799 C -70.732,374.52064 -71.66809,380.59114 -64.9215,378.34282 C -60.88158,379.19614 -61.86799,386.75122 -59.80166,390.236 C -57.28437,397.22489 -54.70135,404.19219 -52.15882,411.17278 C -45.69885,409.76691 -51.19679,403.65388 -51.61352,399.54104 C -54.03599,392.23294 -56.69177,384.96029 -55.69436,377.1325 C -57.57017,370.66733 -53.4926,369.79509 -47.96648,370.28368 C -44.79509,370.18273 -34.49484,374.73533 -40.53621,369.34245 C -43.24618,366.43786 -52.2922,368.87039 -50.25944,363.14772 C -47.79734,361.21866 -41.22801,361.16053 -37.68587,362.87307 C -31.79156,365.82064 -24.2901,366.68062 -21.10793,373.1511 C -19.40375,376.51555 -14.00858,382.97366 -20.21221,384.2189 C -25.95309,385.92787 -23.3257,393.32185 -25.47585,397.76182 C -27.75086,400.52502 -27.17061,411.86518 -24.16974,405.29556 C -24.4144,399.22605 -14.90058,400.63746 -16.44572,394.94712 C -17.91563,388.77395 -16.32034,385.934 -9.89482,388.34666 C -2.68998,389.84635 5.26196,389.20597 11.95742,392.16484 C 17.15258,393.77934 18.82109,398.00688 19.41964,403.02718 C 22.66943,405.87314 26.90278,410.06108 31.72071,407.88364 C 36.07429,406.65663 42.16386,407.14405 45.43864,404.85165 C 47.837534,396.78019 42.39133,389.33132 41.2191,381.44378 C 37.64621,375.25636 47.428275,379.61079 49.370508,382.11599 C 53.902368,387.36347 59.272436,392.13241 60.396339,399.32549 C 61.213863,403.48587 54.726675,406.07597 52.941379,409.92656 C 49.198477,414.06502 48.5647,418.48948 55.384829,418.17421 C 62.204758,421.15812 70.677604,417.63947 76.388582,423.27983 C 77.98616,424.63163 79.583738,425.98343 81.181316,427.33522"
       id="path11900" />
    <text
       xml:space="preserve"
       style="font-size:12px;font-style:italic;font-variant:normal;font-weight:normal;font-stretch:normal;text-align:center;line-height:100%;writing-mode:lr-tb;text-anchor:middle;fill:#27bbea;fill-opacity:1;stroke:none;stroke-width:1px;stroke-linecap:butt;stroke-linejoin:miter;stroke-opacity:1;font-family:Arial"
       x="104.5947"
       y="464.45071"
       id="text12790"
       sodipodi:linespacing="100%"><tspan
         sodipodi:role="line"
         id="tspan12792"
         x="104.5947"
         y="464.45071">Barrière</tspan><tspan
         sodipodi:role="line"
         x="104.5947"
         y="476.45071"
         id="tspan12794">de récifs</tspan></text>
    <path
       style="fill:none;fill-opacity:1;fill-rule:evenodd;stroke:#27bbea;stroke-width:1px;stroke-linecap:butt;stroke-linejoin:miter;stroke-opacity:1"
       d="M -226.27417,92.418805 L -234.35539,87.368042 L -252.03306,83.832508 L -260.11428,79.791898 L -268.70057,69.185296 L -285.36809,66.154839 L -302.54068,70.195449 L -320.72343,76.256364 L -328.80465,81.307127 L -323.24881,90.3985 L -319.2082,93.428957 L -317.1879,99.994949 L -306.07622,100.50003 L -304.05591,109.5914 L -300.0153,119.18785 L -293.95439,123.22846 L -288.39855,120.70308"
       id="path12796"
       transform="translate(145.326,309.6626)" />
    <path
       style="fill:none;fill-opacity:1;fill-rule:evenodd;stroke:#27bbea;stroke-width:1px;stroke-linecap:butt;stroke-linejoin:miter;stroke-opacity:1"
       d="M -205.56604,156.56349 L -196.97974,163.12948 L -186.87822,164.13964 L -178.797,161.61425 L -176.77669,159.08887"
       id="path13683"
       transform="translate(145.326,309.6626)" />
    <path
       style="fill:none;fill-opacity:1;fill-rule:evenodd;stroke:#27bbea;stroke-width:1px;stroke-linecap:butt;stroke-linejoin:miter;stroke-opacity:1"
       d="M -170.2107,161.61425 L -163.64471,161.10918 L -154.55334,153.02796 L -141.92643,152.52288 L -136.37059,152.0178"
       id="path13685"
       transform="translate(145.326,309.6626)" />
    <path
       style="fill:none;fill-opacity:1;fill-rule:evenodd;stroke:#27bbea;stroke-width:1px;stroke-linecap:butt;stroke-linejoin:miter;stroke-opacity:1"
       d="M -127.27922,153.53303 L -126.26907,156.05841 L -115.66247,157.06857 L -105.56094,154.03811"
       id="path13687"
       transform="translate(145.326,309.6626)" />
    <path
       style="fill:none;fill-opacity:1;fill-rule:evenodd;stroke:#27bbea;stroke-width:1px;stroke-linecap:butt;stroke-linejoin:miter;stroke-opacity:1"
       d="M -235.87062,163.12948 L -229.8097,168.18025 L -222.73863,168.18025 L -216.17264,175.75639 L -211.62696,176.76654 L -209.10158,171.71578"
       id="path13689"
       transform="translate(145.326,309.6626)" />
    <path
       style="fill:none;fill-opacity:1;fill-rule:evenodd;stroke:#27bbea;stroke-width:1px;stroke-linecap:butt;stroke-linejoin:miter;stroke-opacity:1"
       d="M -203.54574,176.76654 L -198.49497,183.33253 L -186.37314,187.87822 L -179.80715,182.82746 L -177.28177,180.80715"
       id="path13691"
       transform="translate(145.326,309.6626)" />
    <path
       style="fill:none;fill-opacity:1;fill-rule:evenodd;stroke:#27bbea;stroke-width:1px;stroke-linecap:butt;stroke-linejoin:miter;stroke-opacity:1"
       d="M -174.25131,185.35284 L -168.69547,193.43406 L -166.17009,187.37314 L -162.12948,183.83761 L -156.57364,183.33253"
       id="path13693"
       transform="translate(145.326,309.6626)" />
    <path
       style="fill:none;fill-opacity:1;fill-rule:evenodd;stroke:#27bbea;stroke-width:1px;stroke-linecap:butt;stroke-linejoin:miter;stroke-opacity:1"
       d="M -0.64104003,484.40884 C 2.5577765,486.09243 5.7565955,487.77601 8.95541,489.4596 C 11.480793,487.94437 14.00617,486.42914 16.53155,484.91391 C 17.862777,483.37434 17.657681,480.33147 20.015706,479.85778 C 26.115584,480.0926 32.181089,479.32543 38.24983,478.853 C 39.765067,475.82254 41.280291,472.79207 42.79552,469.76161 C 44.479115,469.0882 46.162693,468.41475 47.846279,467.74132"
       id="path13695" />
    <rect
       style="opacity:1;color:black;fill:black;fill-opacity:1;fill-rule:evenodd;stroke:none;stroke-width:1;stroke-linecap:butt;stroke-linejoin:miter;marker:none;marker-start:none;marker-mid:none;marker-end:none;stroke-miterlimit:4;stroke-dasharray:none;stroke-dashoffset:0;stroke-opacity:1;visibility:visible;display:inline;overflow:visible"
       id="rect14585"
       width="116.74802"
       height="8.586297"
       x="128.65848"
       y="533.8634" />
    <path
       sodipodi:type="star"
       style="opacity:1;color:black;fill:black;fill-opacity:1;fill-rule:evenodd;stroke:none;stroke-width:1;stroke-linecap:butt;stroke-linejoin:miter;marker:none;marker-start:none;marker-mid:none;marker-end:none;stroke-miterlimit:4;stroke-dasharray:none;stroke-dashoffset:0;stroke-opacity:1;visibility:visible;display:inline;overflow:visible"
       id="path14587"
       sodipodi:sides="3"
       sodipodi:cx="-81.25"
       sodipodi:cy="368.13681"
       sodipodi:r1="7.2711692"
       sodipodi:r2="3.6355846"
       sodipodi:arg1="0.52359878"
       sodipodi:arg2="1.5707963"
       inkscape:flatsided="true"
       inkscape:rounded="0"
       inkscape:randomized="0"
       d="M -74.952983,371.77239 L -87.547017,371.77239 L -81.25,360.86564 L -74.952983,371.77239 z "
       transform="matrix(0.65593,-0.754822,0.754822,0.65593,-129.6521,205.0205)" />
    <rect
       style="opacity:1;color:black;fill:black;fill-opacity:1;fill-rule:evenodd;stroke:none;stroke-width:1;stroke-linecap:butt;stroke-linejoin:miter;marker:none;marker-start:none;marker-mid:none;marker-end:none;stroke-miterlimit:4;stroke-dasharray:none;stroke-dashoffset:0;stroke-opacity:1;visibility:visible;display:inline;overflow:visible"
       id="rect14589"
       width="44.446705"
       height="8.5862951"
       x="406.88513"
       y="318.2449"
       transform="matrix(0.757344,0.653016,-0.653016,0.757344,0,0)" />
    <rect
       style="opacity:1;color:black;fill:black;fill-opacity:1;fill-rule:evenodd;stroke:none;stroke-width:1;stroke-linecap:butt;stroke-linejoin:miter;marker:none;marker-start:none;marker-mid:none;marker-end:none;stroke-miterlimit:4;stroke-dasharray:none;stroke-dashoffset:0;stroke-opacity:1;visibility:visible;display:inline;overflow:visible"
       id="rect14612"
       width="114.53105"
       height="8.1062603"
       x="664.51453"
       y="-295.57297"
       transform="matrix(0.481377,0.876514,-0.969919,0.243428,0,0)" />
    <path
       sodipodi:type="star"
       style="opacity:1;color:black;fill:black;fill-opacity:1;fill-rule:evenodd;stroke:none;stroke-width:1;stroke-linecap:butt;stroke-linejoin:miter;marker:none;marker-start:none;marker-mid:none;marker-end:none;stroke-miterlimit:4;stroke-dasharray:none;stroke-dashoffset:0;stroke-opacity:1;visibility:visible;display:inline;overflow:visible"
       id="path14614"
       sodipodi:sides="3"
       sodipodi:cx="-81.25"
       sodipodi:cy="368.13681"
       sodipodi:r1="7.2711692"
       sodipodi:r2="3.6355846"
       sodipodi:arg1="0.52359878"
       sodipodi:arg2="1.5707963"
       inkscape:flatsided="true"
       inkscape:rounded="0"
       inkscape:randomized="0"
       d="M -74.952983,371.77239 L -87.547017,371.77239 L -81.25,360.86564 L -74.952983,371.77239 z "
       transform="matrix(-0.928169,0.372161,-0.372161,-0.928169,720.3463,986.6466)" />
    <path
       style="opacity:1;fill:#fff3e3;fill-opacity:1;fill-rule:evenodd;stroke:black;stroke-width:1px;stroke-linecap:butt;stroke-linejoin:miter;stroke-opacity:1"
       d="M 522.75394,158.07872 L 510.12703,166.66502 L 507.09657,172.22086 L 502.55089,177.77669 L 500.02551,183.33253 L 496.48997,184.34269 L 492.95444,187.37314 L 494.46967,195.45436 L 490.93413,203.03051 L 490.93413,208.58635 L 499.52043,211.6168 L 511.64226,210.10158 L 518.20825,212.12188 L 528.30978,210.60665 L 535.88592,210.60665 L 540.93668,214.14219 L 545.98744,214.64726 L 547.50267,208.08127 L 548.00775,200.50513 L 546.49252,194.94929 L 548.00775,184.34269 L 545.48237,178.78685 L 539.42146,177.27162 L 535.38084,174.74624 L 530.33008,168.18025 L 528.30978,161.10918 L 522.75394,158.07872 z "
       id="path14674"
       transform="translate(145.326,309.6626)"
       sodipodi:nodetypes="ccccccccccccccccccccccccccc" />
    <path
       style="fill:none;fill-opacity:0.75;fill-rule:evenodd;stroke:black;stroke-width:1px;stroke-linecap:butt;stroke-linejoin:miter;stroke-opacity:1"
       d="M 508.6118,178.28177 L 542.95699,189.39345"
       id="path15565"
       transform="translate(145.326,309.6626)" />
    <text
       xml:space="preserve"
       style="font-size:11.99998569px;font-style:normal;font-variant:normal;font-weight:normal;font-stretch:normal;text-align:center;line-height:125%;writing-mode:lr-tb;text-anchor:middle;fill:black;fill-opacity:1;stroke:none;stroke-width:1px;stroke-linecap:butt;stroke-linejoin:miter;stroke-opacity:1;font-family:Arial"
       x="686.3338"
       y="507.48801"
       id="text15567"
       sodipodi:linespacing="125%"
       transform="matrix(0.999999,1.23483e-3,-1.23483e-3,0.999999,0,0)"><tspan
         sodipodi:role="line"
         id="tspan15569"
         x="686.3338"
         y="507.48801">Piste d'aviation</tspan></text>
    <path
       style="fill:#fff3e3;fill-opacity:1;fill-rule:evenodd;stroke:black;stroke-width:1px;stroke-linecap:butt;stroke-linejoin:miter;stroke-opacity:1"
       d="M 668.18311,532.08514 C 668.83787,532.08515 669.49264,532.08515 670.14741,532.08515 C 670.14744,532.79943 670.14741,533.51372 670.14741,534.228 C 669.49262,534.64463 668.83788,535.06133 668.18312,535.478 C 667.64741,535.47791 667.11171,535.478 666.576,535.478 C 666.57603,534.88276 666.576,534.28752 666.576,533.69228 C 666.87361,533.69234 667.17121,533.69228 667.46882,533.69228 C 667.70695,533.15659 667.94505,532.62085 668.18311,532.08514 z "
       id="path15573" />
    <text
       xml:space="preserve"
       style="font-size:12px;font-style:normal;font-variant:normal;font-weight:normal;font-stretch:normal;text-align:center;line-height:89.99999762%;writing-mode:lr-tb;text-anchor:middle;fill:black;fill-opacity:1;stroke:none;stroke-width:1px;stroke-linecap:butt;stroke-linejoin:miter;stroke-opacity:1;font-family:Arial"
       x="689.61169"
       y="531.54944"
       id="text15579"
       sodipodi:linespacing="89.999998%"><tspan
         sodipodi:role="line"
         id="tspan15581"
         x="689.61169"
         y="531.54944">Rocher</tspan><tspan
         sodipodi:role="line"
         x="689.61169"
         y="542.34944"
         id="tspan15583">sud</tspan></text>
    <rect
       y="470.83514"
       x="663.54028"
       height="6.0714288"
       width="6.0714288"
       id="rect15585"
       style="opacity:1;color:black;fill:black;fill-opacity:1;fill-rule:evenodd;stroke:none;stroke-width:1;stroke-linecap:butt;stroke-linejoin:miter;marker:none;marker-start:none;marker-mid:none;marker-end:none;stroke-miterlimit:4;stroke-dasharray:8, 4;stroke-dashoffset:0;stroke-opacity:1;visibility:visible;display:inline;overflow:visible" />
    <text
       sodipodi:linespacing="125%"
       id="text15587"
       y="467.50101"
       x="665.26593"
       style="font-size:12px;font-style:normal;font-variant:normal;font-weight:normal;font-stretch:normal;text-align:center;line-height:125%;writing-mode:lr-tb;text-anchor:middle;fill:black;fill-opacity:1;stroke:none;stroke-width:1px;stroke-linecap:butt;stroke-linejoin:miter;stroke-opacity:1;font-family:Arial"
       xml:space="preserve"><tspan
         y="467.50101"
         x="665.26593"
         id="tspan15589"
         sodipodi:role="line">Station météo</tspan></text>
    <path
       style="fill:#fff3e3;fill-opacity:1;fill-rule:evenodd;stroke:black;stroke-width:1px;stroke-linecap:butt;stroke-linejoin:miter;stroke-opacity:1"
       d="M 608.6169,169.82174 L 610.13213,169.82174 L 610.13213,171.58951 L 609.12198,173.48355 L 607.98556,174.11489 L 607.48048,174.11489 L 607.10168,171.84205 L 608.6169,169.82174 z "
       id="path15593"
       transform="translate(145.326,309.6626)" />
    <path
       style="fill:#fff3e3;fill-opacity:1;fill-rule:evenodd;stroke:black;stroke-width:1px;stroke-linecap:butt;stroke-linejoin:miter;stroke-opacity:1"
       d="M 612.78378,167.17009 C 612.0472,167.08346 611.8999,167.19843 611.8999,168.18024 C 611.8999,168.76935 611.64736,169.17814 611.64736,169.82174 C 611.64736,170.62152 612.85875,169.74678 612.91005,169.69547 C 613.30134,169.30418 613.5414,169.09773 613.5414,168.43278 C 613.5414,167.55231 613.62813,167.6767 612.78378,167.17009 z "
       id="path15595"
       transform="translate(145.326,309.6626)" />
    <path
       style="fill:#fff3e3;fill-opacity:1;fill-rule:evenodd;stroke:black;stroke-width:1px;stroke-linecap:butt;stroke-linejoin:miter;stroke-opacity:1"
       d="M 615.30917,168.93786 C 614.73284,168.8781 614.20911,168.86512 613.92021,169.44294 C 613.70748,169.86839 613.79394,170.61182 613.79394,171.2107 C 613.79394,171.64696 615.00542,171.46324 615.43543,171.46324 C 615.66071,171.46324 615.5617,169.90376 615.5617,169.69547 C 615.5617,169.2547 615.59935,169.51823 615.30917,168.93786 z "
       id="path15597"
       transform="translate(145.326,309.6626)" />
    <text
       xml:space="preserve"
       style="font-size:12px;font-style:normal;font-variant:normal;font-weight:normal;font-stretch:normal;text-align:center;line-height:80.00000119%;writing-mode:lr-tb;text-anchor:middle;fill:black;fill-opacity:1;stroke:none;stroke-width:1px;stroke-linecap:butt;stroke-linejoin:miter;stroke-opacity:1;font-family:Arial"
       x="780.58563"
       y="476.07507"
       id="text15599"
       sodipodi:linespacing="80.000001%"><tspan
         sodipodi:role="line"
         id="tspan15601"
         x="780.58563"
         y="476.07507">Les roches</tspan><tspan
         sodipodi:role="line"
         x="780.58563"
         y="485.67507"
         id="tspan15603">vertes</tspan></text>
    <path
       style="fill:#fff3e3;fill-opacity:1;fill-rule:evenodd;stroke:black;stroke-width:1px;stroke-linecap:butt;stroke-linejoin:miter;stroke-opacity:1"
       d="M 726.42594,28.779194 L 723.64802,30.294423 L 721.12264,30.294423 L 719.22861,30.420692 L 717.08203,33.829957 C 717.08203,33.829957 717.2083,35.345186 717.2083,35.850262 C 717.2083,36.355338 720.36503,37.996836 720.36503,37.996836 L 721.62772,38.375644 L 721.88026,40.901025 L 722.63787,41.406101 L 724.53191,41.279832 L 725.92087,37.870567 L 726.80475,35.218917 L 728.95133,33.577419 L 729.20386,31.683383 L 729.07759,29.158002 L 726.42594,28.779194 z "
       id="path15605"
       transform="translate(145.326,309.6626)" />
    <path
       style="fill:#fff3e3;fill-opacity:1;fill-rule:evenodd;stroke:black;stroke-width:1px;stroke-linecap:butt;stroke-linejoin:miter;stroke-opacity:1"
       d="M 732.99194,26.63262 C 732.91061,26.799226 732.28335,27.720016 731.98178,28.02158 C 731.58831,28.415054 731.75353,29.12888 731.85551,29.536809 C 731.96581,29.977999 733.3831,29.789347 733.74955,29.789347 C 734.27983,29.789347 734.52144,29.227157 734.63343,28.779194 C 734.77109,28.228578 734.63343,27.456079 734.63343,26.885158 C 734.63343,26.444279 733.36341,26.63262 732.99194,26.63262 z "
       id="path15607"
       transform="translate(145.326,309.6626)" />
    <path
       style="fill:#fff3e3;fill-opacity:1;fill-rule:evenodd;stroke:black;stroke-width:1px;stroke-linecap:butt;stroke-linejoin:miter;stroke-opacity:1"
       d="M 725.7946,42.92133 C 725.27663,42.81877 724.64939,42.930114 724.27937,43.300137 C 723.92465,43.654858 724.02683,44.373689 724.02683,44.941635 C 724.02683,45.622056 724.44123,45.896696 724.65818,46.330595 C 724.71898,46.452202 726.34791,46.330595 726.55221,46.330595 C 727.17637,46.330595 726.93102,45.376452 726.93102,44.815366 C 726.93102,44.079917 726.89053,43.597958 726.67848,43.173868 C 726.57502,42.966934 725.83193,42.928796 725.7946,42.92133 z "
       id="path15609"
       transform="translate(145.326,309.6626)" />
    <path
       style="fill:#fff3e3;fill-opacity:1;fill-rule:evenodd;stroke:black;stroke-width:1px;stroke-linecap:butt;stroke-linejoin:miter;stroke-opacity:1"
       d="M 735.76986,18.677669 C 735.52412,18.677669 734.503,18.677669 733.87582,18.677669 C 733.16788,18.677669 733.24447,19.25107 733.24447,19.94036 C 733.24447,20.876717 733.17682,20.950512 734.12836,20.950512 C 734.7597,20.950512 735.39105,20.950512 736.02239,20.950512 C 736.64655,20.950512 736.4012,19.996369 736.4012,19.435283 C 736.4012,18.91324 736.46693,19.235332 735.76986,18.677669 z "
       id="path15611"
       transform="translate(145.326,309.6626)" />
    <text
       xml:space="preserve"
       style="font-size:12px;font-style:normal;font-variant:normal;font-weight:normal;font-stretch:normal;text-align:center;line-height:80.00000119%;writing-mode:lr-tb;text-anchor:middle;fill:black;fill-opacity:1;stroke:none;stroke-width:1px;stroke-linecap:butt;stroke-linejoin:miter;stroke-opacity:1;font-family:Arial"
       x="904.70819"
       y="327.07758"
       id="text15613"
       sodipodi:linespacing="80.000001%"><tspan
         sodipodi:role="line"
         id="tspan15615"
         x="904.70819"
         y="327.07758">Rocher de</tspan><tspan
         sodipodi:role="line"
         x="904.70819"
         y="336.67758"
         id="tspan15617">l'épave</tspan></text>
    <text
       xml:space="preserve"
       style="font-size:12px;font-style:normal;font-variant:normal;font-weight:normal;font-stretch:normal;text-align:center;line-height:80.00000119%;writing-mode:lr-tb;text-anchor:middle;fill:black;fill-opacity:1;stroke:none;stroke-width:1px;stroke-linecap:butt;stroke-linejoin:miter;stroke-opacity:1;font-family:Arial"
       x="899.69025"
       y="354.54828"
       id="text15619"
       sodipodi:linespacing="80.000001%"><tspan
         sodipodi:role="line"
         x="899.69025"
         y="354.54828"
         id="tspan15623">Île du Lys</tspan></text>
    <text
       xml:space="preserve"
       style="font-size:7.9999876px;font-style:normal;font-variant:normal;font-weight:normal;font-stretch:normal;text-align:center;line-height:125%;writing-mode:lr-tb;text-anchor:middle;fill:#b73c09;fill-opacity:1;stroke:none;stroke-width:1px;stroke-linecap:butt;stroke-linejoin:miter;stroke-opacity:1;font-family:Arial"
       x="505.04205"
       y="795.00854"
       id="text15627"
       sodipodi:linespacing="125%"
       transform="matrix(0.848387,-0.529377,0.529377,0.848387,0,0)"><tspan
         sodipodi:role="line"
         id="tspan15629"
         x="505.04206"
         y="795.00854">Bancs de sable découverts à marée basse</tspan></text>
    <text
       xml:space="preserve"
       style="font-size:12px;font-style:normal;font-variant:normal;font-weight:normal;font-stretch:normal;text-align:center;line-height:89.99999762%;writing-mode:lr-tb;text-anchor:middle;fill:black;fill-opacity:1;stroke:none;stroke-width:1px;stroke-linecap:butt;stroke-linejoin:miter;stroke-opacity:1;font-family:Arial"
       x="703.39246"
       y="490.052"
       id="text15631"
       sodipodi:linespacing="89.999998%"><tspan
         sodipodi:role="line"
         x="703.39246"
         y="490.052"
         id="tspan15635">Île Glorieuse</tspan></text>
    <path
       style="fill:none;fill-opacity:1;fill-rule:evenodd;stroke:#27bbea;stroke-width:1px;stroke-linecap:butt;stroke-linejoin:miter;stroke-opacity:1"
       d="M 711.65246,42.92133 L 711.14739,43.426407 L 710.13723,46.961941 L 710.13723,59.588847 L 694.47987,70.700525 L 665.18545,80.296974 L 647.50778,95.449262 L 637.40625,106.56094 L 630.33518,112.62186 L 623.26412,132.31983 L 611.14229,149.9975 L 601.54584,162.11933 L 587.90878,162.11933 L 575.28187,158.07872 L 559.62451,153.53303 L 551.54329,143.43151 L 551.03821,128.27922 L 556.59405,102.01525 L 563.16004,84.842661 L 558.10928,78.781746 L 555.07882,79.286822 L 546.49252,98.47972 L 540.93668,117.16754 L 528.30978,138.88582 L 517.1981,153.02796 L 507.09657,163.63456 L 499.52043,171.2107 L 492.95444,181.31223 L 487.3986,181.8173 L 483.35799,193.43406 L 484.87322,198.9899 L 485.88337,207.07112"
       id="path16524"
       transform="translate(145.326,309.6626)" />
    <path
       style="fill:none;fill-opacity:1;fill-rule:evenodd;stroke:#27bbea;stroke-width:1px;stroke-linecap:butt;stroke-linejoin:miter;stroke-opacity:1"
       d="M 487.90368,216.16249 L 494.97474,225.75894 L 502.04581,223.23356 L 515.17779,226.76909 L 528.30978,230.30463 L 538.91638,233.84016 L 551.54329,235.86047 L 564.67527,229.79955 L 572.75649,220.2031 L 584.87832,212.12188 L 608.11183,205.05081 L 616.19305,202.52543 L 619.22351,189.89852 L 616.69812,173.73608 L 623.26412,169.1904 L 626.79965,161.10918 L 634.88087,155.04826 L 642.96209,155.04826 L 651.04331,158.5838 L 657.6093,168.68532 L 670.74128,169.69547 L 679.32758,166.15994 L 680.84281,160.09902 L 688.92403,159.59395 L 700.54078,157.06857 L 722.25906,145.45181 L 731.35044,135.35029 L 730.84536,134.84521"
       id="path16526"
       transform="translate(145.326,309.6626)" />
    <path
       style="fill:none;fill-opacity:1;fill-rule:evenodd;stroke:#27bbea;stroke-width:1px;stroke-linecap:butt;stroke-linejoin:miter;stroke-opacity:1"
       d="M 738.4215,132.31983 L 748.52303,117.67262 L 750.54334,102.01525 L 754.58395,89.388347 L 765.19055,85.852813 L 771.75654,81.812203 L 780.34284,83.327432 L 796.50528,79.791898 L 815.69817,66.154839 L 826.30478,54.538085 L 830.34539,43.426407 L 833.37584,36.355339 L 831.35554,27.769042 L 823.77939,20.192898 L 817.71848,20.192898 L 806.10172,16.152288 L 793.47482,15.142136 L 784.88852,15.142136 L 767.21085,17.162441 L 756.60425,21.203051 L 742.96719,19.182746 L 738.4215,18.172593 L 729.83521,18.172593 L 722.76414,22.213203 L 713.67277,27.263966"
       id="path16528"
       transform="translate(145.326,309.6626)" />
    <text
       sodipodi:linespacing="100%"
       id="text17415"
       y="440.71213"
       x="736.9502"
       style="font-size:12px;font-style:italic;font-variant:normal;font-weight:normal;font-stretch:normal;text-align:center;line-height:100%;writing-mode:lr-tb;text-anchor:middle;fill:#27bbea;fill-opacity:1;stroke:none;stroke-width:1px;stroke-linecap:butt;stroke-linejoin:miter;stroke-opacity:1;font-family:Arial"
       xml:space="preserve"><tspan
         y="440.71213"
         x="736.9502"
         id="tspan17417"
         sodipodi:role="line">Barrière</tspan><tspan
         id="tspan17419"
         y="452.71213"
         x="736.9502"
         sodipodi:role="line">de récifs</tspan></text>
    <rect
       style="opacity:1;color:black;fill:black;fill-opacity:1;fill-rule:evenodd;stroke:none;stroke-width:1;stroke-linecap:butt;stroke-linejoin:miter;marker:none;marker-start:none;marker-mid:none;marker-end:none;stroke-miterlimit:4;stroke-dasharray:none;stroke-dashoffset:0;stroke-opacity:1;visibility:visible;display:inline;overflow:visible"
       id="rect17421"
       width="213.72266"
       height="8.586297"
       x="413.23126"
       y="351.82632" />
    <rect
       style="opacity:1;color:black;fill:black;fill-opacity:1;fill-rule:evenodd;stroke:none;stroke-width:1;stroke-linecap:butt;stroke-linejoin:miter;marker:none;marker-start:none;marker-mid:none;marker-end:none;stroke-miterlimit:4;stroke-dasharray:none;stroke-dashoffset:0;stroke-opacity:1;visibility:visible;display:inline;overflow:visible"
       id="rect17423"
       width="90.00489"
       height="7.9858093"
       x="515.25995"
       y="-316.45319"
       transform="matrix(0.612551,0.790431,-0.984548,0.175114,0,0)" />
    <path
       sodipodi:type="star"
       style="opacity:1;color:black;fill:black;fill-opacity:1;fill-rule:evenodd;stroke:none;stroke-width:1;stroke-linecap:butt;stroke-linejoin:miter;marker:none;marker-start:none;marker-mid:none;marker-end:none;stroke-miterlimit:4;stroke-dasharray:none;stroke-dashoffset:0;stroke-opacity:1;visibility:visible;display:inline;overflow:visible"
       id="path17425"
       sodipodi:sides="3"
       sodipodi:cx="-81.25"
       sodipodi:cy="368.13681"
       sodipodi:r1="7.2711692"
       sodipodi:r2="3.6355846"
       sodipodi:arg1="0.52359878"
       sodipodi:arg2="1.5707963"
       inkscape:flatsided="true"
       inkscape:rounded="0"
       inkscape:randomized="0"
       d="M -74.952983,371.77239 L -87.547017,371.77239 L -81.25,360.86564 L -74.952983,371.77239 z "
       transform="matrix(-0.928169,0.263742,-0.372161,-0.657771,740.2548,688.5776)" />
  </g>
</svg>
