<svg xmlns="http://www.w3.org/2000/svg" version="1.2" viewBox="193.9 196.69 410.4 414.26">
	<title>Emblem_of_Qatar-svg</title>
	<style>
		.s0 { fill: #89153d } 
	</style>
	<g id="Layer">
		<path id="Layer" fill-rule="evenodd" class="s0" d="m529.8 462.8c0 0-10.4-0.1-17.7 0-8.3 0-6.5-3.5-17.7-0.2-11.2 3.2-6.9 2.6-18.1 3.7-11.2 1.2-9.8-0.1-18.6-1-8.9-0.9-8.3-3.6-17.3-3.6-10.9 0.1-14.7 1.8-14.7 1.8 0 0 0.8-8.3 5.8-10.4 5-2 4.4-4.1 15.7-4.1 11.2 0 16.2-0.9 18.6-1.4 3.2-0.9 10.2-0.4 8.8-10.1-1.5-10.5-9.2-46.9-9.7-56.7-0.5-6.8-3.9-50.7-3.9-50.7 0 0 1.5-9.5 1.8-12.1 0.3-2.7 3-11.5 3-11.5 0 0 5.5 0.3 6.5 2.6 0.8 2.4 5 2.9 3.5 6.5-2.1 5-3.9 24.1-2.1 38.5 1.5 12 2.5 29.3 4 38.9 1.8 11.3 10.2 39.8 14.1 45.1 2.1 3.2 3.8 1.5 5.8 0.3 2.1-1.2 4.6-23 5.6-32.2 0.9-7.6-0.5-29.2-0.7-34.5-0.7-18.3-6.3-37.5-15.2-52.3-2.8-4.6 0 0.4 0.3-2.6 0.3-3 0.3-5 0.3-5 0 0 3.2 0.3 5.9 0.9 2.7 0.5 3 0.9 3 0.9 0 0 6 9.4 10.5 24 3.4 10.9 7.1 26.6 6.4 46.4-0.5 15.6 0.8 52.3 0.8 52.3 0 0 2.6 3.6 8.5 4.2 5.9 0.5 21.7-0.3 32.6 1.4l-23 23z"/>
		<path id="Layer" fill-rule="evenodd" class="s0" d="m338.4 397.8c0.8 6 5 16.1 7.5 21.2l-2.1 2.3c-1.8-6.6-7.3-16.5-8.2-22.7z"/>
		<path id="Layer" fill-rule="evenodd" class="s0" d="m355.3 392c0.9 6 3.2 13.2 5.6 18.3l-2.1 2.4c-1.8-6.7-5.3-13.8-6.2-19.9z"/>
		<path id="Layer" fill-rule="evenodd" class="s0" d="m382.5 396.3c0.6 4.9-0.5 12.7-0.2 18.9l-2.7-2.6c0.4-4.7 0.8-12 1-16.6z"/>
		<path id="Layer" fill-rule="evenodd" class="s0" d="m384 414.6l31.3-15 0.7 2-32 16z"/>
		<path id="Layer" fill-rule="evenodd" class="s0" d="m323.5 405.2c0.9 6.1 4.7 18.1 7.2 23.1l-2.1 2.4c-1.8-6.7-6.9-18.5-7.9-24.6z"/>
		<path id="Layer" fill-rule="evenodd" class="s0" d="m288.7 391.4c0 0-4.5 2.4-6.8 3.9-2.4 1.5-7.4 4.1-7.4 4.1 0 0-0.6 4.2 0.3 5.7 0.9 1.4 4.4 2.6 4.4 4.7 0 2-2.3 20.1-3.5 25.3-0.5 2.1 0.3 3 0.9 4.8 0.5 1.8 1.7 2.1 3.4 4.5 1.8 2.3 1.7 5.8 2.2 9.6 0.3 2.7 3.5 11 9.6 12.7 4.8 1.3 10.7-0.5 19.6-4.4 7.4-3.2 14.8-2.5 22.5-0.7 7.7 1.8 11.7 4.5 21.5 2.5 5.4-1.2 10.5-4.1 17.3-5 6.8-0.9 5.9-1 5.9-1 0 0 6.4-9.8 10.1-19.6 1.9-5.1 1.8-12.2 1.8-12.2 0 0-10.6-23.9-18.8-22.3-7.2 1.4-21.6 10.8-33.8 18.1-10.7 6.6-14.9 10.1-21.2 15.4-2.9 2.5-9.5 6.9-18.7 5.5-8.2-1.2-9.2-1.1-14-4.6-4.6-3.4-6.9-3.8-6.9-3.8 0 0 0.9-3.9 1.8-5 0.9-1.2 8-6.7 10.9-9 3.8-3.1 6.5-5 6.5-5 0 0-1.2-3.7-2.7-7-1.4-3.2-0.9-0.8-2.4-6.4-1.5-5.7-2.5-10.8-2.5-10.8z"/>
		<path id="Layer" fill-rule="evenodd" class="s0" d="m518.6 261.9c-5.6 0.6-10.9 5-10.9 5 0 0 6.2 0.9 10.3 5.6 4.1 4.7 5.9 7.4 7.1 12.7 1.2 5.3-0.3 20.3-1.2 22.1-0.9 1.8-3.3-0.2-3.6 1.2-0.3 2.1-0.3 7.1-1.7 11.5-1.5 4.5-6.2 8-6.2 8 0 0-0.9-11.8-2.6-16.5-1.9-4.8-9.8-9.8-11.3-10.1-1.5-0.3-0.6 2.7-0.9 6.2-0.3 3.6 3 7.1-2.6 5.6-4.2-1.1-6.2-1.6-7-1.9 0.4 0.3 0.7 1.5 0.2 5.2-0.9 5.9-5.8 12-9.5 15.2-2.1 1.8 1.9-10-2.9-16.1-4.7-6.2-8-8.5-9.7-8.9-1.8-0.3-4.5 21-5.1 24.5-0.6 3.6-0.9 4.5-0.9 4.5 0 0-4.1-1.2-5.9-8.3-1.7-7.1-0.3-28 1.2-30.4 1.5-2.4-3.3-4.1-4.1-1.2-1.5 5.3-5 13.9-5.7 23-0.3 5.1-2.6 23.1-2.6 23.1 0 0-2.9-2.4-5.3-10.4-2.3-7.9-3-16.2-3-16.2 0 0-2.9-0.3-3.8 3-0.9 3.2-2 5.9-0.9 13.5l0.9 7.1c0 0-2.9 0-7.9-5-5.1-5-6-6.5-6.8-11.8-0.9-5.3 1.1-14.8 1.1-14.8 0 0-5.3-2.4-6.4-9.4-0.4-1.9-0.4-2.7-2.1-3.8-1.8-1.2-5.3-5.7-5-8.9 0.2-3.3-2.7-12.9 4.1-22.7 3.6-5.3 5.6-8.6 7.6-10.1 3.6-2.4 5.8-4 8.3-5.6 6.6-3.9 13.3-4.1 13.3-4.1 0 0 1.5-1.2 0.6-2.4-0.8-1.1-0.8-2-3.2-2.3-2.4-0.3-5.6 0-9.2 3.2-3.5 3.3-9.1 10.7-9.1 10.7 0 0-3.4-1-3-5.4 0.6-5.9 3.8-11.6 9.1-16.5 6-5.3 10.7-7.1 14.6-7.7 3.8-0.6 2.4-0.2 3.2-2.6 0.9-3 4.7-6.7 11.8-7.4 1.1-0.2 2.9-0.6 2.7 3.2-0.4 3.9-1.3 3.6-0.9 8.6 0.2 5 0 6.8 1.4 8.6 1.5 1.7 2.1 2 2.4 0.9 0.3-1.2 1.2-5.4 1.2-8.9 0-3.5-2.4-8 0-11.2 1.3-1.9 7.9-4.1 11.5-1.8 3.5 2.4 4.4 7.1 4.4 7.1 0 0 0.9 1.8 2.7-0.6 1.7-2.4 3.5-7.7 9.7-5.6 6.2 2.1 10.9 6.8 13 9.7 2 3 2.7 5.9 2.7 5.9 0 0-9.2-4.6-11.9-2.9-2.6 1.8-3.2 0.9-4.7 6.2-1.5 5.3-0.5 5-4.1 10.3-3.6 5.3-7.4 8-8 9.5-0.6 1.5-0.9 3.5-0.9 3.5 0 0 6.8-3.8 11.8-9.2 5.1-5.2 10.4-11.5 14.8-13.2 4.4-1.8 10.1-1.5 15.4 1.2 5.2 2.6 13.5 11.5 13.5 11.5 0 0-4.7-0.9-8.5-1.8-3.9-0.9-8-1.8-11.6 0.9-3.5 2.6-5.6 5.6-5.6 5.6 0 0 3.9-2.4 11.6-3 7.6-0.6 10.6 1.5 15 6.3 4.4 4.7 6.5 12.6 6.5 12.6 0 0-3.5-1.2-7.1-2-3.5-0.9-4.7-2.4-10.3-1.8zm-83.2 0.6c-3-1.8-14.5 0.6-17.8 3.2-3.2 2.7-4.7 8.3-5.3 12.7-0.6 4.4 0.3 6.5 0.3 6.5 0 0 4.4-7.1 6.8-10.6 1.7-2.4 2.4-3.5 3.2-4.3 0.9-0.8 2-1.4 5.1-3.1 5.9-3.2 10-3.1 7.7-4.4zm54-1.8c2.9-3.2 5.6-5.3 6.8-6.5 3.5-3.5-2.7-2-5.9 0-10.7 6.8-8.3 13-8.3 13 0 0 4.4-3.2 7.4-6.5zm18.3 23.3c-7.1-4.4-10.1-4.1-13.9-3.5-3.8 0.6-2.4 4.4-2.4 4.4 0 0 3.3 0.9 7.7 1.8 4.4 0.9 7.7 1.7 12.1 6.5 5.9 6.2 7.4 9.7 7.4 9.7 0 0 0.3-2.3-0.3-6.2-0.6-3.8-3.6-8.3-10.6-12.7z"/>
		<path id="Layer" fill-rule="evenodd" class="s0" d="m298.1 196.7c0 0 18.4 26.6 47.1 71 9.1 14.2 42.5 59.1 44.5 70.7 0.4 2.6 2.3 60.8 2.3 60.8l0.3 7.7c0 0-14.3-18.2-44-11.6-17.4 3.8-39.4 17.8-39.8 42.9-22.8-38.6-31.2-81.2-30.7-124.3 0.6-43.8 9.4-84.8 18.7-115.3 0.8-2.1 1.6-1.9 1.6-1.9z"/>
		<g id="Layer">
			<path id="Layer" fill-rule="evenodd" class="s0" d="m276.3 472.6c0 0 18 5.6 26.2 3.3 5.1-1.5 10-7.1 19.7-7.1 9.8 0 13.7 5.1 26.7 5.9 13 0.9 16.9-5 21-6.2 4.2-1.2 9.2-4 20.7-0.2 8.5 2.8 14 6.4 20.2 6.4 6.2 0 18-3.9 22.5-5.3 4.6-1.4 10.7-1.1 16.3 0.2 5.3 1.2 11.1 3.6 18.8 3.9 10.8 0.5 30.1-6.9 35.2-6.9 6.2 0 17.7 5.6 17.7 5.6l-2.6 2.4c0 0-8.6-5.3-15.1-5.3-8.6 0-18.2 7-31 7.7-10.4 0.7-22-6.5-34-5.4-5 0.5-19.5 7-26.3 7-6.8 0-26-9.7-30.9-9.7-10.1 0-16.2 8.2-27.1 9.3-9.7 1.1-22.8-6.6-33.2-6.2-7.8 0.3-12.1 6.4-15.5 7.4-10.1 2.9-22-1.6-22-1.6z"/>
			<path id="Layer" fill-rule="evenodd" class="s0" d="m297.4 488.2c5.1-1.4 15.1-9.7 24.8-9.7 9.8 0 13.7 5 26.7 5.9 13 0.9 16.9-5 21-6.3 4.2-1.1 9.2-3.9 20.7-0.1 8.5 2.8 14 6.4 20.2 6.4 6.2 0 18-4 22.5-5.3 4.6-1.5 10.7-1.1 16.3 0.1 5.3 1.2 11.1 3.2 18.8 4 15.4 1.6 33-8.4 44.2-4.2 2.2 0.9-1.1 3.7-3.1 2.6-4.6-2.6-24.1 4.4-36.9 5.1-10.4 0.7-22-6.6-34-5.4-5 0.5-19.5 7-26.3 7-6.8 0-26-9.7-30.9-9.7-10.1 0-16.2 8.1-27.1 9.3-9.7 1-22.8-6.6-33.2-6.2-7.8 0.3-17.5 7.7-20.6 9.3z"/>
			<path id="Layer" fill-rule="evenodd" class="s0" d="m306.6 495.7c4.1-2.3 5.9-5.6 15.6-6.4 13.6-1 13.7 5.1 26.7 5.9 13 0.9 16.9-5 21-6.2 4.2-1.2 9.2-4 20.7-0.2 8.5 2.8 14 6.4 20.2 6.4 6.2 0 18-3.9 22.5-5.3 4.6-1.4 10.7-1.1 16.3 0.2 5.3 1.1 11.1 3.6 18.8 3.9 10.8 0.5 29-7.6 34-6.9l-5 3.5c-8.6 0-13.6 5.7-26.3 6.9-11.6 1.2-20.5-6.5-32.5-5.4-5 0.5-19.5 7-26.3 7-6.8 0-26-9.7-30.9-9.7-10.1 0-16.2 8.1-27 9.3-9.8 1-23-8.1-33.3-6.2-6.2 1.2-8.3 4.4-11.7 5.3z"/>
			<path id="Layer" fill-rule="evenodd" class="s0" d="m315.1 501.8c13.9-3.9 20.8 2.6 33.8 3.5 13 0.9 16.9-5.1 21-6.3 4.2-1.1 9.2-3.9 20.7-0.1 8.5 2.8 14 6.4 20.2 6.4 6.2 0 18-4 22.5-5.4 4.6-1.4 10.7-1 16.3 0.2 5.3 1.2 19.7 4.9 27.4 5.2l-4.3 2.3c-10.9-0.4-22.1-6.6-34.1-5.4-5 0.5-19.5 6.9-26.3 6.9-6.8 0-25.9-9.6-30.9-9.6-10.1 0-16.3 7.8-27 9.3-14.4 1.9-22.8-8.2-33.7-4.3z"/>
			<path id="Layer" fill-rule="evenodd" class="s0" d="m331.9 512c9.7 0 3.6 2 16.6 2.9 13 0.9 17.3-5 21.4-6.2 4.2-1.2 9.2-3.9 20.7-0.2 8.5 2.8 14 6.4 20.2 6.4 6.2 0 18-3.9 22.5-5.3 4.6-1.4 10.7-1.1 16.3 0.2 5.3 1.2 7.1 1.6 14.6 2.9 2.4 0.4-3.2 2.2-3.2 2.2-8.8 0-10.4-4.2-22.4-3.1-5 0.5-19.5 7-26.3 7-6.8 0-26-9.7-30.9-9.7-10.1 0-16.2 8.2-27 9.3-9.8 1.1-11.7-2.7-17.1-2.7z"/>
			<path id="Layer" fill-rule="evenodd" class="s0" d="m352.8 524.6c12.8 0 14.3-3.8 18.1-5.6 3.8-1.7 8.2-4.2 19.7-0.4 8.5 2.8 14 6.4 20.2 6.4 6.2 0 18-4 22.5-5.4 4.6-1.4 13.9-0.1 19.5 1.1l-5.1 3.1c-10.1-3.5-28.6 5.1-35.4 5.1-6.8 0-26-9.8-30.9-9.7-11.2 0.2-11.3 7.8-23.5 9z"/>
			<path id="Layer" fill-rule="evenodd" class="s0" d="m364.2 532.3c6.7-1.3 7.7-3.9 11.8-5.2 3.1-0.9 3.3-1.5 14.8 2.3 8.5 2.8 14.5 6.9 20.7 6.9 6.1 0 18.2-8 22.4-5.3 0.8 0.3-3.4 2.3-3.4 2.3-7.4 0.6-11.4 5.6-19.5 5.6-8.5 0-26.1-10.1-31.1-9.1-9.6 1.9-7 2.5-11.1 4.3z"/>
			<path id="Layer" fill-rule="evenodd" class="s0" d="m374.8 537.6c2.2-0.6 2.4-3.1 13.8 0.7 8.6 2.8 14 6.4 20.2 6.4l-3 1.7c-6.8 0-20.3-7.3-27.1-6.9z"/>
			<path id="Layer" fill-rule="evenodd" class="s0" d="m263.9 462.8c0 0 14.5-5.3 20.1-1.8 4.4 2.8 6.5 5.9 12.9 5.4 7.5-0.5 13.9-5.8 24.2-6.8 4.8-0.4 10.7 0.3 17.4 2.1 6.8 1.8 11.9 3.9 22.8-0.5 7-2.9 12.6-6 24.2-3.9 11.5 2 18.9 6.3 25.7 6.3 7.4 0 24.6-4.5 35.6-2.4 8.8 1.7 18.1 4.2 25.5 3.9 8.1-0.4 22.4-5.3 31.5-6.4 7.5-1.3 24.4 1.6 28.8 4.1 4.7 1.4 1 0.7 1 0.7l-3.5 3c0 0-4.4-2.2-8.4-3.4-3.8-1.1-8.6-3.7-17.8-1.9-9.1 1.8-23.1 6.2-31.3 6.2-10 0-21.3-1.7-29-3.5-7.6-1.8-26.2 3-32.8 2.7-9.9-0.4-20.7-7.9-34.6-7.1-7.5 0.4-14.3 6.3-22.8 7.1-12.1 1.1-13.4-1.5-20.7-2.7-7.4-1.2-12.4-2.8-20.7 0.8-8.3 3.5-13.2 4.6-16.4 4.6-3.3 0-6.8-1.2-10.1-3.5-3.7-2.5-8.9-2-10.6-2.3-1.8-0.3-6.8 2.3-6.8 2.3z"/>
		</g>
		<g id="Layer">
			<path id="Layer" fill-rule="evenodd" class="s0" d="m193.9 385.9c0 0 10.8 29.9 29.8 52.5 15.2 18 30.1 34 54.5 54.1 29.1 24.1 85 63.5 120.5 75.4 20.9 6.9 44.6 16 44.6 16 2.7 2.1 3.6 4.2 2.7 6.8-0.9 2.6-3.9 5-6.5 8.6-2.7 3.5-3.1 6.5-1.5 8.5 1.6 2 3.9 4.4 9.2 2.4 6.8-2.8 6.1-5.3 8.5-11.5 2.4-6.2 1.8-12.2 1.8-12.2 0 0 4.4-1.1 7.2 0.4 3.5 1.7 7.2 0.4 13.1 1.3 5.9 0.9 11.5-1.1 13 1.3 1.5 2.4 3 5.6 6.9 6.3 5 0.9 9.4 0.4 11.7-3.1 2.7-3.9 3-9.5-0.9-14.1-2.9-3.6-9.1-4.7-19.5-6.5-10.3-1.8-16.7-0.9-19.4-2.7-2.7-1.7-4.4-2.9-4.2-5.3 0.4-2.3-0.5-4.4 1.8-7.9 2.4-3.6 3-4.8 5.3-7.1 2.4-2.4 1.2-6.5-1.4-8.3-2.7-1.8-10.1-1.8-12.7 3-2.7 4.7-3.6 6.1-3.9 12.4-0.3 6.2 0 5.8-0.6 7.9-1.1 4.7-4.9 4.1-13.5 1.5-31.2-9.6-51.9-18.8-82.4-36.6-45-26.2-92.7-60.2-127.8-98.2-15.6-16.7-36.3-44.9-36.3-44.9z"/>
			<path id="Layer" fill-rule="evenodd" class="s0" d="m604.3 385.9c0 0-10.8 29.9-29.8 52.5-15.2 18-30.2 34-54.5 54.1-29.1 24.1-85.1 63.5-120.6 75.4-20.9 6.9-44.6 16-44.6 16-2.6 2.1-3.5 4.2-2.6 6.8 0.9 2.6 3.8 5 6.5 8.6 2.7 3.5 3.1 6.5 1.5 8.5-1.7 2-3.9 4.4-9.2 2.4-6.9-2.8-6.2-5.3-8.5-11.5-2.4-6.2-1.9-12.2-1.9-12.2 0 0-4.3-1.1-7.2 0.4-3.5 1.7-8.6 1.9-14.6 2.8-5.9 0.9-10-2.6-11.5-0.2-1.5 2.4-3 5.6-6.9 6.3-4.9 0.9-9.3 0.4-11.7-3.1-2.7-3.9-3-9.5 0.9-14.1 3-3.6 9.2-4.7 19.5-6.5 10.3-1.8 16.8-0.1 19.5-1.9 2.6-1.8 4.4-3.7 4.1-6.1-0.3-2.3 0.6-4.4-1.7-7.9-2.4-3.6-3-4.8-5.4-7.1-2.3-2.4-1.1-6.5 1.5-8.3 2.7-1.8 10-1.8 12.7 3 2.7 4.7 3.5 6.1 3.8 12.4 0.3 6.2 0 5.8 0.7 7.9 1.1 4.7 4.9 4.1 13.5 1.5 31.2-9.6 51.9-18.8 82.4-36.6 45-26.2 92.6-60.2 127.8-98.2 15.5-16.7 36.3-44.9 36.3-44.9z"/>
		</g>
	</g>
</svg>